G04 #@! TF.GenerationSoftware,KiCad,Pcbnew,(5.1.2)-2*
G04 #@! TF.CreationDate,2022-11-28T00:10:08+09:00*
G04 #@! TF.ProjectId,manufacture,6d616e75-6661-4637-9475-72652e6b6963,rev?*
G04 #@! TF.SameCoordinates,Original*
G04 #@! TF.FileFunction,Copper,L2,Bot*
G04 #@! TF.FilePolarity,Positive*
%FSLAX46Y46*%
G04 Gerber Fmt 4.6, Leading zero omitted, Abs format (unit mm)*
G04 Created by KiCad (PCBNEW (5.1.2)-2) date 2022-11-28 00:10:08*
%MOMM*%
%LPD*%
G04 APERTURE LIST*
%ADD10C,1.524000*%
%ADD11C,3.500000*%
%ADD12O,1.700000X1.700000*%
%ADD13R,1.700000X1.700000*%
%ADD14C,0.100000*%
%ADD15C,1.250000*%
%ADD16C,1.000000*%
%ADD17C,1.000000*%
%ADD18C,0.400000*%
G04 APERTURE END LIST*
D10*
X88900000Y-57150000D03*
X88900000Y-52070000D03*
X88900000Y-46990000D03*
X88900000Y-44450000D03*
X81280000Y-44450000D03*
X81280000Y-46990000D03*
X81280000Y-52070000D03*
X81280000Y-57150000D03*
X81280000Y-59690000D03*
X81280000Y-64770000D03*
X81280000Y-69850000D03*
X81280000Y-72390000D03*
X88900000Y-72390000D03*
X88900000Y-69850000D03*
X88900000Y-64770000D03*
X88900000Y-59690000D03*
X149860000Y-57150000D03*
X149860000Y-52070000D03*
X149860000Y-46990000D03*
X149860000Y-44450000D03*
X142240000Y-44450000D03*
X142240000Y-46990000D03*
X142240000Y-52070000D03*
X142240000Y-57150000D03*
D11*
X160020000Y-76200000D03*
X160020000Y-40640000D03*
X40640000Y-76200000D03*
X40640000Y-40640000D03*
D12*
X106680000Y-40005000D03*
X104140000Y-40005000D03*
X101600000Y-40005000D03*
X99060000Y-40005000D03*
X96520000Y-40005000D03*
X93980000Y-40005000D03*
X91440000Y-40005000D03*
X88900000Y-40005000D03*
X86360000Y-40005000D03*
X83820000Y-40005000D03*
X81280000Y-40005000D03*
D13*
X78740000Y-40005000D03*
D10*
X99060000Y-57150000D03*
X99060000Y-52070000D03*
X99060000Y-46990000D03*
X99060000Y-44450000D03*
X91440000Y-44450000D03*
X91440000Y-46990000D03*
X91440000Y-52070000D03*
X91440000Y-57150000D03*
X91440000Y-59690000D03*
X91440000Y-64770000D03*
X91440000Y-69850000D03*
X91440000Y-72390000D03*
X99060000Y-72390000D03*
X99060000Y-69850000D03*
X99060000Y-64770000D03*
X99060000Y-59690000D03*
X139700000Y-57150000D03*
X139700000Y-52070000D03*
X139700000Y-46990000D03*
X139700000Y-44450000D03*
X132080000Y-44450000D03*
X132080000Y-46990000D03*
X132080000Y-52070000D03*
X132080000Y-57150000D03*
X132080000Y-59690000D03*
X132080000Y-64770000D03*
X132080000Y-69850000D03*
X132080000Y-72390000D03*
X139700000Y-72390000D03*
X139700000Y-69850000D03*
X139700000Y-64770000D03*
X139700000Y-59690000D03*
D14*
G36*
X145049504Y-56276204D02*
G01*
X145073773Y-56279804D01*
X145097571Y-56285765D01*
X145120671Y-56294030D01*
X145142849Y-56304520D01*
X145163893Y-56317133D01*
X145183598Y-56331747D01*
X145201777Y-56348223D01*
X145218253Y-56366402D01*
X145232867Y-56386107D01*
X145245480Y-56407151D01*
X145255970Y-56429329D01*
X145264235Y-56452429D01*
X145270196Y-56476227D01*
X145273796Y-56500496D01*
X145275000Y-56525000D01*
X145275000Y-57775000D01*
X145273796Y-57799504D01*
X145270196Y-57823773D01*
X145264235Y-57847571D01*
X145255970Y-57870671D01*
X145245480Y-57892849D01*
X145232867Y-57913893D01*
X145218253Y-57933598D01*
X145201777Y-57951777D01*
X145183598Y-57968253D01*
X145163893Y-57982867D01*
X145142849Y-57995480D01*
X145120671Y-58005970D01*
X145097571Y-58014235D01*
X145073773Y-58020196D01*
X145049504Y-58023796D01*
X145025000Y-58025000D01*
X144275000Y-58025000D01*
X144250496Y-58023796D01*
X144226227Y-58020196D01*
X144202429Y-58014235D01*
X144179329Y-58005970D01*
X144157151Y-57995480D01*
X144136107Y-57982867D01*
X144116402Y-57968253D01*
X144098223Y-57951777D01*
X144081747Y-57933598D01*
X144067133Y-57913893D01*
X144054520Y-57892849D01*
X144044030Y-57870671D01*
X144035765Y-57847571D01*
X144029804Y-57823773D01*
X144026204Y-57799504D01*
X144025000Y-57775000D01*
X144025000Y-56525000D01*
X144026204Y-56500496D01*
X144029804Y-56476227D01*
X144035765Y-56452429D01*
X144044030Y-56429329D01*
X144054520Y-56407151D01*
X144067133Y-56386107D01*
X144081747Y-56366402D01*
X144098223Y-56348223D01*
X144116402Y-56331747D01*
X144136107Y-56317133D01*
X144157151Y-56304520D01*
X144179329Y-56294030D01*
X144202429Y-56285765D01*
X144226227Y-56279804D01*
X144250496Y-56276204D01*
X144275000Y-56275000D01*
X145025000Y-56275000D01*
X145049504Y-56276204D01*
X145049504Y-56276204D01*
G37*
D15*
X144650000Y-57150000D03*
D14*
G36*
X147849504Y-56276204D02*
G01*
X147873773Y-56279804D01*
X147897571Y-56285765D01*
X147920671Y-56294030D01*
X147942849Y-56304520D01*
X147963893Y-56317133D01*
X147983598Y-56331747D01*
X148001777Y-56348223D01*
X148018253Y-56366402D01*
X148032867Y-56386107D01*
X148045480Y-56407151D01*
X148055970Y-56429329D01*
X148064235Y-56452429D01*
X148070196Y-56476227D01*
X148073796Y-56500496D01*
X148075000Y-56525000D01*
X148075000Y-57775000D01*
X148073796Y-57799504D01*
X148070196Y-57823773D01*
X148064235Y-57847571D01*
X148055970Y-57870671D01*
X148045480Y-57892849D01*
X148032867Y-57913893D01*
X148018253Y-57933598D01*
X148001777Y-57951777D01*
X147983598Y-57968253D01*
X147963893Y-57982867D01*
X147942849Y-57995480D01*
X147920671Y-58005970D01*
X147897571Y-58014235D01*
X147873773Y-58020196D01*
X147849504Y-58023796D01*
X147825000Y-58025000D01*
X147075000Y-58025000D01*
X147050496Y-58023796D01*
X147026227Y-58020196D01*
X147002429Y-58014235D01*
X146979329Y-58005970D01*
X146957151Y-57995480D01*
X146936107Y-57982867D01*
X146916402Y-57968253D01*
X146898223Y-57951777D01*
X146881747Y-57933598D01*
X146867133Y-57913893D01*
X146854520Y-57892849D01*
X146844030Y-57870671D01*
X146835765Y-57847571D01*
X146829804Y-57823773D01*
X146826204Y-57799504D01*
X146825000Y-57775000D01*
X146825000Y-56525000D01*
X146826204Y-56500496D01*
X146829804Y-56476227D01*
X146835765Y-56452429D01*
X146844030Y-56429329D01*
X146854520Y-56407151D01*
X146867133Y-56386107D01*
X146881747Y-56366402D01*
X146898223Y-56348223D01*
X146916402Y-56331747D01*
X146936107Y-56317133D01*
X146957151Y-56304520D01*
X146979329Y-56294030D01*
X147002429Y-56285765D01*
X147026227Y-56279804D01*
X147050496Y-56276204D01*
X147075000Y-56275000D01*
X147825000Y-56275000D01*
X147849504Y-56276204D01*
X147849504Y-56276204D01*
G37*
D15*
X147450000Y-57150000D03*
D12*
X160020000Y-67310000D03*
X160020000Y-64770000D03*
X160020000Y-62230000D03*
D13*
X160020000Y-59690000D03*
D10*
X119380000Y-57150000D03*
X119380000Y-52070000D03*
X119380000Y-46990000D03*
X119380000Y-44450000D03*
X111760000Y-44450000D03*
X111760000Y-46990000D03*
X111760000Y-52070000D03*
X111760000Y-57150000D03*
X111760000Y-59690000D03*
X111760000Y-64770000D03*
X111760000Y-69850000D03*
X111760000Y-72390000D03*
X119380000Y-72390000D03*
X119380000Y-69850000D03*
X119380000Y-64770000D03*
X119380000Y-59690000D03*
X109220000Y-57150000D03*
X109220000Y-52070000D03*
X109220000Y-46990000D03*
X109220000Y-44450000D03*
X101600000Y-44450000D03*
X101600000Y-46990000D03*
X101600000Y-52070000D03*
X101600000Y-57150000D03*
X101600000Y-59690000D03*
X101600000Y-64770000D03*
X101600000Y-69850000D03*
X101600000Y-72390000D03*
X109220000Y-72390000D03*
X109220000Y-69850000D03*
X109220000Y-64770000D03*
X109220000Y-59690000D03*
D12*
X156210000Y-72390000D03*
X156210000Y-69850000D03*
D13*
X156210000Y-67310000D03*
D10*
X142240000Y-59690000D03*
X142240000Y-64770000D03*
X142240000Y-69850000D03*
X142240000Y-72390000D03*
X149860000Y-72390000D03*
X149860000Y-69850000D03*
X149860000Y-64770000D03*
X149860000Y-59690000D03*
X160020000Y-57150000D03*
X160020000Y-52070000D03*
X160020000Y-46990000D03*
X160020000Y-44450000D03*
X152400000Y-44450000D03*
X152400000Y-46990000D03*
X152400000Y-52070000D03*
X152400000Y-57150000D03*
X129540000Y-57150000D03*
X129540000Y-52070000D03*
X129540000Y-46990000D03*
X129540000Y-44450000D03*
X121920000Y-44450000D03*
X121920000Y-46990000D03*
X121920000Y-52070000D03*
X121920000Y-57150000D03*
X121920000Y-59690000D03*
X121920000Y-64770000D03*
X121920000Y-69850000D03*
X121920000Y-72390000D03*
X129540000Y-72390000D03*
X129540000Y-69850000D03*
X129540000Y-64770000D03*
X129540000Y-59690000D03*
X78740000Y-57150000D03*
X78740000Y-52070000D03*
X78740000Y-46990000D03*
X78740000Y-44450000D03*
X71120000Y-44450000D03*
X71120000Y-46990000D03*
X71120000Y-52070000D03*
X71120000Y-57150000D03*
X71120000Y-59690000D03*
X71120000Y-64770000D03*
X71120000Y-69850000D03*
X71120000Y-72390000D03*
X78740000Y-72390000D03*
X78740000Y-69850000D03*
X78740000Y-64770000D03*
X78740000Y-59690000D03*
X68580000Y-57150000D03*
X68580000Y-52070000D03*
X68580000Y-46990000D03*
X68580000Y-44450000D03*
X60960000Y-44450000D03*
X60960000Y-46990000D03*
X60960000Y-52070000D03*
X60960000Y-57150000D03*
X60960000Y-59690000D03*
X60960000Y-64770000D03*
X60960000Y-69850000D03*
X60960000Y-72390000D03*
X68580000Y-72390000D03*
X68580000Y-69850000D03*
X68580000Y-64770000D03*
X68580000Y-59690000D03*
X58420000Y-57150000D03*
X58420000Y-52070000D03*
X58420000Y-46990000D03*
X58420000Y-44450000D03*
X50800000Y-44450000D03*
X50800000Y-46990000D03*
X50800000Y-52070000D03*
X50800000Y-57150000D03*
X50800000Y-59690000D03*
X50800000Y-64770000D03*
X50800000Y-69850000D03*
X50800000Y-72390000D03*
X58420000Y-72390000D03*
X58420000Y-69850000D03*
X58420000Y-64770000D03*
X58420000Y-59690000D03*
X48260000Y-57150000D03*
X48260000Y-52070000D03*
X48260000Y-46990000D03*
X48260000Y-44450000D03*
X40640000Y-44450000D03*
X40640000Y-46990000D03*
X40640000Y-52070000D03*
X40640000Y-57150000D03*
X40640000Y-59690000D03*
X40640000Y-64770000D03*
X40640000Y-69850000D03*
X40640000Y-72390000D03*
X48260000Y-72390000D03*
X48260000Y-69850000D03*
X48260000Y-64770000D03*
X48260000Y-59690000D03*
D14*
G36*
X155209504Y-56276204D02*
G01*
X155233773Y-56279804D01*
X155257571Y-56285765D01*
X155280671Y-56294030D01*
X155302849Y-56304520D01*
X155323893Y-56317133D01*
X155343598Y-56331747D01*
X155361777Y-56348223D01*
X155378253Y-56366402D01*
X155392867Y-56386107D01*
X155405480Y-56407151D01*
X155415970Y-56429329D01*
X155424235Y-56452429D01*
X155430196Y-56476227D01*
X155433796Y-56500496D01*
X155435000Y-56525000D01*
X155435000Y-57775000D01*
X155433796Y-57799504D01*
X155430196Y-57823773D01*
X155424235Y-57847571D01*
X155415970Y-57870671D01*
X155405480Y-57892849D01*
X155392867Y-57913893D01*
X155378253Y-57933598D01*
X155361777Y-57951777D01*
X155343598Y-57968253D01*
X155323893Y-57982867D01*
X155302849Y-57995480D01*
X155280671Y-58005970D01*
X155257571Y-58014235D01*
X155233773Y-58020196D01*
X155209504Y-58023796D01*
X155185000Y-58025000D01*
X154435000Y-58025000D01*
X154410496Y-58023796D01*
X154386227Y-58020196D01*
X154362429Y-58014235D01*
X154339329Y-58005970D01*
X154317151Y-57995480D01*
X154296107Y-57982867D01*
X154276402Y-57968253D01*
X154258223Y-57951777D01*
X154241747Y-57933598D01*
X154227133Y-57913893D01*
X154214520Y-57892849D01*
X154204030Y-57870671D01*
X154195765Y-57847571D01*
X154189804Y-57823773D01*
X154186204Y-57799504D01*
X154185000Y-57775000D01*
X154185000Y-56525000D01*
X154186204Y-56500496D01*
X154189804Y-56476227D01*
X154195765Y-56452429D01*
X154204030Y-56429329D01*
X154214520Y-56407151D01*
X154227133Y-56386107D01*
X154241747Y-56366402D01*
X154258223Y-56348223D01*
X154276402Y-56331747D01*
X154296107Y-56317133D01*
X154317151Y-56304520D01*
X154339329Y-56294030D01*
X154362429Y-56285765D01*
X154386227Y-56279804D01*
X154410496Y-56276204D01*
X154435000Y-56275000D01*
X155185000Y-56275000D01*
X155209504Y-56276204D01*
X155209504Y-56276204D01*
G37*
D15*
X154810000Y-57150000D03*
D14*
G36*
X158009504Y-56276204D02*
G01*
X158033773Y-56279804D01*
X158057571Y-56285765D01*
X158080671Y-56294030D01*
X158102849Y-56304520D01*
X158123893Y-56317133D01*
X158143598Y-56331747D01*
X158161777Y-56348223D01*
X158178253Y-56366402D01*
X158192867Y-56386107D01*
X158205480Y-56407151D01*
X158215970Y-56429329D01*
X158224235Y-56452429D01*
X158230196Y-56476227D01*
X158233796Y-56500496D01*
X158235000Y-56525000D01*
X158235000Y-57775000D01*
X158233796Y-57799504D01*
X158230196Y-57823773D01*
X158224235Y-57847571D01*
X158215970Y-57870671D01*
X158205480Y-57892849D01*
X158192867Y-57913893D01*
X158178253Y-57933598D01*
X158161777Y-57951777D01*
X158143598Y-57968253D01*
X158123893Y-57982867D01*
X158102849Y-57995480D01*
X158080671Y-58005970D01*
X158057571Y-58014235D01*
X158033773Y-58020196D01*
X158009504Y-58023796D01*
X157985000Y-58025000D01*
X157235000Y-58025000D01*
X157210496Y-58023796D01*
X157186227Y-58020196D01*
X157162429Y-58014235D01*
X157139329Y-58005970D01*
X157117151Y-57995480D01*
X157096107Y-57982867D01*
X157076402Y-57968253D01*
X157058223Y-57951777D01*
X157041747Y-57933598D01*
X157027133Y-57913893D01*
X157014520Y-57892849D01*
X157004030Y-57870671D01*
X156995765Y-57847571D01*
X156989804Y-57823773D01*
X156986204Y-57799504D01*
X156985000Y-57775000D01*
X156985000Y-56525000D01*
X156986204Y-56500496D01*
X156989804Y-56476227D01*
X156995765Y-56452429D01*
X157004030Y-56429329D01*
X157014520Y-56407151D01*
X157027133Y-56386107D01*
X157041747Y-56366402D01*
X157058223Y-56348223D01*
X157076402Y-56331747D01*
X157096107Y-56317133D01*
X157117151Y-56304520D01*
X157139329Y-56294030D01*
X157162429Y-56285765D01*
X157186227Y-56279804D01*
X157210496Y-56276204D01*
X157235000Y-56275000D01*
X157985000Y-56275000D01*
X158009504Y-56276204D01*
X158009504Y-56276204D01*
G37*
D15*
X157610000Y-57150000D03*
D14*
G36*
X147849504Y-58816204D02*
G01*
X147873773Y-58819804D01*
X147897571Y-58825765D01*
X147920671Y-58834030D01*
X147942849Y-58844520D01*
X147963893Y-58857133D01*
X147983598Y-58871747D01*
X148001777Y-58888223D01*
X148018253Y-58906402D01*
X148032867Y-58926107D01*
X148045480Y-58947151D01*
X148055970Y-58969329D01*
X148064235Y-58992429D01*
X148070196Y-59016227D01*
X148073796Y-59040496D01*
X148075000Y-59065000D01*
X148075000Y-60315000D01*
X148073796Y-60339504D01*
X148070196Y-60363773D01*
X148064235Y-60387571D01*
X148055970Y-60410671D01*
X148045480Y-60432849D01*
X148032867Y-60453893D01*
X148018253Y-60473598D01*
X148001777Y-60491777D01*
X147983598Y-60508253D01*
X147963893Y-60522867D01*
X147942849Y-60535480D01*
X147920671Y-60545970D01*
X147897571Y-60554235D01*
X147873773Y-60560196D01*
X147849504Y-60563796D01*
X147825000Y-60565000D01*
X147075000Y-60565000D01*
X147050496Y-60563796D01*
X147026227Y-60560196D01*
X147002429Y-60554235D01*
X146979329Y-60545970D01*
X146957151Y-60535480D01*
X146936107Y-60522867D01*
X146916402Y-60508253D01*
X146898223Y-60491777D01*
X146881747Y-60473598D01*
X146867133Y-60453893D01*
X146854520Y-60432849D01*
X146844030Y-60410671D01*
X146835765Y-60387571D01*
X146829804Y-60363773D01*
X146826204Y-60339504D01*
X146825000Y-60315000D01*
X146825000Y-59065000D01*
X146826204Y-59040496D01*
X146829804Y-59016227D01*
X146835765Y-58992429D01*
X146844030Y-58969329D01*
X146854520Y-58947151D01*
X146867133Y-58926107D01*
X146881747Y-58906402D01*
X146898223Y-58888223D01*
X146916402Y-58871747D01*
X146936107Y-58857133D01*
X146957151Y-58844520D01*
X146979329Y-58834030D01*
X147002429Y-58825765D01*
X147026227Y-58819804D01*
X147050496Y-58816204D01*
X147075000Y-58815000D01*
X147825000Y-58815000D01*
X147849504Y-58816204D01*
X147849504Y-58816204D01*
G37*
D15*
X147450000Y-59690000D03*
D14*
G36*
X145049504Y-58816204D02*
G01*
X145073773Y-58819804D01*
X145097571Y-58825765D01*
X145120671Y-58834030D01*
X145142849Y-58844520D01*
X145163893Y-58857133D01*
X145183598Y-58871747D01*
X145201777Y-58888223D01*
X145218253Y-58906402D01*
X145232867Y-58926107D01*
X145245480Y-58947151D01*
X145255970Y-58969329D01*
X145264235Y-58992429D01*
X145270196Y-59016227D01*
X145273796Y-59040496D01*
X145275000Y-59065000D01*
X145275000Y-60315000D01*
X145273796Y-60339504D01*
X145270196Y-60363773D01*
X145264235Y-60387571D01*
X145255970Y-60410671D01*
X145245480Y-60432849D01*
X145232867Y-60453893D01*
X145218253Y-60473598D01*
X145201777Y-60491777D01*
X145183598Y-60508253D01*
X145163893Y-60522867D01*
X145142849Y-60535480D01*
X145120671Y-60545970D01*
X145097571Y-60554235D01*
X145073773Y-60560196D01*
X145049504Y-60563796D01*
X145025000Y-60565000D01*
X144275000Y-60565000D01*
X144250496Y-60563796D01*
X144226227Y-60560196D01*
X144202429Y-60554235D01*
X144179329Y-60545970D01*
X144157151Y-60535480D01*
X144136107Y-60522867D01*
X144116402Y-60508253D01*
X144098223Y-60491777D01*
X144081747Y-60473598D01*
X144067133Y-60453893D01*
X144054520Y-60432849D01*
X144044030Y-60410671D01*
X144035765Y-60387571D01*
X144029804Y-60363773D01*
X144026204Y-60339504D01*
X144025000Y-60315000D01*
X144025000Y-59065000D01*
X144026204Y-59040496D01*
X144029804Y-59016227D01*
X144035765Y-58992429D01*
X144044030Y-58969329D01*
X144054520Y-58947151D01*
X144067133Y-58926107D01*
X144081747Y-58906402D01*
X144098223Y-58888223D01*
X144116402Y-58871747D01*
X144136107Y-58857133D01*
X144157151Y-58844520D01*
X144179329Y-58834030D01*
X144202429Y-58825765D01*
X144226227Y-58819804D01*
X144250496Y-58816204D01*
X144275000Y-58815000D01*
X145025000Y-58815000D01*
X145049504Y-58816204D01*
X145049504Y-58816204D01*
G37*
D15*
X144650000Y-59690000D03*
D14*
G36*
X127529504Y-58816204D02*
G01*
X127553773Y-58819804D01*
X127577571Y-58825765D01*
X127600671Y-58834030D01*
X127622849Y-58844520D01*
X127643893Y-58857133D01*
X127663598Y-58871747D01*
X127681777Y-58888223D01*
X127698253Y-58906402D01*
X127712867Y-58926107D01*
X127725480Y-58947151D01*
X127735970Y-58969329D01*
X127744235Y-58992429D01*
X127750196Y-59016227D01*
X127753796Y-59040496D01*
X127755000Y-59065000D01*
X127755000Y-60315000D01*
X127753796Y-60339504D01*
X127750196Y-60363773D01*
X127744235Y-60387571D01*
X127735970Y-60410671D01*
X127725480Y-60432849D01*
X127712867Y-60453893D01*
X127698253Y-60473598D01*
X127681777Y-60491777D01*
X127663598Y-60508253D01*
X127643893Y-60522867D01*
X127622849Y-60535480D01*
X127600671Y-60545970D01*
X127577571Y-60554235D01*
X127553773Y-60560196D01*
X127529504Y-60563796D01*
X127505000Y-60565000D01*
X126755000Y-60565000D01*
X126730496Y-60563796D01*
X126706227Y-60560196D01*
X126682429Y-60554235D01*
X126659329Y-60545970D01*
X126637151Y-60535480D01*
X126616107Y-60522867D01*
X126596402Y-60508253D01*
X126578223Y-60491777D01*
X126561747Y-60473598D01*
X126547133Y-60453893D01*
X126534520Y-60432849D01*
X126524030Y-60410671D01*
X126515765Y-60387571D01*
X126509804Y-60363773D01*
X126506204Y-60339504D01*
X126505000Y-60315000D01*
X126505000Y-59065000D01*
X126506204Y-59040496D01*
X126509804Y-59016227D01*
X126515765Y-58992429D01*
X126524030Y-58969329D01*
X126534520Y-58947151D01*
X126547133Y-58926107D01*
X126561747Y-58906402D01*
X126578223Y-58888223D01*
X126596402Y-58871747D01*
X126616107Y-58857133D01*
X126637151Y-58844520D01*
X126659329Y-58834030D01*
X126682429Y-58825765D01*
X126706227Y-58819804D01*
X126730496Y-58816204D01*
X126755000Y-58815000D01*
X127505000Y-58815000D01*
X127529504Y-58816204D01*
X127529504Y-58816204D01*
G37*
D15*
X127130000Y-59690000D03*
D14*
G36*
X124729504Y-58816204D02*
G01*
X124753773Y-58819804D01*
X124777571Y-58825765D01*
X124800671Y-58834030D01*
X124822849Y-58844520D01*
X124843893Y-58857133D01*
X124863598Y-58871747D01*
X124881777Y-58888223D01*
X124898253Y-58906402D01*
X124912867Y-58926107D01*
X124925480Y-58947151D01*
X124935970Y-58969329D01*
X124944235Y-58992429D01*
X124950196Y-59016227D01*
X124953796Y-59040496D01*
X124955000Y-59065000D01*
X124955000Y-60315000D01*
X124953796Y-60339504D01*
X124950196Y-60363773D01*
X124944235Y-60387571D01*
X124935970Y-60410671D01*
X124925480Y-60432849D01*
X124912867Y-60453893D01*
X124898253Y-60473598D01*
X124881777Y-60491777D01*
X124863598Y-60508253D01*
X124843893Y-60522867D01*
X124822849Y-60535480D01*
X124800671Y-60545970D01*
X124777571Y-60554235D01*
X124753773Y-60560196D01*
X124729504Y-60563796D01*
X124705000Y-60565000D01*
X123955000Y-60565000D01*
X123930496Y-60563796D01*
X123906227Y-60560196D01*
X123882429Y-60554235D01*
X123859329Y-60545970D01*
X123837151Y-60535480D01*
X123816107Y-60522867D01*
X123796402Y-60508253D01*
X123778223Y-60491777D01*
X123761747Y-60473598D01*
X123747133Y-60453893D01*
X123734520Y-60432849D01*
X123724030Y-60410671D01*
X123715765Y-60387571D01*
X123709804Y-60363773D01*
X123706204Y-60339504D01*
X123705000Y-60315000D01*
X123705000Y-59065000D01*
X123706204Y-59040496D01*
X123709804Y-59016227D01*
X123715765Y-58992429D01*
X123724030Y-58969329D01*
X123734520Y-58947151D01*
X123747133Y-58926107D01*
X123761747Y-58906402D01*
X123778223Y-58888223D01*
X123796402Y-58871747D01*
X123816107Y-58857133D01*
X123837151Y-58844520D01*
X123859329Y-58834030D01*
X123882429Y-58825765D01*
X123906227Y-58819804D01*
X123930496Y-58816204D01*
X123955000Y-58815000D01*
X124705000Y-58815000D01*
X124729504Y-58816204D01*
X124729504Y-58816204D01*
G37*
D15*
X124330000Y-59690000D03*
D14*
G36*
X117369504Y-58816204D02*
G01*
X117393773Y-58819804D01*
X117417571Y-58825765D01*
X117440671Y-58834030D01*
X117462849Y-58844520D01*
X117483893Y-58857133D01*
X117503598Y-58871747D01*
X117521777Y-58888223D01*
X117538253Y-58906402D01*
X117552867Y-58926107D01*
X117565480Y-58947151D01*
X117575970Y-58969329D01*
X117584235Y-58992429D01*
X117590196Y-59016227D01*
X117593796Y-59040496D01*
X117595000Y-59065000D01*
X117595000Y-60315000D01*
X117593796Y-60339504D01*
X117590196Y-60363773D01*
X117584235Y-60387571D01*
X117575970Y-60410671D01*
X117565480Y-60432849D01*
X117552867Y-60453893D01*
X117538253Y-60473598D01*
X117521777Y-60491777D01*
X117503598Y-60508253D01*
X117483893Y-60522867D01*
X117462849Y-60535480D01*
X117440671Y-60545970D01*
X117417571Y-60554235D01*
X117393773Y-60560196D01*
X117369504Y-60563796D01*
X117345000Y-60565000D01*
X116595000Y-60565000D01*
X116570496Y-60563796D01*
X116546227Y-60560196D01*
X116522429Y-60554235D01*
X116499329Y-60545970D01*
X116477151Y-60535480D01*
X116456107Y-60522867D01*
X116436402Y-60508253D01*
X116418223Y-60491777D01*
X116401747Y-60473598D01*
X116387133Y-60453893D01*
X116374520Y-60432849D01*
X116364030Y-60410671D01*
X116355765Y-60387571D01*
X116349804Y-60363773D01*
X116346204Y-60339504D01*
X116345000Y-60315000D01*
X116345000Y-59065000D01*
X116346204Y-59040496D01*
X116349804Y-59016227D01*
X116355765Y-58992429D01*
X116364030Y-58969329D01*
X116374520Y-58947151D01*
X116387133Y-58926107D01*
X116401747Y-58906402D01*
X116418223Y-58888223D01*
X116436402Y-58871747D01*
X116456107Y-58857133D01*
X116477151Y-58844520D01*
X116499329Y-58834030D01*
X116522429Y-58825765D01*
X116546227Y-58819804D01*
X116570496Y-58816204D01*
X116595000Y-58815000D01*
X117345000Y-58815000D01*
X117369504Y-58816204D01*
X117369504Y-58816204D01*
G37*
D15*
X116970000Y-59690000D03*
D14*
G36*
X114569504Y-58816204D02*
G01*
X114593773Y-58819804D01*
X114617571Y-58825765D01*
X114640671Y-58834030D01*
X114662849Y-58844520D01*
X114683893Y-58857133D01*
X114703598Y-58871747D01*
X114721777Y-58888223D01*
X114738253Y-58906402D01*
X114752867Y-58926107D01*
X114765480Y-58947151D01*
X114775970Y-58969329D01*
X114784235Y-58992429D01*
X114790196Y-59016227D01*
X114793796Y-59040496D01*
X114795000Y-59065000D01*
X114795000Y-60315000D01*
X114793796Y-60339504D01*
X114790196Y-60363773D01*
X114784235Y-60387571D01*
X114775970Y-60410671D01*
X114765480Y-60432849D01*
X114752867Y-60453893D01*
X114738253Y-60473598D01*
X114721777Y-60491777D01*
X114703598Y-60508253D01*
X114683893Y-60522867D01*
X114662849Y-60535480D01*
X114640671Y-60545970D01*
X114617571Y-60554235D01*
X114593773Y-60560196D01*
X114569504Y-60563796D01*
X114545000Y-60565000D01*
X113795000Y-60565000D01*
X113770496Y-60563796D01*
X113746227Y-60560196D01*
X113722429Y-60554235D01*
X113699329Y-60545970D01*
X113677151Y-60535480D01*
X113656107Y-60522867D01*
X113636402Y-60508253D01*
X113618223Y-60491777D01*
X113601747Y-60473598D01*
X113587133Y-60453893D01*
X113574520Y-60432849D01*
X113564030Y-60410671D01*
X113555765Y-60387571D01*
X113549804Y-60363773D01*
X113546204Y-60339504D01*
X113545000Y-60315000D01*
X113545000Y-59065000D01*
X113546204Y-59040496D01*
X113549804Y-59016227D01*
X113555765Y-58992429D01*
X113564030Y-58969329D01*
X113574520Y-58947151D01*
X113587133Y-58926107D01*
X113601747Y-58906402D01*
X113618223Y-58888223D01*
X113636402Y-58871747D01*
X113656107Y-58857133D01*
X113677151Y-58844520D01*
X113699329Y-58834030D01*
X113722429Y-58825765D01*
X113746227Y-58819804D01*
X113770496Y-58816204D01*
X113795000Y-58815000D01*
X114545000Y-58815000D01*
X114569504Y-58816204D01*
X114569504Y-58816204D01*
G37*
D15*
X114170000Y-59690000D03*
D14*
G36*
X107209504Y-58816204D02*
G01*
X107233773Y-58819804D01*
X107257571Y-58825765D01*
X107280671Y-58834030D01*
X107302849Y-58844520D01*
X107323893Y-58857133D01*
X107343598Y-58871747D01*
X107361777Y-58888223D01*
X107378253Y-58906402D01*
X107392867Y-58926107D01*
X107405480Y-58947151D01*
X107415970Y-58969329D01*
X107424235Y-58992429D01*
X107430196Y-59016227D01*
X107433796Y-59040496D01*
X107435000Y-59065000D01*
X107435000Y-60315000D01*
X107433796Y-60339504D01*
X107430196Y-60363773D01*
X107424235Y-60387571D01*
X107415970Y-60410671D01*
X107405480Y-60432849D01*
X107392867Y-60453893D01*
X107378253Y-60473598D01*
X107361777Y-60491777D01*
X107343598Y-60508253D01*
X107323893Y-60522867D01*
X107302849Y-60535480D01*
X107280671Y-60545970D01*
X107257571Y-60554235D01*
X107233773Y-60560196D01*
X107209504Y-60563796D01*
X107185000Y-60565000D01*
X106435000Y-60565000D01*
X106410496Y-60563796D01*
X106386227Y-60560196D01*
X106362429Y-60554235D01*
X106339329Y-60545970D01*
X106317151Y-60535480D01*
X106296107Y-60522867D01*
X106276402Y-60508253D01*
X106258223Y-60491777D01*
X106241747Y-60473598D01*
X106227133Y-60453893D01*
X106214520Y-60432849D01*
X106204030Y-60410671D01*
X106195765Y-60387571D01*
X106189804Y-60363773D01*
X106186204Y-60339504D01*
X106185000Y-60315000D01*
X106185000Y-59065000D01*
X106186204Y-59040496D01*
X106189804Y-59016227D01*
X106195765Y-58992429D01*
X106204030Y-58969329D01*
X106214520Y-58947151D01*
X106227133Y-58926107D01*
X106241747Y-58906402D01*
X106258223Y-58888223D01*
X106276402Y-58871747D01*
X106296107Y-58857133D01*
X106317151Y-58844520D01*
X106339329Y-58834030D01*
X106362429Y-58825765D01*
X106386227Y-58819804D01*
X106410496Y-58816204D01*
X106435000Y-58815000D01*
X107185000Y-58815000D01*
X107209504Y-58816204D01*
X107209504Y-58816204D01*
G37*
D15*
X106810000Y-59690000D03*
D14*
G36*
X104409504Y-58816204D02*
G01*
X104433773Y-58819804D01*
X104457571Y-58825765D01*
X104480671Y-58834030D01*
X104502849Y-58844520D01*
X104523893Y-58857133D01*
X104543598Y-58871747D01*
X104561777Y-58888223D01*
X104578253Y-58906402D01*
X104592867Y-58926107D01*
X104605480Y-58947151D01*
X104615970Y-58969329D01*
X104624235Y-58992429D01*
X104630196Y-59016227D01*
X104633796Y-59040496D01*
X104635000Y-59065000D01*
X104635000Y-60315000D01*
X104633796Y-60339504D01*
X104630196Y-60363773D01*
X104624235Y-60387571D01*
X104615970Y-60410671D01*
X104605480Y-60432849D01*
X104592867Y-60453893D01*
X104578253Y-60473598D01*
X104561777Y-60491777D01*
X104543598Y-60508253D01*
X104523893Y-60522867D01*
X104502849Y-60535480D01*
X104480671Y-60545970D01*
X104457571Y-60554235D01*
X104433773Y-60560196D01*
X104409504Y-60563796D01*
X104385000Y-60565000D01*
X103635000Y-60565000D01*
X103610496Y-60563796D01*
X103586227Y-60560196D01*
X103562429Y-60554235D01*
X103539329Y-60545970D01*
X103517151Y-60535480D01*
X103496107Y-60522867D01*
X103476402Y-60508253D01*
X103458223Y-60491777D01*
X103441747Y-60473598D01*
X103427133Y-60453893D01*
X103414520Y-60432849D01*
X103404030Y-60410671D01*
X103395765Y-60387571D01*
X103389804Y-60363773D01*
X103386204Y-60339504D01*
X103385000Y-60315000D01*
X103385000Y-59065000D01*
X103386204Y-59040496D01*
X103389804Y-59016227D01*
X103395765Y-58992429D01*
X103404030Y-58969329D01*
X103414520Y-58947151D01*
X103427133Y-58926107D01*
X103441747Y-58906402D01*
X103458223Y-58888223D01*
X103476402Y-58871747D01*
X103496107Y-58857133D01*
X103517151Y-58844520D01*
X103539329Y-58834030D01*
X103562429Y-58825765D01*
X103586227Y-58819804D01*
X103610496Y-58816204D01*
X103635000Y-58815000D01*
X104385000Y-58815000D01*
X104409504Y-58816204D01*
X104409504Y-58816204D01*
G37*
D15*
X104010000Y-59690000D03*
D14*
G36*
X97049504Y-58816204D02*
G01*
X97073773Y-58819804D01*
X97097571Y-58825765D01*
X97120671Y-58834030D01*
X97142849Y-58844520D01*
X97163893Y-58857133D01*
X97183598Y-58871747D01*
X97201777Y-58888223D01*
X97218253Y-58906402D01*
X97232867Y-58926107D01*
X97245480Y-58947151D01*
X97255970Y-58969329D01*
X97264235Y-58992429D01*
X97270196Y-59016227D01*
X97273796Y-59040496D01*
X97275000Y-59065000D01*
X97275000Y-60315000D01*
X97273796Y-60339504D01*
X97270196Y-60363773D01*
X97264235Y-60387571D01*
X97255970Y-60410671D01*
X97245480Y-60432849D01*
X97232867Y-60453893D01*
X97218253Y-60473598D01*
X97201777Y-60491777D01*
X97183598Y-60508253D01*
X97163893Y-60522867D01*
X97142849Y-60535480D01*
X97120671Y-60545970D01*
X97097571Y-60554235D01*
X97073773Y-60560196D01*
X97049504Y-60563796D01*
X97025000Y-60565000D01*
X96275000Y-60565000D01*
X96250496Y-60563796D01*
X96226227Y-60560196D01*
X96202429Y-60554235D01*
X96179329Y-60545970D01*
X96157151Y-60535480D01*
X96136107Y-60522867D01*
X96116402Y-60508253D01*
X96098223Y-60491777D01*
X96081747Y-60473598D01*
X96067133Y-60453893D01*
X96054520Y-60432849D01*
X96044030Y-60410671D01*
X96035765Y-60387571D01*
X96029804Y-60363773D01*
X96026204Y-60339504D01*
X96025000Y-60315000D01*
X96025000Y-59065000D01*
X96026204Y-59040496D01*
X96029804Y-59016227D01*
X96035765Y-58992429D01*
X96044030Y-58969329D01*
X96054520Y-58947151D01*
X96067133Y-58926107D01*
X96081747Y-58906402D01*
X96098223Y-58888223D01*
X96116402Y-58871747D01*
X96136107Y-58857133D01*
X96157151Y-58844520D01*
X96179329Y-58834030D01*
X96202429Y-58825765D01*
X96226227Y-58819804D01*
X96250496Y-58816204D01*
X96275000Y-58815000D01*
X97025000Y-58815000D01*
X97049504Y-58816204D01*
X97049504Y-58816204D01*
G37*
D15*
X96650000Y-59690000D03*
D14*
G36*
X94249504Y-58816204D02*
G01*
X94273773Y-58819804D01*
X94297571Y-58825765D01*
X94320671Y-58834030D01*
X94342849Y-58844520D01*
X94363893Y-58857133D01*
X94383598Y-58871747D01*
X94401777Y-58888223D01*
X94418253Y-58906402D01*
X94432867Y-58926107D01*
X94445480Y-58947151D01*
X94455970Y-58969329D01*
X94464235Y-58992429D01*
X94470196Y-59016227D01*
X94473796Y-59040496D01*
X94475000Y-59065000D01*
X94475000Y-60315000D01*
X94473796Y-60339504D01*
X94470196Y-60363773D01*
X94464235Y-60387571D01*
X94455970Y-60410671D01*
X94445480Y-60432849D01*
X94432867Y-60453893D01*
X94418253Y-60473598D01*
X94401777Y-60491777D01*
X94383598Y-60508253D01*
X94363893Y-60522867D01*
X94342849Y-60535480D01*
X94320671Y-60545970D01*
X94297571Y-60554235D01*
X94273773Y-60560196D01*
X94249504Y-60563796D01*
X94225000Y-60565000D01*
X93475000Y-60565000D01*
X93450496Y-60563796D01*
X93426227Y-60560196D01*
X93402429Y-60554235D01*
X93379329Y-60545970D01*
X93357151Y-60535480D01*
X93336107Y-60522867D01*
X93316402Y-60508253D01*
X93298223Y-60491777D01*
X93281747Y-60473598D01*
X93267133Y-60453893D01*
X93254520Y-60432849D01*
X93244030Y-60410671D01*
X93235765Y-60387571D01*
X93229804Y-60363773D01*
X93226204Y-60339504D01*
X93225000Y-60315000D01*
X93225000Y-59065000D01*
X93226204Y-59040496D01*
X93229804Y-59016227D01*
X93235765Y-58992429D01*
X93244030Y-58969329D01*
X93254520Y-58947151D01*
X93267133Y-58926107D01*
X93281747Y-58906402D01*
X93298223Y-58888223D01*
X93316402Y-58871747D01*
X93336107Y-58857133D01*
X93357151Y-58844520D01*
X93379329Y-58834030D01*
X93402429Y-58825765D01*
X93426227Y-58819804D01*
X93450496Y-58816204D01*
X93475000Y-58815000D01*
X94225000Y-58815000D01*
X94249504Y-58816204D01*
X94249504Y-58816204D01*
G37*
D15*
X93850000Y-59690000D03*
D14*
G36*
X86889504Y-58816204D02*
G01*
X86913773Y-58819804D01*
X86937571Y-58825765D01*
X86960671Y-58834030D01*
X86982849Y-58844520D01*
X87003893Y-58857133D01*
X87023598Y-58871747D01*
X87041777Y-58888223D01*
X87058253Y-58906402D01*
X87072867Y-58926107D01*
X87085480Y-58947151D01*
X87095970Y-58969329D01*
X87104235Y-58992429D01*
X87110196Y-59016227D01*
X87113796Y-59040496D01*
X87115000Y-59065000D01*
X87115000Y-60315000D01*
X87113796Y-60339504D01*
X87110196Y-60363773D01*
X87104235Y-60387571D01*
X87095970Y-60410671D01*
X87085480Y-60432849D01*
X87072867Y-60453893D01*
X87058253Y-60473598D01*
X87041777Y-60491777D01*
X87023598Y-60508253D01*
X87003893Y-60522867D01*
X86982849Y-60535480D01*
X86960671Y-60545970D01*
X86937571Y-60554235D01*
X86913773Y-60560196D01*
X86889504Y-60563796D01*
X86865000Y-60565000D01*
X86115000Y-60565000D01*
X86090496Y-60563796D01*
X86066227Y-60560196D01*
X86042429Y-60554235D01*
X86019329Y-60545970D01*
X85997151Y-60535480D01*
X85976107Y-60522867D01*
X85956402Y-60508253D01*
X85938223Y-60491777D01*
X85921747Y-60473598D01*
X85907133Y-60453893D01*
X85894520Y-60432849D01*
X85884030Y-60410671D01*
X85875765Y-60387571D01*
X85869804Y-60363773D01*
X85866204Y-60339504D01*
X85865000Y-60315000D01*
X85865000Y-59065000D01*
X85866204Y-59040496D01*
X85869804Y-59016227D01*
X85875765Y-58992429D01*
X85884030Y-58969329D01*
X85894520Y-58947151D01*
X85907133Y-58926107D01*
X85921747Y-58906402D01*
X85938223Y-58888223D01*
X85956402Y-58871747D01*
X85976107Y-58857133D01*
X85997151Y-58844520D01*
X86019329Y-58834030D01*
X86042429Y-58825765D01*
X86066227Y-58819804D01*
X86090496Y-58816204D01*
X86115000Y-58815000D01*
X86865000Y-58815000D01*
X86889504Y-58816204D01*
X86889504Y-58816204D01*
G37*
D15*
X86490000Y-59690000D03*
D14*
G36*
X84089504Y-58816204D02*
G01*
X84113773Y-58819804D01*
X84137571Y-58825765D01*
X84160671Y-58834030D01*
X84182849Y-58844520D01*
X84203893Y-58857133D01*
X84223598Y-58871747D01*
X84241777Y-58888223D01*
X84258253Y-58906402D01*
X84272867Y-58926107D01*
X84285480Y-58947151D01*
X84295970Y-58969329D01*
X84304235Y-58992429D01*
X84310196Y-59016227D01*
X84313796Y-59040496D01*
X84315000Y-59065000D01*
X84315000Y-60315000D01*
X84313796Y-60339504D01*
X84310196Y-60363773D01*
X84304235Y-60387571D01*
X84295970Y-60410671D01*
X84285480Y-60432849D01*
X84272867Y-60453893D01*
X84258253Y-60473598D01*
X84241777Y-60491777D01*
X84223598Y-60508253D01*
X84203893Y-60522867D01*
X84182849Y-60535480D01*
X84160671Y-60545970D01*
X84137571Y-60554235D01*
X84113773Y-60560196D01*
X84089504Y-60563796D01*
X84065000Y-60565000D01*
X83315000Y-60565000D01*
X83290496Y-60563796D01*
X83266227Y-60560196D01*
X83242429Y-60554235D01*
X83219329Y-60545970D01*
X83197151Y-60535480D01*
X83176107Y-60522867D01*
X83156402Y-60508253D01*
X83138223Y-60491777D01*
X83121747Y-60473598D01*
X83107133Y-60453893D01*
X83094520Y-60432849D01*
X83084030Y-60410671D01*
X83075765Y-60387571D01*
X83069804Y-60363773D01*
X83066204Y-60339504D01*
X83065000Y-60315000D01*
X83065000Y-59065000D01*
X83066204Y-59040496D01*
X83069804Y-59016227D01*
X83075765Y-58992429D01*
X83084030Y-58969329D01*
X83094520Y-58947151D01*
X83107133Y-58926107D01*
X83121747Y-58906402D01*
X83138223Y-58888223D01*
X83156402Y-58871747D01*
X83176107Y-58857133D01*
X83197151Y-58844520D01*
X83219329Y-58834030D01*
X83242429Y-58825765D01*
X83266227Y-58819804D01*
X83290496Y-58816204D01*
X83315000Y-58815000D01*
X84065000Y-58815000D01*
X84089504Y-58816204D01*
X84089504Y-58816204D01*
G37*
D15*
X83690000Y-59690000D03*
D14*
G36*
X76729504Y-58816204D02*
G01*
X76753773Y-58819804D01*
X76777571Y-58825765D01*
X76800671Y-58834030D01*
X76822849Y-58844520D01*
X76843893Y-58857133D01*
X76863598Y-58871747D01*
X76881777Y-58888223D01*
X76898253Y-58906402D01*
X76912867Y-58926107D01*
X76925480Y-58947151D01*
X76935970Y-58969329D01*
X76944235Y-58992429D01*
X76950196Y-59016227D01*
X76953796Y-59040496D01*
X76955000Y-59065000D01*
X76955000Y-60315000D01*
X76953796Y-60339504D01*
X76950196Y-60363773D01*
X76944235Y-60387571D01*
X76935970Y-60410671D01*
X76925480Y-60432849D01*
X76912867Y-60453893D01*
X76898253Y-60473598D01*
X76881777Y-60491777D01*
X76863598Y-60508253D01*
X76843893Y-60522867D01*
X76822849Y-60535480D01*
X76800671Y-60545970D01*
X76777571Y-60554235D01*
X76753773Y-60560196D01*
X76729504Y-60563796D01*
X76705000Y-60565000D01*
X75955000Y-60565000D01*
X75930496Y-60563796D01*
X75906227Y-60560196D01*
X75882429Y-60554235D01*
X75859329Y-60545970D01*
X75837151Y-60535480D01*
X75816107Y-60522867D01*
X75796402Y-60508253D01*
X75778223Y-60491777D01*
X75761747Y-60473598D01*
X75747133Y-60453893D01*
X75734520Y-60432849D01*
X75724030Y-60410671D01*
X75715765Y-60387571D01*
X75709804Y-60363773D01*
X75706204Y-60339504D01*
X75705000Y-60315000D01*
X75705000Y-59065000D01*
X75706204Y-59040496D01*
X75709804Y-59016227D01*
X75715765Y-58992429D01*
X75724030Y-58969329D01*
X75734520Y-58947151D01*
X75747133Y-58926107D01*
X75761747Y-58906402D01*
X75778223Y-58888223D01*
X75796402Y-58871747D01*
X75816107Y-58857133D01*
X75837151Y-58844520D01*
X75859329Y-58834030D01*
X75882429Y-58825765D01*
X75906227Y-58819804D01*
X75930496Y-58816204D01*
X75955000Y-58815000D01*
X76705000Y-58815000D01*
X76729504Y-58816204D01*
X76729504Y-58816204D01*
G37*
D15*
X76330000Y-59690000D03*
D14*
G36*
X73929504Y-58816204D02*
G01*
X73953773Y-58819804D01*
X73977571Y-58825765D01*
X74000671Y-58834030D01*
X74022849Y-58844520D01*
X74043893Y-58857133D01*
X74063598Y-58871747D01*
X74081777Y-58888223D01*
X74098253Y-58906402D01*
X74112867Y-58926107D01*
X74125480Y-58947151D01*
X74135970Y-58969329D01*
X74144235Y-58992429D01*
X74150196Y-59016227D01*
X74153796Y-59040496D01*
X74155000Y-59065000D01*
X74155000Y-60315000D01*
X74153796Y-60339504D01*
X74150196Y-60363773D01*
X74144235Y-60387571D01*
X74135970Y-60410671D01*
X74125480Y-60432849D01*
X74112867Y-60453893D01*
X74098253Y-60473598D01*
X74081777Y-60491777D01*
X74063598Y-60508253D01*
X74043893Y-60522867D01*
X74022849Y-60535480D01*
X74000671Y-60545970D01*
X73977571Y-60554235D01*
X73953773Y-60560196D01*
X73929504Y-60563796D01*
X73905000Y-60565000D01*
X73155000Y-60565000D01*
X73130496Y-60563796D01*
X73106227Y-60560196D01*
X73082429Y-60554235D01*
X73059329Y-60545970D01*
X73037151Y-60535480D01*
X73016107Y-60522867D01*
X72996402Y-60508253D01*
X72978223Y-60491777D01*
X72961747Y-60473598D01*
X72947133Y-60453893D01*
X72934520Y-60432849D01*
X72924030Y-60410671D01*
X72915765Y-60387571D01*
X72909804Y-60363773D01*
X72906204Y-60339504D01*
X72905000Y-60315000D01*
X72905000Y-59065000D01*
X72906204Y-59040496D01*
X72909804Y-59016227D01*
X72915765Y-58992429D01*
X72924030Y-58969329D01*
X72934520Y-58947151D01*
X72947133Y-58926107D01*
X72961747Y-58906402D01*
X72978223Y-58888223D01*
X72996402Y-58871747D01*
X73016107Y-58857133D01*
X73037151Y-58844520D01*
X73059329Y-58834030D01*
X73082429Y-58825765D01*
X73106227Y-58819804D01*
X73130496Y-58816204D01*
X73155000Y-58815000D01*
X73905000Y-58815000D01*
X73929504Y-58816204D01*
X73929504Y-58816204D01*
G37*
D15*
X73530000Y-59690000D03*
D14*
G36*
X66569504Y-58816204D02*
G01*
X66593773Y-58819804D01*
X66617571Y-58825765D01*
X66640671Y-58834030D01*
X66662849Y-58844520D01*
X66683893Y-58857133D01*
X66703598Y-58871747D01*
X66721777Y-58888223D01*
X66738253Y-58906402D01*
X66752867Y-58926107D01*
X66765480Y-58947151D01*
X66775970Y-58969329D01*
X66784235Y-58992429D01*
X66790196Y-59016227D01*
X66793796Y-59040496D01*
X66795000Y-59065000D01*
X66795000Y-60315000D01*
X66793796Y-60339504D01*
X66790196Y-60363773D01*
X66784235Y-60387571D01*
X66775970Y-60410671D01*
X66765480Y-60432849D01*
X66752867Y-60453893D01*
X66738253Y-60473598D01*
X66721777Y-60491777D01*
X66703598Y-60508253D01*
X66683893Y-60522867D01*
X66662849Y-60535480D01*
X66640671Y-60545970D01*
X66617571Y-60554235D01*
X66593773Y-60560196D01*
X66569504Y-60563796D01*
X66545000Y-60565000D01*
X65795000Y-60565000D01*
X65770496Y-60563796D01*
X65746227Y-60560196D01*
X65722429Y-60554235D01*
X65699329Y-60545970D01*
X65677151Y-60535480D01*
X65656107Y-60522867D01*
X65636402Y-60508253D01*
X65618223Y-60491777D01*
X65601747Y-60473598D01*
X65587133Y-60453893D01*
X65574520Y-60432849D01*
X65564030Y-60410671D01*
X65555765Y-60387571D01*
X65549804Y-60363773D01*
X65546204Y-60339504D01*
X65545000Y-60315000D01*
X65545000Y-59065000D01*
X65546204Y-59040496D01*
X65549804Y-59016227D01*
X65555765Y-58992429D01*
X65564030Y-58969329D01*
X65574520Y-58947151D01*
X65587133Y-58926107D01*
X65601747Y-58906402D01*
X65618223Y-58888223D01*
X65636402Y-58871747D01*
X65656107Y-58857133D01*
X65677151Y-58844520D01*
X65699329Y-58834030D01*
X65722429Y-58825765D01*
X65746227Y-58819804D01*
X65770496Y-58816204D01*
X65795000Y-58815000D01*
X66545000Y-58815000D01*
X66569504Y-58816204D01*
X66569504Y-58816204D01*
G37*
D15*
X66170000Y-59690000D03*
D14*
G36*
X63769504Y-58816204D02*
G01*
X63793773Y-58819804D01*
X63817571Y-58825765D01*
X63840671Y-58834030D01*
X63862849Y-58844520D01*
X63883893Y-58857133D01*
X63903598Y-58871747D01*
X63921777Y-58888223D01*
X63938253Y-58906402D01*
X63952867Y-58926107D01*
X63965480Y-58947151D01*
X63975970Y-58969329D01*
X63984235Y-58992429D01*
X63990196Y-59016227D01*
X63993796Y-59040496D01*
X63995000Y-59065000D01*
X63995000Y-60315000D01*
X63993796Y-60339504D01*
X63990196Y-60363773D01*
X63984235Y-60387571D01*
X63975970Y-60410671D01*
X63965480Y-60432849D01*
X63952867Y-60453893D01*
X63938253Y-60473598D01*
X63921777Y-60491777D01*
X63903598Y-60508253D01*
X63883893Y-60522867D01*
X63862849Y-60535480D01*
X63840671Y-60545970D01*
X63817571Y-60554235D01*
X63793773Y-60560196D01*
X63769504Y-60563796D01*
X63745000Y-60565000D01*
X62995000Y-60565000D01*
X62970496Y-60563796D01*
X62946227Y-60560196D01*
X62922429Y-60554235D01*
X62899329Y-60545970D01*
X62877151Y-60535480D01*
X62856107Y-60522867D01*
X62836402Y-60508253D01*
X62818223Y-60491777D01*
X62801747Y-60473598D01*
X62787133Y-60453893D01*
X62774520Y-60432849D01*
X62764030Y-60410671D01*
X62755765Y-60387571D01*
X62749804Y-60363773D01*
X62746204Y-60339504D01*
X62745000Y-60315000D01*
X62745000Y-59065000D01*
X62746204Y-59040496D01*
X62749804Y-59016227D01*
X62755765Y-58992429D01*
X62764030Y-58969329D01*
X62774520Y-58947151D01*
X62787133Y-58926107D01*
X62801747Y-58906402D01*
X62818223Y-58888223D01*
X62836402Y-58871747D01*
X62856107Y-58857133D01*
X62877151Y-58844520D01*
X62899329Y-58834030D01*
X62922429Y-58825765D01*
X62946227Y-58819804D01*
X62970496Y-58816204D01*
X62995000Y-58815000D01*
X63745000Y-58815000D01*
X63769504Y-58816204D01*
X63769504Y-58816204D01*
G37*
D15*
X63370000Y-59690000D03*
D14*
G36*
X56409504Y-58816204D02*
G01*
X56433773Y-58819804D01*
X56457571Y-58825765D01*
X56480671Y-58834030D01*
X56502849Y-58844520D01*
X56523893Y-58857133D01*
X56543598Y-58871747D01*
X56561777Y-58888223D01*
X56578253Y-58906402D01*
X56592867Y-58926107D01*
X56605480Y-58947151D01*
X56615970Y-58969329D01*
X56624235Y-58992429D01*
X56630196Y-59016227D01*
X56633796Y-59040496D01*
X56635000Y-59065000D01*
X56635000Y-60315000D01*
X56633796Y-60339504D01*
X56630196Y-60363773D01*
X56624235Y-60387571D01*
X56615970Y-60410671D01*
X56605480Y-60432849D01*
X56592867Y-60453893D01*
X56578253Y-60473598D01*
X56561777Y-60491777D01*
X56543598Y-60508253D01*
X56523893Y-60522867D01*
X56502849Y-60535480D01*
X56480671Y-60545970D01*
X56457571Y-60554235D01*
X56433773Y-60560196D01*
X56409504Y-60563796D01*
X56385000Y-60565000D01*
X55635000Y-60565000D01*
X55610496Y-60563796D01*
X55586227Y-60560196D01*
X55562429Y-60554235D01*
X55539329Y-60545970D01*
X55517151Y-60535480D01*
X55496107Y-60522867D01*
X55476402Y-60508253D01*
X55458223Y-60491777D01*
X55441747Y-60473598D01*
X55427133Y-60453893D01*
X55414520Y-60432849D01*
X55404030Y-60410671D01*
X55395765Y-60387571D01*
X55389804Y-60363773D01*
X55386204Y-60339504D01*
X55385000Y-60315000D01*
X55385000Y-59065000D01*
X55386204Y-59040496D01*
X55389804Y-59016227D01*
X55395765Y-58992429D01*
X55404030Y-58969329D01*
X55414520Y-58947151D01*
X55427133Y-58926107D01*
X55441747Y-58906402D01*
X55458223Y-58888223D01*
X55476402Y-58871747D01*
X55496107Y-58857133D01*
X55517151Y-58844520D01*
X55539329Y-58834030D01*
X55562429Y-58825765D01*
X55586227Y-58819804D01*
X55610496Y-58816204D01*
X55635000Y-58815000D01*
X56385000Y-58815000D01*
X56409504Y-58816204D01*
X56409504Y-58816204D01*
G37*
D15*
X56010000Y-59690000D03*
D14*
G36*
X53609504Y-58816204D02*
G01*
X53633773Y-58819804D01*
X53657571Y-58825765D01*
X53680671Y-58834030D01*
X53702849Y-58844520D01*
X53723893Y-58857133D01*
X53743598Y-58871747D01*
X53761777Y-58888223D01*
X53778253Y-58906402D01*
X53792867Y-58926107D01*
X53805480Y-58947151D01*
X53815970Y-58969329D01*
X53824235Y-58992429D01*
X53830196Y-59016227D01*
X53833796Y-59040496D01*
X53835000Y-59065000D01*
X53835000Y-60315000D01*
X53833796Y-60339504D01*
X53830196Y-60363773D01*
X53824235Y-60387571D01*
X53815970Y-60410671D01*
X53805480Y-60432849D01*
X53792867Y-60453893D01*
X53778253Y-60473598D01*
X53761777Y-60491777D01*
X53743598Y-60508253D01*
X53723893Y-60522867D01*
X53702849Y-60535480D01*
X53680671Y-60545970D01*
X53657571Y-60554235D01*
X53633773Y-60560196D01*
X53609504Y-60563796D01*
X53585000Y-60565000D01*
X52835000Y-60565000D01*
X52810496Y-60563796D01*
X52786227Y-60560196D01*
X52762429Y-60554235D01*
X52739329Y-60545970D01*
X52717151Y-60535480D01*
X52696107Y-60522867D01*
X52676402Y-60508253D01*
X52658223Y-60491777D01*
X52641747Y-60473598D01*
X52627133Y-60453893D01*
X52614520Y-60432849D01*
X52604030Y-60410671D01*
X52595765Y-60387571D01*
X52589804Y-60363773D01*
X52586204Y-60339504D01*
X52585000Y-60315000D01*
X52585000Y-59065000D01*
X52586204Y-59040496D01*
X52589804Y-59016227D01*
X52595765Y-58992429D01*
X52604030Y-58969329D01*
X52614520Y-58947151D01*
X52627133Y-58926107D01*
X52641747Y-58906402D01*
X52658223Y-58888223D01*
X52676402Y-58871747D01*
X52696107Y-58857133D01*
X52717151Y-58844520D01*
X52739329Y-58834030D01*
X52762429Y-58825765D01*
X52786227Y-58819804D01*
X52810496Y-58816204D01*
X52835000Y-58815000D01*
X53585000Y-58815000D01*
X53609504Y-58816204D01*
X53609504Y-58816204D01*
G37*
D15*
X53210000Y-59690000D03*
D14*
G36*
X46249504Y-58816204D02*
G01*
X46273773Y-58819804D01*
X46297571Y-58825765D01*
X46320671Y-58834030D01*
X46342849Y-58844520D01*
X46363893Y-58857133D01*
X46383598Y-58871747D01*
X46401777Y-58888223D01*
X46418253Y-58906402D01*
X46432867Y-58926107D01*
X46445480Y-58947151D01*
X46455970Y-58969329D01*
X46464235Y-58992429D01*
X46470196Y-59016227D01*
X46473796Y-59040496D01*
X46475000Y-59065000D01*
X46475000Y-60315000D01*
X46473796Y-60339504D01*
X46470196Y-60363773D01*
X46464235Y-60387571D01*
X46455970Y-60410671D01*
X46445480Y-60432849D01*
X46432867Y-60453893D01*
X46418253Y-60473598D01*
X46401777Y-60491777D01*
X46383598Y-60508253D01*
X46363893Y-60522867D01*
X46342849Y-60535480D01*
X46320671Y-60545970D01*
X46297571Y-60554235D01*
X46273773Y-60560196D01*
X46249504Y-60563796D01*
X46225000Y-60565000D01*
X45475000Y-60565000D01*
X45450496Y-60563796D01*
X45426227Y-60560196D01*
X45402429Y-60554235D01*
X45379329Y-60545970D01*
X45357151Y-60535480D01*
X45336107Y-60522867D01*
X45316402Y-60508253D01*
X45298223Y-60491777D01*
X45281747Y-60473598D01*
X45267133Y-60453893D01*
X45254520Y-60432849D01*
X45244030Y-60410671D01*
X45235765Y-60387571D01*
X45229804Y-60363773D01*
X45226204Y-60339504D01*
X45225000Y-60315000D01*
X45225000Y-59065000D01*
X45226204Y-59040496D01*
X45229804Y-59016227D01*
X45235765Y-58992429D01*
X45244030Y-58969329D01*
X45254520Y-58947151D01*
X45267133Y-58926107D01*
X45281747Y-58906402D01*
X45298223Y-58888223D01*
X45316402Y-58871747D01*
X45336107Y-58857133D01*
X45357151Y-58844520D01*
X45379329Y-58834030D01*
X45402429Y-58825765D01*
X45426227Y-58819804D01*
X45450496Y-58816204D01*
X45475000Y-58815000D01*
X46225000Y-58815000D01*
X46249504Y-58816204D01*
X46249504Y-58816204D01*
G37*
D15*
X45850000Y-59690000D03*
D14*
G36*
X43449504Y-58816204D02*
G01*
X43473773Y-58819804D01*
X43497571Y-58825765D01*
X43520671Y-58834030D01*
X43542849Y-58844520D01*
X43563893Y-58857133D01*
X43583598Y-58871747D01*
X43601777Y-58888223D01*
X43618253Y-58906402D01*
X43632867Y-58926107D01*
X43645480Y-58947151D01*
X43655970Y-58969329D01*
X43664235Y-58992429D01*
X43670196Y-59016227D01*
X43673796Y-59040496D01*
X43675000Y-59065000D01*
X43675000Y-60315000D01*
X43673796Y-60339504D01*
X43670196Y-60363773D01*
X43664235Y-60387571D01*
X43655970Y-60410671D01*
X43645480Y-60432849D01*
X43632867Y-60453893D01*
X43618253Y-60473598D01*
X43601777Y-60491777D01*
X43583598Y-60508253D01*
X43563893Y-60522867D01*
X43542849Y-60535480D01*
X43520671Y-60545970D01*
X43497571Y-60554235D01*
X43473773Y-60560196D01*
X43449504Y-60563796D01*
X43425000Y-60565000D01*
X42675000Y-60565000D01*
X42650496Y-60563796D01*
X42626227Y-60560196D01*
X42602429Y-60554235D01*
X42579329Y-60545970D01*
X42557151Y-60535480D01*
X42536107Y-60522867D01*
X42516402Y-60508253D01*
X42498223Y-60491777D01*
X42481747Y-60473598D01*
X42467133Y-60453893D01*
X42454520Y-60432849D01*
X42444030Y-60410671D01*
X42435765Y-60387571D01*
X42429804Y-60363773D01*
X42426204Y-60339504D01*
X42425000Y-60315000D01*
X42425000Y-59065000D01*
X42426204Y-59040496D01*
X42429804Y-59016227D01*
X42435765Y-58992429D01*
X42444030Y-58969329D01*
X42454520Y-58947151D01*
X42467133Y-58926107D01*
X42481747Y-58906402D01*
X42498223Y-58888223D01*
X42516402Y-58871747D01*
X42536107Y-58857133D01*
X42557151Y-58844520D01*
X42579329Y-58834030D01*
X42602429Y-58825765D01*
X42626227Y-58819804D01*
X42650496Y-58816204D01*
X42675000Y-58815000D01*
X43425000Y-58815000D01*
X43449504Y-58816204D01*
X43449504Y-58816204D01*
G37*
D15*
X43050000Y-59690000D03*
D14*
G36*
X137689504Y-58816204D02*
G01*
X137713773Y-58819804D01*
X137737571Y-58825765D01*
X137760671Y-58834030D01*
X137782849Y-58844520D01*
X137803893Y-58857133D01*
X137823598Y-58871747D01*
X137841777Y-58888223D01*
X137858253Y-58906402D01*
X137872867Y-58926107D01*
X137885480Y-58947151D01*
X137895970Y-58969329D01*
X137904235Y-58992429D01*
X137910196Y-59016227D01*
X137913796Y-59040496D01*
X137915000Y-59065000D01*
X137915000Y-60315000D01*
X137913796Y-60339504D01*
X137910196Y-60363773D01*
X137904235Y-60387571D01*
X137895970Y-60410671D01*
X137885480Y-60432849D01*
X137872867Y-60453893D01*
X137858253Y-60473598D01*
X137841777Y-60491777D01*
X137823598Y-60508253D01*
X137803893Y-60522867D01*
X137782849Y-60535480D01*
X137760671Y-60545970D01*
X137737571Y-60554235D01*
X137713773Y-60560196D01*
X137689504Y-60563796D01*
X137665000Y-60565000D01*
X136915000Y-60565000D01*
X136890496Y-60563796D01*
X136866227Y-60560196D01*
X136842429Y-60554235D01*
X136819329Y-60545970D01*
X136797151Y-60535480D01*
X136776107Y-60522867D01*
X136756402Y-60508253D01*
X136738223Y-60491777D01*
X136721747Y-60473598D01*
X136707133Y-60453893D01*
X136694520Y-60432849D01*
X136684030Y-60410671D01*
X136675765Y-60387571D01*
X136669804Y-60363773D01*
X136666204Y-60339504D01*
X136665000Y-60315000D01*
X136665000Y-59065000D01*
X136666204Y-59040496D01*
X136669804Y-59016227D01*
X136675765Y-58992429D01*
X136684030Y-58969329D01*
X136694520Y-58947151D01*
X136707133Y-58926107D01*
X136721747Y-58906402D01*
X136738223Y-58888223D01*
X136756402Y-58871747D01*
X136776107Y-58857133D01*
X136797151Y-58844520D01*
X136819329Y-58834030D01*
X136842429Y-58825765D01*
X136866227Y-58819804D01*
X136890496Y-58816204D01*
X136915000Y-58815000D01*
X137665000Y-58815000D01*
X137689504Y-58816204D01*
X137689504Y-58816204D01*
G37*
D15*
X137290000Y-59690000D03*
D14*
G36*
X134889504Y-58816204D02*
G01*
X134913773Y-58819804D01*
X134937571Y-58825765D01*
X134960671Y-58834030D01*
X134982849Y-58844520D01*
X135003893Y-58857133D01*
X135023598Y-58871747D01*
X135041777Y-58888223D01*
X135058253Y-58906402D01*
X135072867Y-58926107D01*
X135085480Y-58947151D01*
X135095970Y-58969329D01*
X135104235Y-58992429D01*
X135110196Y-59016227D01*
X135113796Y-59040496D01*
X135115000Y-59065000D01*
X135115000Y-60315000D01*
X135113796Y-60339504D01*
X135110196Y-60363773D01*
X135104235Y-60387571D01*
X135095970Y-60410671D01*
X135085480Y-60432849D01*
X135072867Y-60453893D01*
X135058253Y-60473598D01*
X135041777Y-60491777D01*
X135023598Y-60508253D01*
X135003893Y-60522867D01*
X134982849Y-60535480D01*
X134960671Y-60545970D01*
X134937571Y-60554235D01*
X134913773Y-60560196D01*
X134889504Y-60563796D01*
X134865000Y-60565000D01*
X134115000Y-60565000D01*
X134090496Y-60563796D01*
X134066227Y-60560196D01*
X134042429Y-60554235D01*
X134019329Y-60545970D01*
X133997151Y-60535480D01*
X133976107Y-60522867D01*
X133956402Y-60508253D01*
X133938223Y-60491777D01*
X133921747Y-60473598D01*
X133907133Y-60453893D01*
X133894520Y-60432849D01*
X133884030Y-60410671D01*
X133875765Y-60387571D01*
X133869804Y-60363773D01*
X133866204Y-60339504D01*
X133865000Y-60315000D01*
X133865000Y-59065000D01*
X133866204Y-59040496D01*
X133869804Y-59016227D01*
X133875765Y-58992429D01*
X133884030Y-58969329D01*
X133894520Y-58947151D01*
X133907133Y-58926107D01*
X133921747Y-58906402D01*
X133938223Y-58888223D01*
X133956402Y-58871747D01*
X133976107Y-58857133D01*
X133997151Y-58844520D01*
X134019329Y-58834030D01*
X134042429Y-58825765D01*
X134066227Y-58819804D01*
X134090496Y-58816204D01*
X134115000Y-58815000D01*
X134865000Y-58815000D01*
X134889504Y-58816204D01*
X134889504Y-58816204D01*
G37*
D15*
X134490000Y-59690000D03*
D10*
X88900000Y-99060000D03*
X88900000Y-93980000D03*
X88900000Y-88900000D03*
X88900000Y-86360000D03*
X81280000Y-86360000D03*
X81280000Y-88900000D03*
X81280000Y-93980000D03*
X81280000Y-99060000D03*
X81280000Y-101600000D03*
X81280000Y-106680000D03*
X81280000Y-111760000D03*
X81280000Y-114300000D03*
X88900000Y-114300000D03*
X88900000Y-111760000D03*
X88900000Y-106680000D03*
X88900000Y-101600000D03*
X149860000Y-99060000D03*
X149860000Y-93980000D03*
X149860000Y-88900000D03*
X149860000Y-86360000D03*
X142240000Y-86360000D03*
X142240000Y-88900000D03*
X142240000Y-93980000D03*
X142240000Y-99060000D03*
D11*
X160020000Y-118110000D03*
X160020000Y-82550000D03*
X40640000Y-118110000D03*
X40640000Y-82550000D03*
D12*
X106680000Y-81915000D03*
X104140000Y-81915000D03*
X101600000Y-81915000D03*
X99060000Y-81915000D03*
X96520000Y-81915000D03*
X93980000Y-81915000D03*
X91440000Y-81915000D03*
X88900000Y-81915000D03*
X86360000Y-81915000D03*
X83820000Y-81915000D03*
X81280000Y-81915000D03*
D13*
X78740000Y-81915000D03*
D10*
X99060000Y-99060000D03*
X99060000Y-93980000D03*
X99060000Y-88900000D03*
X99060000Y-86360000D03*
X91440000Y-86360000D03*
X91440000Y-88900000D03*
X91440000Y-93980000D03*
X91440000Y-99060000D03*
X91440000Y-101600000D03*
X91440000Y-106680000D03*
X91440000Y-111760000D03*
X91440000Y-114300000D03*
X99060000Y-114300000D03*
X99060000Y-111760000D03*
X99060000Y-106680000D03*
X99060000Y-101600000D03*
X139700000Y-99060000D03*
X139700000Y-93980000D03*
X139700000Y-88900000D03*
X139700000Y-86360000D03*
X132080000Y-86360000D03*
X132080000Y-88900000D03*
X132080000Y-93980000D03*
X132080000Y-99060000D03*
X132080000Y-101600000D03*
X132080000Y-106680000D03*
X132080000Y-111760000D03*
X132080000Y-114300000D03*
X139700000Y-114300000D03*
X139700000Y-111760000D03*
X139700000Y-106680000D03*
X139700000Y-101600000D03*
D14*
G36*
X145049504Y-98186204D02*
G01*
X145073773Y-98189804D01*
X145097571Y-98195765D01*
X145120671Y-98204030D01*
X145142849Y-98214520D01*
X145163893Y-98227133D01*
X145183598Y-98241747D01*
X145201777Y-98258223D01*
X145218253Y-98276402D01*
X145232867Y-98296107D01*
X145245480Y-98317151D01*
X145255970Y-98339329D01*
X145264235Y-98362429D01*
X145270196Y-98386227D01*
X145273796Y-98410496D01*
X145275000Y-98435000D01*
X145275000Y-99685000D01*
X145273796Y-99709504D01*
X145270196Y-99733773D01*
X145264235Y-99757571D01*
X145255970Y-99780671D01*
X145245480Y-99802849D01*
X145232867Y-99823893D01*
X145218253Y-99843598D01*
X145201777Y-99861777D01*
X145183598Y-99878253D01*
X145163893Y-99892867D01*
X145142849Y-99905480D01*
X145120671Y-99915970D01*
X145097571Y-99924235D01*
X145073773Y-99930196D01*
X145049504Y-99933796D01*
X145025000Y-99935000D01*
X144275000Y-99935000D01*
X144250496Y-99933796D01*
X144226227Y-99930196D01*
X144202429Y-99924235D01*
X144179329Y-99915970D01*
X144157151Y-99905480D01*
X144136107Y-99892867D01*
X144116402Y-99878253D01*
X144098223Y-99861777D01*
X144081747Y-99843598D01*
X144067133Y-99823893D01*
X144054520Y-99802849D01*
X144044030Y-99780671D01*
X144035765Y-99757571D01*
X144029804Y-99733773D01*
X144026204Y-99709504D01*
X144025000Y-99685000D01*
X144025000Y-98435000D01*
X144026204Y-98410496D01*
X144029804Y-98386227D01*
X144035765Y-98362429D01*
X144044030Y-98339329D01*
X144054520Y-98317151D01*
X144067133Y-98296107D01*
X144081747Y-98276402D01*
X144098223Y-98258223D01*
X144116402Y-98241747D01*
X144136107Y-98227133D01*
X144157151Y-98214520D01*
X144179329Y-98204030D01*
X144202429Y-98195765D01*
X144226227Y-98189804D01*
X144250496Y-98186204D01*
X144275000Y-98185000D01*
X145025000Y-98185000D01*
X145049504Y-98186204D01*
X145049504Y-98186204D01*
G37*
D15*
X144650000Y-99060000D03*
D14*
G36*
X147849504Y-98186204D02*
G01*
X147873773Y-98189804D01*
X147897571Y-98195765D01*
X147920671Y-98204030D01*
X147942849Y-98214520D01*
X147963893Y-98227133D01*
X147983598Y-98241747D01*
X148001777Y-98258223D01*
X148018253Y-98276402D01*
X148032867Y-98296107D01*
X148045480Y-98317151D01*
X148055970Y-98339329D01*
X148064235Y-98362429D01*
X148070196Y-98386227D01*
X148073796Y-98410496D01*
X148075000Y-98435000D01*
X148075000Y-99685000D01*
X148073796Y-99709504D01*
X148070196Y-99733773D01*
X148064235Y-99757571D01*
X148055970Y-99780671D01*
X148045480Y-99802849D01*
X148032867Y-99823893D01*
X148018253Y-99843598D01*
X148001777Y-99861777D01*
X147983598Y-99878253D01*
X147963893Y-99892867D01*
X147942849Y-99905480D01*
X147920671Y-99915970D01*
X147897571Y-99924235D01*
X147873773Y-99930196D01*
X147849504Y-99933796D01*
X147825000Y-99935000D01*
X147075000Y-99935000D01*
X147050496Y-99933796D01*
X147026227Y-99930196D01*
X147002429Y-99924235D01*
X146979329Y-99915970D01*
X146957151Y-99905480D01*
X146936107Y-99892867D01*
X146916402Y-99878253D01*
X146898223Y-99861777D01*
X146881747Y-99843598D01*
X146867133Y-99823893D01*
X146854520Y-99802849D01*
X146844030Y-99780671D01*
X146835765Y-99757571D01*
X146829804Y-99733773D01*
X146826204Y-99709504D01*
X146825000Y-99685000D01*
X146825000Y-98435000D01*
X146826204Y-98410496D01*
X146829804Y-98386227D01*
X146835765Y-98362429D01*
X146844030Y-98339329D01*
X146854520Y-98317151D01*
X146867133Y-98296107D01*
X146881747Y-98276402D01*
X146898223Y-98258223D01*
X146916402Y-98241747D01*
X146936107Y-98227133D01*
X146957151Y-98214520D01*
X146979329Y-98204030D01*
X147002429Y-98195765D01*
X147026227Y-98189804D01*
X147050496Y-98186204D01*
X147075000Y-98185000D01*
X147825000Y-98185000D01*
X147849504Y-98186204D01*
X147849504Y-98186204D01*
G37*
D15*
X147450000Y-99060000D03*
D12*
X160020000Y-109220000D03*
X160020000Y-106680000D03*
X160020000Y-104140000D03*
D13*
X160020000Y-101600000D03*
D10*
X119380000Y-99060000D03*
X119380000Y-93980000D03*
X119380000Y-88900000D03*
X119380000Y-86360000D03*
X111760000Y-86360000D03*
X111760000Y-88900000D03*
X111760000Y-93980000D03*
X111760000Y-99060000D03*
X111760000Y-101600000D03*
X111760000Y-106680000D03*
X111760000Y-111760000D03*
X111760000Y-114300000D03*
X119380000Y-114300000D03*
X119380000Y-111760000D03*
X119380000Y-106680000D03*
X119380000Y-101600000D03*
X109220000Y-99060000D03*
X109220000Y-93980000D03*
X109220000Y-88900000D03*
X109220000Y-86360000D03*
X101600000Y-86360000D03*
X101600000Y-88900000D03*
X101600000Y-93980000D03*
X101600000Y-99060000D03*
X101600000Y-101600000D03*
X101600000Y-106680000D03*
X101600000Y-111760000D03*
X101600000Y-114300000D03*
X109220000Y-114300000D03*
X109220000Y-111760000D03*
X109220000Y-106680000D03*
X109220000Y-101600000D03*
D12*
X156210000Y-114300000D03*
X156210000Y-111760000D03*
D13*
X156210000Y-109220000D03*
D10*
X142240000Y-101600000D03*
X142240000Y-106680000D03*
X142240000Y-111760000D03*
X142240000Y-114300000D03*
X149860000Y-114300000D03*
X149860000Y-111760000D03*
X149860000Y-106680000D03*
X149860000Y-101600000D03*
X160020000Y-99060000D03*
X160020000Y-93980000D03*
X160020000Y-88900000D03*
X160020000Y-86360000D03*
X152400000Y-86360000D03*
X152400000Y-88900000D03*
X152400000Y-93980000D03*
X152400000Y-99060000D03*
X129540000Y-99060000D03*
X129540000Y-93980000D03*
X129540000Y-88900000D03*
X129540000Y-86360000D03*
X121920000Y-86360000D03*
X121920000Y-88900000D03*
X121920000Y-93980000D03*
X121920000Y-99060000D03*
X121920000Y-101600000D03*
X121920000Y-106680000D03*
X121920000Y-111760000D03*
X121920000Y-114300000D03*
X129540000Y-114300000D03*
X129540000Y-111760000D03*
X129540000Y-106680000D03*
X129540000Y-101600000D03*
X78740000Y-99060000D03*
X78740000Y-93980000D03*
X78740000Y-88900000D03*
X78740000Y-86360000D03*
X71120000Y-86360000D03*
X71120000Y-88900000D03*
X71120000Y-93980000D03*
X71120000Y-99060000D03*
X71120000Y-101600000D03*
X71120000Y-106680000D03*
X71120000Y-111760000D03*
X71120000Y-114300000D03*
X78740000Y-114300000D03*
X78740000Y-111760000D03*
X78740000Y-106680000D03*
X78740000Y-101600000D03*
X68580000Y-99060000D03*
X68580000Y-93980000D03*
X68580000Y-88900000D03*
X68580000Y-86360000D03*
X60960000Y-86360000D03*
X60960000Y-88900000D03*
X60960000Y-93980000D03*
X60960000Y-99060000D03*
X60960000Y-101600000D03*
X60960000Y-106680000D03*
X60960000Y-111760000D03*
X60960000Y-114300000D03*
X68580000Y-114300000D03*
X68580000Y-111760000D03*
X68580000Y-106680000D03*
X68580000Y-101600000D03*
X58420000Y-99060000D03*
X58420000Y-93980000D03*
X58420000Y-88900000D03*
X58420000Y-86360000D03*
X50800000Y-86360000D03*
X50800000Y-88900000D03*
X50800000Y-93980000D03*
X50800000Y-99060000D03*
X50800000Y-101600000D03*
X50800000Y-106680000D03*
X50800000Y-111760000D03*
X50800000Y-114300000D03*
X58420000Y-114300000D03*
X58420000Y-111760000D03*
X58420000Y-106680000D03*
X58420000Y-101600000D03*
X48260000Y-99060000D03*
X48260000Y-93980000D03*
X48260000Y-88900000D03*
X48260000Y-86360000D03*
X40640000Y-86360000D03*
X40640000Y-88900000D03*
X40640000Y-93980000D03*
X40640000Y-99060000D03*
X40640000Y-101600000D03*
X40640000Y-106680000D03*
X40640000Y-111760000D03*
X40640000Y-114300000D03*
X48260000Y-114300000D03*
X48260000Y-111760000D03*
X48260000Y-106680000D03*
X48260000Y-101600000D03*
D14*
G36*
X155209504Y-98186204D02*
G01*
X155233773Y-98189804D01*
X155257571Y-98195765D01*
X155280671Y-98204030D01*
X155302849Y-98214520D01*
X155323893Y-98227133D01*
X155343598Y-98241747D01*
X155361777Y-98258223D01*
X155378253Y-98276402D01*
X155392867Y-98296107D01*
X155405480Y-98317151D01*
X155415970Y-98339329D01*
X155424235Y-98362429D01*
X155430196Y-98386227D01*
X155433796Y-98410496D01*
X155435000Y-98435000D01*
X155435000Y-99685000D01*
X155433796Y-99709504D01*
X155430196Y-99733773D01*
X155424235Y-99757571D01*
X155415970Y-99780671D01*
X155405480Y-99802849D01*
X155392867Y-99823893D01*
X155378253Y-99843598D01*
X155361777Y-99861777D01*
X155343598Y-99878253D01*
X155323893Y-99892867D01*
X155302849Y-99905480D01*
X155280671Y-99915970D01*
X155257571Y-99924235D01*
X155233773Y-99930196D01*
X155209504Y-99933796D01*
X155185000Y-99935000D01*
X154435000Y-99935000D01*
X154410496Y-99933796D01*
X154386227Y-99930196D01*
X154362429Y-99924235D01*
X154339329Y-99915970D01*
X154317151Y-99905480D01*
X154296107Y-99892867D01*
X154276402Y-99878253D01*
X154258223Y-99861777D01*
X154241747Y-99843598D01*
X154227133Y-99823893D01*
X154214520Y-99802849D01*
X154204030Y-99780671D01*
X154195765Y-99757571D01*
X154189804Y-99733773D01*
X154186204Y-99709504D01*
X154185000Y-99685000D01*
X154185000Y-98435000D01*
X154186204Y-98410496D01*
X154189804Y-98386227D01*
X154195765Y-98362429D01*
X154204030Y-98339329D01*
X154214520Y-98317151D01*
X154227133Y-98296107D01*
X154241747Y-98276402D01*
X154258223Y-98258223D01*
X154276402Y-98241747D01*
X154296107Y-98227133D01*
X154317151Y-98214520D01*
X154339329Y-98204030D01*
X154362429Y-98195765D01*
X154386227Y-98189804D01*
X154410496Y-98186204D01*
X154435000Y-98185000D01*
X155185000Y-98185000D01*
X155209504Y-98186204D01*
X155209504Y-98186204D01*
G37*
D15*
X154810000Y-99060000D03*
D14*
G36*
X158009504Y-98186204D02*
G01*
X158033773Y-98189804D01*
X158057571Y-98195765D01*
X158080671Y-98204030D01*
X158102849Y-98214520D01*
X158123893Y-98227133D01*
X158143598Y-98241747D01*
X158161777Y-98258223D01*
X158178253Y-98276402D01*
X158192867Y-98296107D01*
X158205480Y-98317151D01*
X158215970Y-98339329D01*
X158224235Y-98362429D01*
X158230196Y-98386227D01*
X158233796Y-98410496D01*
X158235000Y-98435000D01*
X158235000Y-99685000D01*
X158233796Y-99709504D01*
X158230196Y-99733773D01*
X158224235Y-99757571D01*
X158215970Y-99780671D01*
X158205480Y-99802849D01*
X158192867Y-99823893D01*
X158178253Y-99843598D01*
X158161777Y-99861777D01*
X158143598Y-99878253D01*
X158123893Y-99892867D01*
X158102849Y-99905480D01*
X158080671Y-99915970D01*
X158057571Y-99924235D01*
X158033773Y-99930196D01*
X158009504Y-99933796D01*
X157985000Y-99935000D01*
X157235000Y-99935000D01*
X157210496Y-99933796D01*
X157186227Y-99930196D01*
X157162429Y-99924235D01*
X157139329Y-99915970D01*
X157117151Y-99905480D01*
X157096107Y-99892867D01*
X157076402Y-99878253D01*
X157058223Y-99861777D01*
X157041747Y-99843598D01*
X157027133Y-99823893D01*
X157014520Y-99802849D01*
X157004030Y-99780671D01*
X156995765Y-99757571D01*
X156989804Y-99733773D01*
X156986204Y-99709504D01*
X156985000Y-99685000D01*
X156985000Y-98435000D01*
X156986204Y-98410496D01*
X156989804Y-98386227D01*
X156995765Y-98362429D01*
X157004030Y-98339329D01*
X157014520Y-98317151D01*
X157027133Y-98296107D01*
X157041747Y-98276402D01*
X157058223Y-98258223D01*
X157076402Y-98241747D01*
X157096107Y-98227133D01*
X157117151Y-98214520D01*
X157139329Y-98204030D01*
X157162429Y-98195765D01*
X157186227Y-98189804D01*
X157210496Y-98186204D01*
X157235000Y-98185000D01*
X157985000Y-98185000D01*
X158009504Y-98186204D01*
X158009504Y-98186204D01*
G37*
D15*
X157610000Y-99060000D03*
D14*
G36*
X147849504Y-100726204D02*
G01*
X147873773Y-100729804D01*
X147897571Y-100735765D01*
X147920671Y-100744030D01*
X147942849Y-100754520D01*
X147963893Y-100767133D01*
X147983598Y-100781747D01*
X148001777Y-100798223D01*
X148018253Y-100816402D01*
X148032867Y-100836107D01*
X148045480Y-100857151D01*
X148055970Y-100879329D01*
X148064235Y-100902429D01*
X148070196Y-100926227D01*
X148073796Y-100950496D01*
X148075000Y-100975000D01*
X148075000Y-102225000D01*
X148073796Y-102249504D01*
X148070196Y-102273773D01*
X148064235Y-102297571D01*
X148055970Y-102320671D01*
X148045480Y-102342849D01*
X148032867Y-102363893D01*
X148018253Y-102383598D01*
X148001777Y-102401777D01*
X147983598Y-102418253D01*
X147963893Y-102432867D01*
X147942849Y-102445480D01*
X147920671Y-102455970D01*
X147897571Y-102464235D01*
X147873773Y-102470196D01*
X147849504Y-102473796D01*
X147825000Y-102475000D01*
X147075000Y-102475000D01*
X147050496Y-102473796D01*
X147026227Y-102470196D01*
X147002429Y-102464235D01*
X146979329Y-102455970D01*
X146957151Y-102445480D01*
X146936107Y-102432867D01*
X146916402Y-102418253D01*
X146898223Y-102401777D01*
X146881747Y-102383598D01*
X146867133Y-102363893D01*
X146854520Y-102342849D01*
X146844030Y-102320671D01*
X146835765Y-102297571D01*
X146829804Y-102273773D01*
X146826204Y-102249504D01*
X146825000Y-102225000D01*
X146825000Y-100975000D01*
X146826204Y-100950496D01*
X146829804Y-100926227D01*
X146835765Y-100902429D01*
X146844030Y-100879329D01*
X146854520Y-100857151D01*
X146867133Y-100836107D01*
X146881747Y-100816402D01*
X146898223Y-100798223D01*
X146916402Y-100781747D01*
X146936107Y-100767133D01*
X146957151Y-100754520D01*
X146979329Y-100744030D01*
X147002429Y-100735765D01*
X147026227Y-100729804D01*
X147050496Y-100726204D01*
X147075000Y-100725000D01*
X147825000Y-100725000D01*
X147849504Y-100726204D01*
X147849504Y-100726204D01*
G37*
D15*
X147450000Y-101600000D03*
D14*
G36*
X145049504Y-100726204D02*
G01*
X145073773Y-100729804D01*
X145097571Y-100735765D01*
X145120671Y-100744030D01*
X145142849Y-100754520D01*
X145163893Y-100767133D01*
X145183598Y-100781747D01*
X145201777Y-100798223D01*
X145218253Y-100816402D01*
X145232867Y-100836107D01*
X145245480Y-100857151D01*
X145255970Y-100879329D01*
X145264235Y-100902429D01*
X145270196Y-100926227D01*
X145273796Y-100950496D01*
X145275000Y-100975000D01*
X145275000Y-102225000D01*
X145273796Y-102249504D01*
X145270196Y-102273773D01*
X145264235Y-102297571D01*
X145255970Y-102320671D01*
X145245480Y-102342849D01*
X145232867Y-102363893D01*
X145218253Y-102383598D01*
X145201777Y-102401777D01*
X145183598Y-102418253D01*
X145163893Y-102432867D01*
X145142849Y-102445480D01*
X145120671Y-102455970D01*
X145097571Y-102464235D01*
X145073773Y-102470196D01*
X145049504Y-102473796D01*
X145025000Y-102475000D01*
X144275000Y-102475000D01*
X144250496Y-102473796D01*
X144226227Y-102470196D01*
X144202429Y-102464235D01*
X144179329Y-102455970D01*
X144157151Y-102445480D01*
X144136107Y-102432867D01*
X144116402Y-102418253D01*
X144098223Y-102401777D01*
X144081747Y-102383598D01*
X144067133Y-102363893D01*
X144054520Y-102342849D01*
X144044030Y-102320671D01*
X144035765Y-102297571D01*
X144029804Y-102273773D01*
X144026204Y-102249504D01*
X144025000Y-102225000D01*
X144025000Y-100975000D01*
X144026204Y-100950496D01*
X144029804Y-100926227D01*
X144035765Y-100902429D01*
X144044030Y-100879329D01*
X144054520Y-100857151D01*
X144067133Y-100836107D01*
X144081747Y-100816402D01*
X144098223Y-100798223D01*
X144116402Y-100781747D01*
X144136107Y-100767133D01*
X144157151Y-100754520D01*
X144179329Y-100744030D01*
X144202429Y-100735765D01*
X144226227Y-100729804D01*
X144250496Y-100726204D01*
X144275000Y-100725000D01*
X145025000Y-100725000D01*
X145049504Y-100726204D01*
X145049504Y-100726204D01*
G37*
D15*
X144650000Y-101600000D03*
D14*
G36*
X127529504Y-100726204D02*
G01*
X127553773Y-100729804D01*
X127577571Y-100735765D01*
X127600671Y-100744030D01*
X127622849Y-100754520D01*
X127643893Y-100767133D01*
X127663598Y-100781747D01*
X127681777Y-100798223D01*
X127698253Y-100816402D01*
X127712867Y-100836107D01*
X127725480Y-100857151D01*
X127735970Y-100879329D01*
X127744235Y-100902429D01*
X127750196Y-100926227D01*
X127753796Y-100950496D01*
X127755000Y-100975000D01*
X127755000Y-102225000D01*
X127753796Y-102249504D01*
X127750196Y-102273773D01*
X127744235Y-102297571D01*
X127735970Y-102320671D01*
X127725480Y-102342849D01*
X127712867Y-102363893D01*
X127698253Y-102383598D01*
X127681777Y-102401777D01*
X127663598Y-102418253D01*
X127643893Y-102432867D01*
X127622849Y-102445480D01*
X127600671Y-102455970D01*
X127577571Y-102464235D01*
X127553773Y-102470196D01*
X127529504Y-102473796D01*
X127505000Y-102475000D01*
X126755000Y-102475000D01*
X126730496Y-102473796D01*
X126706227Y-102470196D01*
X126682429Y-102464235D01*
X126659329Y-102455970D01*
X126637151Y-102445480D01*
X126616107Y-102432867D01*
X126596402Y-102418253D01*
X126578223Y-102401777D01*
X126561747Y-102383598D01*
X126547133Y-102363893D01*
X126534520Y-102342849D01*
X126524030Y-102320671D01*
X126515765Y-102297571D01*
X126509804Y-102273773D01*
X126506204Y-102249504D01*
X126505000Y-102225000D01*
X126505000Y-100975000D01*
X126506204Y-100950496D01*
X126509804Y-100926227D01*
X126515765Y-100902429D01*
X126524030Y-100879329D01*
X126534520Y-100857151D01*
X126547133Y-100836107D01*
X126561747Y-100816402D01*
X126578223Y-100798223D01*
X126596402Y-100781747D01*
X126616107Y-100767133D01*
X126637151Y-100754520D01*
X126659329Y-100744030D01*
X126682429Y-100735765D01*
X126706227Y-100729804D01*
X126730496Y-100726204D01*
X126755000Y-100725000D01*
X127505000Y-100725000D01*
X127529504Y-100726204D01*
X127529504Y-100726204D01*
G37*
D15*
X127130000Y-101600000D03*
D14*
G36*
X124729504Y-100726204D02*
G01*
X124753773Y-100729804D01*
X124777571Y-100735765D01*
X124800671Y-100744030D01*
X124822849Y-100754520D01*
X124843893Y-100767133D01*
X124863598Y-100781747D01*
X124881777Y-100798223D01*
X124898253Y-100816402D01*
X124912867Y-100836107D01*
X124925480Y-100857151D01*
X124935970Y-100879329D01*
X124944235Y-100902429D01*
X124950196Y-100926227D01*
X124953796Y-100950496D01*
X124955000Y-100975000D01*
X124955000Y-102225000D01*
X124953796Y-102249504D01*
X124950196Y-102273773D01*
X124944235Y-102297571D01*
X124935970Y-102320671D01*
X124925480Y-102342849D01*
X124912867Y-102363893D01*
X124898253Y-102383598D01*
X124881777Y-102401777D01*
X124863598Y-102418253D01*
X124843893Y-102432867D01*
X124822849Y-102445480D01*
X124800671Y-102455970D01*
X124777571Y-102464235D01*
X124753773Y-102470196D01*
X124729504Y-102473796D01*
X124705000Y-102475000D01*
X123955000Y-102475000D01*
X123930496Y-102473796D01*
X123906227Y-102470196D01*
X123882429Y-102464235D01*
X123859329Y-102455970D01*
X123837151Y-102445480D01*
X123816107Y-102432867D01*
X123796402Y-102418253D01*
X123778223Y-102401777D01*
X123761747Y-102383598D01*
X123747133Y-102363893D01*
X123734520Y-102342849D01*
X123724030Y-102320671D01*
X123715765Y-102297571D01*
X123709804Y-102273773D01*
X123706204Y-102249504D01*
X123705000Y-102225000D01*
X123705000Y-100975000D01*
X123706204Y-100950496D01*
X123709804Y-100926227D01*
X123715765Y-100902429D01*
X123724030Y-100879329D01*
X123734520Y-100857151D01*
X123747133Y-100836107D01*
X123761747Y-100816402D01*
X123778223Y-100798223D01*
X123796402Y-100781747D01*
X123816107Y-100767133D01*
X123837151Y-100754520D01*
X123859329Y-100744030D01*
X123882429Y-100735765D01*
X123906227Y-100729804D01*
X123930496Y-100726204D01*
X123955000Y-100725000D01*
X124705000Y-100725000D01*
X124729504Y-100726204D01*
X124729504Y-100726204D01*
G37*
D15*
X124330000Y-101600000D03*
D14*
G36*
X117369504Y-100726204D02*
G01*
X117393773Y-100729804D01*
X117417571Y-100735765D01*
X117440671Y-100744030D01*
X117462849Y-100754520D01*
X117483893Y-100767133D01*
X117503598Y-100781747D01*
X117521777Y-100798223D01*
X117538253Y-100816402D01*
X117552867Y-100836107D01*
X117565480Y-100857151D01*
X117575970Y-100879329D01*
X117584235Y-100902429D01*
X117590196Y-100926227D01*
X117593796Y-100950496D01*
X117595000Y-100975000D01*
X117595000Y-102225000D01*
X117593796Y-102249504D01*
X117590196Y-102273773D01*
X117584235Y-102297571D01*
X117575970Y-102320671D01*
X117565480Y-102342849D01*
X117552867Y-102363893D01*
X117538253Y-102383598D01*
X117521777Y-102401777D01*
X117503598Y-102418253D01*
X117483893Y-102432867D01*
X117462849Y-102445480D01*
X117440671Y-102455970D01*
X117417571Y-102464235D01*
X117393773Y-102470196D01*
X117369504Y-102473796D01*
X117345000Y-102475000D01*
X116595000Y-102475000D01*
X116570496Y-102473796D01*
X116546227Y-102470196D01*
X116522429Y-102464235D01*
X116499329Y-102455970D01*
X116477151Y-102445480D01*
X116456107Y-102432867D01*
X116436402Y-102418253D01*
X116418223Y-102401777D01*
X116401747Y-102383598D01*
X116387133Y-102363893D01*
X116374520Y-102342849D01*
X116364030Y-102320671D01*
X116355765Y-102297571D01*
X116349804Y-102273773D01*
X116346204Y-102249504D01*
X116345000Y-102225000D01*
X116345000Y-100975000D01*
X116346204Y-100950496D01*
X116349804Y-100926227D01*
X116355765Y-100902429D01*
X116364030Y-100879329D01*
X116374520Y-100857151D01*
X116387133Y-100836107D01*
X116401747Y-100816402D01*
X116418223Y-100798223D01*
X116436402Y-100781747D01*
X116456107Y-100767133D01*
X116477151Y-100754520D01*
X116499329Y-100744030D01*
X116522429Y-100735765D01*
X116546227Y-100729804D01*
X116570496Y-100726204D01*
X116595000Y-100725000D01*
X117345000Y-100725000D01*
X117369504Y-100726204D01*
X117369504Y-100726204D01*
G37*
D15*
X116970000Y-101600000D03*
D14*
G36*
X114569504Y-100726204D02*
G01*
X114593773Y-100729804D01*
X114617571Y-100735765D01*
X114640671Y-100744030D01*
X114662849Y-100754520D01*
X114683893Y-100767133D01*
X114703598Y-100781747D01*
X114721777Y-100798223D01*
X114738253Y-100816402D01*
X114752867Y-100836107D01*
X114765480Y-100857151D01*
X114775970Y-100879329D01*
X114784235Y-100902429D01*
X114790196Y-100926227D01*
X114793796Y-100950496D01*
X114795000Y-100975000D01*
X114795000Y-102225000D01*
X114793796Y-102249504D01*
X114790196Y-102273773D01*
X114784235Y-102297571D01*
X114775970Y-102320671D01*
X114765480Y-102342849D01*
X114752867Y-102363893D01*
X114738253Y-102383598D01*
X114721777Y-102401777D01*
X114703598Y-102418253D01*
X114683893Y-102432867D01*
X114662849Y-102445480D01*
X114640671Y-102455970D01*
X114617571Y-102464235D01*
X114593773Y-102470196D01*
X114569504Y-102473796D01*
X114545000Y-102475000D01*
X113795000Y-102475000D01*
X113770496Y-102473796D01*
X113746227Y-102470196D01*
X113722429Y-102464235D01*
X113699329Y-102455970D01*
X113677151Y-102445480D01*
X113656107Y-102432867D01*
X113636402Y-102418253D01*
X113618223Y-102401777D01*
X113601747Y-102383598D01*
X113587133Y-102363893D01*
X113574520Y-102342849D01*
X113564030Y-102320671D01*
X113555765Y-102297571D01*
X113549804Y-102273773D01*
X113546204Y-102249504D01*
X113545000Y-102225000D01*
X113545000Y-100975000D01*
X113546204Y-100950496D01*
X113549804Y-100926227D01*
X113555765Y-100902429D01*
X113564030Y-100879329D01*
X113574520Y-100857151D01*
X113587133Y-100836107D01*
X113601747Y-100816402D01*
X113618223Y-100798223D01*
X113636402Y-100781747D01*
X113656107Y-100767133D01*
X113677151Y-100754520D01*
X113699329Y-100744030D01*
X113722429Y-100735765D01*
X113746227Y-100729804D01*
X113770496Y-100726204D01*
X113795000Y-100725000D01*
X114545000Y-100725000D01*
X114569504Y-100726204D01*
X114569504Y-100726204D01*
G37*
D15*
X114170000Y-101600000D03*
D14*
G36*
X107209504Y-100726204D02*
G01*
X107233773Y-100729804D01*
X107257571Y-100735765D01*
X107280671Y-100744030D01*
X107302849Y-100754520D01*
X107323893Y-100767133D01*
X107343598Y-100781747D01*
X107361777Y-100798223D01*
X107378253Y-100816402D01*
X107392867Y-100836107D01*
X107405480Y-100857151D01*
X107415970Y-100879329D01*
X107424235Y-100902429D01*
X107430196Y-100926227D01*
X107433796Y-100950496D01*
X107435000Y-100975000D01*
X107435000Y-102225000D01*
X107433796Y-102249504D01*
X107430196Y-102273773D01*
X107424235Y-102297571D01*
X107415970Y-102320671D01*
X107405480Y-102342849D01*
X107392867Y-102363893D01*
X107378253Y-102383598D01*
X107361777Y-102401777D01*
X107343598Y-102418253D01*
X107323893Y-102432867D01*
X107302849Y-102445480D01*
X107280671Y-102455970D01*
X107257571Y-102464235D01*
X107233773Y-102470196D01*
X107209504Y-102473796D01*
X107185000Y-102475000D01*
X106435000Y-102475000D01*
X106410496Y-102473796D01*
X106386227Y-102470196D01*
X106362429Y-102464235D01*
X106339329Y-102455970D01*
X106317151Y-102445480D01*
X106296107Y-102432867D01*
X106276402Y-102418253D01*
X106258223Y-102401777D01*
X106241747Y-102383598D01*
X106227133Y-102363893D01*
X106214520Y-102342849D01*
X106204030Y-102320671D01*
X106195765Y-102297571D01*
X106189804Y-102273773D01*
X106186204Y-102249504D01*
X106185000Y-102225000D01*
X106185000Y-100975000D01*
X106186204Y-100950496D01*
X106189804Y-100926227D01*
X106195765Y-100902429D01*
X106204030Y-100879329D01*
X106214520Y-100857151D01*
X106227133Y-100836107D01*
X106241747Y-100816402D01*
X106258223Y-100798223D01*
X106276402Y-100781747D01*
X106296107Y-100767133D01*
X106317151Y-100754520D01*
X106339329Y-100744030D01*
X106362429Y-100735765D01*
X106386227Y-100729804D01*
X106410496Y-100726204D01*
X106435000Y-100725000D01*
X107185000Y-100725000D01*
X107209504Y-100726204D01*
X107209504Y-100726204D01*
G37*
D15*
X106810000Y-101600000D03*
D14*
G36*
X104409504Y-100726204D02*
G01*
X104433773Y-100729804D01*
X104457571Y-100735765D01*
X104480671Y-100744030D01*
X104502849Y-100754520D01*
X104523893Y-100767133D01*
X104543598Y-100781747D01*
X104561777Y-100798223D01*
X104578253Y-100816402D01*
X104592867Y-100836107D01*
X104605480Y-100857151D01*
X104615970Y-100879329D01*
X104624235Y-100902429D01*
X104630196Y-100926227D01*
X104633796Y-100950496D01*
X104635000Y-100975000D01*
X104635000Y-102225000D01*
X104633796Y-102249504D01*
X104630196Y-102273773D01*
X104624235Y-102297571D01*
X104615970Y-102320671D01*
X104605480Y-102342849D01*
X104592867Y-102363893D01*
X104578253Y-102383598D01*
X104561777Y-102401777D01*
X104543598Y-102418253D01*
X104523893Y-102432867D01*
X104502849Y-102445480D01*
X104480671Y-102455970D01*
X104457571Y-102464235D01*
X104433773Y-102470196D01*
X104409504Y-102473796D01*
X104385000Y-102475000D01*
X103635000Y-102475000D01*
X103610496Y-102473796D01*
X103586227Y-102470196D01*
X103562429Y-102464235D01*
X103539329Y-102455970D01*
X103517151Y-102445480D01*
X103496107Y-102432867D01*
X103476402Y-102418253D01*
X103458223Y-102401777D01*
X103441747Y-102383598D01*
X103427133Y-102363893D01*
X103414520Y-102342849D01*
X103404030Y-102320671D01*
X103395765Y-102297571D01*
X103389804Y-102273773D01*
X103386204Y-102249504D01*
X103385000Y-102225000D01*
X103385000Y-100975000D01*
X103386204Y-100950496D01*
X103389804Y-100926227D01*
X103395765Y-100902429D01*
X103404030Y-100879329D01*
X103414520Y-100857151D01*
X103427133Y-100836107D01*
X103441747Y-100816402D01*
X103458223Y-100798223D01*
X103476402Y-100781747D01*
X103496107Y-100767133D01*
X103517151Y-100754520D01*
X103539329Y-100744030D01*
X103562429Y-100735765D01*
X103586227Y-100729804D01*
X103610496Y-100726204D01*
X103635000Y-100725000D01*
X104385000Y-100725000D01*
X104409504Y-100726204D01*
X104409504Y-100726204D01*
G37*
D15*
X104010000Y-101600000D03*
D14*
G36*
X97049504Y-100726204D02*
G01*
X97073773Y-100729804D01*
X97097571Y-100735765D01*
X97120671Y-100744030D01*
X97142849Y-100754520D01*
X97163893Y-100767133D01*
X97183598Y-100781747D01*
X97201777Y-100798223D01*
X97218253Y-100816402D01*
X97232867Y-100836107D01*
X97245480Y-100857151D01*
X97255970Y-100879329D01*
X97264235Y-100902429D01*
X97270196Y-100926227D01*
X97273796Y-100950496D01*
X97275000Y-100975000D01*
X97275000Y-102225000D01*
X97273796Y-102249504D01*
X97270196Y-102273773D01*
X97264235Y-102297571D01*
X97255970Y-102320671D01*
X97245480Y-102342849D01*
X97232867Y-102363893D01*
X97218253Y-102383598D01*
X97201777Y-102401777D01*
X97183598Y-102418253D01*
X97163893Y-102432867D01*
X97142849Y-102445480D01*
X97120671Y-102455970D01*
X97097571Y-102464235D01*
X97073773Y-102470196D01*
X97049504Y-102473796D01*
X97025000Y-102475000D01*
X96275000Y-102475000D01*
X96250496Y-102473796D01*
X96226227Y-102470196D01*
X96202429Y-102464235D01*
X96179329Y-102455970D01*
X96157151Y-102445480D01*
X96136107Y-102432867D01*
X96116402Y-102418253D01*
X96098223Y-102401777D01*
X96081747Y-102383598D01*
X96067133Y-102363893D01*
X96054520Y-102342849D01*
X96044030Y-102320671D01*
X96035765Y-102297571D01*
X96029804Y-102273773D01*
X96026204Y-102249504D01*
X96025000Y-102225000D01*
X96025000Y-100975000D01*
X96026204Y-100950496D01*
X96029804Y-100926227D01*
X96035765Y-100902429D01*
X96044030Y-100879329D01*
X96054520Y-100857151D01*
X96067133Y-100836107D01*
X96081747Y-100816402D01*
X96098223Y-100798223D01*
X96116402Y-100781747D01*
X96136107Y-100767133D01*
X96157151Y-100754520D01*
X96179329Y-100744030D01*
X96202429Y-100735765D01*
X96226227Y-100729804D01*
X96250496Y-100726204D01*
X96275000Y-100725000D01*
X97025000Y-100725000D01*
X97049504Y-100726204D01*
X97049504Y-100726204D01*
G37*
D15*
X96650000Y-101600000D03*
D14*
G36*
X94249504Y-100726204D02*
G01*
X94273773Y-100729804D01*
X94297571Y-100735765D01*
X94320671Y-100744030D01*
X94342849Y-100754520D01*
X94363893Y-100767133D01*
X94383598Y-100781747D01*
X94401777Y-100798223D01*
X94418253Y-100816402D01*
X94432867Y-100836107D01*
X94445480Y-100857151D01*
X94455970Y-100879329D01*
X94464235Y-100902429D01*
X94470196Y-100926227D01*
X94473796Y-100950496D01*
X94475000Y-100975000D01*
X94475000Y-102225000D01*
X94473796Y-102249504D01*
X94470196Y-102273773D01*
X94464235Y-102297571D01*
X94455970Y-102320671D01*
X94445480Y-102342849D01*
X94432867Y-102363893D01*
X94418253Y-102383598D01*
X94401777Y-102401777D01*
X94383598Y-102418253D01*
X94363893Y-102432867D01*
X94342849Y-102445480D01*
X94320671Y-102455970D01*
X94297571Y-102464235D01*
X94273773Y-102470196D01*
X94249504Y-102473796D01*
X94225000Y-102475000D01*
X93475000Y-102475000D01*
X93450496Y-102473796D01*
X93426227Y-102470196D01*
X93402429Y-102464235D01*
X93379329Y-102455970D01*
X93357151Y-102445480D01*
X93336107Y-102432867D01*
X93316402Y-102418253D01*
X93298223Y-102401777D01*
X93281747Y-102383598D01*
X93267133Y-102363893D01*
X93254520Y-102342849D01*
X93244030Y-102320671D01*
X93235765Y-102297571D01*
X93229804Y-102273773D01*
X93226204Y-102249504D01*
X93225000Y-102225000D01*
X93225000Y-100975000D01*
X93226204Y-100950496D01*
X93229804Y-100926227D01*
X93235765Y-100902429D01*
X93244030Y-100879329D01*
X93254520Y-100857151D01*
X93267133Y-100836107D01*
X93281747Y-100816402D01*
X93298223Y-100798223D01*
X93316402Y-100781747D01*
X93336107Y-100767133D01*
X93357151Y-100754520D01*
X93379329Y-100744030D01*
X93402429Y-100735765D01*
X93426227Y-100729804D01*
X93450496Y-100726204D01*
X93475000Y-100725000D01*
X94225000Y-100725000D01*
X94249504Y-100726204D01*
X94249504Y-100726204D01*
G37*
D15*
X93850000Y-101600000D03*
D14*
G36*
X86889504Y-100726204D02*
G01*
X86913773Y-100729804D01*
X86937571Y-100735765D01*
X86960671Y-100744030D01*
X86982849Y-100754520D01*
X87003893Y-100767133D01*
X87023598Y-100781747D01*
X87041777Y-100798223D01*
X87058253Y-100816402D01*
X87072867Y-100836107D01*
X87085480Y-100857151D01*
X87095970Y-100879329D01*
X87104235Y-100902429D01*
X87110196Y-100926227D01*
X87113796Y-100950496D01*
X87115000Y-100975000D01*
X87115000Y-102225000D01*
X87113796Y-102249504D01*
X87110196Y-102273773D01*
X87104235Y-102297571D01*
X87095970Y-102320671D01*
X87085480Y-102342849D01*
X87072867Y-102363893D01*
X87058253Y-102383598D01*
X87041777Y-102401777D01*
X87023598Y-102418253D01*
X87003893Y-102432867D01*
X86982849Y-102445480D01*
X86960671Y-102455970D01*
X86937571Y-102464235D01*
X86913773Y-102470196D01*
X86889504Y-102473796D01*
X86865000Y-102475000D01*
X86115000Y-102475000D01*
X86090496Y-102473796D01*
X86066227Y-102470196D01*
X86042429Y-102464235D01*
X86019329Y-102455970D01*
X85997151Y-102445480D01*
X85976107Y-102432867D01*
X85956402Y-102418253D01*
X85938223Y-102401777D01*
X85921747Y-102383598D01*
X85907133Y-102363893D01*
X85894520Y-102342849D01*
X85884030Y-102320671D01*
X85875765Y-102297571D01*
X85869804Y-102273773D01*
X85866204Y-102249504D01*
X85865000Y-102225000D01*
X85865000Y-100975000D01*
X85866204Y-100950496D01*
X85869804Y-100926227D01*
X85875765Y-100902429D01*
X85884030Y-100879329D01*
X85894520Y-100857151D01*
X85907133Y-100836107D01*
X85921747Y-100816402D01*
X85938223Y-100798223D01*
X85956402Y-100781747D01*
X85976107Y-100767133D01*
X85997151Y-100754520D01*
X86019329Y-100744030D01*
X86042429Y-100735765D01*
X86066227Y-100729804D01*
X86090496Y-100726204D01*
X86115000Y-100725000D01*
X86865000Y-100725000D01*
X86889504Y-100726204D01*
X86889504Y-100726204D01*
G37*
D15*
X86490000Y-101600000D03*
D14*
G36*
X84089504Y-100726204D02*
G01*
X84113773Y-100729804D01*
X84137571Y-100735765D01*
X84160671Y-100744030D01*
X84182849Y-100754520D01*
X84203893Y-100767133D01*
X84223598Y-100781747D01*
X84241777Y-100798223D01*
X84258253Y-100816402D01*
X84272867Y-100836107D01*
X84285480Y-100857151D01*
X84295970Y-100879329D01*
X84304235Y-100902429D01*
X84310196Y-100926227D01*
X84313796Y-100950496D01*
X84315000Y-100975000D01*
X84315000Y-102225000D01*
X84313796Y-102249504D01*
X84310196Y-102273773D01*
X84304235Y-102297571D01*
X84295970Y-102320671D01*
X84285480Y-102342849D01*
X84272867Y-102363893D01*
X84258253Y-102383598D01*
X84241777Y-102401777D01*
X84223598Y-102418253D01*
X84203893Y-102432867D01*
X84182849Y-102445480D01*
X84160671Y-102455970D01*
X84137571Y-102464235D01*
X84113773Y-102470196D01*
X84089504Y-102473796D01*
X84065000Y-102475000D01*
X83315000Y-102475000D01*
X83290496Y-102473796D01*
X83266227Y-102470196D01*
X83242429Y-102464235D01*
X83219329Y-102455970D01*
X83197151Y-102445480D01*
X83176107Y-102432867D01*
X83156402Y-102418253D01*
X83138223Y-102401777D01*
X83121747Y-102383598D01*
X83107133Y-102363893D01*
X83094520Y-102342849D01*
X83084030Y-102320671D01*
X83075765Y-102297571D01*
X83069804Y-102273773D01*
X83066204Y-102249504D01*
X83065000Y-102225000D01*
X83065000Y-100975000D01*
X83066204Y-100950496D01*
X83069804Y-100926227D01*
X83075765Y-100902429D01*
X83084030Y-100879329D01*
X83094520Y-100857151D01*
X83107133Y-100836107D01*
X83121747Y-100816402D01*
X83138223Y-100798223D01*
X83156402Y-100781747D01*
X83176107Y-100767133D01*
X83197151Y-100754520D01*
X83219329Y-100744030D01*
X83242429Y-100735765D01*
X83266227Y-100729804D01*
X83290496Y-100726204D01*
X83315000Y-100725000D01*
X84065000Y-100725000D01*
X84089504Y-100726204D01*
X84089504Y-100726204D01*
G37*
D15*
X83690000Y-101600000D03*
D14*
G36*
X76729504Y-100726204D02*
G01*
X76753773Y-100729804D01*
X76777571Y-100735765D01*
X76800671Y-100744030D01*
X76822849Y-100754520D01*
X76843893Y-100767133D01*
X76863598Y-100781747D01*
X76881777Y-100798223D01*
X76898253Y-100816402D01*
X76912867Y-100836107D01*
X76925480Y-100857151D01*
X76935970Y-100879329D01*
X76944235Y-100902429D01*
X76950196Y-100926227D01*
X76953796Y-100950496D01*
X76955000Y-100975000D01*
X76955000Y-102225000D01*
X76953796Y-102249504D01*
X76950196Y-102273773D01*
X76944235Y-102297571D01*
X76935970Y-102320671D01*
X76925480Y-102342849D01*
X76912867Y-102363893D01*
X76898253Y-102383598D01*
X76881777Y-102401777D01*
X76863598Y-102418253D01*
X76843893Y-102432867D01*
X76822849Y-102445480D01*
X76800671Y-102455970D01*
X76777571Y-102464235D01*
X76753773Y-102470196D01*
X76729504Y-102473796D01*
X76705000Y-102475000D01*
X75955000Y-102475000D01*
X75930496Y-102473796D01*
X75906227Y-102470196D01*
X75882429Y-102464235D01*
X75859329Y-102455970D01*
X75837151Y-102445480D01*
X75816107Y-102432867D01*
X75796402Y-102418253D01*
X75778223Y-102401777D01*
X75761747Y-102383598D01*
X75747133Y-102363893D01*
X75734520Y-102342849D01*
X75724030Y-102320671D01*
X75715765Y-102297571D01*
X75709804Y-102273773D01*
X75706204Y-102249504D01*
X75705000Y-102225000D01*
X75705000Y-100975000D01*
X75706204Y-100950496D01*
X75709804Y-100926227D01*
X75715765Y-100902429D01*
X75724030Y-100879329D01*
X75734520Y-100857151D01*
X75747133Y-100836107D01*
X75761747Y-100816402D01*
X75778223Y-100798223D01*
X75796402Y-100781747D01*
X75816107Y-100767133D01*
X75837151Y-100754520D01*
X75859329Y-100744030D01*
X75882429Y-100735765D01*
X75906227Y-100729804D01*
X75930496Y-100726204D01*
X75955000Y-100725000D01*
X76705000Y-100725000D01*
X76729504Y-100726204D01*
X76729504Y-100726204D01*
G37*
D15*
X76330000Y-101600000D03*
D14*
G36*
X73929504Y-100726204D02*
G01*
X73953773Y-100729804D01*
X73977571Y-100735765D01*
X74000671Y-100744030D01*
X74022849Y-100754520D01*
X74043893Y-100767133D01*
X74063598Y-100781747D01*
X74081777Y-100798223D01*
X74098253Y-100816402D01*
X74112867Y-100836107D01*
X74125480Y-100857151D01*
X74135970Y-100879329D01*
X74144235Y-100902429D01*
X74150196Y-100926227D01*
X74153796Y-100950496D01*
X74155000Y-100975000D01*
X74155000Y-102225000D01*
X74153796Y-102249504D01*
X74150196Y-102273773D01*
X74144235Y-102297571D01*
X74135970Y-102320671D01*
X74125480Y-102342849D01*
X74112867Y-102363893D01*
X74098253Y-102383598D01*
X74081777Y-102401777D01*
X74063598Y-102418253D01*
X74043893Y-102432867D01*
X74022849Y-102445480D01*
X74000671Y-102455970D01*
X73977571Y-102464235D01*
X73953773Y-102470196D01*
X73929504Y-102473796D01*
X73905000Y-102475000D01*
X73155000Y-102475000D01*
X73130496Y-102473796D01*
X73106227Y-102470196D01*
X73082429Y-102464235D01*
X73059329Y-102455970D01*
X73037151Y-102445480D01*
X73016107Y-102432867D01*
X72996402Y-102418253D01*
X72978223Y-102401777D01*
X72961747Y-102383598D01*
X72947133Y-102363893D01*
X72934520Y-102342849D01*
X72924030Y-102320671D01*
X72915765Y-102297571D01*
X72909804Y-102273773D01*
X72906204Y-102249504D01*
X72905000Y-102225000D01*
X72905000Y-100975000D01*
X72906204Y-100950496D01*
X72909804Y-100926227D01*
X72915765Y-100902429D01*
X72924030Y-100879329D01*
X72934520Y-100857151D01*
X72947133Y-100836107D01*
X72961747Y-100816402D01*
X72978223Y-100798223D01*
X72996402Y-100781747D01*
X73016107Y-100767133D01*
X73037151Y-100754520D01*
X73059329Y-100744030D01*
X73082429Y-100735765D01*
X73106227Y-100729804D01*
X73130496Y-100726204D01*
X73155000Y-100725000D01*
X73905000Y-100725000D01*
X73929504Y-100726204D01*
X73929504Y-100726204D01*
G37*
D15*
X73530000Y-101600000D03*
D14*
G36*
X66569504Y-100726204D02*
G01*
X66593773Y-100729804D01*
X66617571Y-100735765D01*
X66640671Y-100744030D01*
X66662849Y-100754520D01*
X66683893Y-100767133D01*
X66703598Y-100781747D01*
X66721777Y-100798223D01*
X66738253Y-100816402D01*
X66752867Y-100836107D01*
X66765480Y-100857151D01*
X66775970Y-100879329D01*
X66784235Y-100902429D01*
X66790196Y-100926227D01*
X66793796Y-100950496D01*
X66795000Y-100975000D01*
X66795000Y-102225000D01*
X66793796Y-102249504D01*
X66790196Y-102273773D01*
X66784235Y-102297571D01*
X66775970Y-102320671D01*
X66765480Y-102342849D01*
X66752867Y-102363893D01*
X66738253Y-102383598D01*
X66721777Y-102401777D01*
X66703598Y-102418253D01*
X66683893Y-102432867D01*
X66662849Y-102445480D01*
X66640671Y-102455970D01*
X66617571Y-102464235D01*
X66593773Y-102470196D01*
X66569504Y-102473796D01*
X66545000Y-102475000D01*
X65795000Y-102475000D01*
X65770496Y-102473796D01*
X65746227Y-102470196D01*
X65722429Y-102464235D01*
X65699329Y-102455970D01*
X65677151Y-102445480D01*
X65656107Y-102432867D01*
X65636402Y-102418253D01*
X65618223Y-102401777D01*
X65601747Y-102383598D01*
X65587133Y-102363893D01*
X65574520Y-102342849D01*
X65564030Y-102320671D01*
X65555765Y-102297571D01*
X65549804Y-102273773D01*
X65546204Y-102249504D01*
X65545000Y-102225000D01*
X65545000Y-100975000D01*
X65546204Y-100950496D01*
X65549804Y-100926227D01*
X65555765Y-100902429D01*
X65564030Y-100879329D01*
X65574520Y-100857151D01*
X65587133Y-100836107D01*
X65601747Y-100816402D01*
X65618223Y-100798223D01*
X65636402Y-100781747D01*
X65656107Y-100767133D01*
X65677151Y-100754520D01*
X65699329Y-100744030D01*
X65722429Y-100735765D01*
X65746227Y-100729804D01*
X65770496Y-100726204D01*
X65795000Y-100725000D01*
X66545000Y-100725000D01*
X66569504Y-100726204D01*
X66569504Y-100726204D01*
G37*
D15*
X66170000Y-101600000D03*
D14*
G36*
X63769504Y-100726204D02*
G01*
X63793773Y-100729804D01*
X63817571Y-100735765D01*
X63840671Y-100744030D01*
X63862849Y-100754520D01*
X63883893Y-100767133D01*
X63903598Y-100781747D01*
X63921777Y-100798223D01*
X63938253Y-100816402D01*
X63952867Y-100836107D01*
X63965480Y-100857151D01*
X63975970Y-100879329D01*
X63984235Y-100902429D01*
X63990196Y-100926227D01*
X63993796Y-100950496D01*
X63995000Y-100975000D01*
X63995000Y-102225000D01*
X63993796Y-102249504D01*
X63990196Y-102273773D01*
X63984235Y-102297571D01*
X63975970Y-102320671D01*
X63965480Y-102342849D01*
X63952867Y-102363893D01*
X63938253Y-102383598D01*
X63921777Y-102401777D01*
X63903598Y-102418253D01*
X63883893Y-102432867D01*
X63862849Y-102445480D01*
X63840671Y-102455970D01*
X63817571Y-102464235D01*
X63793773Y-102470196D01*
X63769504Y-102473796D01*
X63745000Y-102475000D01*
X62995000Y-102475000D01*
X62970496Y-102473796D01*
X62946227Y-102470196D01*
X62922429Y-102464235D01*
X62899329Y-102455970D01*
X62877151Y-102445480D01*
X62856107Y-102432867D01*
X62836402Y-102418253D01*
X62818223Y-102401777D01*
X62801747Y-102383598D01*
X62787133Y-102363893D01*
X62774520Y-102342849D01*
X62764030Y-102320671D01*
X62755765Y-102297571D01*
X62749804Y-102273773D01*
X62746204Y-102249504D01*
X62745000Y-102225000D01*
X62745000Y-100975000D01*
X62746204Y-100950496D01*
X62749804Y-100926227D01*
X62755765Y-100902429D01*
X62764030Y-100879329D01*
X62774520Y-100857151D01*
X62787133Y-100836107D01*
X62801747Y-100816402D01*
X62818223Y-100798223D01*
X62836402Y-100781747D01*
X62856107Y-100767133D01*
X62877151Y-100754520D01*
X62899329Y-100744030D01*
X62922429Y-100735765D01*
X62946227Y-100729804D01*
X62970496Y-100726204D01*
X62995000Y-100725000D01*
X63745000Y-100725000D01*
X63769504Y-100726204D01*
X63769504Y-100726204D01*
G37*
D15*
X63370000Y-101600000D03*
D14*
G36*
X56409504Y-100726204D02*
G01*
X56433773Y-100729804D01*
X56457571Y-100735765D01*
X56480671Y-100744030D01*
X56502849Y-100754520D01*
X56523893Y-100767133D01*
X56543598Y-100781747D01*
X56561777Y-100798223D01*
X56578253Y-100816402D01*
X56592867Y-100836107D01*
X56605480Y-100857151D01*
X56615970Y-100879329D01*
X56624235Y-100902429D01*
X56630196Y-100926227D01*
X56633796Y-100950496D01*
X56635000Y-100975000D01*
X56635000Y-102225000D01*
X56633796Y-102249504D01*
X56630196Y-102273773D01*
X56624235Y-102297571D01*
X56615970Y-102320671D01*
X56605480Y-102342849D01*
X56592867Y-102363893D01*
X56578253Y-102383598D01*
X56561777Y-102401777D01*
X56543598Y-102418253D01*
X56523893Y-102432867D01*
X56502849Y-102445480D01*
X56480671Y-102455970D01*
X56457571Y-102464235D01*
X56433773Y-102470196D01*
X56409504Y-102473796D01*
X56385000Y-102475000D01*
X55635000Y-102475000D01*
X55610496Y-102473796D01*
X55586227Y-102470196D01*
X55562429Y-102464235D01*
X55539329Y-102455970D01*
X55517151Y-102445480D01*
X55496107Y-102432867D01*
X55476402Y-102418253D01*
X55458223Y-102401777D01*
X55441747Y-102383598D01*
X55427133Y-102363893D01*
X55414520Y-102342849D01*
X55404030Y-102320671D01*
X55395765Y-102297571D01*
X55389804Y-102273773D01*
X55386204Y-102249504D01*
X55385000Y-102225000D01*
X55385000Y-100975000D01*
X55386204Y-100950496D01*
X55389804Y-100926227D01*
X55395765Y-100902429D01*
X55404030Y-100879329D01*
X55414520Y-100857151D01*
X55427133Y-100836107D01*
X55441747Y-100816402D01*
X55458223Y-100798223D01*
X55476402Y-100781747D01*
X55496107Y-100767133D01*
X55517151Y-100754520D01*
X55539329Y-100744030D01*
X55562429Y-100735765D01*
X55586227Y-100729804D01*
X55610496Y-100726204D01*
X55635000Y-100725000D01*
X56385000Y-100725000D01*
X56409504Y-100726204D01*
X56409504Y-100726204D01*
G37*
D15*
X56010000Y-101600000D03*
D14*
G36*
X53609504Y-100726204D02*
G01*
X53633773Y-100729804D01*
X53657571Y-100735765D01*
X53680671Y-100744030D01*
X53702849Y-100754520D01*
X53723893Y-100767133D01*
X53743598Y-100781747D01*
X53761777Y-100798223D01*
X53778253Y-100816402D01*
X53792867Y-100836107D01*
X53805480Y-100857151D01*
X53815970Y-100879329D01*
X53824235Y-100902429D01*
X53830196Y-100926227D01*
X53833796Y-100950496D01*
X53835000Y-100975000D01*
X53835000Y-102225000D01*
X53833796Y-102249504D01*
X53830196Y-102273773D01*
X53824235Y-102297571D01*
X53815970Y-102320671D01*
X53805480Y-102342849D01*
X53792867Y-102363893D01*
X53778253Y-102383598D01*
X53761777Y-102401777D01*
X53743598Y-102418253D01*
X53723893Y-102432867D01*
X53702849Y-102445480D01*
X53680671Y-102455970D01*
X53657571Y-102464235D01*
X53633773Y-102470196D01*
X53609504Y-102473796D01*
X53585000Y-102475000D01*
X52835000Y-102475000D01*
X52810496Y-102473796D01*
X52786227Y-102470196D01*
X52762429Y-102464235D01*
X52739329Y-102455970D01*
X52717151Y-102445480D01*
X52696107Y-102432867D01*
X52676402Y-102418253D01*
X52658223Y-102401777D01*
X52641747Y-102383598D01*
X52627133Y-102363893D01*
X52614520Y-102342849D01*
X52604030Y-102320671D01*
X52595765Y-102297571D01*
X52589804Y-102273773D01*
X52586204Y-102249504D01*
X52585000Y-102225000D01*
X52585000Y-100975000D01*
X52586204Y-100950496D01*
X52589804Y-100926227D01*
X52595765Y-100902429D01*
X52604030Y-100879329D01*
X52614520Y-100857151D01*
X52627133Y-100836107D01*
X52641747Y-100816402D01*
X52658223Y-100798223D01*
X52676402Y-100781747D01*
X52696107Y-100767133D01*
X52717151Y-100754520D01*
X52739329Y-100744030D01*
X52762429Y-100735765D01*
X52786227Y-100729804D01*
X52810496Y-100726204D01*
X52835000Y-100725000D01*
X53585000Y-100725000D01*
X53609504Y-100726204D01*
X53609504Y-100726204D01*
G37*
D15*
X53210000Y-101600000D03*
D14*
G36*
X46249504Y-100726204D02*
G01*
X46273773Y-100729804D01*
X46297571Y-100735765D01*
X46320671Y-100744030D01*
X46342849Y-100754520D01*
X46363893Y-100767133D01*
X46383598Y-100781747D01*
X46401777Y-100798223D01*
X46418253Y-100816402D01*
X46432867Y-100836107D01*
X46445480Y-100857151D01*
X46455970Y-100879329D01*
X46464235Y-100902429D01*
X46470196Y-100926227D01*
X46473796Y-100950496D01*
X46475000Y-100975000D01*
X46475000Y-102225000D01*
X46473796Y-102249504D01*
X46470196Y-102273773D01*
X46464235Y-102297571D01*
X46455970Y-102320671D01*
X46445480Y-102342849D01*
X46432867Y-102363893D01*
X46418253Y-102383598D01*
X46401777Y-102401777D01*
X46383598Y-102418253D01*
X46363893Y-102432867D01*
X46342849Y-102445480D01*
X46320671Y-102455970D01*
X46297571Y-102464235D01*
X46273773Y-102470196D01*
X46249504Y-102473796D01*
X46225000Y-102475000D01*
X45475000Y-102475000D01*
X45450496Y-102473796D01*
X45426227Y-102470196D01*
X45402429Y-102464235D01*
X45379329Y-102455970D01*
X45357151Y-102445480D01*
X45336107Y-102432867D01*
X45316402Y-102418253D01*
X45298223Y-102401777D01*
X45281747Y-102383598D01*
X45267133Y-102363893D01*
X45254520Y-102342849D01*
X45244030Y-102320671D01*
X45235765Y-102297571D01*
X45229804Y-102273773D01*
X45226204Y-102249504D01*
X45225000Y-102225000D01*
X45225000Y-100975000D01*
X45226204Y-100950496D01*
X45229804Y-100926227D01*
X45235765Y-100902429D01*
X45244030Y-100879329D01*
X45254520Y-100857151D01*
X45267133Y-100836107D01*
X45281747Y-100816402D01*
X45298223Y-100798223D01*
X45316402Y-100781747D01*
X45336107Y-100767133D01*
X45357151Y-100754520D01*
X45379329Y-100744030D01*
X45402429Y-100735765D01*
X45426227Y-100729804D01*
X45450496Y-100726204D01*
X45475000Y-100725000D01*
X46225000Y-100725000D01*
X46249504Y-100726204D01*
X46249504Y-100726204D01*
G37*
D15*
X45850000Y-101600000D03*
D14*
G36*
X43449504Y-100726204D02*
G01*
X43473773Y-100729804D01*
X43497571Y-100735765D01*
X43520671Y-100744030D01*
X43542849Y-100754520D01*
X43563893Y-100767133D01*
X43583598Y-100781747D01*
X43601777Y-100798223D01*
X43618253Y-100816402D01*
X43632867Y-100836107D01*
X43645480Y-100857151D01*
X43655970Y-100879329D01*
X43664235Y-100902429D01*
X43670196Y-100926227D01*
X43673796Y-100950496D01*
X43675000Y-100975000D01*
X43675000Y-102225000D01*
X43673796Y-102249504D01*
X43670196Y-102273773D01*
X43664235Y-102297571D01*
X43655970Y-102320671D01*
X43645480Y-102342849D01*
X43632867Y-102363893D01*
X43618253Y-102383598D01*
X43601777Y-102401777D01*
X43583598Y-102418253D01*
X43563893Y-102432867D01*
X43542849Y-102445480D01*
X43520671Y-102455970D01*
X43497571Y-102464235D01*
X43473773Y-102470196D01*
X43449504Y-102473796D01*
X43425000Y-102475000D01*
X42675000Y-102475000D01*
X42650496Y-102473796D01*
X42626227Y-102470196D01*
X42602429Y-102464235D01*
X42579329Y-102455970D01*
X42557151Y-102445480D01*
X42536107Y-102432867D01*
X42516402Y-102418253D01*
X42498223Y-102401777D01*
X42481747Y-102383598D01*
X42467133Y-102363893D01*
X42454520Y-102342849D01*
X42444030Y-102320671D01*
X42435765Y-102297571D01*
X42429804Y-102273773D01*
X42426204Y-102249504D01*
X42425000Y-102225000D01*
X42425000Y-100975000D01*
X42426204Y-100950496D01*
X42429804Y-100926227D01*
X42435765Y-100902429D01*
X42444030Y-100879329D01*
X42454520Y-100857151D01*
X42467133Y-100836107D01*
X42481747Y-100816402D01*
X42498223Y-100798223D01*
X42516402Y-100781747D01*
X42536107Y-100767133D01*
X42557151Y-100754520D01*
X42579329Y-100744030D01*
X42602429Y-100735765D01*
X42626227Y-100729804D01*
X42650496Y-100726204D01*
X42675000Y-100725000D01*
X43425000Y-100725000D01*
X43449504Y-100726204D01*
X43449504Y-100726204D01*
G37*
D15*
X43050000Y-101600000D03*
D14*
G36*
X137689504Y-100726204D02*
G01*
X137713773Y-100729804D01*
X137737571Y-100735765D01*
X137760671Y-100744030D01*
X137782849Y-100754520D01*
X137803893Y-100767133D01*
X137823598Y-100781747D01*
X137841777Y-100798223D01*
X137858253Y-100816402D01*
X137872867Y-100836107D01*
X137885480Y-100857151D01*
X137895970Y-100879329D01*
X137904235Y-100902429D01*
X137910196Y-100926227D01*
X137913796Y-100950496D01*
X137915000Y-100975000D01*
X137915000Y-102225000D01*
X137913796Y-102249504D01*
X137910196Y-102273773D01*
X137904235Y-102297571D01*
X137895970Y-102320671D01*
X137885480Y-102342849D01*
X137872867Y-102363893D01*
X137858253Y-102383598D01*
X137841777Y-102401777D01*
X137823598Y-102418253D01*
X137803893Y-102432867D01*
X137782849Y-102445480D01*
X137760671Y-102455970D01*
X137737571Y-102464235D01*
X137713773Y-102470196D01*
X137689504Y-102473796D01*
X137665000Y-102475000D01*
X136915000Y-102475000D01*
X136890496Y-102473796D01*
X136866227Y-102470196D01*
X136842429Y-102464235D01*
X136819329Y-102455970D01*
X136797151Y-102445480D01*
X136776107Y-102432867D01*
X136756402Y-102418253D01*
X136738223Y-102401777D01*
X136721747Y-102383598D01*
X136707133Y-102363893D01*
X136694520Y-102342849D01*
X136684030Y-102320671D01*
X136675765Y-102297571D01*
X136669804Y-102273773D01*
X136666204Y-102249504D01*
X136665000Y-102225000D01*
X136665000Y-100975000D01*
X136666204Y-100950496D01*
X136669804Y-100926227D01*
X136675765Y-100902429D01*
X136684030Y-100879329D01*
X136694520Y-100857151D01*
X136707133Y-100836107D01*
X136721747Y-100816402D01*
X136738223Y-100798223D01*
X136756402Y-100781747D01*
X136776107Y-100767133D01*
X136797151Y-100754520D01*
X136819329Y-100744030D01*
X136842429Y-100735765D01*
X136866227Y-100729804D01*
X136890496Y-100726204D01*
X136915000Y-100725000D01*
X137665000Y-100725000D01*
X137689504Y-100726204D01*
X137689504Y-100726204D01*
G37*
D15*
X137290000Y-101600000D03*
D14*
G36*
X134889504Y-100726204D02*
G01*
X134913773Y-100729804D01*
X134937571Y-100735765D01*
X134960671Y-100744030D01*
X134982849Y-100754520D01*
X135003893Y-100767133D01*
X135023598Y-100781747D01*
X135041777Y-100798223D01*
X135058253Y-100816402D01*
X135072867Y-100836107D01*
X135085480Y-100857151D01*
X135095970Y-100879329D01*
X135104235Y-100902429D01*
X135110196Y-100926227D01*
X135113796Y-100950496D01*
X135115000Y-100975000D01*
X135115000Y-102225000D01*
X135113796Y-102249504D01*
X135110196Y-102273773D01*
X135104235Y-102297571D01*
X135095970Y-102320671D01*
X135085480Y-102342849D01*
X135072867Y-102363893D01*
X135058253Y-102383598D01*
X135041777Y-102401777D01*
X135023598Y-102418253D01*
X135003893Y-102432867D01*
X134982849Y-102445480D01*
X134960671Y-102455970D01*
X134937571Y-102464235D01*
X134913773Y-102470196D01*
X134889504Y-102473796D01*
X134865000Y-102475000D01*
X134115000Y-102475000D01*
X134090496Y-102473796D01*
X134066227Y-102470196D01*
X134042429Y-102464235D01*
X134019329Y-102455970D01*
X133997151Y-102445480D01*
X133976107Y-102432867D01*
X133956402Y-102418253D01*
X133938223Y-102401777D01*
X133921747Y-102383598D01*
X133907133Y-102363893D01*
X133894520Y-102342849D01*
X133884030Y-102320671D01*
X133875765Y-102297571D01*
X133869804Y-102273773D01*
X133866204Y-102249504D01*
X133865000Y-102225000D01*
X133865000Y-100975000D01*
X133866204Y-100950496D01*
X133869804Y-100926227D01*
X133875765Y-100902429D01*
X133884030Y-100879329D01*
X133894520Y-100857151D01*
X133907133Y-100836107D01*
X133921747Y-100816402D01*
X133938223Y-100798223D01*
X133956402Y-100781747D01*
X133976107Y-100767133D01*
X133997151Y-100754520D01*
X134019329Y-100744030D01*
X134042429Y-100735765D01*
X134066227Y-100729804D01*
X134090496Y-100726204D01*
X134115000Y-100725000D01*
X134865000Y-100725000D01*
X134889504Y-100726204D01*
X134889504Y-100726204D01*
G37*
D15*
X134490000Y-101600000D03*
D10*
X142240000Y-143510000D03*
X142240000Y-148590000D03*
X142240000Y-153670000D03*
X142240000Y-156210000D03*
X149860000Y-156210000D03*
X149860000Y-153670000D03*
X149860000Y-148590000D03*
X149860000Y-143510000D03*
X152400000Y-143510000D03*
X152400000Y-148590000D03*
X152400000Y-153670000D03*
X152400000Y-156210000D03*
X160020000Y-156210000D03*
X160020000Y-153670000D03*
X160020000Y-148590000D03*
X160020000Y-143510000D03*
X60960000Y-143510000D03*
X60960000Y-148590000D03*
X60960000Y-153670000D03*
X60960000Y-156210000D03*
X68580000Y-156210000D03*
X68580000Y-153670000D03*
X68580000Y-148590000D03*
X68580000Y-143510000D03*
X71120000Y-143510000D03*
X71120000Y-148590000D03*
X71120000Y-153670000D03*
X71120000Y-156210000D03*
X78740000Y-156210000D03*
X78740000Y-153670000D03*
X78740000Y-148590000D03*
X78740000Y-143510000D03*
X149860000Y-140970000D03*
X149860000Y-135890000D03*
X149860000Y-130810000D03*
X149860000Y-128270000D03*
X142240000Y-128270000D03*
X142240000Y-130810000D03*
X142240000Y-135890000D03*
X142240000Y-140970000D03*
X78740000Y-140970000D03*
X78740000Y-135890000D03*
X78740000Y-130810000D03*
X78740000Y-128270000D03*
X71120000Y-128270000D03*
X71120000Y-130810000D03*
X71120000Y-135890000D03*
X71120000Y-140970000D03*
X48260000Y-140970000D03*
X48260000Y-135890000D03*
X48260000Y-130810000D03*
X48260000Y-128270000D03*
X40640000Y-128270000D03*
X40640000Y-130810000D03*
X40640000Y-135890000D03*
X40640000Y-140970000D03*
X40640000Y-143510000D03*
X40640000Y-148590000D03*
X40640000Y-153670000D03*
X40640000Y-156210000D03*
X48260000Y-156210000D03*
X48260000Y-153670000D03*
X48260000Y-148590000D03*
X48260000Y-143510000D03*
X58420000Y-140970000D03*
X58420000Y-135890000D03*
X58420000Y-130810000D03*
X58420000Y-128270000D03*
X50800000Y-128270000D03*
X50800000Y-130810000D03*
X50800000Y-135890000D03*
X50800000Y-140970000D03*
X50800000Y-143510000D03*
X50800000Y-148590000D03*
X50800000Y-153670000D03*
X50800000Y-156210000D03*
X58420000Y-156210000D03*
X58420000Y-153670000D03*
X58420000Y-148590000D03*
X58420000Y-143510000D03*
X129540000Y-140970000D03*
X129540000Y-135890000D03*
X129540000Y-130810000D03*
X129540000Y-128270000D03*
X121920000Y-128270000D03*
X121920000Y-130810000D03*
X121920000Y-135890000D03*
X121920000Y-140970000D03*
X121920000Y-143510000D03*
X121920000Y-148590000D03*
X121920000Y-153670000D03*
X121920000Y-156210000D03*
X129540000Y-156210000D03*
X129540000Y-153670000D03*
X129540000Y-148590000D03*
X129540000Y-143510000D03*
X119380000Y-140970000D03*
X119380000Y-135890000D03*
X119380000Y-130810000D03*
X119380000Y-128270000D03*
X111760000Y-128270000D03*
X111760000Y-130810000D03*
X111760000Y-135890000D03*
X111760000Y-140970000D03*
X111760000Y-143510000D03*
X111760000Y-148590000D03*
X111760000Y-153670000D03*
X111760000Y-156210000D03*
X119380000Y-156210000D03*
X119380000Y-153670000D03*
X119380000Y-148590000D03*
X119380000Y-143510000D03*
X109220000Y-140970000D03*
X109220000Y-135890000D03*
X109220000Y-130810000D03*
X109220000Y-128270000D03*
X101600000Y-128270000D03*
X101600000Y-130810000D03*
X101600000Y-135890000D03*
X101600000Y-140970000D03*
X101600000Y-143510000D03*
X101600000Y-148590000D03*
X101600000Y-153670000D03*
X101600000Y-156210000D03*
X109220000Y-156210000D03*
X109220000Y-153670000D03*
X109220000Y-148590000D03*
X109220000Y-143510000D03*
X99060000Y-140970000D03*
X99060000Y-135890000D03*
X99060000Y-130810000D03*
X99060000Y-128270000D03*
X91440000Y-128270000D03*
X91440000Y-130810000D03*
X91440000Y-135890000D03*
X91440000Y-140970000D03*
X91440000Y-143510000D03*
X91440000Y-148590000D03*
X91440000Y-153670000D03*
X91440000Y-156210000D03*
X99060000Y-156210000D03*
X99060000Y-153670000D03*
X99060000Y-148590000D03*
X99060000Y-143510000D03*
X88900000Y-140970000D03*
X88900000Y-135890000D03*
X88900000Y-130810000D03*
X88900000Y-128270000D03*
X81280000Y-128270000D03*
X81280000Y-130810000D03*
X81280000Y-135890000D03*
X81280000Y-140970000D03*
X81280000Y-143510000D03*
X81280000Y-148590000D03*
X81280000Y-153670000D03*
X81280000Y-156210000D03*
X88900000Y-156210000D03*
X88900000Y-153670000D03*
X88900000Y-148590000D03*
X88900000Y-143510000D03*
X139700000Y-140970000D03*
X139700000Y-135890000D03*
X139700000Y-130810000D03*
X139700000Y-128270000D03*
X132080000Y-128270000D03*
X132080000Y-130810000D03*
X132080000Y-135890000D03*
X132080000Y-140970000D03*
X132080000Y-143510000D03*
X132080000Y-148590000D03*
X132080000Y-153670000D03*
X132080000Y-156210000D03*
X139700000Y-156210000D03*
X139700000Y-153670000D03*
X139700000Y-148590000D03*
X139700000Y-143510000D03*
D11*
X160020000Y-124460000D03*
X160020000Y-160020000D03*
X40640000Y-160020000D03*
X40640000Y-124460000D03*
D12*
X64770000Y-128270000D03*
X64770000Y-130810000D03*
X64770000Y-133350000D03*
D13*
X64770000Y-135890000D03*
D12*
X156210000Y-135890000D03*
X156210000Y-133350000D03*
X156210000Y-130810000D03*
D13*
X156210000Y-128270000D03*
X78740000Y-123825000D03*
D12*
X81280000Y-123825000D03*
X83820000Y-123825000D03*
X86360000Y-123825000D03*
X88900000Y-123825000D03*
X91440000Y-123825000D03*
X93980000Y-123825000D03*
X96520000Y-123825000D03*
X99060000Y-123825000D03*
X101600000Y-123825000D03*
X104140000Y-123825000D03*
X106680000Y-123825000D03*
D14*
G36*
X158009504Y-142636204D02*
G01*
X158033773Y-142639804D01*
X158057571Y-142645765D01*
X158080671Y-142654030D01*
X158102849Y-142664520D01*
X158123893Y-142677133D01*
X158143598Y-142691747D01*
X158161777Y-142708223D01*
X158178253Y-142726402D01*
X158192867Y-142746107D01*
X158205480Y-142767151D01*
X158215970Y-142789329D01*
X158224235Y-142812429D01*
X158230196Y-142836227D01*
X158233796Y-142860496D01*
X158235000Y-142885000D01*
X158235000Y-144135000D01*
X158233796Y-144159504D01*
X158230196Y-144183773D01*
X158224235Y-144207571D01*
X158215970Y-144230671D01*
X158205480Y-144252849D01*
X158192867Y-144273893D01*
X158178253Y-144293598D01*
X158161777Y-144311777D01*
X158143598Y-144328253D01*
X158123893Y-144342867D01*
X158102849Y-144355480D01*
X158080671Y-144365970D01*
X158057571Y-144374235D01*
X158033773Y-144380196D01*
X158009504Y-144383796D01*
X157985000Y-144385000D01*
X157235000Y-144385000D01*
X157210496Y-144383796D01*
X157186227Y-144380196D01*
X157162429Y-144374235D01*
X157139329Y-144365970D01*
X157117151Y-144355480D01*
X157096107Y-144342867D01*
X157076402Y-144328253D01*
X157058223Y-144311777D01*
X157041747Y-144293598D01*
X157027133Y-144273893D01*
X157014520Y-144252849D01*
X157004030Y-144230671D01*
X156995765Y-144207571D01*
X156989804Y-144183773D01*
X156986204Y-144159504D01*
X156985000Y-144135000D01*
X156985000Y-142885000D01*
X156986204Y-142860496D01*
X156989804Y-142836227D01*
X156995765Y-142812429D01*
X157004030Y-142789329D01*
X157014520Y-142767151D01*
X157027133Y-142746107D01*
X157041747Y-142726402D01*
X157058223Y-142708223D01*
X157076402Y-142691747D01*
X157096107Y-142677133D01*
X157117151Y-142664520D01*
X157139329Y-142654030D01*
X157162429Y-142645765D01*
X157186227Y-142639804D01*
X157210496Y-142636204D01*
X157235000Y-142635000D01*
X157985000Y-142635000D01*
X158009504Y-142636204D01*
X158009504Y-142636204D01*
G37*
D15*
X157610000Y-143510000D03*
D14*
G36*
X155209504Y-142636204D02*
G01*
X155233773Y-142639804D01*
X155257571Y-142645765D01*
X155280671Y-142654030D01*
X155302849Y-142664520D01*
X155323893Y-142677133D01*
X155343598Y-142691747D01*
X155361777Y-142708223D01*
X155378253Y-142726402D01*
X155392867Y-142746107D01*
X155405480Y-142767151D01*
X155415970Y-142789329D01*
X155424235Y-142812429D01*
X155430196Y-142836227D01*
X155433796Y-142860496D01*
X155435000Y-142885000D01*
X155435000Y-144135000D01*
X155433796Y-144159504D01*
X155430196Y-144183773D01*
X155424235Y-144207571D01*
X155415970Y-144230671D01*
X155405480Y-144252849D01*
X155392867Y-144273893D01*
X155378253Y-144293598D01*
X155361777Y-144311777D01*
X155343598Y-144328253D01*
X155323893Y-144342867D01*
X155302849Y-144355480D01*
X155280671Y-144365970D01*
X155257571Y-144374235D01*
X155233773Y-144380196D01*
X155209504Y-144383796D01*
X155185000Y-144385000D01*
X154435000Y-144385000D01*
X154410496Y-144383796D01*
X154386227Y-144380196D01*
X154362429Y-144374235D01*
X154339329Y-144365970D01*
X154317151Y-144355480D01*
X154296107Y-144342867D01*
X154276402Y-144328253D01*
X154258223Y-144311777D01*
X154241747Y-144293598D01*
X154227133Y-144273893D01*
X154214520Y-144252849D01*
X154204030Y-144230671D01*
X154195765Y-144207571D01*
X154189804Y-144183773D01*
X154186204Y-144159504D01*
X154185000Y-144135000D01*
X154185000Y-142885000D01*
X154186204Y-142860496D01*
X154189804Y-142836227D01*
X154195765Y-142812429D01*
X154204030Y-142789329D01*
X154214520Y-142767151D01*
X154227133Y-142746107D01*
X154241747Y-142726402D01*
X154258223Y-142708223D01*
X154276402Y-142691747D01*
X154296107Y-142677133D01*
X154317151Y-142664520D01*
X154339329Y-142654030D01*
X154362429Y-142645765D01*
X154386227Y-142639804D01*
X154410496Y-142636204D01*
X154435000Y-142635000D01*
X155185000Y-142635000D01*
X155209504Y-142636204D01*
X155209504Y-142636204D01*
G37*
D15*
X154810000Y-143510000D03*
D14*
G36*
X147849504Y-142636204D02*
G01*
X147873773Y-142639804D01*
X147897571Y-142645765D01*
X147920671Y-142654030D01*
X147942849Y-142664520D01*
X147963893Y-142677133D01*
X147983598Y-142691747D01*
X148001777Y-142708223D01*
X148018253Y-142726402D01*
X148032867Y-142746107D01*
X148045480Y-142767151D01*
X148055970Y-142789329D01*
X148064235Y-142812429D01*
X148070196Y-142836227D01*
X148073796Y-142860496D01*
X148075000Y-142885000D01*
X148075000Y-144135000D01*
X148073796Y-144159504D01*
X148070196Y-144183773D01*
X148064235Y-144207571D01*
X148055970Y-144230671D01*
X148045480Y-144252849D01*
X148032867Y-144273893D01*
X148018253Y-144293598D01*
X148001777Y-144311777D01*
X147983598Y-144328253D01*
X147963893Y-144342867D01*
X147942849Y-144355480D01*
X147920671Y-144365970D01*
X147897571Y-144374235D01*
X147873773Y-144380196D01*
X147849504Y-144383796D01*
X147825000Y-144385000D01*
X147075000Y-144385000D01*
X147050496Y-144383796D01*
X147026227Y-144380196D01*
X147002429Y-144374235D01*
X146979329Y-144365970D01*
X146957151Y-144355480D01*
X146936107Y-144342867D01*
X146916402Y-144328253D01*
X146898223Y-144311777D01*
X146881747Y-144293598D01*
X146867133Y-144273893D01*
X146854520Y-144252849D01*
X146844030Y-144230671D01*
X146835765Y-144207571D01*
X146829804Y-144183773D01*
X146826204Y-144159504D01*
X146825000Y-144135000D01*
X146825000Y-142885000D01*
X146826204Y-142860496D01*
X146829804Y-142836227D01*
X146835765Y-142812429D01*
X146844030Y-142789329D01*
X146854520Y-142767151D01*
X146867133Y-142746107D01*
X146881747Y-142726402D01*
X146898223Y-142708223D01*
X146916402Y-142691747D01*
X146936107Y-142677133D01*
X146957151Y-142664520D01*
X146979329Y-142654030D01*
X147002429Y-142645765D01*
X147026227Y-142639804D01*
X147050496Y-142636204D01*
X147075000Y-142635000D01*
X147825000Y-142635000D01*
X147849504Y-142636204D01*
X147849504Y-142636204D01*
G37*
D15*
X147450000Y-143510000D03*
D14*
G36*
X145049504Y-142636204D02*
G01*
X145073773Y-142639804D01*
X145097571Y-142645765D01*
X145120671Y-142654030D01*
X145142849Y-142664520D01*
X145163893Y-142677133D01*
X145183598Y-142691747D01*
X145201777Y-142708223D01*
X145218253Y-142726402D01*
X145232867Y-142746107D01*
X145245480Y-142767151D01*
X145255970Y-142789329D01*
X145264235Y-142812429D01*
X145270196Y-142836227D01*
X145273796Y-142860496D01*
X145275000Y-142885000D01*
X145275000Y-144135000D01*
X145273796Y-144159504D01*
X145270196Y-144183773D01*
X145264235Y-144207571D01*
X145255970Y-144230671D01*
X145245480Y-144252849D01*
X145232867Y-144273893D01*
X145218253Y-144293598D01*
X145201777Y-144311777D01*
X145183598Y-144328253D01*
X145163893Y-144342867D01*
X145142849Y-144355480D01*
X145120671Y-144365970D01*
X145097571Y-144374235D01*
X145073773Y-144380196D01*
X145049504Y-144383796D01*
X145025000Y-144385000D01*
X144275000Y-144385000D01*
X144250496Y-144383796D01*
X144226227Y-144380196D01*
X144202429Y-144374235D01*
X144179329Y-144365970D01*
X144157151Y-144355480D01*
X144136107Y-144342867D01*
X144116402Y-144328253D01*
X144098223Y-144311777D01*
X144081747Y-144293598D01*
X144067133Y-144273893D01*
X144054520Y-144252849D01*
X144044030Y-144230671D01*
X144035765Y-144207571D01*
X144029804Y-144183773D01*
X144026204Y-144159504D01*
X144025000Y-144135000D01*
X144025000Y-142885000D01*
X144026204Y-142860496D01*
X144029804Y-142836227D01*
X144035765Y-142812429D01*
X144044030Y-142789329D01*
X144054520Y-142767151D01*
X144067133Y-142746107D01*
X144081747Y-142726402D01*
X144098223Y-142708223D01*
X144116402Y-142691747D01*
X144136107Y-142677133D01*
X144157151Y-142664520D01*
X144179329Y-142654030D01*
X144202429Y-142645765D01*
X144226227Y-142639804D01*
X144250496Y-142636204D01*
X144275000Y-142635000D01*
X145025000Y-142635000D01*
X145049504Y-142636204D01*
X145049504Y-142636204D01*
G37*
D15*
X144650000Y-143510000D03*
D14*
G36*
X145049504Y-140096204D02*
G01*
X145073773Y-140099804D01*
X145097571Y-140105765D01*
X145120671Y-140114030D01*
X145142849Y-140124520D01*
X145163893Y-140137133D01*
X145183598Y-140151747D01*
X145201777Y-140168223D01*
X145218253Y-140186402D01*
X145232867Y-140206107D01*
X145245480Y-140227151D01*
X145255970Y-140249329D01*
X145264235Y-140272429D01*
X145270196Y-140296227D01*
X145273796Y-140320496D01*
X145275000Y-140345000D01*
X145275000Y-141595000D01*
X145273796Y-141619504D01*
X145270196Y-141643773D01*
X145264235Y-141667571D01*
X145255970Y-141690671D01*
X145245480Y-141712849D01*
X145232867Y-141733893D01*
X145218253Y-141753598D01*
X145201777Y-141771777D01*
X145183598Y-141788253D01*
X145163893Y-141802867D01*
X145142849Y-141815480D01*
X145120671Y-141825970D01*
X145097571Y-141834235D01*
X145073773Y-141840196D01*
X145049504Y-141843796D01*
X145025000Y-141845000D01*
X144275000Y-141845000D01*
X144250496Y-141843796D01*
X144226227Y-141840196D01*
X144202429Y-141834235D01*
X144179329Y-141825970D01*
X144157151Y-141815480D01*
X144136107Y-141802867D01*
X144116402Y-141788253D01*
X144098223Y-141771777D01*
X144081747Y-141753598D01*
X144067133Y-141733893D01*
X144054520Y-141712849D01*
X144044030Y-141690671D01*
X144035765Y-141667571D01*
X144029804Y-141643773D01*
X144026204Y-141619504D01*
X144025000Y-141595000D01*
X144025000Y-140345000D01*
X144026204Y-140320496D01*
X144029804Y-140296227D01*
X144035765Y-140272429D01*
X144044030Y-140249329D01*
X144054520Y-140227151D01*
X144067133Y-140206107D01*
X144081747Y-140186402D01*
X144098223Y-140168223D01*
X144116402Y-140151747D01*
X144136107Y-140137133D01*
X144157151Y-140124520D01*
X144179329Y-140114030D01*
X144202429Y-140105765D01*
X144226227Y-140099804D01*
X144250496Y-140096204D01*
X144275000Y-140095000D01*
X145025000Y-140095000D01*
X145049504Y-140096204D01*
X145049504Y-140096204D01*
G37*
D15*
X144650000Y-140970000D03*
D14*
G36*
X147849504Y-140096204D02*
G01*
X147873773Y-140099804D01*
X147897571Y-140105765D01*
X147920671Y-140114030D01*
X147942849Y-140124520D01*
X147963893Y-140137133D01*
X147983598Y-140151747D01*
X148001777Y-140168223D01*
X148018253Y-140186402D01*
X148032867Y-140206107D01*
X148045480Y-140227151D01*
X148055970Y-140249329D01*
X148064235Y-140272429D01*
X148070196Y-140296227D01*
X148073796Y-140320496D01*
X148075000Y-140345000D01*
X148075000Y-141595000D01*
X148073796Y-141619504D01*
X148070196Y-141643773D01*
X148064235Y-141667571D01*
X148055970Y-141690671D01*
X148045480Y-141712849D01*
X148032867Y-141733893D01*
X148018253Y-141753598D01*
X148001777Y-141771777D01*
X147983598Y-141788253D01*
X147963893Y-141802867D01*
X147942849Y-141815480D01*
X147920671Y-141825970D01*
X147897571Y-141834235D01*
X147873773Y-141840196D01*
X147849504Y-141843796D01*
X147825000Y-141845000D01*
X147075000Y-141845000D01*
X147050496Y-141843796D01*
X147026227Y-141840196D01*
X147002429Y-141834235D01*
X146979329Y-141825970D01*
X146957151Y-141815480D01*
X146936107Y-141802867D01*
X146916402Y-141788253D01*
X146898223Y-141771777D01*
X146881747Y-141753598D01*
X146867133Y-141733893D01*
X146854520Y-141712849D01*
X146844030Y-141690671D01*
X146835765Y-141667571D01*
X146829804Y-141643773D01*
X146826204Y-141619504D01*
X146825000Y-141595000D01*
X146825000Y-140345000D01*
X146826204Y-140320496D01*
X146829804Y-140296227D01*
X146835765Y-140272429D01*
X146844030Y-140249329D01*
X146854520Y-140227151D01*
X146867133Y-140206107D01*
X146881747Y-140186402D01*
X146898223Y-140168223D01*
X146916402Y-140151747D01*
X146936107Y-140137133D01*
X146957151Y-140124520D01*
X146979329Y-140114030D01*
X147002429Y-140105765D01*
X147026227Y-140099804D01*
X147050496Y-140096204D01*
X147075000Y-140095000D01*
X147825000Y-140095000D01*
X147849504Y-140096204D01*
X147849504Y-140096204D01*
G37*
D15*
X147450000Y-140970000D03*
D14*
G36*
X127529504Y-142636204D02*
G01*
X127553773Y-142639804D01*
X127577571Y-142645765D01*
X127600671Y-142654030D01*
X127622849Y-142664520D01*
X127643893Y-142677133D01*
X127663598Y-142691747D01*
X127681777Y-142708223D01*
X127698253Y-142726402D01*
X127712867Y-142746107D01*
X127725480Y-142767151D01*
X127735970Y-142789329D01*
X127744235Y-142812429D01*
X127750196Y-142836227D01*
X127753796Y-142860496D01*
X127755000Y-142885000D01*
X127755000Y-144135000D01*
X127753796Y-144159504D01*
X127750196Y-144183773D01*
X127744235Y-144207571D01*
X127735970Y-144230671D01*
X127725480Y-144252849D01*
X127712867Y-144273893D01*
X127698253Y-144293598D01*
X127681777Y-144311777D01*
X127663598Y-144328253D01*
X127643893Y-144342867D01*
X127622849Y-144355480D01*
X127600671Y-144365970D01*
X127577571Y-144374235D01*
X127553773Y-144380196D01*
X127529504Y-144383796D01*
X127505000Y-144385000D01*
X126755000Y-144385000D01*
X126730496Y-144383796D01*
X126706227Y-144380196D01*
X126682429Y-144374235D01*
X126659329Y-144365970D01*
X126637151Y-144355480D01*
X126616107Y-144342867D01*
X126596402Y-144328253D01*
X126578223Y-144311777D01*
X126561747Y-144293598D01*
X126547133Y-144273893D01*
X126534520Y-144252849D01*
X126524030Y-144230671D01*
X126515765Y-144207571D01*
X126509804Y-144183773D01*
X126506204Y-144159504D01*
X126505000Y-144135000D01*
X126505000Y-142885000D01*
X126506204Y-142860496D01*
X126509804Y-142836227D01*
X126515765Y-142812429D01*
X126524030Y-142789329D01*
X126534520Y-142767151D01*
X126547133Y-142746107D01*
X126561747Y-142726402D01*
X126578223Y-142708223D01*
X126596402Y-142691747D01*
X126616107Y-142677133D01*
X126637151Y-142664520D01*
X126659329Y-142654030D01*
X126682429Y-142645765D01*
X126706227Y-142639804D01*
X126730496Y-142636204D01*
X126755000Y-142635000D01*
X127505000Y-142635000D01*
X127529504Y-142636204D01*
X127529504Y-142636204D01*
G37*
D15*
X127130000Y-143510000D03*
D14*
G36*
X124729504Y-142636204D02*
G01*
X124753773Y-142639804D01*
X124777571Y-142645765D01*
X124800671Y-142654030D01*
X124822849Y-142664520D01*
X124843893Y-142677133D01*
X124863598Y-142691747D01*
X124881777Y-142708223D01*
X124898253Y-142726402D01*
X124912867Y-142746107D01*
X124925480Y-142767151D01*
X124935970Y-142789329D01*
X124944235Y-142812429D01*
X124950196Y-142836227D01*
X124953796Y-142860496D01*
X124955000Y-142885000D01*
X124955000Y-144135000D01*
X124953796Y-144159504D01*
X124950196Y-144183773D01*
X124944235Y-144207571D01*
X124935970Y-144230671D01*
X124925480Y-144252849D01*
X124912867Y-144273893D01*
X124898253Y-144293598D01*
X124881777Y-144311777D01*
X124863598Y-144328253D01*
X124843893Y-144342867D01*
X124822849Y-144355480D01*
X124800671Y-144365970D01*
X124777571Y-144374235D01*
X124753773Y-144380196D01*
X124729504Y-144383796D01*
X124705000Y-144385000D01*
X123955000Y-144385000D01*
X123930496Y-144383796D01*
X123906227Y-144380196D01*
X123882429Y-144374235D01*
X123859329Y-144365970D01*
X123837151Y-144355480D01*
X123816107Y-144342867D01*
X123796402Y-144328253D01*
X123778223Y-144311777D01*
X123761747Y-144293598D01*
X123747133Y-144273893D01*
X123734520Y-144252849D01*
X123724030Y-144230671D01*
X123715765Y-144207571D01*
X123709804Y-144183773D01*
X123706204Y-144159504D01*
X123705000Y-144135000D01*
X123705000Y-142885000D01*
X123706204Y-142860496D01*
X123709804Y-142836227D01*
X123715765Y-142812429D01*
X123724030Y-142789329D01*
X123734520Y-142767151D01*
X123747133Y-142746107D01*
X123761747Y-142726402D01*
X123778223Y-142708223D01*
X123796402Y-142691747D01*
X123816107Y-142677133D01*
X123837151Y-142664520D01*
X123859329Y-142654030D01*
X123882429Y-142645765D01*
X123906227Y-142639804D01*
X123930496Y-142636204D01*
X123955000Y-142635000D01*
X124705000Y-142635000D01*
X124729504Y-142636204D01*
X124729504Y-142636204D01*
G37*
D15*
X124330000Y-143510000D03*
D14*
G36*
X117369504Y-142636204D02*
G01*
X117393773Y-142639804D01*
X117417571Y-142645765D01*
X117440671Y-142654030D01*
X117462849Y-142664520D01*
X117483893Y-142677133D01*
X117503598Y-142691747D01*
X117521777Y-142708223D01*
X117538253Y-142726402D01*
X117552867Y-142746107D01*
X117565480Y-142767151D01*
X117575970Y-142789329D01*
X117584235Y-142812429D01*
X117590196Y-142836227D01*
X117593796Y-142860496D01*
X117595000Y-142885000D01*
X117595000Y-144135000D01*
X117593796Y-144159504D01*
X117590196Y-144183773D01*
X117584235Y-144207571D01*
X117575970Y-144230671D01*
X117565480Y-144252849D01*
X117552867Y-144273893D01*
X117538253Y-144293598D01*
X117521777Y-144311777D01*
X117503598Y-144328253D01*
X117483893Y-144342867D01*
X117462849Y-144355480D01*
X117440671Y-144365970D01*
X117417571Y-144374235D01*
X117393773Y-144380196D01*
X117369504Y-144383796D01*
X117345000Y-144385000D01*
X116595000Y-144385000D01*
X116570496Y-144383796D01*
X116546227Y-144380196D01*
X116522429Y-144374235D01*
X116499329Y-144365970D01*
X116477151Y-144355480D01*
X116456107Y-144342867D01*
X116436402Y-144328253D01*
X116418223Y-144311777D01*
X116401747Y-144293598D01*
X116387133Y-144273893D01*
X116374520Y-144252849D01*
X116364030Y-144230671D01*
X116355765Y-144207571D01*
X116349804Y-144183773D01*
X116346204Y-144159504D01*
X116345000Y-144135000D01*
X116345000Y-142885000D01*
X116346204Y-142860496D01*
X116349804Y-142836227D01*
X116355765Y-142812429D01*
X116364030Y-142789329D01*
X116374520Y-142767151D01*
X116387133Y-142746107D01*
X116401747Y-142726402D01*
X116418223Y-142708223D01*
X116436402Y-142691747D01*
X116456107Y-142677133D01*
X116477151Y-142664520D01*
X116499329Y-142654030D01*
X116522429Y-142645765D01*
X116546227Y-142639804D01*
X116570496Y-142636204D01*
X116595000Y-142635000D01*
X117345000Y-142635000D01*
X117369504Y-142636204D01*
X117369504Y-142636204D01*
G37*
D15*
X116970000Y-143510000D03*
D14*
G36*
X114569504Y-142636204D02*
G01*
X114593773Y-142639804D01*
X114617571Y-142645765D01*
X114640671Y-142654030D01*
X114662849Y-142664520D01*
X114683893Y-142677133D01*
X114703598Y-142691747D01*
X114721777Y-142708223D01*
X114738253Y-142726402D01*
X114752867Y-142746107D01*
X114765480Y-142767151D01*
X114775970Y-142789329D01*
X114784235Y-142812429D01*
X114790196Y-142836227D01*
X114793796Y-142860496D01*
X114795000Y-142885000D01*
X114795000Y-144135000D01*
X114793796Y-144159504D01*
X114790196Y-144183773D01*
X114784235Y-144207571D01*
X114775970Y-144230671D01*
X114765480Y-144252849D01*
X114752867Y-144273893D01*
X114738253Y-144293598D01*
X114721777Y-144311777D01*
X114703598Y-144328253D01*
X114683893Y-144342867D01*
X114662849Y-144355480D01*
X114640671Y-144365970D01*
X114617571Y-144374235D01*
X114593773Y-144380196D01*
X114569504Y-144383796D01*
X114545000Y-144385000D01*
X113795000Y-144385000D01*
X113770496Y-144383796D01*
X113746227Y-144380196D01*
X113722429Y-144374235D01*
X113699329Y-144365970D01*
X113677151Y-144355480D01*
X113656107Y-144342867D01*
X113636402Y-144328253D01*
X113618223Y-144311777D01*
X113601747Y-144293598D01*
X113587133Y-144273893D01*
X113574520Y-144252849D01*
X113564030Y-144230671D01*
X113555765Y-144207571D01*
X113549804Y-144183773D01*
X113546204Y-144159504D01*
X113545000Y-144135000D01*
X113545000Y-142885000D01*
X113546204Y-142860496D01*
X113549804Y-142836227D01*
X113555765Y-142812429D01*
X113564030Y-142789329D01*
X113574520Y-142767151D01*
X113587133Y-142746107D01*
X113601747Y-142726402D01*
X113618223Y-142708223D01*
X113636402Y-142691747D01*
X113656107Y-142677133D01*
X113677151Y-142664520D01*
X113699329Y-142654030D01*
X113722429Y-142645765D01*
X113746227Y-142639804D01*
X113770496Y-142636204D01*
X113795000Y-142635000D01*
X114545000Y-142635000D01*
X114569504Y-142636204D01*
X114569504Y-142636204D01*
G37*
D15*
X114170000Y-143510000D03*
D14*
G36*
X46249504Y-142636204D02*
G01*
X46273773Y-142639804D01*
X46297571Y-142645765D01*
X46320671Y-142654030D01*
X46342849Y-142664520D01*
X46363893Y-142677133D01*
X46383598Y-142691747D01*
X46401777Y-142708223D01*
X46418253Y-142726402D01*
X46432867Y-142746107D01*
X46445480Y-142767151D01*
X46455970Y-142789329D01*
X46464235Y-142812429D01*
X46470196Y-142836227D01*
X46473796Y-142860496D01*
X46475000Y-142885000D01*
X46475000Y-144135000D01*
X46473796Y-144159504D01*
X46470196Y-144183773D01*
X46464235Y-144207571D01*
X46455970Y-144230671D01*
X46445480Y-144252849D01*
X46432867Y-144273893D01*
X46418253Y-144293598D01*
X46401777Y-144311777D01*
X46383598Y-144328253D01*
X46363893Y-144342867D01*
X46342849Y-144355480D01*
X46320671Y-144365970D01*
X46297571Y-144374235D01*
X46273773Y-144380196D01*
X46249504Y-144383796D01*
X46225000Y-144385000D01*
X45475000Y-144385000D01*
X45450496Y-144383796D01*
X45426227Y-144380196D01*
X45402429Y-144374235D01*
X45379329Y-144365970D01*
X45357151Y-144355480D01*
X45336107Y-144342867D01*
X45316402Y-144328253D01*
X45298223Y-144311777D01*
X45281747Y-144293598D01*
X45267133Y-144273893D01*
X45254520Y-144252849D01*
X45244030Y-144230671D01*
X45235765Y-144207571D01*
X45229804Y-144183773D01*
X45226204Y-144159504D01*
X45225000Y-144135000D01*
X45225000Y-142885000D01*
X45226204Y-142860496D01*
X45229804Y-142836227D01*
X45235765Y-142812429D01*
X45244030Y-142789329D01*
X45254520Y-142767151D01*
X45267133Y-142746107D01*
X45281747Y-142726402D01*
X45298223Y-142708223D01*
X45316402Y-142691747D01*
X45336107Y-142677133D01*
X45357151Y-142664520D01*
X45379329Y-142654030D01*
X45402429Y-142645765D01*
X45426227Y-142639804D01*
X45450496Y-142636204D01*
X45475000Y-142635000D01*
X46225000Y-142635000D01*
X46249504Y-142636204D01*
X46249504Y-142636204D01*
G37*
D15*
X45850000Y-143510000D03*
D14*
G36*
X43449504Y-142636204D02*
G01*
X43473773Y-142639804D01*
X43497571Y-142645765D01*
X43520671Y-142654030D01*
X43542849Y-142664520D01*
X43563893Y-142677133D01*
X43583598Y-142691747D01*
X43601777Y-142708223D01*
X43618253Y-142726402D01*
X43632867Y-142746107D01*
X43645480Y-142767151D01*
X43655970Y-142789329D01*
X43664235Y-142812429D01*
X43670196Y-142836227D01*
X43673796Y-142860496D01*
X43675000Y-142885000D01*
X43675000Y-144135000D01*
X43673796Y-144159504D01*
X43670196Y-144183773D01*
X43664235Y-144207571D01*
X43655970Y-144230671D01*
X43645480Y-144252849D01*
X43632867Y-144273893D01*
X43618253Y-144293598D01*
X43601777Y-144311777D01*
X43583598Y-144328253D01*
X43563893Y-144342867D01*
X43542849Y-144355480D01*
X43520671Y-144365970D01*
X43497571Y-144374235D01*
X43473773Y-144380196D01*
X43449504Y-144383796D01*
X43425000Y-144385000D01*
X42675000Y-144385000D01*
X42650496Y-144383796D01*
X42626227Y-144380196D01*
X42602429Y-144374235D01*
X42579329Y-144365970D01*
X42557151Y-144355480D01*
X42536107Y-144342867D01*
X42516402Y-144328253D01*
X42498223Y-144311777D01*
X42481747Y-144293598D01*
X42467133Y-144273893D01*
X42454520Y-144252849D01*
X42444030Y-144230671D01*
X42435765Y-144207571D01*
X42429804Y-144183773D01*
X42426204Y-144159504D01*
X42425000Y-144135000D01*
X42425000Y-142885000D01*
X42426204Y-142860496D01*
X42429804Y-142836227D01*
X42435765Y-142812429D01*
X42444030Y-142789329D01*
X42454520Y-142767151D01*
X42467133Y-142746107D01*
X42481747Y-142726402D01*
X42498223Y-142708223D01*
X42516402Y-142691747D01*
X42536107Y-142677133D01*
X42557151Y-142664520D01*
X42579329Y-142654030D01*
X42602429Y-142645765D01*
X42626227Y-142639804D01*
X42650496Y-142636204D01*
X42675000Y-142635000D01*
X43425000Y-142635000D01*
X43449504Y-142636204D01*
X43449504Y-142636204D01*
G37*
D15*
X43050000Y-143510000D03*
D14*
G36*
X56409504Y-142636204D02*
G01*
X56433773Y-142639804D01*
X56457571Y-142645765D01*
X56480671Y-142654030D01*
X56502849Y-142664520D01*
X56523893Y-142677133D01*
X56543598Y-142691747D01*
X56561777Y-142708223D01*
X56578253Y-142726402D01*
X56592867Y-142746107D01*
X56605480Y-142767151D01*
X56615970Y-142789329D01*
X56624235Y-142812429D01*
X56630196Y-142836227D01*
X56633796Y-142860496D01*
X56635000Y-142885000D01*
X56635000Y-144135000D01*
X56633796Y-144159504D01*
X56630196Y-144183773D01*
X56624235Y-144207571D01*
X56615970Y-144230671D01*
X56605480Y-144252849D01*
X56592867Y-144273893D01*
X56578253Y-144293598D01*
X56561777Y-144311777D01*
X56543598Y-144328253D01*
X56523893Y-144342867D01*
X56502849Y-144355480D01*
X56480671Y-144365970D01*
X56457571Y-144374235D01*
X56433773Y-144380196D01*
X56409504Y-144383796D01*
X56385000Y-144385000D01*
X55635000Y-144385000D01*
X55610496Y-144383796D01*
X55586227Y-144380196D01*
X55562429Y-144374235D01*
X55539329Y-144365970D01*
X55517151Y-144355480D01*
X55496107Y-144342867D01*
X55476402Y-144328253D01*
X55458223Y-144311777D01*
X55441747Y-144293598D01*
X55427133Y-144273893D01*
X55414520Y-144252849D01*
X55404030Y-144230671D01*
X55395765Y-144207571D01*
X55389804Y-144183773D01*
X55386204Y-144159504D01*
X55385000Y-144135000D01*
X55385000Y-142885000D01*
X55386204Y-142860496D01*
X55389804Y-142836227D01*
X55395765Y-142812429D01*
X55404030Y-142789329D01*
X55414520Y-142767151D01*
X55427133Y-142746107D01*
X55441747Y-142726402D01*
X55458223Y-142708223D01*
X55476402Y-142691747D01*
X55496107Y-142677133D01*
X55517151Y-142664520D01*
X55539329Y-142654030D01*
X55562429Y-142645765D01*
X55586227Y-142639804D01*
X55610496Y-142636204D01*
X55635000Y-142635000D01*
X56385000Y-142635000D01*
X56409504Y-142636204D01*
X56409504Y-142636204D01*
G37*
D15*
X56010000Y-143510000D03*
D14*
G36*
X53609504Y-142636204D02*
G01*
X53633773Y-142639804D01*
X53657571Y-142645765D01*
X53680671Y-142654030D01*
X53702849Y-142664520D01*
X53723893Y-142677133D01*
X53743598Y-142691747D01*
X53761777Y-142708223D01*
X53778253Y-142726402D01*
X53792867Y-142746107D01*
X53805480Y-142767151D01*
X53815970Y-142789329D01*
X53824235Y-142812429D01*
X53830196Y-142836227D01*
X53833796Y-142860496D01*
X53835000Y-142885000D01*
X53835000Y-144135000D01*
X53833796Y-144159504D01*
X53830196Y-144183773D01*
X53824235Y-144207571D01*
X53815970Y-144230671D01*
X53805480Y-144252849D01*
X53792867Y-144273893D01*
X53778253Y-144293598D01*
X53761777Y-144311777D01*
X53743598Y-144328253D01*
X53723893Y-144342867D01*
X53702849Y-144355480D01*
X53680671Y-144365970D01*
X53657571Y-144374235D01*
X53633773Y-144380196D01*
X53609504Y-144383796D01*
X53585000Y-144385000D01*
X52835000Y-144385000D01*
X52810496Y-144383796D01*
X52786227Y-144380196D01*
X52762429Y-144374235D01*
X52739329Y-144365970D01*
X52717151Y-144355480D01*
X52696107Y-144342867D01*
X52676402Y-144328253D01*
X52658223Y-144311777D01*
X52641747Y-144293598D01*
X52627133Y-144273893D01*
X52614520Y-144252849D01*
X52604030Y-144230671D01*
X52595765Y-144207571D01*
X52589804Y-144183773D01*
X52586204Y-144159504D01*
X52585000Y-144135000D01*
X52585000Y-142885000D01*
X52586204Y-142860496D01*
X52589804Y-142836227D01*
X52595765Y-142812429D01*
X52604030Y-142789329D01*
X52614520Y-142767151D01*
X52627133Y-142746107D01*
X52641747Y-142726402D01*
X52658223Y-142708223D01*
X52676402Y-142691747D01*
X52696107Y-142677133D01*
X52717151Y-142664520D01*
X52739329Y-142654030D01*
X52762429Y-142645765D01*
X52786227Y-142639804D01*
X52810496Y-142636204D01*
X52835000Y-142635000D01*
X53585000Y-142635000D01*
X53609504Y-142636204D01*
X53609504Y-142636204D01*
G37*
D15*
X53210000Y-143510000D03*
D14*
G36*
X107209504Y-142636204D02*
G01*
X107233773Y-142639804D01*
X107257571Y-142645765D01*
X107280671Y-142654030D01*
X107302849Y-142664520D01*
X107323893Y-142677133D01*
X107343598Y-142691747D01*
X107361777Y-142708223D01*
X107378253Y-142726402D01*
X107392867Y-142746107D01*
X107405480Y-142767151D01*
X107415970Y-142789329D01*
X107424235Y-142812429D01*
X107430196Y-142836227D01*
X107433796Y-142860496D01*
X107435000Y-142885000D01*
X107435000Y-144135000D01*
X107433796Y-144159504D01*
X107430196Y-144183773D01*
X107424235Y-144207571D01*
X107415970Y-144230671D01*
X107405480Y-144252849D01*
X107392867Y-144273893D01*
X107378253Y-144293598D01*
X107361777Y-144311777D01*
X107343598Y-144328253D01*
X107323893Y-144342867D01*
X107302849Y-144355480D01*
X107280671Y-144365970D01*
X107257571Y-144374235D01*
X107233773Y-144380196D01*
X107209504Y-144383796D01*
X107185000Y-144385000D01*
X106435000Y-144385000D01*
X106410496Y-144383796D01*
X106386227Y-144380196D01*
X106362429Y-144374235D01*
X106339329Y-144365970D01*
X106317151Y-144355480D01*
X106296107Y-144342867D01*
X106276402Y-144328253D01*
X106258223Y-144311777D01*
X106241747Y-144293598D01*
X106227133Y-144273893D01*
X106214520Y-144252849D01*
X106204030Y-144230671D01*
X106195765Y-144207571D01*
X106189804Y-144183773D01*
X106186204Y-144159504D01*
X106185000Y-144135000D01*
X106185000Y-142885000D01*
X106186204Y-142860496D01*
X106189804Y-142836227D01*
X106195765Y-142812429D01*
X106204030Y-142789329D01*
X106214520Y-142767151D01*
X106227133Y-142746107D01*
X106241747Y-142726402D01*
X106258223Y-142708223D01*
X106276402Y-142691747D01*
X106296107Y-142677133D01*
X106317151Y-142664520D01*
X106339329Y-142654030D01*
X106362429Y-142645765D01*
X106386227Y-142639804D01*
X106410496Y-142636204D01*
X106435000Y-142635000D01*
X107185000Y-142635000D01*
X107209504Y-142636204D01*
X107209504Y-142636204D01*
G37*
D15*
X106810000Y-143510000D03*
D14*
G36*
X104409504Y-142636204D02*
G01*
X104433773Y-142639804D01*
X104457571Y-142645765D01*
X104480671Y-142654030D01*
X104502849Y-142664520D01*
X104523893Y-142677133D01*
X104543598Y-142691747D01*
X104561777Y-142708223D01*
X104578253Y-142726402D01*
X104592867Y-142746107D01*
X104605480Y-142767151D01*
X104615970Y-142789329D01*
X104624235Y-142812429D01*
X104630196Y-142836227D01*
X104633796Y-142860496D01*
X104635000Y-142885000D01*
X104635000Y-144135000D01*
X104633796Y-144159504D01*
X104630196Y-144183773D01*
X104624235Y-144207571D01*
X104615970Y-144230671D01*
X104605480Y-144252849D01*
X104592867Y-144273893D01*
X104578253Y-144293598D01*
X104561777Y-144311777D01*
X104543598Y-144328253D01*
X104523893Y-144342867D01*
X104502849Y-144355480D01*
X104480671Y-144365970D01*
X104457571Y-144374235D01*
X104433773Y-144380196D01*
X104409504Y-144383796D01*
X104385000Y-144385000D01*
X103635000Y-144385000D01*
X103610496Y-144383796D01*
X103586227Y-144380196D01*
X103562429Y-144374235D01*
X103539329Y-144365970D01*
X103517151Y-144355480D01*
X103496107Y-144342867D01*
X103476402Y-144328253D01*
X103458223Y-144311777D01*
X103441747Y-144293598D01*
X103427133Y-144273893D01*
X103414520Y-144252849D01*
X103404030Y-144230671D01*
X103395765Y-144207571D01*
X103389804Y-144183773D01*
X103386204Y-144159504D01*
X103385000Y-144135000D01*
X103385000Y-142885000D01*
X103386204Y-142860496D01*
X103389804Y-142836227D01*
X103395765Y-142812429D01*
X103404030Y-142789329D01*
X103414520Y-142767151D01*
X103427133Y-142746107D01*
X103441747Y-142726402D01*
X103458223Y-142708223D01*
X103476402Y-142691747D01*
X103496107Y-142677133D01*
X103517151Y-142664520D01*
X103539329Y-142654030D01*
X103562429Y-142645765D01*
X103586227Y-142639804D01*
X103610496Y-142636204D01*
X103635000Y-142635000D01*
X104385000Y-142635000D01*
X104409504Y-142636204D01*
X104409504Y-142636204D01*
G37*
D15*
X104010000Y-143510000D03*
D14*
G36*
X66569504Y-142636204D02*
G01*
X66593773Y-142639804D01*
X66617571Y-142645765D01*
X66640671Y-142654030D01*
X66662849Y-142664520D01*
X66683893Y-142677133D01*
X66703598Y-142691747D01*
X66721777Y-142708223D01*
X66738253Y-142726402D01*
X66752867Y-142746107D01*
X66765480Y-142767151D01*
X66775970Y-142789329D01*
X66784235Y-142812429D01*
X66790196Y-142836227D01*
X66793796Y-142860496D01*
X66795000Y-142885000D01*
X66795000Y-144135000D01*
X66793796Y-144159504D01*
X66790196Y-144183773D01*
X66784235Y-144207571D01*
X66775970Y-144230671D01*
X66765480Y-144252849D01*
X66752867Y-144273893D01*
X66738253Y-144293598D01*
X66721777Y-144311777D01*
X66703598Y-144328253D01*
X66683893Y-144342867D01*
X66662849Y-144355480D01*
X66640671Y-144365970D01*
X66617571Y-144374235D01*
X66593773Y-144380196D01*
X66569504Y-144383796D01*
X66545000Y-144385000D01*
X65795000Y-144385000D01*
X65770496Y-144383796D01*
X65746227Y-144380196D01*
X65722429Y-144374235D01*
X65699329Y-144365970D01*
X65677151Y-144355480D01*
X65656107Y-144342867D01*
X65636402Y-144328253D01*
X65618223Y-144311777D01*
X65601747Y-144293598D01*
X65587133Y-144273893D01*
X65574520Y-144252849D01*
X65564030Y-144230671D01*
X65555765Y-144207571D01*
X65549804Y-144183773D01*
X65546204Y-144159504D01*
X65545000Y-144135000D01*
X65545000Y-142885000D01*
X65546204Y-142860496D01*
X65549804Y-142836227D01*
X65555765Y-142812429D01*
X65564030Y-142789329D01*
X65574520Y-142767151D01*
X65587133Y-142746107D01*
X65601747Y-142726402D01*
X65618223Y-142708223D01*
X65636402Y-142691747D01*
X65656107Y-142677133D01*
X65677151Y-142664520D01*
X65699329Y-142654030D01*
X65722429Y-142645765D01*
X65746227Y-142639804D01*
X65770496Y-142636204D01*
X65795000Y-142635000D01*
X66545000Y-142635000D01*
X66569504Y-142636204D01*
X66569504Y-142636204D01*
G37*
D15*
X66170000Y-143510000D03*
D14*
G36*
X63769504Y-142636204D02*
G01*
X63793773Y-142639804D01*
X63817571Y-142645765D01*
X63840671Y-142654030D01*
X63862849Y-142664520D01*
X63883893Y-142677133D01*
X63903598Y-142691747D01*
X63921777Y-142708223D01*
X63938253Y-142726402D01*
X63952867Y-142746107D01*
X63965480Y-142767151D01*
X63975970Y-142789329D01*
X63984235Y-142812429D01*
X63990196Y-142836227D01*
X63993796Y-142860496D01*
X63995000Y-142885000D01*
X63995000Y-144135000D01*
X63993796Y-144159504D01*
X63990196Y-144183773D01*
X63984235Y-144207571D01*
X63975970Y-144230671D01*
X63965480Y-144252849D01*
X63952867Y-144273893D01*
X63938253Y-144293598D01*
X63921777Y-144311777D01*
X63903598Y-144328253D01*
X63883893Y-144342867D01*
X63862849Y-144355480D01*
X63840671Y-144365970D01*
X63817571Y-144374235D01*
X63793773Y-144380196D01*
X63769504Y-144383796D01*
X63745000Y-144385000D01*
X62995000Y-144385000D01*
X62970496Y-144383796D01*
X62946227Y-144380196D01*
X62922429Y-144374235D01*
X62899329Y-144365970D01*
X62877151Y-144355480D01*
X62856107Y-144342867D01*
X62836402Y-144328253D01*
X62818223Y-144311777D01*
X62801747Y-144293598D01*
X62787133Y-144273893D01*
X62774520Y-144252849D01*
X62764030Y-144230671D01*
X62755765Y-144207571D01*
X62749804Y-144183773D01*
X62746204Y-144159504D01*
X62745000Y-144135000D01*
X62745000Y-142885000D01*
X62746204Y-142860496D01*
X62749804Y-142836227D01*
X62755765Y-142812429D01*
X62764030Y-142789329D01*
X62774520Y-142767151D01*
X62787133Y-142746107D01*
X62801747Y-142726402D01*
X62818223Y-142708223D01*
X62836402Y-142691747D01*
X62856107Y-142677133D01*
X62877151Y-142664520D01*
X62899329Y-142654030D01*
X62922429Y-142645765D01*
X62946227Y-142639804D01*
X62970496Y-142636204D01*
X62995000Y-142635000D01*
X63745000Y-142635000D01*
X63769504Y-142636204D01*
X63769504Y-142636204D01*
G37*
D15*
X63370000Y-143510000D03*
D14*
G36*
X97049504Y-142636204D02*
G01*
X97073773Y-142639804D01*
X97097571Y-142645765D01*
X97120671Y-142654030D01*
X97142849Y-142664520D01*
X97163893Y-142677133D01*
X97183598Y-142691747D01*
X97201777Y-142708223D01*
X97218253Y-142726402D01*
X97232867Y-142746107D01*
X97245480Y-142767151D01*
X97255970Y-142789329D01*
X97264235Y-142812429D01*
X97270196Y-142836227D01*
X97273796Y-142860496D01*
X97275000Y-142885000D01*
X97275000Y-144135000D01*
X97273796Y-144159504D01*
X97270196Y-144183773D01*
X97264235Y-144207571D01*
X97255970Y-144230671D01*
X97245480Y-144252849D01*
X97232867Y-144273893D01*
X97218253Y-144293598D01*
X97201777Y-144311777D01*
X97183598Y-144328253D01*
X97163893Y-144342867D01*
X97142849Y-144355480D01*
X97120671Y-144365970D01*
X97097571Y-144374235D01*
X97073773Y-144380196D01*
X97049504Y-144383796D01*
X97025000Y-144385000D01*
X96275000Y-144385000D01*
X96250496Y-144383796D01*
X96226227Y-144380196D01*
X96202429Y-144374235D01*
X96179329Y-144365970D01*
X96157151Y-144355480D01*
X96136107Y-144342867D01*
X96116402Y-144328253D01*
X96098223Y-144311777D01*
X96081747Y-144293598D01*
X96067133Y-144273893D01*
X96054520Y-144252849D01*
X96044030Y-144230671D01*
X96035765Y-144207571D01*
X96029804Y-144183773D01*
X96026204Y-144159504D01*
X96025000Y-144135000D01*
X96025000Y-142885000D01*
X96026204Y-142860496D01*
X96029804Y-142836227D01*
X96035765Y-142812429D01*
X96044030Y-142789329D01*
X96054520Y-142767151D01*
X96067133Y-142746107D01*
X96081747Y-142726402D01*
X96098223Y-142708223D01*
X96116402Y-142691747D01*
X96136107Y-142677133D01*
X96157151Y-142664520D01*
X96179329Y-142654030D01*
X96202429Y-142645765D01*
X96226227Y-142639804D01*
X96250496Y-142636204D01*
X96275000Y-142635000D01*
X97025000Y-142635000D01*
X97049504Y-142636204D01*
X97049504Y-142636204D01*
G37*
D15*
X96650000Y-143510000D03*
D14*
G36*
X94249504Y-142636204D02*
G01*
X94273773Y-142639804D01*
X94297571Y-142645765D01*
X94320671Y-142654030D01*
X94342849Y-142664520D01*
X94363893Y-142677133D01*
X94383598Y-142691747D01*
X94401777Y-142708223D01*
X94418253Y-142726402D01*
X94432867Y-142746107D01*
X94445480Y-142767151D01*
X94455970Y-142789329D01*
X94464235Y-142812429D01*
X94470196Y-142836227D01*
X94473796Y-142860496D01*
X94475000Y-142885000D01*
X94475000Y-144135000D01*
X94473796Y-144159504D01*
X94470196Y-144183773D01*
X94464235Y-144207571D01*
X94455970Y-144230671D01*
X94445480Y-144252849D01*
X94432867Y-144273893D01*
X94418253Y-144293598D01*
X94401777Y-144311777D01*
X94383598Y-144328253D01*
X94363893Y-144342867D01*
X94342849Y-144355480D01*
X94320671Y-144365970D01*
X94297571Y-144374235D01*
X94273773Y-144380196D01*
X94249504Y-144383796D01*
X94225000Y-144385000D01*
X93475000Y-144385000D01*
X93450496Y-144383796D01*
X93426227Y-144380196D01*
X93402429Y-144374235D01*
X93379329Y-144365970D01*
X93357151Y-144355480D01*
X93336107Y-144342867D01*
X93316402Y-144328253D01*
X93298223Y-144311777D01*
X93281747Y-144293598D01*
X93267133Y-144273893D01*
X93254520Y-144252849D01*
X93244030Y-144230671D01*
X93235765Y-144207571D01*
X93229804Y-144183773D01*
X93226204Y-144159504D01*
X93225000Y-144135000D01*
X93225000Y-142885000D01*
X93226204Y-142860496D01*
X93229804Y-142836227D01*
X93235765Y-142812429D01*
X93244030Y-142789329D01*
X93254520Y-142767151D01*
X93267133Y-142746107D01*
X93281747Y-142726402D01*
X93298223Y-142708223D01*
X93316402Y-142691747D01*
X93336107Y-142677133D01*
X93357151Y-142664520D01*
X93379329Y-142654030D01*
X93402429Y-142645765D01*
X93426227Y-142639804D01*
X93450496Y-142636204D01*
X93475000Y-142635000D01*
X94225000Y-142635000D01*
X94249504Y-142636204D01*
X94249504Y-142636204D01*
G37*
D15*
X93850000Y-143510000D03*
D14*
G36*
X76729504Y-142636204D02*
G01*
X76753773Y-142639804D01*
X76777571Y-142645765D01*
X76800671Y-142654030D01*
X76822849Y-142664520D01*
X76843893Y-142677133D01*
X76863598Y-142691747D01*
X76881777Y-142708223D01*
X76898253Y-142726402D01*
X76912867Y-142746107D01*
X76925480Y-142767151D01*
X76935970Y-142789329D01*
X76944235Y-142812429D01*
X76950196Y-142836227D01*
X76953796Y-142860496D01*
X76955000Y-142885000D01*
X76955000Y-144135000D01*
X76953796Y-144159504D01*
X76950196Y-144183773D01*
X76944235Y-144207571D01*
X76935970Y-144230671D01*
X76925480Y-144252849D01*
X76912867Y-144273893D01*
X76898253Y-144293598D01*
X76881777Y-144311777D01*
X76863598Y-144328253D01*
X76843893Y-144342867D01*
X76822849Y-144355480D01*
X76800671Y-144365970D01*
X76777571Y-144374235D01*
X76753773Y-144380196D01*
X76729504Y-144383796D01*
X76705000Y-144385000D01*
X75955000Y-144385000D01*
X75930496Y-144383796D01*
X75906227Y-144380196D01*
X75882429Y-144374235D01*
X75859329Y-144365970D01*
X75837151Y-144355480D01*
X75816107Y-144342867D01*
X75796402Y-144328253D01*
X75778223Y-144311777D01*
X75761747Y-144293598D01*
X75747133Y-144273893D01*
X75734520Y-144252849D01*
X75724030Y-144230671D01*
X75715765Y-144207571D01*
X75709804Y-144183773D01*
X75706204Y-144159504D01*
X75705000Y-144135000D01*
X75705000Y-142885000D01*
X75706204Y-142860496D01*
X75709804Y-142836227D01*
X75715765Y-142812429D01*
X75724030Y-142789329D01*
X75734520Y-142767151D01*
X75747133Y-142746107D01*
X75761747Y-142726402D01*
X75778223Y-142708223D01*
X75796402Y-142691747D01*
X75816107Y-142677133D01*
X75837151Y-142664520D01*
X75859329Y-142654030D01*
X75882429Y-142645765D01*
X75906227Y-142639804D01*
X75930496Y-142636204D01*
X75955000Y-142635000D01*
X76705000Y-142635000D01*
X76729504Y-142636204D01*
X76729504Y-142636204D01*
G37*
D15*
X76330000Y-143510000D03*
D14*
G36*
X73929504Y-142636204D02*
G01*
X73953773Y-142639804D01*
X73977571Y-142645765D01*
X74000671Y-142654030D01*
X74022849Y-142664520D01*
X74043893Y-142677133D01*
X74063598Y-142691747D01*
X74081777Y-142708223D01*
X74098253Y-142726402D01*
X74112867Y-142746107D01*
X74125480Y-142767151D01*
X74135970Y-142789329D01*
X74144235Y-142812429D01*
X74150196Y-142836227D01*
X74153796Y-142860496D01*
X74155000Y-142885000D01*
X74155000Y-144135000D01*
X74153796Y-144159504D01*
X74150196Y-144183773D01*
X74144235Y-144207571D01*
X74135970Y-144230671D01*
X74125480Y-144252849D01*
X74112867Y-144273893D01*
X74098253Y-144293598D01*
X74081777Y-144311777D01*
X74063598Y-144328253D01*
X74043893Y-144342867D01*
X74022849Y-144355480D01*
X74000671Y-144365970D01*
X73977571Y-144374235D01*
X73953773Y-144380196D01*
X73929504Y-144383796D01*
X73905000Y-144385000D01*
X73155000Y-144385000D01*
X73130496Y-144383796D01*
X73106227Y-144380196D01*
X73082429Y-144374235D01*
X73059329Y-144365970D01*
X73037151Y-144355480D01*
X73016107Y-144342867D01*
X72996402Y-144328253D01*
X72978223Y-144311777D01*
X72961747Y-144293598D01*
X72947133Y-144273893D01*
X72934520Y-144252849D01*
X72924030Y-144230671D01*
X72915765Y-144207571D01*
X72909804Y-144183773D01*
X72906204Y-144159504D01*
X72905000Y-144135000D01*
X72905000Y-142885000D01*
X72906204Y-142860496D01*
X72909804Y-142836227D01*
X72915765Y-142812429D01*
X72924030Y-142789329D01*
X72934520Y-142767151D01*
X72947133Y-142746107D01*
X72961747Y-142726402D01*
X72978223Y-142708223D01*
X72996402Y-142691747D01*
X73016107Y-142677133D01*
X73037151Y-142664520D01*
X73059329Y-142654030D01*
X73082429Y-142645765D01*
X73106227Y-142639804D01*
X73130496Y-142636204D01*
X73155000Y-142635000D01*
X73905000Y-142635000D01*
X73929504Y-142636204D01*
X73929504Y-142636204D01*
G37*
D15*
X73530000Y-143510000D03*
D14*
G36*
X86889504Y-142636204D02*
G01*
X86913773Y-142639804D01*
X86937571Y-142645765D01*
X86960671Y-142654030D01*
X86982849Y-142664520D01*
X87003893Y-142677133D01*
X87023598Y-142691747D01*
X87041777Y-142708223D01*
X87058253Y-142726402D01*
X87072867Y-142746107D01*
X87085480Y-142767151D01*
X87095970Y-142789329D01*
X87104235Y-142812429D01*
X87110196Y-142836227D01*
X87113796Y-142860496D01*
X87115000Y-142885000D01*
X87115000Y-144135000D01*
X87113796Y-144159504D01*
X87110196Y-144183773D01*
X87104235Y-144207571D01*
X87095970Y-144230671D01*
X87085480Y-144252849D01*
X87072867Y-144273893D01*
X87058253Y-144293598D01*
X87041777Y-144311777D01*
X87023598Y-144328253D01*
X87003893Y-144342867D01*
X86982849Y-144355480D01*
X86960671Y-144365970D01*
X86937571Y-144374235D01*
X86913773Y-144380196D01*
X86889504Y-144383796D01*
X86865000Y-144385000D01*
X86115000Y-144385000D01*
X86090496Y-144383796D01*
X86066227Y-144380196D01*
X86042429Y-144374235D01*
X86019329Y-144365970D01*
X85997151Y-144355480D01*
X85976107Y-144342867D01*
X85956402Y-144328253D01*
X85938223Y-144311777D01*
X85921747Y-144293598D01*
X85907133Y-144273893D01*
X85894520Y-144252849D01*
X85884030Y-144230671D01*
X85875765Y-144207571D01*
X85869804Y-144183773D01*
X85866204Y-144159504D01*
X85865000Y-144135000D01*
X85865000Y-142885000D01*
X85866204Y-142860496D01*
X85869804Y-142836227D01*
X85875765Y-142812429D01*
X85884030Y-142789329D01*
X85894520Y-142767151D01*
X85907133Y-142746107D01*
X85921747Y-142726402D01*
X85938223Y-142708223D01*
X85956402Y-142691747D01*
X85976107Y-142677133D01*
X85997151Y-142664520D01*
X86019329Y-142654030D01*
X86042429Y-142645765D01*
X86066227Y-142639804D01*
X86090496Y-142636204D01*
X86115000Y-142635000D01*
X86865000Y-142635000D01*
X86889504Y-142636204D01*
X86889504Y-142636204D01*
G37*
D15*
X86490000Y-143510000D03*
D14*
G36*
X84089504Y-142636204D02*
G01*
X84113773Y-142639804D01*
X84137571Y-142645765D01*
X84160671Y-142654030D01*
X84182849Y-142664520D01*
X84203893Y-142677133D01*
X84223598Y-142691747D01*
X84241777Y-142708223D01*
X84258253Y-142726402D01*
X84272867Y-142746107D01*
X84285480Y-142767151D01*
X84295970Y-142789329D01*
X84304235Y-142812429D01*
X84310196Y-142836227D01*
X84313796Y-142860496D01*
X84315000Y-142885000D01*
X84315000Y-144135000D01*
X84313796Y-144159504D01*
X84310196Y-144183773D01*
X84304235Y-144207571D01*
X84295970Y-144230671D01*
X84285480Y-144252849D01*
X84272867Y-144273893D01*
X84258253Y-144293598D01*
X84241777Y-144311777D01*
X84223598Y-144328253D01*
X84203893Y-144342867D01*
X84182849Y-144355480D01*
X84160671Y-144365970D01*
X84137571Y-144374235D01*
X84113773Y-144380196D01*
X84089504Y-144383796D01*
X84065000Y-144385000D01*
X83315000Y-144385000D01*
X83290496Y-144383796D01*
X83266227Y-144380196D01*
X83242429Y-144374235D01*
X83219329Y-144365970D01*
X83197151Y-144355480D01*
X83176107Y-144342867D01*
X83156402Y-144328253D01*
X83138223Y-144311777D01*
X83121747Y-144293598D01*
X83107133Y-144273893D01*
X83094520Y-144252849D01*
X83084030Y-144230671D01*
X83075765Y-144207571D01*
X83069804Y-144183773D01*
X83066204Y-144159504D01*
X83065000Y-144135000D01*
X83065000Y-142885000D01*
X83066204Y-142860496D01*
X83069804Y-142836227D01*
X83075765Y-142812429D01*
X83084030Y-142789329D01*
X83094520Y-142767151D01*
X83107133Y-142746107D01*
X83121747Y-142726402D01*
X83138223Y-142708223D01*
X83156402Y-142691747D01*
X83176107Y-142677133D01*
X83197151Y-142664520D01*
X83219329Y-142654030D01*
X83242429Y-142645765D01*
X83266227Y-142639804D01*
X83290496Y-142636204D01*
X83315000Y-142635000D01*
X84065000Y-142635000D01*
X84089504Y-142636204D01*
X84089504Y-142636204D01*
G37*
D15*
X83690000Y-143510000D03*
D14*
G36*
X73929504Y-140096204D02*
G01*
X73953773Y-140099804D01*
X73977571Y-140105765D01*
X74000671Y-140114030D01*
X74022849Y-140124520D01*
X74043893Y-140137133D01*
X74063598Y-140151747D01*
X74081777Y-140168223D01*
X74098253Y-140186402D01*
X74112867Y-140206107D01*
X74125480Y-140227151D01*
X74135970Y-140249329D01*
X74144235Y-140272429D01*
X74150196Y-140296227D01*
X74153796Y-140320496D01*
X74155000Y-140345000D01*
X74155000Y-141595000D01*
X74153796Y-141619504D01*
X74150196Y-141643773D01*
X74144235Y-141667571D01*
X74135970Y-141690671D01*
X74125480Y-141712849D01*
X74112867Y-141733893D01*
X74098253Y-141753598D01*
X74081777Y-141771777D01*
X74063598Y-141788253D01*
X74043893Y-141802867D01*
X74022849Y-141815480D01*
X74000671Y-141825970D01*
X73977571Y-141834235D01*
X73953773Y-141840196D01*
X73929504Y-141843796D01*
X73905000Y-141845000D01*
X73155000Y-141845000D01*
X73130496Y-141843796D01*
X73106227Y-141840196D01*
X73082429Y-141834235D01*
X73059329Y-141825970D01*
X73037151Y-141815480D01*
X73016107Y-141802867D01*
X72996402Y-141788253D01*
X72978223Y-141771777D01*
X72961747Y-141753598D01*
X72947133Y-141733893D01*
X72934520Y-141712849D01*
X72924030Y-141690671D01*
X72915765Y-141667571D01*
X72909804Y-141643773D01*
X72906204Y-141619504D01*
X72905000Y-141595000D01*
X72905000Y-140345000D01*
X72906204Y-140320496D01*
X72909804Y-140296227D01*
X72915765Y-140272429D01*
X72924030Y-140249329D01*
X72934520Y-140227151D01*
X72947133Y-140206107D01*
X72961747Y-140186402D01*
X72978223Y-140168223D01*
X72996402Y-140151747D01*
X73016107Y-140137133D01*
X73037151Y-140124520D01*
X73059329Y-140114030D01*
X73082429Y-140105765D01*
X73106227Y-140099804D01*
X73130496Y-140096204D01*
X73155000Y-140095000D01*
X73905000Y-140095000D01*
X73929504Y-140096204D01*
X73929504Y-140096204D01*
G37*
D15*
X73530000Y-140970000D03*
D14*
G36*
X76729504Y-140096204D02*
G01*
X76753773Y-140099804D01*
X76777571Y-140105765D01*
X76800671Y-140114030D01*
X76822849Y-140124520D01*
X76843893Y-140137133D01*
X76863598Y-140151747D01*
X76881777Y-140168223D01*
X76898253Y-140186402D01*
X76912867Y-140206107D01*
X76925480Y-140227151D01*
X76935970Y-140249329D01*
X76944235Y-140272429D01*
X76950196Y-140296227D01*
X76953796Y-140320496D01*
X76955000Y-140345000D01*
X76955000Y-141595000D01*
X76953796Y-141619504D01*
X76950196Y-141643773D01*
X76944235Y-141667571D01*
X76935970Y-141690671D01*
X76925480Y-141712849D01*
X76912867Y-141733893D01*
X76898253Y-141753598D01*
X76881777Y-141771777D01*
X76863598Y-141788253D01*
X76843893Y-141802867D01*
X76822849Y-141815480D01*
X76800671Y-141825970D01*
X76777571Y-141834235D01*
X76753773Y-141840196D01*
X76729504Y-141843796D01*
X76705000Y-141845000D01*
X75955000Y-141845000D01*
X75930496Y-141843796D01*
X75906227Y-141840196D01*
X75882429Y-141834235D01*
X75859329Y-141825970D01*
X75837151Y-141815480D01*
X75816107Y-141802867D01*
X75796402Y-141788253D01*
X75778223Y-141771777D01*
X75761747Y-141753598D01*
X75747133Y-141733893D01*
X75734520Y-141712849D01*
X75724030Y-141690671D01*
X75715765Y-141667571D01*
X75709804Y-141643773D01*
X75706204Y-141619504D01*
X75705000Y-141595000D01*
X75705000Y-140345000D01*
X75706204Y-140320496D01*
X75709804Y-140296227D01*
X75715765Y-140272429D01*
X75724030Y-140249329D01*
X75734520Y-140227151D01*
X75747133Y-140206107D01*
X75761747Y-140186402D01*
X75778223Y-140168223D01*
X75796402Y-140151747D01*
X75816107Y-140137133D01*
X75837151Y-140124520D01*
X75859329Y-140114030D01*
X75882429Y-140105765D01*
X75906227Y-140099804D01*
X75930496Y-140096204D01*
X75955000Y-140095000D01*
X76705000Y-140095000D01*
X76729504Y-140096204D01*
X76729504Y-140096204D01*
G37*
D15*
X76330000Y-140970000D03*
D14*
G36*
X137689504Y-142636204D02*
G01*
X137713773Y-142639804D01*
X137737571Y-142645765D01*
X137760671Y-142654030D01*
X137782849Y-142664520D01*
X137803893Y-142677133D01*
X137823598Y-142691747D01*
X137841777Y-142708223D01*
X137858253Y-142726402D01*
X137872867Y-142746107D01*
X137885480Y-142767151D01*
X137895970Y-142789329D01*
X137904235Y-142812429D01*
X137910196Y-142836227D01*
X137913796Y-142860496D01*
X137915000Y-142885000D01*
X137915000Y-144135000D01*
X137913796Y-144159504D01*
X137910196Y-144183773D01*
X137904235Y-144207571D01*
X137895970Y-144230671D01*
X137885480Y-144252849D01*
X137872867Y-144273893D01*
X137858253Y-144293598D01*
X137841777Y-144311777D01*
X137823598Y-144328253D01*
X137803893Y-144342867D01*
X137782849Y-144355480D01*
X137760671Y-144365970D01*
X137737571Y-144374235D01*
X137713773Y-144380196D01*
X137689504Y-144383796D01*
X137665000Y-144385000D01*
X136915000Y-144385000D01*
X136890496Y-144383796D01*
X136866227Y-144380196D01*
X136842429Y-144374235D01*
X136819329Y-144365970D01*
X136797151Y-144355480D01*
X136776107Y-144342867D01*
X136756402Y-144328253D01*
X136738223Y-144311777D01*
X136721747Y-144293598D01*
X136707133Y-144273893D01*
X136694520Y-144252849D01*
X136684030Y-144230671D01*
X136675765Y-144207571D01*
X136669804Y-144183773D01*
X136666204Y-144159504D01*
X136665000Y-144135000D01*
X136665000Y-142885000D01*
X136666204Y-142860496D01*
X136669804Y-142836227D01*
X136675765Y-142812429D01*
X136684030Y-142789329D01*
X136694520Y-142767151D01*
X136707133Y-142746107D01*
X136721747Y-142726402D01*
X136738223Y-142708223D01*
X136756402Y-142691747D01*
X136776107Y-142677133D01*
X136797151Y-142664520D01*
X136819329Y-142654030D01*
X136842429Y-142645765D01*
X136866227Y-142639804D01*
X136890496Y-142636204D01*
X136915000Y-142635000D01*
X137665000Y-142635000D01*
X137689504Y-142636204D01*
X137689504Y-142636204D01*
G37*
D15*
X137290000Y-143510000D03*
D14*
G36*
X134889504Y-142636204D02*
G01*
X134913773Y-142639804D01*
X134937571Y-142645765D01*
X134960671Y-142654030D01*
X134982849Y-142664520D01*
X135003893Y-142677133D01*
X135023598Y-142691747D01*
X135041777Y-142708223D01*
X135058253Y-142726402D01*
X135072867Y-142746107D01*
X135085480Y-142767151D01*
X135095970Y-142789329D01*
X135104235Y-142812429D01*
X135110196Y-142836227D01*
X135113796Y-142860496D01*
X135115000Y-142885000D01*
X135115000Y-144135000D01*
X135113796Y-144159504D01*
X135110196Y-144183773D01*
X135104235Y-144207571D01*
X135095970Y-144230671D01*
X135085480Y-144252849D01*
X135072867Y-144273893D01*
X135058253Y-144293598D01*
X135041777Y-144311777D01*
X135023598Y-144328253D01*
X135003893Y-144342867D01*
X134982849Y-144355480D01*
X134960671Y-144365970D01*
X134937571Y-144374235D01*
X134913773Y-144380196D01*
X134889504Y-144383796D01*
X134865000Y-144385000D01*
X134115000Y-144385000D01*
X134090496Y-144383796D01*
X134066227Y-144380196D01*
X134042429Y-144374235D01*
X134019329Y-144365970D01*
X133997151Y-144355480D01*
X133976107Y-144342867D01*
X133956402Y-144328253D01*
X133938223Y-144311777D01*
X133921747Y-144293598D01*
X133907133Y-144273893D01*
X133894520Y-144252849D01*
X133884030Y-144230671D01*
X133875765Y-144207571D01*
X133869804Y-144183773D01*
X133866204Y-144159504D01*
X133865000Y-144135000D01*
X133865000Y-142885000D01*
X133866204Y-142860496D01*
X133869804Y-142836227D01*
X133875765Y-142812429D01*
X133884030Y-142789329D01*
X133894520Y-142767151D01*
X133907133Y-142746107D01*
X133921747Y-142726402D01*
X133938223Y-142708223D01*
X133956402Y-142691747D01*
X133976107Y-142677133D01*
X133997151Y-142664520D01*
X134019329Y-142654030D01*
X134042429Y-142645765D01*
X134066227Y-142639804D01*
X134090496Y-142636204D01*
X134115000Y-142635000D01*
X134865000Y-142635000D01*
X134889504Y-142636204D01*
X134889504Y-142636204D01*
G37*
D15*
X134490000Y-143510000D03*
D16*
X145415000Y-64008000D03*
X135890000Y-54610000D03*
X145415000Y-105918000D03*
X135890000Y-96520000D03*
X68580000Y-62230000D03*
X68580000Y-104140000D03*
X125730000Y-54610000D03*
X125730000Y-96520000D03*
X73660000Y-153670000D03*
X145288000Y-62484000D03*
X145288000Y-104394000D03*
X144018000Y-146812000D03*
D17*
X137290000Y-59690000D02*
X139700000Y-59690000D01*
D18*
X47551484Y-69850000D02*
X48260000Y-69850000D01*
X42099991Y-64398507D02*
X47551484Y-69850000D01*
X38735000Y-60325000D02*
X42099990Y-63689990D01*
X38735000Y-56515000D02*
X38735000Y-60325000D01*
X41275000Y-53975000D02*
X38735000Y-56515000D01*
X112395000Y-53975000D02*
X41275000Y-53975000D01*
X132080000Y-55626000D02*
X130302000Y-53848000D01*
X132080000Y-57150000D02*
X132080000Y-55626000D01*
X42099990Y-63689990D02*
X42099991Y-64398507D01*
X130302000Y-53848000D02*
X128778000Y-53848000D01*
X128778000Y-53848000D02*
X124775010Y-49845010D01*
X124775010Y-49845010D02*
X116524990Y-49845010D01*
X116524990Y-49845010D02*
X112395000Y-53975000D01*
D17*
X137290000Y-101600000D02*
X139700000Y-101600000D01*
D18*
X47551484Y-111760000D02*
X48260000Y-111760000D01*
X42099991Y-106308507D02*
X47551484Y-111760000D01*
X38735000Y-102235000D02*
X42099990Y-105599990D01*
X38735000Y-98425000D02*
X38735000Y-102235000D01*
X41275000Y-95885000D02*
X38735000Y-98425000D01*
X112395000Y-95885000D02*
X41275000Y-95885000D01*
X132080000Y-97536000D02*
X130302000Y-95758000D01*
X132080000Y-99060000D02*
X132080000Y-97536000D01*
X42099990Y-105599990D02*
X42099991Y-106308507D01*
X130302000Y-95758000D02*
X128778000Y-95758000D01*
X128778000Y-95758000D02*
X124775010Y-91755010D01*
X124775010Y-91755010D02*
X116524990Y-91755010D01*
X116524990Y-91755010D02*
X112395000Y-95885000D01*
D17*
X137290000Y-143510000D02*
X139700000Y-143510000D01*
X132080000Y-59690000D02*
X134490000Y-59690000D01*
X139700000Y-55118000D02*
X139700000Y-57150000D01*
X137414000Y-52832000D02*
X139700000Y-55118000D01*
X135382000Y-52832000D02*
X137414000Y-52832000D01*
X134490000Y-59690000D02*
X134490000Y-53724000D01*
X134490000Y-53724000D02*
X135382000Y-52832000D01*
X132080000Y-101600000D02*
X134490000Y-101600000D01*
X139700000Y-97028000D02*
X139700000Y-99060000D01*
X137414000Y-94742000D02*
X139700000Y-97028000D01*
X135382000Y-94742000D02*
X137414000Y-94742000D01*
X134490000Y-101600000D02*
X134490000Y-95634000D01*
X134490000Y-95634000D02*
X135382000Y-94742000D01*
X135890000Y-136525000D02*
X138430000Y-133985000D01*
X135890000Y-140970000D02*
X139700000Y-140970000D01*
X135890000Y-140970000D02*
X135890000Y-136525000D01*
X132080000Y-143510000D02*
X134490000Y-143510000D01*
X134490000Y-142370000D02*
X135890000Y-140970000D01*
X134490000Y-143510000D02*
X134490000Y-142370000D01*
X154305000Y-135890000D02*
X152400000Y-133985000D01*
X156210000Y-135890000D02*
X154305000Y-135890000D01*
X152400000Y-133985000D02*
X138430000Y-133985000D01*
X123825000Y-158115000D02*
X130175000Y-158115000D01*
X130175000Y-158115000D02*
X132080000Y-156210000D01*
X121920000Y-156210000D02*
X123825000Y-158115000D01*
X45850000Y-59690000D02*
X48260000Y-59690000D01*
X136525000Y-75565000D02*
X139700000Y-72390000D01*
X58420000Y-75565000D02*
X136525000Y-75565000D01*
X45850000Y-59690000D02*
X45850000Y-64900000D01*
X45850000Y-64900000D02*
X47625000Y-66675000D01*
X47625000Y-66675000D02*
X50800000Y-66675000D01*
X50800000Y-66675000D02*
X55880000Y-71755000D01*
X55880000Y-71755000D02*
X55880000Y-73025000D01*
X55880000Y-73025000D02*
X58420000Y-75565000D01*
X45850000Y-101600000D02*
X48260000Y-101600000D01*
X136525000Y-117475000D02*
X139700000Y-114300000D01*
X58420000Y-117475000D02*
X136525000Y-117475000D01*
X45850000Y-101600000D02*
X45850000Y-106810000D01*
X45850000Y-106810000D02*
X47625000Y-108585000D01*
X47625000Y-108585000D02*
X50800000Y-108585000D01*
X50800000Y-108585000D02*
X55880000Y-113665000D01*
X55880000Y-113665000D02*
X55880000Y-114935000D01*
X55880000Y-114935000D02*
X58420000Y-117475000D01*
X71120000Y-140970000D02*
X73530000Y-140970000D01*
X56515000Y-154305000D02*
X56515000Y-153035000D01*
X58420000Y-156210000D02*
X56515000Y-154305000D01*
X56515000Y-154305000D02*
X56515000Y-151130000D01*
X45720000Y-153670000D02*
X48260000Y-156210000D01*
X45720000Y-147817780D02*
X45720000Y-153670000D01*
X46852780Y-146685000D02*
X45720000Y-147817780D01*
X56515000Y-151130000D02*
X52070000Y-146685000D01*
X52070000Y-146685000D02*
X46852780Y-146685000D01*
X71120000Y-140970000D02*
X66040000Y-140970000D01*
X66040000Y-140970000D02*
X64770000Y-142240000D01*
X64770000Y-142240000D02*
X64770000Y-148590000D01*
X64770000Y-148590000D02*
X68580000Y-148590000D01*
X64770000Y-148590000D02*
X62230000Y-151130000D01*
X56515000Y-151130000D02*
X62230000Y-151130000D01*
X40640000Y-59690000D02*
X43050000Y-59690000D01*
X43050000Y-59690000D02*
X43050000Y-58550000D01*
X44450000Y-57150000D02*
X48260000Y-57150000D01*
X43050000Y-58550000D02*
X44450000Y-57150000D01*
X43050000Y-59690000D02*
X43050000Y-64005000D01*
X43050000Y-64005000D02*
X46990000Y-67945000D01*
X48895000Y-67945000D02*
X50800000Y-69850000D01*
X46990000Y-67945000D02*
X48895000Y-67945000D01*
X40640000Y-101600000D02*
X43050000Y-101600000D01*
X43050000Y-101600000D02*
X43050000Y-100460000D01*
X44450000Y-99060000D02*
X48260000Y-99060000D01*
X43050000Y-100460000D02*
X44450000Y-99060000D01*
X43050000Y-101600000D02*
X43050000Y-105915000D01*
X43050000Y-105915000D02*
X46990000Y-109855000D01*
X48895000Y-109855000D02*
X50800000Y-111760000D01*
X46990000Y-109855000D02*
X48895000Y-109855000D01*
X76330000Y-140970000D02*
X78740000Y-140970000D01*
X69607999Y-136957979D02*
X70465010Y-137814990D01*
X69215000Y-135255000D02*
X69215000Y-136525000D01*
X69215000Y-136525000D02*
X69607999Y-136917999D01*
X69607999Y-136917999D02*
X69607999Y-136957979D01*
X70485000Y-133985000D02*
X76835000Y-133985000D01*
X78740000Y-135890000D02*
X76835000Y-133985000D01*
X70485000Y-133985000D02*
X69215000Y-135255000D01*
X76330000Y-139332219D02*
X76330000Y-140970000D01*
X74812771Y-137814990D02*
X76330000Y-139332219D01*
X70465010Y-137814990D02*
X74812771Y-137814990D01*
X56010000Y-59690000D02*
X58420000Y-59690000D01*
X56010000Y-101600000D02*
X58420000Y-101600000D01*
X86490000Y-143510000D02*
X88900000Y-143510000D01*
X139700000Y-156210000D02*
X136525000Y-159385000D01*
X136525000Y-159385000D02*
X92075000Y-159385000D01*
X92075000Y-159385000D02*
X88900000Y-156210000D01*
X50800000Y-59690000D02*
X53210000Y-59690000D01*
X53210000Y-59690000D02*
X53210000Y-58550000D01*
X54610000Y-57150000D02*
X58420000Y-57150000D01*
X53210000Y-58550000D02*
X54610000Y-57150000D01*
X50800000Y-101600000D02*
X53210000Y-101600000D01*
X53210000Y-101600000D02*
X53210000Y-100460000D01*
X54610000Y-99060000D02*
X58420000Y-99060000D01*
X53210000Y-100460000D02*
X54610000Y-99060000D01*
X83690000Y-143510000D02*
X81280000Y-143510000D01*
X83690000Y-143510000D02*
X83690000Y-142370000D01*
X85090000Y-140970000D02*
X88900000Y-140970000D01*
X83690000Y-142370000D02*
X85090000Y-140970000D01*
X66170000Y-59690000D02*
X68580000Y-59690000D01*
X58420000Y-72390000D02*
X60325000Y-74295000D01*
X66675000Y-74295000D02*
X68580000Y-72390000D01*
X60325000Y-74295000D02*
X66675000Y-74295000D01*
X66170000Y-101600000D02*
X68580000Y-101600000D01*
X58420000Y-114300000D02*
X60325000Y-116205000D01*
X66675000Y-116205000D02*
X68580000Y-114300000D01*
X60325000Y-116205000D02*
X66675000Y-116205000D01*
X76330000Y-143510000D02*
X78740000Y-143510000D01*
X71120000Y-130810000D02*
X67964990Y-133965010D01*
X67964990Y-133965010D02*
X67964990Y-137082750D01*
X67964990Y-137082750D02*
X69947240Y-139065000D01*
X69947240Y-139065000D02*
X74295000Y-139065000D01*
X74295000Y-139065000D02*
X74930000Y-139700000D01*
X74930000Y-142110000D02*
X76330000Y-143510000D01*
X74930000Y-139700000D02*
X74930000Y-142110000D01*
X60960000Y-59690000D02*
X63370000Y-59690000D01*
X63370000Y-59690000D02*
X63370000Y-58550000D01*
X64770000Y-57150000D02*
X68580000Y-57150000D01*
X63370000Y-58550000D02*
X64770000Y-57150000D01*
X60960000Y-101600000D02*
X63370000Y-101600000D01*
X63370000Y-101600000D02*
X63370000Y-100460000D01*
X64770000Y-99060000D02*
X68580000Y-99060000D01*
X63370000Y-100460000D02*
X64770000Y-99060000D01*
X71120000Y-143510000D02*
X73530000Y-143510000D01*
X71120000Y-143510000D02*
X71120000Y-148590000D01*
X76330000Y-59690000D02*
X78740000Y-59690000D01*
X76330000Y-101600000D02*
X78740000Y-101600000D01*
X96650000Y-143510000D02*
X99060000Y-143510000D01*
X71120000Y-59690000D02*
X73530000Y-59690000D01*
X73530000Y-59690000D02*
X73530000Y-58550000D01*
X74930000Y-57150000D02*
X78740000Y-57150000D01*
X73530000Y-58550000D02*
X74930000Y-57150000D01*
X144853516Y-64008000D02*
X142494000Y-61648484D01*
X145415000Y-64008000D02*
X144853516Y-64008000D01*
X142494000Y-61648484D02*
X136578484Y-61648484D01*
X136578484Y-61648484D02*
X135890000Y-60960000D01*
X135890000Y-60960000D02*
X135890000Y-54610000D01*
X71120000Y-101600000D02*
X73530000Y-101600000D01*
X73530000Y-101600000D02*
X73530000Y-100460000D01*
X74930000Y-99060000D02*
X78740000Y-99060000D01*
X73530000Y-100460000D02*
X74930000Y-99060000D01*
X144853516Y-105918000D02*
X142494000Y-103558484D01*
X145415000Y-105918000D02*
X144853516Y-105918000D01*
X142494000Y-103558484D02*
X136578484Y-103558484D01*
X136578484Y-103558484D02*
X135890000Y-102870000D01*
X135890000Y-102870000D02*
X135890000Y-96520000D01*
X91440000Y-143510000D02*
X93850000Y-143510000D01*
X93850000Y-143510000D02*
X93850000Y-142370000D01*
X95250000Y-140970000D02*
X99060000Y-140970000D01*
X93850000Y-142370000D02*
X95250000Y-140970000D01*
X86490000Y-59690000D02*
X88900000Y-59690000D01*
X78740000Y-72390000D02*
X80645000Y-74295000D01*
X86995000Y-74295000D02*
X88900000Y-72390000D01*
X80645000Y-74295000D02*
X86995000Y-74295000D01*
X86490000Y-101600000D02*
X88900000Y-101600000D01*
X78740000Y-114300000D02*
X80645000Y-116205000D01*
X86995000Y-116205000D02*
X88900000Y-114300000D01*
X80645000Y-116205000D02*
X86995000Y-116205000D01*
X66170000Y-143510000D02*
X68580000Y-143510000D01*
X81280000Y-59690000D02*
X83690000Y-59690000D01*
X83690000Y-59690000D02*
X83690000Y-58550000D01*
X85090000Y-57150000D02*
X88900000Y-57150000D01*
X83690000Y-58550000D02*
X85090000Y-57150000D01*
X81280000Y-101600000D02*
X83690000Y-101600000D01*
X83690000Y-101600000D02*
X83690000Y-100460000D01*
X85090000Y-99060000D02*
X88900000Y-99060000D01*
X83690000Y-100460000D02*
X85090000Y-99060000D01*
X63370000Y-143510000D02*
X60960000Y-143510000D01*
X44450000Y-147320000D02*
X46355000Y-145415000D01*
X44450000Y-147320000D02*
X44450000Y-153670000D01*
X41910000Y-156210000D02*
X40640000Y-156210000D01*
X44450000Y-153670000D02*
X41910000Y-156210000D01*
X46355000Y-145415000D02*
X60960000Y-145415000D01*
X60960000Y-143510000D02*
X60960000Y-145415000D01*
X60960000Y-145415000D02*
X60960000Y-148590000D01*
X96650000Y-59690000D02*
X99060000Y-59690000D01*
X96650000Y-101600000D02*
X99060000Y-101600000D01*
X106810000Y-143510000D02*
X109220000Y-143510000D01*
X100965000Y-158115000D02*
X99060000Y-156210000D01*
X109220000Y-156210000D02*
X107315000Y-158115000D01*
X107315000Y-158115000D02*
X100965000Y-158115000D01*
X91440000Y-59690000D02*
X93850000Y-59690000D01*
X93850000Y-59690000D02*
X93850000Y-58550000D01*
X95250000Y-57150000D02*
X99060000Y-57150000D01*
X93850000Y-58550000D02*
X95250000Y-57150000D01*
X91440000Y-101600000D02*
X93850000Y-101600000D01*
X93850000Y-101600000D02*
X93850000Y-100460000D01*
X95250000Y-99060000D02*
X99060000Y-99060000D01*
X93850000Y-100460000D02*
X95250000Y-99060000D01*
X101600000Y-143510000D02*
X104010000Y-143510000D01*
X104010000Y-143510000D02*
X104010000Y-142370000D01*
X105410000Y-140970000D02*
X109220000Y-140970000D01*
X104010000Y-142370000D02*
X105410000Y-140970000D01*
X106810000Y-59690000D02*
X109220000Y-59690000D01*
X99060000Y-72390000D02*
X100965000Y-74295000D01*
X107315000Y-74295000D02*
X109220000Y-72390000D01*
X100965000Y-74295000D02*
X107315000Y-74295000D01*
X106810000Y-101600000D02*
X109220000Y-101600000D01*
X99060000Y-114300000D02*
X100965000Y-116205000D01*
X107315000Y-116205000D02*
X109220000Y-114300000D01*
X100965000Y-116205000D02*
X107315000Y-116205000D01*
X58420000Y-143510000D02*
X56010000Y-143510000D01*
X50800000Y-140970000D02*
X54610000Y-140970000D01*
X56010000Y-142370000D02*
X56010000Y-143510000D01*
X54610000Y-140970000D02*
X56010000Y-142370000D01*
X60960000Y-140970000D02*
X58420000Y-143510000D01*
X71120000Y-128270000D02*
X66714980Y-132675020D01*
X62865000Y-140970000D02*
X66714980Y-137120020D01*
X60960000Y-140970000D02*
X62865000Y-140970000D01*
X66714980Y-132675020D02*
X66714980Y-137120020D01*
X101600000Y-59690000D02*
X104010000Y-59690000D01*
X104010000Y-59690000D02*
X104010000Y-58550000D01*
X105410000Y-57150000D02*
X109220000Y-57150000D01*
X104010000Y-58550000D02*
X105410000Y-57150000D01*
X101600000Y-101600000D02*
X104010000Y-101600000D01*
X104010000Y-101600000D02*
X104010000Y-100460000D01*
X105410000Y-99060000D02*
X109220000Y-99060000D01*
X104010000Y-100460000D02*
X105410000Y-99060000D01*
X116970000Y-59690000D02*
X119380000Y-59690000D01*
X116970000Y-101600000D02*
X119380000Y-101600000D01*
X45850000Y-143510000D02*
X48260000Y-143510000D01*
X78740000Y-157287630D02*
X78740000Y-156210000D01*
X76662620Y-159365010D02*
X78740000Y-157287630D01*
X56632230Y-159365010D02*
X76662620Y-159365010D01*
X53975000Y-156707780D02*
X56632230Y-159365010D01*
X53975000Y-154305000D02*
X53975000Y-156707780D01*
X48260000Y-148590000D02*
X53975000Y-154305000D01*
X111760000Y-59690000D02*
X114170000Y-59690000D01*
X114170000Y-59690000D02*
X114170000Y-58550000D01*
X115570000Y-57150000D02*
X119380000Y-57150000D01*
X114170000Y-58550000D02*
X115570000Y-57150000D01*
X111760000Y-101600000D02*
X114170000Y-101600000D01*
X114170000Y-101600000D02*
X114170000Y-100460000D01*
X115570000Y-99060000D02*
X119380000Y-99060000D01*
X114170000Y-100460000D02*
X115570000Y-99060000D01*
X127130000Y-59690000D02*
X129540000Y-59690000D01*
X119380000Y-72390000D02*
X121285000Y-74295000D01*
X127635000Y-74295000D02*
X129540000Y-72390000D01*
X121285000Y-74295000D02*
X127635000Y-74295000D01*
X127130000Y-101600000D02*
X129540000Y-101600000D01*
X119380000Y-114300000D02*
X121285000Y-116205000D01*
X127635000Y-116205000D02*
X129540000Y-114300000D01*
X121285000Y-116205000D02*
X127635000Y-116205000D01*
X127130000Y-143510000D02*
X129540000Y-143510000D01*
X121920000Y-59690000D02*
X124330000Y-59690000D01*
X124330000Y-59690000D02*
X124330000Y-58550000D01*
X125730000Y-57150000D02*
X129540000Y-57150000D01*
X124330000Y-58550000D02*
X125730000Y-57150000D01*
D18*
X123825000Y-55245000D02*
X125730000Y-57150000D01*
X112664242Y-54625010D02*
X116794232Y-50495020D01*
X116794232Y-50495020D02*
X122885020Y-50495020D01*
X122885020Y-50495020D02*
X123825000Y-51435000D01*
X123825000Y-51435000D02*
X123825000Y-55245000D01*
X68580000Y-62230000D02*
X69850000Y-60960000D01*
X69850000Y-60960000D02*
X69850000Y-55880000D01*
X69850000Y-55880000D02*
X69880020Y-55880000D01*
X69880020Y-55880000D02*
X71135010Y-54625010D01*
X71135010Y-54625010D02*
X112664242Y-54625010D01*
D17*
X121920000Y-101600000D02*
X124330000Y-101600000D01*
X124330000Y-101600000D02*
X124330000Y-100460000D01*
X125730000Y-99060000D02*
X129540000Y-99060000D01*
X124330000Y-100460000D02*
X125730000Y-99060000D01*
D18*
X123825000Y-97155000D02*
X125730000Y-99060000D01*
X112664242Y-96535010D02*
X116794232Y-92405020D01*
X116794232Y-92405020D02*
X122885020Y-92405020D01*
X122885020Y-92405020D02*
X123825000Y-93345000D01*
X123825000Y-93345000D02*
X123825000Y-97155000D01*
X68580000Y-104140000D02*
X69850000Y-102870000D01*
X69850000Y-102870000D02*
X69850000Y-97790000D01*
X69850000Y-97790000D02*
X69880020Y-97790000D01*
X69880020Y-97790000D02*
X71135010Y-96535010D01*
X71135010Y-96535010D02*
X112664242Y-96535010D01*
D17*
X111760000Y-143510000D02*
X114170000Y-143510000D01*
X114170000Y-143510000D02*
X114170000Y-142370000D01*
X115570000Y-140970000D02*
X119380000Y-140970000D01*
X114170000Y-142370000D02*
X115570000Y-140970000D01*
X142240000Y-57150000D02*
X144650000Y-57150000D01*
X142240000Y-99060000D02*
X144650000Y-99060000D01*
X147450000Y-57150000D02*
X149860000Y-57150000D01*
X147450000Y-99060000D02*
X149860000Y-99060000D01*
X121920000Y-143510000D02*
X124330000Y-143510000D01*
X124330000Y-143510000D02*
X124330000Y-142370000D01*
X125730000Y-140970000D02*
X129540000Y-140970000D01*
X124330000Y-142370000D02*
X125730000Y-140970000D01*
D18*
X125730000Y-54610000D02*
X125730000Y-54610000D01*
D17*
X149860000Y-59690000D02*
X147450000Y-59690000D01*
D18*
X149860000Y-59690000D02*
X149860000Y-62738000D01*
X149860000Y-62738000D02*
X147574000Y-65024000D01*
X142494000Y-62992000D02*
X144526000Y-65024000D01*
X134874000Y-62992000D02*
X142494000Y-62992000D01*
X133477000Y-61595000D02*
X134874000Y-62992000D01*
X147574000Y-65024000D02*
X144526000Y-65024000D01*
X125730000Y-54610000D02*
X129540000Y-54610000D01*
X129540000Y-54610000D02*
X130810000Y-55880000D01*
X130810000Y-55880000D02*
X130810000Y-60960000D01*
X131445000Y-61595000D02*
X133477000Y-61595000D01*
X130810000Y-60960000D02*
X131445000Y-61595000D01*
X125730000Y-96520000D02*
X125730000Y-96520000D01*
D17*
X149860000Y-101600000D02*
X147450000Y-101600000D01*
D18*
X149860000Y-101600000D02*
X149860000Y-104648000D01*
X149860000Y-104648000D02*
X147574000Y-106934000D01*
X142494000Y-104902000D02*
X144526000Y-106934000D01*
X134874000Y-104902000D02*
X142494000Y-104902000D01*
X133477000Y-103505000D02*
X134874000Y-104902000D01*
X147574000Y-106934000D02*
X144526000Y-106934000D01*
X125730000Y-96520000D02*
X129540000Y-96520000D01*
X129540000Y-96520000D02*
X130810000Y-97790000D01*
X130810000Y-97790000D02*
X130810000Y-102870000D01*
X131445000Y-103505000D02*
X133477000Y-103505000D01*
X130810000Y-102870000D02*
X131445000Y-103505000D01*
D17*
X142240000Y-140970000D02*
X144650000Y-140970000D01*
X144650000Y-59690000D02*
X142240000Y-59690000D01*
X144650000Y-101600000D02*
X142240000Y-101600000D01*
X147450000Y-140970000D02*
X149860000Y-140970000D01*
X113665000Y-133985000D02*
X111760000Y-135890000D01*
X149860000Y-128270000D02*
X147955000Y-126365000D01*
X147955000Y-126365000D02*
X137795000Y-126365000D01*
X137795000Y-126365000D02*
X135890000Y-128270000D01*
X135890000Y-130810000D02*
X132715000Y-133985000D01*
X135890000Y-128270000D02*
X135890000Y-130810000D01*
X132715000Y-133985000D02*
X113665000Y-133985000D01*
X152400000Y-57150000D02*
X154810000Y-57150000D01*
X149860000Y-41910000D02*
X152400000Y-44450000D01*
X121920000Y-44450000D02*
X124460000Y-41910000D01*
X146050000Y-50800000D02*
X146050000Y-41910000D01*
X152400000Y-57150000D02*
X146050000Y-50800000D01*
X124460000Y-41910000D02*
X146050000Y-41910000D01*
X146050000Y-41910000D02*
X149860000Y-41910000D01*
X152400000Y-99060000D02*
X154810000Y-99060000D01*
X149860000Y-83820000D02*
X152400000Y-86360000D01*
X121920000Y-86360000D02*
X124460000Y-83820000D01*
X146050000Y-92710000D02*
X146050000Y-83820000D01*
X152400000Y-99060000D02*
X146050000Y-92710000D01*
X124460000Y-83820000D02*
X146050000Y-83820000D01*
X146050000Y-83820000D02*
X149860000Y-83820000D01*
X147450000Y-143510000D02*
X149860000Y-143510000D01*
X109855000Y-66675000D02*
X111760000Y-64770000D01*
X108585000Y-66675000D02*
X109855000Y-66675000D01*
X104775000Y-62865000D02*
X108585000Y-66675000D01*
X91440000Y-64770000D02*
X93345000Y-62865000D01*
X93345000Y-62865000D02*
X104775000Y-62865000D01*
X89535000Y-66675000D02*
X91440000Y-64770000D01*
X50800000Y-64770000D02*
X52705000Y-62865000D01*
X52705000Y-62865000D02*
X64135000Y-62865000D01*
X64135000Y-62865000D02*
X67945000Y-66675000D01*
X67945000Y-66675000D02*
X72390000Y-66675000D01*
X72390000Y-66675000D02*
X76200000Y-62865000D01*
X76200000Y-62865000D02*
X83820000Y-62865000D01*
X87630000Y-66675000D02*
X89535000Y-66675000D01*
X83820000Y-62865000D02*
X87630000Y-66675000D01*
X132080000Y-66675000D02*
X132080000Y-64770000D01*
X113665000Y-62865000D02*
X111760000Y-64770000D01*
X125095000Y-62865000D02*
X113665000Y-62865000D01*
X132080000Y-66675000D02*
X128905000Y-66675000D01*
X128905000Y-66675000D02*
X125095000Y-62865000D01*
X134620000Y-67945000D02*
X133350000Y-66675000D01*
X134639990Y-67925010D02*
X134620000Y-67945000D01*
X144125010Y-67925010D02*
X134639990Y-67925010D01*
X146050000Y-69850000D02*
X144125010Y-67925010D01*
X146050000Y-72390000D02*
X146050000Y-69850000D01*
X160020000Y-59690000D02*
X160655000Y-59690000D01*
X160655000Y-59690000D02*
X161759990Y-60794990D01*
X133350000Y-66675000D02*
X132080000Y-66675000D01*
X147955000Y-74295000D02*
X146050000Y-72390000D01*
X157610000Y-57150000D02*
X160020000Y-57150000D01*
X156845000Y-74295000D02*
X161759990Y-69380010D01*
X161759990Y-60794990D02*
X161759990Y-69380010D01*
X156845000Y-74295000D02*
X147955000Y-74295000D01*
X109855000Y-108585000D02*
X111760000Y-106680000D01*
X108585000Y-108585000D02*
X109855000Y-108585000D01*
X104775000Y-104775000D02*
X108585000Y-108585000D01*
X91440000Y-106680000D02*
X93345000Y-104775000D01*
X93345000Y-104775000D02*
X104775000Y-104775000D01*
X89535000Y-108585000D02*
X91440000Y-106680000D01*
X50800000Y-106680000D02*
X52705000Y-104775000D01*
X52705000Y-104775000D02*
X64135000Y-104775000D01*
X64135000Y-104775000D02*
X67945000Y-108585000D01*
X67945000Y-108585000D02*
X72390000Y-108585000D01*
X72390000Y-108585000D02*
X76200000Y-104775000D01*
X76200000Y-104775000D02*
X83820000Y-104775000D01*
X87630000Y-108585000D02*
X89535000Y-108585000D01*
X83820000Y-104775000D02*
X87630000Y-108585000D01*
X132080000Y-108585000D02*
X132080000Y-106680000D01*
X113665000Y-104775000D02*
X111760000Y-106680000D01*
X125095000Y-104775000D02*
X113665000Y-104775000D01*
X132080000Y-108585000D02*
X128905000Y-108585000D01*
X128905000Y-108585000D02*
X125095000Y-104775000D01*
X134620000Y-109855000D02*
X133350000Y-108585000D01*
X134639990Y-109835010D02*
X134620000Y-109855000D01*
X144125010Y-109835010D02*
X134639990Y-109835010D01*
X146050000Y-111760000D02*
X144125010Y-109835010D01*
X146050000Y-114300000D02*
X146050000Y-111760000D01*
X160020000Y-101600000D02*
X160655000Y-101600000D01*
X160655000Y-101600000D02*
X161759990Y-102704990D01*
X133350000Y-108585000D02*
X132080000Y-108585000D01*
X147955000Y-116205000D02*
X146050000Y-114300000D01*
X157610000Y-99060000D02*
X160020000Y-99060000D01*
X156845000Y-116205000D02*
X161759990Y-111290010D01*
X161759990Y-102704990D02*
X161759990Y-111290010D01*
X156845000Y-116205000D02*
X147955000Y-116205000D01*
X152400000Y-143510000D02*
X154810000Y-143510000D01*
X53210000Y-143510000D02*
X50800000Y-143510000D01*
X40640000Y-143510000D02*
X43050000Y-143510000D01*
X109855000Y-150495000D02*
X111760000Y-148590000D01*
X108585000Y-150495000D02*
X109855000Y-150495000D01*
X104775000Y-146685000D02*
X108585000Y-150495000D01*
X91440000Y-148590000D02*
X93345000Y-146685000D01*
X93345000Y-146685000D02*
X104775000Y-146685000D01*
X113665000Y-146685000D02*
X111760000Y-148590000D01*
X154810000Y-148720000D02*
X153035000Y-150495000D01*
X154810000Y-143510000D02*
X154810000Y-148720000D01*
X128905000Y-150495000D02*
X125095000Y-146685000D01*
X125095000Y-146685000D02*
X113665000Y-146685000D01*
X132080000Y-148590000D02*
X132080000Y-150495000D01*
X153035000Y-150495000D02*
X132080000Y-150495000D01*
X132080000Y-150495000D02*
X128905000Y-150495000D01*
X48260000Y-140970000D02*
X50800000Y-143510000D01*
X48260000Y-140970000D02*
X50165000Y-139065000D01*
X56515000Y-139065000D02*
X58420000Y-140970000D01*
X50165000Y-139065000D02*
X56515000Y-139065000D01*
X44615000Y-140970000D02*
X48260000Y-140970000D01*
X43050000Y-143510000D02*
X43050000Y-142535000D01*
X43050000Y-142535000D02*
X44615000Y-140970000D01*
X88265000Y-151765000D02*
X75565000Y-151765000D01*
X91440000Y-148590000D02*
X88265000Y-151765000D01*
X73660000Y-153670000D02*
X75565000Y-151765000D01*
X88900000Y-64770000D02*
X88900000Y-61595000D01*
X109220000Y-64770000D02*
X109220000Y-61595000D01*
X88900000Y-61595000D02*
X109220000Y-61595000D01*
X48260000Y-64770000D02*
X51435000Y-61595000D01*
X129540000Y-64770000D02*
X129540000Y-62865000D01*
X128270000Y-61595000D02*
X129540000Y-62865000D01*
D18*
X120650000Y-53340000D02*
X120650000Y-61595000D01*
X121920000Y-52070000D02*
X120650000Y-53340000D01*
D17*
X109220000Y-61595000D02*
X120650000Y-61595000D01*
X120650000Y-61595000D02*
X128270000Y-61595000D01*
X149860000Y-64770000D02*
X152400000Y-62230000D01*
X68580000Y-64770000D02*
X71755000Y-61595000D01*
X71755000Y-61595000D02*
X88900000Y-61595000D01*
X68580000Y-64770000D02*
X65405000Y-61595000D01*
X51435000Y-61595000D02*
X65405000Y-61595000D01*
X136525000Y-66675000D02*
X132715000Y-62865000D01*
X149860000Y-64770000D02*
X147955000Y-66675000D01*
X132715000Y-62865000D02*
X129540000Y-62865000D01*
X142240000Y-64770000D02*
X142240000Y-66675000D01*
X147955000Y-66675000D02*
X142240000Y-66675000D01*
X142240000Y-66675000D02*
X136525000Y-66675000D01*
X152400000Y-52070000D02*
X154940000Y-52070000D01*
X154940000Y-52070000D02*
X156210000Y-53340000D01*
X156210000Y-53340000D02*
X156210000Y-62230000D01*
X152400000Y-62230000D02*
X156210000Y-62230000D01*
X156210000Y-62230000D02*
X160020000Y-62230000D01*
X88900000Y-106680000D02*
X88900000Y-103505000D01*
X109220000Y-106680000D02*
X109220000Y-103505000D01*
X88900000Y-103505000D02*
X109220000Y-103505000D01*
X48260000Y-106680000D02*
X51435000Y-103505000D01*
X129540000Y-106680000D02*
X129540000Y-104775000D01*
X128270000Y-103505000D02*
X129540000Y-104775000D01*
D18*
X120650000Y-95250000D02*
X120650000Y-103505000D01*
X121920000Y-93980000D02*
X120650000Y-95250000D01*
D17*
X109220000Y-103505000D02*
X120650000Y-103505000D01*
X120650000Y-103505000D02*
X128270000Y-103505000D01*
X149860000Y-106680000D02*
X152400000Y-104140000D01*
X68580000Y-106680000D02*
X71755000Y-103505000D01*
X71755000Y-103505000D02*
X88900000Y-103505000D01*
X68580000Y-106680000D02*
X65405000Y-103505000D01*
X51435000Y-103505000D02*
X65405000Y-103505000D01*
X136525000Y-108585000D02*
X132715000Y-104775000D01*
X149860000Y-106680000D02*
X147955000Y-108585000D01*
X132715000Y-104775000D02*
X129540000Y-104775000D01*
X142240000Y-106680000D02*
X142240000Y-108585000D01*
X147955000Y-108585000D02*
X142240000Y-108585000D01*
X142240000Y-108585000D02*
X136525000Y-108585000D01*
X152400000Y-93980000D02*
X154940000Y-93980000D01*
X154940000Y-93980000D02*
X156210000Y-95250000D01*
X156210000Y-95250000D02*
X156210000Y-104140000D01*
X152400000Y-104140000D02*
X156210000Y-104140000D01*
X156210000Y-104140000D02*
X160020000Y-104140000D01*
X109220000Y-148590000D02*
X109220000Y-145415000D01*
X142240000Y-148590000D02*
X149860000Y-148590000D01*
X129540000Y-146685000D02*
X129540000Y-148590000D01*
X142240000Y-148590000D02*
X140335000Y-146685000D01*
X140335000Y-146685000D02*
X129540000Y-146685000D01*
X128270000Y-145415000D02*
X129540000Y-146685000D01*
X128270000Y-145415000D02*
X109220000Y-145415000D01*
X120015000Y-137795000D02*
X121920000Y-135890000D01*
X74930000Y-135890000D02*
X76835000Y-137795000D01*
X71120000Y-135890000D02*
X74930000Y-135890000D01*
X76835000Y-137795000D02*
X120015000Y-137795000D01*
X71735010Y-150514990D02*
X68580000Y-153670000D01*
X88900000Y-148590000D02*
X86975010Y-150514990D01*
X78740000Y-150495000D02*
X78759990Y-150514990D01*
X78740000Y-148590000D02*
X78740000Y-150495000D01*
X86975010Y-150514990D02*
X78759990Y-150514990D01*
X78759990Y-150514990D02*
X71735010Y-150514990D01*
X88900000Y-148590000D02*
X92075000Y-145415000D01*
X109220000Y-145415000D02*
X92075000Y-145415000D01*
X116840000Y-41910000D02*
X119380000Y-44450000D01*
X101600000Y-40005000D02*
X103505000Y-41910000D01*
X103505000Y-41910000D02*
X116840000Y-41910000D01*
X116840000Y-83820000D02*
X119380000Y-86360000D01*
X101600000Y-81915000D02*
X103505000Y-83820000D01*
X103505000Y-83820000D02*
X116840000Y-83820000D01*
X96520000Y-41910000D02*
X99060000Y-44450000D01*
X96520000Y-40005000D02*
X96520000Y-41910000D01*
X96520000Y-83820000D02*
X99060000Y-86360000D01*
X96520000Y-81915000D02*
X96520000Y-83820000D01*
X88900000Y-44450000D02*
X90805000Y-42545000D01*
X91440000Y-42545000D02*
X93980000Y-40005000D01*
X90805000Y-42545000D02*
X91440000Y-42545000D01*
X88900000Y-86360000D02*
X90805000Y-84455000D01*
X91440000Y-84455000D02*
X93980000Y-81915000D01*
X90805000Y-84455000D02*
X91440000Y-84455000D01*
X91440000Y-40005000D02*
X88589990Y-42855010D01*
X88589990Y-42855010D02*
X80334990Y-42855010D01*
X80334990Y-42855010D02*
X79501999Y-43688001D01*
X79501999Y-43688001D02*
X78740000Y-44450000D01*
X91440000Y-81915000D02*
X88589990Y-84765010D01*
X88589990Y-84765010D02*
X80334990Y-84765010D01*
X80334990Y-84765010D02*
X79501999Y-85598001D01*
X79501999Y-85598001D02*
X78740000Y-86360000D01*
X59181999Y-43688001D02*
X58420000Y-44450000D01*
X61264999Y-41605001D02*
X59181999Y-43688001D01*
X84759999Y-41605001D02*
X61264999Y-41605001D01*
X86360000Y-40005000D02*
X84759999Y-41605001D01*
X59181999Y-85598001D02*
X58420000Y-86360000D01*
X61264999Y-83515001D02*
X59181999Y-85598001D01*
X84759999Y-83515001D02*
X61264999Y-83515001D01*
X86360000Y-81915000D02*
X84759999Y-83515001D01*
X62865000Y-126365000D02*
X64770000Y-128270000D01*
X48260000Y-128270000D02*
X50165000Y-126365000D01*
X50165000Y-126365000D02*
X62865000Y-126365000D01*
X66675000Y-128905000D02*
X64770000Y-130810000D01*
X45720000Y-133350000D02*
X45720000Y-127635000D01*
X48260000Y-135890000D02*
X45720000Y-133350000D01*
X45720000Y-127635000D02*
X48240010Y-125114990D01*
X48240010Y-125114990D02*
X64789990Y-125114990D01*
X64789990Y-125114990D02*
X66675000Y-127000000D01*
X66675000Y-127000000D02*
X66675000Y-128905000D01*
X160020000Y-44450000D02*
X157480000Y-44450000D01*
X157480000Y-44450000D02*
X149860000Y-52070000D01*
X160020000Y-86360000D02*
X157480000Y-86360000D01*
X157480000Y-86360000D02*
X149860000Y-93980000D01*
X153670000Y-156210000D02*
X152400000Y-156210000D01*
X156210000Y-153670000D02*
X153670000Y-156210000D01*
X149860000Y-135890000D02*
X156210000Y-142240000D01*
X156210000Y-142240000D02*
X156210000Y-153670000D01*
X58420000Y-64770000D02*
X58420000Y-66040000D01*
X60305010Y-67925010D02*
X78720010Y-67925010D01*
X58420000Y-66040000D02*
X60305010Y-67925010D01*
X89212772Y-67925010D02*
X89232762Y-67945000D01*
X78740000Y-67905020D02*
X78720010Y-67925010D01*
X78740000Y-64770000D02*
X78740000Y-67905020D01*
X78720010Y-67925010D02*
X89212772Y-67925010D01*
X99060000Y-67905020D02*
X99040010Y-67925010D01*
X99060000Y-64770000D02*
X99060000Y-67905020D01*
X89212772Y-67925010D02*
X99040010Y-67925010D01*
X119380000Y-67905020D02*
X119360010Y-67925010D01*
X119380000Y-64770000D02*
X119380000Y-67905020D01*
X99040010Y-67925010D02*
X119360010Y-67925010D01*
X139700000Y-69850000D02*
X142240000Y-72390000D01*
X139700000Y-69850000D02*
X134620000Y-69850000D01*
X134620000Y-69810020D02*
X132734990Y-67925010D01*
X134620000Y-69850000D02*
X134620000Y-69810020D01*
X119360010Y-67925010D02*
X132734990Y-67925010D01*
X58420000Y-106680000D02*
X58420000Y-107950000D01*
X60305010Y-109835010D02*
X78720010Y-109835010D01*
X58420000Y-107950000D02*
X60305010Y-109835010D01*
X89212772Y-109835010D02*
X89232762Y-109855000D01*
X78740000Y-109815020D02*
X78720010Y-109835010D01*
X78740000Y-106680000D02*
X78740000Y-109815020D01*
X78720010Y-109835010D02*
X89212772Y-109835010D01*
X99060000Y-109815020D02*
X99040010Y-109835010D01*
X99060000Y-106680000D02*
X99060000Y-109815020D01*
X89212772Y-109835010D02*
X99040010Y-109835010D01*
X119380000Y-109815020D02*
X119360010Y-109835010D01*
X119380000Y-106680000D02*
X119380000Y-109815020D01*
X99040010Y-109835010D02*
X119360010Y-109835010D01*
X139700000Y-111760000D02*
X142240000Y-114300000D01*
X139700000Y-111760000D02*
X134620000Y-111760000D01*
X134620000Y-111720020D02*
X132734990Y-109835010D01*
X134620000Y-111760000D02*
X134620000Y-111720020D01*
X119360010Y-109835010D02*
X132734990Y-109835010D01*
X139700000Y-153670000D02*
X142240000Y-156210000D01*
X102235000Y-151765000D02*
X99060000Y-148590000D01*
X102254990Y-151745010D02*
X102235000Y-151765000D01*
X139700000Y-153670000D02*
X137775010Y-151745010D01*
X119380000Y-151725020D02*
X119360010Y-151745010D01*
X119380000Y-148590000D02*
X119380000Y-151725020D01*
X137775010Y-151745010D02*
X119360010Y-151745010D01*
X119360010Y-151745010D02*
X102254990Y-151745010D01*
X59055000Y-48895000D02*
X60960000Y-46990000D01*
X40640000Y-52070000D02*
X43815000Y-48895000D01*
X43815000Y-48895000D02*
X59055000Y-48895000D01*
X59055000Y-90805000D02*
X60960000Y-88900000D01*
X40640000Y-93980000D02*
X43815000Y-90805000D01*
X43815000Y-90805000D02*
X59055000Y-90805000D01*
X99695000Y-132715000D02*
X101600000Y-130810000D01*
X81280000Y-135890000D02*
X84455000Y-132715000D01*
X84455000Y-132715000D02*
X99695000Y-132715000D01*
X146050000Y-60960000D02*
X146050000Y-61214000D01*
X146050000Y-61722000D02*
X145288000Y-62484000D01*
X146050000Y-60960000D02*
X146050000Y-61722000D01*
X142240000Y-52070000D02*
X146050000Y-55880000D01*
X146050000Y-60960000D02*
X146050000Y-55880000D01*
X146050000Y-102870000D02*
X146050000Y-103124000D01*
X146050000Y-103632000D02*
X145288000Y-104394000D01*
X146050000Y-102870000D02*
X146050000Y-103632000D01*
X142240000Y-93980000D02*
X146050000Y-97790000D01*
X146050000Y-102870000D02*
X146050000Y-97790000D01*
X142240000Y-135890000D02*
X146050000Y-139700000D01*
X146050000Y-139700000D02*
X146050000Y-144780000D01*
X146050000Y-144780000D02*
X144018000Y-146812000D01*
X79375000Y-48895000D02*
X81280000Y-46990000D01*
X71755000Y-48895000D02*
X79375000Y-48895000D01*
X70504990Y-50145010D02*
X71755000Y-48895000D01*
X62884990Y-50145010D02*
X70504990Y-50145010D01*
X60960000Y-52070000D02*
X62884990Y-50145010D01*
X79375000Y-90805000D02*
X81280000Y-88900000D01*
X71755000Y-90805000D02*
X79375000Y-90805000D01*
X70504990Y-92055010D02*
X71755000Y-90805000D01*
X62884990Y-92055010D02*
X70504990Y-92055010D01*
X60960000Y-93980000D02*
X62884990Y-92055010D01*
X120015000Y-132715000D02*
X121920000Y-130810000D01*
X112395000Y-132715000D02*
X120015000Y-132715000D01*
X111125000Y-133985000D02*
X112395000Y-132715000D01*
X103505000Y-133985000D02*
X111125000Y-133985000D01*
X101600000Y-135890000D02*
X103505000Y-133985000D01*
X99695000Y-48895000D02*
X101600000Y-46990000D01*
X92075000Y-48895000D02*
X99695000Y-48895000D01*
X90824990Y-50145010D02*
X92075000Y-48895000D01*
X83204990Y-50145010D02*
X90824990Y-50145010D01*
X81280000Y-52070000D02*
X83204990Y-50145010D01*
X99695000Y-90805000D02*
X101600000Y-88900000D01*
X92075000Y-90805000D02*
X99695000Y-90805000D01*
X90824990Y-92055010D02*
X92075000Y-90805000D01*
X83204990Y-92055010D02*
X90824990Y-92055010D01*
X81280000Y-93980000D02*
X83204990Y-92055010D01*
X120015000Y-48895000D02*
X121920000Y-46990000D01*
X112395000Y-48895000D02*
X120015000Y-48895000D01*
X111144990Y-50145010D02*
X112395000Y-48895000D01*
X103524990Y-50145010D02*
X111144990Y-50145010D01*
X101600000Y-52070000D02*
X103524990Y-50145010D01*
X120015000Y-90805000D02*
X121920000Y-88900000D01*
X112395000Y-90805000D02*
X120015000Y-90805000D01*
X111144990Y-92055010D02*
X112395000Y-90805000D01*
X103524990Y-92055010D02*
X111144990Y-92055010D01*
X101600000Y-93980000D02*
X103524990Y-92055010D01*
X69215000Y-48895000D02*
X71120000Y-46990000D01*
X61595000Y-48895000D02*
X69215000Y-48895000D01*
X60344990Y-50145010D02*
X61595000Y-48895000D01*
X52724990Y-50145010D02*
X60344990Y-50145010D01*
X50800000Y-52070000D02*
X52724990Y-50145010D01*
X69215000Y-90805000D02*
X71120000Y-88900000D01*
X61595000Y-90805000D02*
X69215000Y-90805000D01*
X60344990Y-92055010D02*
X61595000Y-90805000D01*
X52724990Y-92055010D02*
X60344990Y-92055010D01*
X50800000Y-93980000D02*
X52724990Y-92055010D01*
X109855000Y-132715000D02*
X111760000Y-130810000D01*
X102235000Y-132715000D02*
X109855000Y-132715000D01*
X100984990Y-133965010D02*
X102235000Y-132715000D01*
X93364990Y-133965010D02*
X100984990Y-133965010D01*
X91440000Y-135890000D02*
X93364990Y-133965010D01*
X89535000Y-48895000D02*
X91440000Y-46990000D01*
X81915000Y-48895000D02*
X89535000Y-48895000D01*
X80664990Y-50145010D02*
X81915000Y-48895000D01*
X73044990Y-50145010D02*
X80664990Y-50145010D01*
X71120000Y-52070000D02*
X73044990Y-50145010D01*
X89535000Y-90805000D02*
X91440000Y-88900000D01*
X81915000Y-90805000D02*
X89535000Y-90805000D01*
X80664990Y-92055010D02*
X81915000Y-90805000D01*
X73044990Y-92055010D02*
X80664990Y-92055010D01*
X71120000Y-93980000D02*
X73044990Y-92055010D01*
X109855000Y-48895000D02*
X111760000Y-46990000D01*
X102235000Y-48895000D02*
X109855000Y-48895000D01*
X100984990Y-50145010D02*
X102235000Y-48895000D01*
X93364990Y-50145010D02*
X100984990Y-50145010D01*
X91440000Y-52070000D02*
X93364990Y-50145010D01*
X109855000Y-90805000D02*
X111760000Y-88900000D01*
X102235000Y-90805000D02*
X109855000Y-90805000D01*
X100984990Y-92055010D02*
X102235000Y-90805000D01*
X93364990Y-92055010D02*
X100984990Y-92055010D01*
X91440000Y-93980000D02*
X93364990Y-92055010D01*
X116970000Y-143510000D02*
X119380000Y-143510000D01*
X142240000Y-143510000D02*
X144650000Y-143510000D01*
D18*
X147955000Y-132715000D02*
X149860000Y-130810000D01*
X130810000Y-144780000D02*
X130810000Y-139700000D01*
X130810000Y-139700000D02*
X137795000Y-132715000D01*
X137795000Y-132715000D02*
X147955000Y-132715000D01*
X131445000Y-145415000D02*
X130810000Y-144780000D01*
X140335000Y-145415000D02*
X131445000Y-145415000D01*
X142240000Y-143510000D02*
X140335000Y-145415000D01*
D17*
X157610000Y-143510000D02*
X160020000Y-143510000D01*
X157610000Y-153800000D02*
X160020000Y-156210000D01*
X157610000Y-143510000D02*
X157610000Y-153800000D01*
X121920000Y-128270000D02*
X125710010Y-124479990D01*
X155594990Y-124479990D02*
X160020000Y-128905000D01*
X160020000Y-128905000D02*
X160020000Y-143510000D01*
X125710010Y-124479990D02*
X155594990Y-124479990D01*
X116840000Y-125730000D02*
X119380000Y-128270000D01*
X103505000Y-125730000D02*
X116840000Y-125730000D01*
X101600000Y-123825000D02*
X103505000Y-125730000D01*
X96520000Y-125730000D02*
X99060000Y-128270000D01*
X96520000Y-123825000D02*
X96520000Y-125730000D01*
X91440000Y-125730000D02*
X88900000Y-128270000D01*
X93980000Y-123825000D02*
X92075000Y-125730000D01*
X92075000Y-125730000D02*
X91440000Y-125730000D01*
X48260000Y-130810000D02*
X48260000Y-132080000D01*
X48260000Y-132080000D02*
X49530000Y-133350000D01*
X49530000Y-133350000D02*
X64770000Y-133350000D01*
X69215000Y-158115000D02*
X71120000Y-156210000D01*
X60960000Y-156210000D02*
X60960000Y-158115000D01*
X60960000Y-158115000D02*
X69215000Y-158115000D01*
X57150000Y-158115000D02*
X60960000Y-158115000D01*
X55264990Y-156229990D02*
X57150000Y-158115000D01*
X55264990Y-153054990D02*
X55264990Y-156229990D01*
X50800000Y-148590000D02*
X55264990Y-153054990D01*
X64770000Y-135890000D02*
X62845010Y-137814990D01*
X62845010Y-137814990D02*
X47009990Y-137814990D01*
X47009990Y-137814990D02*
X43180000Y-133985000D01*
X43180000Y-133985000D02*
X43180000Y-127000000D01*
X43180000Y-127000000D02*
X46355000Y-123825000D01*
X74295000Y-123825000D02*
X78740000Y-128270000D01*
X46355000Y-123825000D02*
X74295000Y-123825000D01*
M02*
