G04 #@! TF.GenerationSoftware,KiCad,Pcbnew,(5.1.2)-2*
G04 #@! TF.CreationDate,2022-11-28T00:10:08+09:00*
G04 #@! TF.ProjectId,manufacture,6d616e75-6661-4637-9475-72652e6b6963,rev?*
G04 #@! TF.SameCoordinates,Original*
G04 #@! TF.FileFunction,Legend,Bot*
G04 #@! TF.FilePolarity,Positive*
%FSLAX46Y46*%
G04 Gerber Fmt 4.6, Leading zero omitted, Abs format (unit mm)*
G04 Created by KiCad (PCBNEW (5.1.2)-2) date 2022-11-28 00:10:08*
%MOMM*%
%LPD*%
G04 APERTURE LIST*
%ADD10C,0.120000*%
G04 APERTURE END LIST*
D10*
X146652064Y-58060000D02*
X145447936Y-58060000D01*
X146652064Y-56240000D02*
X145447936Y-56240000D01*
X156812064Y-58060000D02*
X155607936Y-58060000D01*
X156812064Y-56240000D02*
X155607936Y-56240000D01*
X145447936Y-58780000D02*
X146652064Y-58780000D01*
X145447936Y-60600000D02*
X146652064Y-60600000D01*
X125127936Y-58780000D02*
X126332064Y-58780000D01*
X125127936Y-60600000D02*
X126332064Y-60600000D01*
X114967936Y-58780000D02*
X116172064Y-58780000D01*
X114967936Y-60600000D02*
X116172064Y-60600000D01*
X104807936Y-58780000D02*
X106012064Y-58780000D01*
X104807936Y-60600000D02*
X106012064Y-60600000D01*
X94647936Y-58780000D02*
X95852064Y-58780000D01*
X94647936Y-60600000D02*
X95852064Y-60600000D01*
X84487936Y-58780000D02*
X85692064Y-58780000D01*
X84487936Y-60600000D02*
X85692064Y-60600000D01*
X74327936Y-58780000D02*
X75532064Y-58780000D01*
X74327936Y-60600000D02*
X75532064Y-60600000D01*
X64167936Y-58780000D02*
X65372064Y-58780000D01*
X64167936Y-60600000D02*
X65372064Y-60600000D01*
X54007936Y-58780000D02*
X55212064Y-58780000D01*
X54007936Y-60600000D02*
X55212064Y-60600000D01*
X43847936Y-58780000D02*
X45052064Y-58780000D01*
X43847936Y-60600000D02*
X45052064Y-60600000D01*
X135287936Y-58780000D02*
X136492064Y-58780000D01*
X135287936Y-60600000D02*
X136492064Y-60600000D01*
X146652064Y-99970000D02*
X145447936Y-99970000D01*
X146652064Y-98150000D02*
X145447936Y-98150000D01*
X156812064Y-99970000D02*
X155607936Y-99970000D01*
X156812064Y-98150000D02*
X155607936Y-98150000D01*
X145447936Y-100690000D02*
X146652064Y-100690000D01*
X145447936Y-102510000D02*
X146652064Y-102510000D01*
X125127936Y-100690000D02*
X126332064Y-100690000D01*
X125127936Y-102510000D02*
X126332064Y-102510000D01*
X114967936Y-100690000D02*
X116172064Y-100690000D01*
X114967936Y-102510000D02*
X116172064Y-102510000D01*
X104807936Y-100690000D02*
X106012064Y-100690000D01*
X104807936Y-102510000D02*
X106012064Y-102510000D01*
X94647936Y-100690000D02*
X95852064Y-100690000D01*
X94647936Y-102510000D02*
X95852064Y-102510000D01*
X84487936Y-100690000D02*
X85692064Y-100690000D01*
X84487936Y-102510000D02*
X85692064Y-102510000D01*
X74327936Y-100690000D02*
X75532064Y-100690000D01*
X74327936Y-102510000D02*
X75532064Y-102510000D01*
X64167936Y-100690000D02*
X65372064Y-100690000D01*
X64167936Y-102510000D02*
X65372064Y-102510000D01*
X54007936Y-100690000D02*
X55212064Y-100690000D01*
X54007936Y-102510000D02*
X55212064Y-102510000D01*
X43847936Y-100690000D02*
X45052064Y-100690000D01*
X43847936Y-102510000D02*
X45052064Y-102510000D01*
X135287936Y-100690000D02*
X136492064Y-100690000D01*
X135287936Y-102510000D02*
X136492064Y-102510000D01*
X155607936Y-142600000D02*
X156812064Y-142600000D01*
X155607936Y-144420000D02*
X156812064Y-144420000D01*
X145447936Y-142600000D02*
X146652064Y-142600000D01*
X145447936Y-144420000D02*
X146652064Y-144420000D01*
X146652064Y-141880000D02*
X145447936Y-141880000D01*
X146652064Y-140060000D02*
X145447936Y-140060000D01*
X125127936Y-142600000D02*
X126332064Y-142600000D01*
X125127936Y-144420000D02*
X126332064Y-144420000D01*
X114967936Y-142600000D02*
X116172064Y-142600000D01*
X114967936Y-144420000D02*
X116172064Y-144420000D01*
X43847936Y-142600000D02*
X45052064Y-142600000D01*
X43847936Y-144420000D02*
X45052064Y-144420000D01*
X54007936Y-142600000D02*
X55212064Y-142600000D01*
X54007936Y-144420000D02*
X55212064Y-144420000D01*
X104807936Y-142600000D02*
X106012064Y-142600000D01*
X104807936Y-144420000D02*
X106012064Y-144420000D01*
X64167936Y-142600000D02*
X65372064Y-142600000D01*
X64167936Y-144420000D02*
X65372064Y-144420000D01*
X94647936Y-142600000D02*
X95852064Y-142600000D01*
X94647936Y-144420000D02*
X95852064Y-144420000D01*
X74327936Y-142600000D02*
X75532064Y-142600000D01*
X74327936Y-144420000D02*
X75532064Y-144420000D01*
X84487936Y-142600000D02*
X85692064Y-142600000D01*
X84487936Y-144420000D02*
X85692064Y-144420000D01*
X75532064Y-141880000D02*
X74327936Y-141880000D01*
X75532064Y-140060000D02*
X74327936Y-140060000D01*
X135287936Y-142600000D02*
X136492064Y-142600000D01*
X135287936Y-144420000D02*
X136492064Y-144420000D01*
M02*
