M48
; DRILL file {KiCad (5.1.2)-2} date 28/11/2022 00:10:52
; FORMAT={3:3/ absolute / metric / suppress leading zeros}
; #@! TF.CreationDate,2022-11-28T00:10:52+09:00
; #@! TF.GenerationSoftware,Kicad,Pcbnew,(5.1.2)-2
FMAT,2
METRIC,TZ
T1C0.500
T2C0.762
T3C1.000
T4C2.200
%
G90
G05
T1
X68580Y-62230
X68580Y-104140
X73660Y-153670
X125730Y-54610
X125730Y-96520
X135890Y-54610
X135890Y-96520
X144018Y-146812
X145288Y-62484
X145288Y-104394
X145415Y-64008
X145415Y-105918
T2
X121920Y-44450
X121920Y-46990
X121920Y-52070
X121920Y-57150
X121920Y-59690
X121920Y-64770
X121920Y-69850
X121920Y-72390
X129540Y-44450
X129540Y-46990
X129540Y-52070
X129540Y-57150
X129540Y-59690
X129540Y-64770
X129540Y-69850
X129540Y-72390
X71120Y-128270
X71120Y-130810
X71120Y-135890
X71120Y-140970
X78740Y-128270
X78740Y-130810
X78740Y-135890
X78740Y-140970
X40640Y-128270
X40640Y-130810
X40640Y-135890
X40640Y-140970
X48260Y-128270
X48260Y-130810
X48260Y-135890
X48260Y-140970
X101600Y-44450
X101600Y-46990
X101600Y-52070
X101600Y-57150
X101600Y-59690
X101600Y-64770
X101600Y-69850
X101600Y-72390
X109220Y-44450
X109220Y-46990
X109220Y-52070
X109220Y-57150
X109220Y-59690
X109220Y-64770
X109220Y-69850
X109220Y-72390
X81280Y-86360
X81280Y-88900
X81280Y-93980
X81280Y-99060
X81280Y-101600
X81280Y-106680
X81280Y-111760
X81280Y-114300
X88900Y-86360
X88900Y-88900
X88900Y-93980
X88900Y-99060
X88900Y-101600
X88900Y-106680
X88900Y-111760
X88900Y-114300
X132080Y-44450
X132080Y-46990
X132080Y-52070
X132080Y-57150
X132080Y-59690
X132080Y-64770
X132080Y-69850
X132080Y-72390
X139700Y-44450
X139700Y-46990
X139700Y-52070
X139700Y-57150
X139700Y-59690
X139700Y-64770
X139700Y-69850
X139700Y-72390
X60960Y-86360
X60960Y-88900
X60960Y-93980
X60960Y-99060
X60960Y-101600
X60960Y-106680
X60960Y-111760
X60960Y-114300
X68580Y-86360
X68580Y-88900
X68580Y-93980
X68580Y-99060
X68580Y-101600
X68580Y-106680
X68580Y-111760
X68580Y-114300
X91440Y-44450
X91440Y-46990
X91440Y-52070
X91440Y-57150
X91440Y-59690
X91440Y-64770
X91440Y-69850
X91440Y-72390
X99060Y-44450
X99060Y-46990
X99060Y-52070
X99060Y-57150
X99060Y-59690
X99060Y-64770
X99060Y-69850
X99060Y-72390
X142240Y-44450
X142240Y-46990
X142240Y-52070
X142240Y-57150
X149860Y-44450
X149860Y-46990
X149860Y-52070
X149860Y-57150
X132080Y-128270
X132080Y-130810
X132080Y-135890
X132080Y-140970
X132080Y-143510
X132080Y-148590
X132080Y-153670
X132080Y-156210
X139700Y-128270
X139700Y-130810
X139700Y-135890
X139700Y-140970
X139700Y-143510
X139700Y-148590
X139700Y-153670
X139700Y-156210
X50800Y-86360
X50800Y-88900
X50800Y-93980
X50800Y-99060
X50800Y-101600
X50800Y-106680
X50800Y-111760
X50800Y-114300
X58420Y-86360
X58420Y-88900
X58420Y-93980
X58420Y-99060
X58420Y-101600
X58420Y-106680
X58420Y-111760
X58420Y-114300
X111760Y-86360
X111760Y-88900
X111760Y-93980
X111760Y-99060
X111760Y-101600
X111760Y-106680
X111760Y-111760
X111760Y-114300
X119380Y-86360
X119380Y-88900
X119380Y-93980
X119380Y-99060
X119380Y-101600
X119380Y-106680
X119380Y-111760
X119380Y-114300
X60960Y-143510
X60960Y-148590
X60960Y-153670
X60960Y-156210
X68580Y-143510
X68580Y-148590
X68580Y-153670
X68580Y-156210
X50800Y-44450
X50800Y-46990
X50800Y-52070
X50800Y-57150
X50800Y-59690
X50800Y-64770
X50800Y-69850
X50800Y-72390
X58420Y-44450
X58420Y-46990
X58420Y-52070
X58420Y-57150
X58420Y-59690
X58420Y-64770
X58420Y-69850
X58420Y-72390
X50800Y-143510
X50800Y-148590
X50800Y-153670
X50800Y-156210
X58420Y-143510
X58420Y-148590
X58420Y-153670
X58420Y-156210
X91440Y-128270
X91440Y-130810
X91440Y-135890
X91440Y-140970
X91440Y-143510
X91440Y-148590
X91440Y-153670
X91440Y-156210
X99060Y-128270
X99060Y-130810
X99060Y-135890
X99060Y-140970
X99060Y-143510
X99060Y-148590
X99060Y-153670
X99060Y-156210
X142240Y-128270
X142240Y-130810
X142240Y-135890
X142240Y-140970
X149860Y-128270
X149860Y-130810
X149860Y-135890
X149860Y-140970
X121920Y-128270
X121920Y-130810
X121920Y-135890
X121920Y-140970
X121920Y-143510
X121920Y-148590
X121920Y-153670
X121920Y-156210
X129540Y-128270
X129540Y-130810
X129540Y-135890
X129540Y-140970
X129540Y-143510
X129540Y-148590
X129540Y-153670
X129540Y-156210
X142240Y-101600
X142240Y-106680
X142240Y-111760
X142240Y-114300
X149860Y-101600
X149860Y-106680
X149860Y-111760
X149860Y-114300
X101600Y-86360
X101600Y-88900
X101600Y-93980
X101600Y-99060
X101600Y-101600
X101600Y-106680
X101600Y-111760
X101600Y-114300
X109220Y-86360
X109220Y-88900
X109220Y-93980
X109220Y-99060
X109220Y-101600
X109220Y-106680
X109220Y-111760
X109220Y-114300
X40640Y-44450
X40640Y-46990
X40640Y-52070
X40640Y-57150
X40640Y-59690
X40640Y-64770
X40640Y-69850
X40640Y-72390
X48260Y-44450
X48260Y-46990
X48260Y-52070
X48260Y-57150
X48260Y-59690
X48260Y-64770
X48260Y-69850
X48260Y-72390
X71120Y-86360
X71120Y-88900
X71120Y-93980
X71120Y-99060
X71120Y-101600
X71120Y-106680
X71120Y-111760
X71120Y-114300
X78740Y-86360
X78740Y-88900
X78740Y-93980
X78740Y-99060
X78740Y-101600
X78740Y-106680
X78740Y-111760
X78740Y-114300
X142240Y-59690
X142240Y-64770
X142240Y-69850
X142240Y-72390
X149860Y-59690
X149860Y-64770
X149860Y-69850
X149860Y-72390
X142240Y-143510
X142240Y-148590
X142240Y-153670
X142240Y-156210
X149860Y-143510
X149860Y-148590
X149860Y-153670
X149860Y-156210
X132080Y-86360
X132080Y-88900
X132080Y-93980
X132080Y-99060
X132080Y-101600
X132080Y-106680
X132080Y-111760
X132080Y-114300
X139700Y-86360
X139700Y-88900
X139700Y-93980
X139700Y-99060
X139700Y-101600
X139700Y-106680
X139700Y-111760
X139700Y-114300
X111760Y-128270
X111760Y-130810
X111760Y-135890
X111760Y-140970
X111760Y-143510
X111760Y-148590
X111760Y-153670
X111760Y-156210
X119380Y-128270
X119380Y-130810
X119380Y-135890
X119380Y-140970
X119380Y-143510
X119380Y-148590
X119380Y-153670
X119380Y-156210
X81280Y-128270
X81280Y-130810
X81280Y-135890
X81280Y-140970
X81280Y-143510
X81280Y-148590
X81280Y-153670
X81280Y-156210
X88900Y-128270
X88900Y-130810
X88900Y-135890
X88900Y-140970
X88900Y-143510
X88900Y-148590
X88900Y-153670
X88900Y-156210
X40640Y-143510
X40640Y-148590
X40640Y-153670
X40640Y-156210
X48260Y-143510
X48260Y-148590
X48260Y-153670
X48260Y-156210
X152400Y-143510
X152400Y-148590
X152400Y-153670
X152400Y-156210
X160020Y-143510
X160020Y-148590
X160020Y-153670
X160020Y-156210
X142240Y-86360
X142240Y-88900
X142240Y-93980
X142240Y-99060
X149860Y-86360
X149860Y-88900
X149860Y-93980
X149860Y-99060
X40640Y-86360
X40640Y-88900
X40640Y-93980
X40640Y-99060
X40640Y-101600
X40640Y-106680
X40640Y-111760
X40640Y-114300
X48260Y-86360
X48260Y-88900
X48260Y-93980
X48260Y-99060
X48260Y-101600
X48260Y-106680
X48260Y-111760
X48260Y-114300
X60960Y-44450
X60960Y-46990
X60960Y-52070
X60960Y-57150
X60960Y-59690
X60960Y-64770
X60960Y-69850
X60960Y-72390
X68580Y-44450
X68580Y-46990
X68580Y-52070
X68580Y-57150
X68580Y-59690
X68580Y-64770
X68580Y-69850
X68580Y-72390
X111760Y-44450
X111760Y-46990
X111760Y-52070
X111760Y-57150
X111760Y-59690
X111760Y-64770
X111760Y-69850
X111760Y-72390
X119380Y-44450
X119380Y-46990
X119380Y-52070
X119380Y-57150
X119380Y-59690
X119380Y-64770
X119380Y-69850
X119380Y-72390
X121920Y-86360
X121920Y-88900
X121920Y-93980
X121920Y-99060
X121920Y-101600
X121920Y-106680
X121920Y-111760
X121920Y-114300
X129540Y-86360
X129540Y-88900
X129540Y-93980
X129540Y-99060
X129540Y-101600
X129540Y-106680
X129540Y-111760
X129540Y-114300
X50800Y-128270
X50800Y-130810
X50800Y-135890
X50800Y-140970
X58420Y-128270
X58420Y-130810
X58420Y-135890
X58420Y-140970
X152400Y-86360
X152400Y-88900
X152400Y-93980
X152400Y-99060
X160020Y-86360
X160020Y-88900
X160020Y-93980
X160020Y-99060
X71120Y-44450
X71120Y-46990
X71120Y-52070
X71120Y-57150
X71120Y-59690
X71120Y-64770
X71120Y-69850
X71120Y-72390
X78740Y-44450
X78740Y-46990
X78740Y-52070
X78740Y-57150
X78740Y-59690
X78740Y-64770
X78740Y-69850
X78740Y-72390
X81280Y-44450
X81280Y-46990
X81280Y-52070
X81280Y-57150
X81280Y-59690
X81280Y-64770
X81280Y-69850
X81280Y-72390
X88900Y-44450
X88900Y-46990
X88900Y-52070
X88900Y-57150
X88900Y-59690
X88900Y-64770
X88900Y-69850
X88900Y-72390
X71120Y-143510
X71120Y-148590
X71120Y-153670
X71120Y-156210
X78740Y-143510
X78740Y-148590
X78740Y-153670
X78740Y-156210
X91440Y-86360
X91440Y-88900
X91440Y-93980
X91440Y-99060
X91440Y-101600
X91440Y-106680
X91440Y-111760
X91440Y-114300
X99060Y-86360
X99060Y-88900
X99060Y-93980
X99060Y-99060
X99060Y-101600
X99060Y-106680
X99060Y-111760
X99060Y-114300
X152400Y-44450
X152400Y-46990
X152400Y-52070
X152400Y-57150
X160020Y-44450
X160020Y-46990
X160020Y-52070
X160020Y-57150
X101600Y-128270
X101600Y-130810
X101600Y-135890
X101600Y-140970
X101600Y-143510
X101600Y-148590
X101600Y-153670
X101600Y-156210
X109220Y-128270
X109220Y-130810
X109220Y-135890
X109220Y-140970
X109220Y-143510
X109220Y-148590
X109220Y-153670
X109220Y-156210
T3
X78740Y-40005
X81280Y-40005
X83820Y-40005
X86360Y-40005
X88900Y-40005
X91440Y-40005
X93980Y-40005
X96520Y-40005
X99060Y-40005
X101600Y-40005
X104140Y-40005
X106680Y-40005
X160020Y-59690
X160020Y-62230
X160020Y-64770
X160020Y-67310
X64770Y-128270
X64770Y-130810
X64770Y-133350
X64770Y-135890
X156210Y-67310
X156210Y-69850
X156210Y-72390
X160020Y-101600
X160020Y-104140
X160020Y-106680
X160020Y-109220
X78740Y-123825
X81280Y-123825
X83820Y-123825
X86360Y-123825
X88900Y-123825
X91440Y-123825
X93980Y-123825
X96520Y-123825
X99060Y-123825
X101600Y-123825
X104140Y-123825
X106680Y-123825
X156210Y-128270
X156210Y-130810
X156210Y-133350
X156210Y-135890
X156210Y-109220
X156210Y-111760
X156210Y-114300
X78740Y-81915
X81280Y-81915
X83820Y-81915
X86360Y-81915
X88900Y-81915
X91440Y-81915
X93980Y-81915
X96520Y-81915
X99060Y-81915
X101600Y-81915
X104140Y-81915
X106680Y-81915
T4
X160020Y-76200
X40640Y-118110
X160020Y-124460
X160020Y-40640
X40640Y-40640
X160020Y-118110
X40640Y-124460
X40640Y-82550
X40640Y-76200
X160020Y-160020
X160020Y-82550
X40640Y-160020
T0
M30
