G04 #@! TF.GenerationSoftware,KiCad,Pcbnew,(5.1.2)-2*
G04 #@! TF.CreationDate,2022-11-28T00:10:08+09:00*
G04 #@! TF.ProjectId,manufacture,6d616e75-6661-4637-9475-72652e6b6963,rev?*
G04 #@! TF.SameCoordinates,Original*
G04 #@! TF.FileFunction,Legend,Top*
G04 #@! TF.FilePolarity,Positive*
%FSLAX46Y46*%
G04 Gerber Fmt 4.6, Leading zero omitted, Abs format (unit mm)*
G04 Created by KiCad (PCBNEW (5.1.2)-2) date 2022-11-28 00:10:08*
%MOMM*%
%LPD*%
G04 APERTURE LIST*
%ADD10C,0.500000*%
%ADD11C,0.200000*%
%ADD12C,0.150000*%
%ADD13C,0.120000*%
G04 APERTURE END LIST*
D10*
X171330000Y-120427857D02*
X168282380Y-121570714D01*
X171330000Y-122713571D01*
X173234761Y-120999285D02*
X176282380Y-120999285D01*
X176282380Y-122142142D02*
X173234761Y-122142142D01*
X180663333Y-119094523D02*
X181996666Y-123094523D01*
X183330000Y-119094523D01*
X184663333Y-121570714D02*
X187710952Y-121570714D01*
X191901428Y-122713571D02*
X191710952Y-122904047D01*
X191139523Y-123094523D01*
X190758571Y-123094523D01*
X190187142Y-122904047D01*
X189806190Y-122523095D01*
X189615714Y-122142142D01*
X189425238Y-121380238D01*
X189425238Y-120808809D01*
X189615714Y-120046904D01*
X189806190Y-119665952D01*
X190187142Y-119285000D01*
X190758571Y-119094523D01*
X191139523Y-119094523D01*
X191710952Y-119285000D01*
X191901428Y-119475476D01*
X193615714Y-119094523D02*
X193615714Y-122332619D01*
X193806190Y-122713571D01*
X193996666Y-122904047D01*
X194377619Y-123094523D01*
X195139523Y-123094523D01*
X195520476Y-122904047D01*
X195710952Y-122713571D01*
X195901428Y-122332619D01*
X195901428Y-119094523D01*
X197234761Y-119094523D02*
X199520476Y-119094523D01*
X198377619Y-123094523D02*
X198377619Y-119094523D01*
X171330000Y-78517857D02*
X168282380Y-79660714D01*
X171330000Y-80803571D01*
X173234761Y-79089285D02*
X176282380Y-79089285D01*
X176282380Y-80232142D02*
X173234761Y-80232142D01*
X180663333Y-77184523D02*
X181996666Y-81184523D01*
X183330000Y-77184523D01*
X184663333Y-79660714D02*
X187710952Y-79660714D01*
X191901428Y-80803571D02*
X191710952Y-80994047D01*
X191139523Y-81184523D01*
X190758571Y-81184523D01*
X190187142Y-80994047D01*
X189806190Y-80613095D01*
X189615714Y-80232142D01*
X189425238Y-79470238D01*
X189425238Y-78898809D01*
X189615714Y-78136904D01*
X189806190Y-77755952D01*
X190187142Y-77375000D01*
X190758571Y-77184523D01*
X191139523Y-77184523D01*
X191710952Y-77375000D01*
X191901428Y-77565476D01*
X193615714Y-77184523D02*
X193615714Y-80422619D01*
X193806190Y-80803571D01*
X193996666Y-80994047D01*
X194377619Y-81184523D01*
X195139523Y-81184523D01*
X195520476Y-80994047D01*
X195710952Y-80803571D01*
X195901428Y-80422619D01*
X195901428Y-77184523D01*
X197234761Y-77184523D02*
X199520476Y-77184523D01*
X198377619Y-81184523D02*
X198377619Y-77184523D01*
D11*
X52144285Y-76878571D02*
X51644285Y-76164285D01*
X51287142Y-76878571D02*
X51287142Y-75378571D01*
X51858571Y-75378571D01*
X52001428Y-75450000D01*
X52072857Y-75521428D01*
X52144285Y-75664285D01*
X52144285Y-75878571D01*
X52072857Y-76021428D01*
X52001428Y-76092857D01*
X51858571Y-76164285D01*
X51287142Y-76164285D01*
X53358571Y-76807142D02*
X53215714Y-76878571D01*
X52930000Y-76878571D01*
X52787142Y-76807142D01*
X52715714Y-76664285D01*
X52715714Y-76092857D01*
X52787142Y-75950000D01*
X52930000Y-75878571D01*
X53215714Y-75878571D01*
X53358571Y-75950000D01*
X53430000Y-76092857D01*
X53430000Y-76235714D01*
X52715714Y-76378571D01*
X54287142Y-76878571D02*
X54144285Y-76807142D01*
X54072857Y-76664285D01*
X54072857Y-75378571D01*
X55501428Y-76878571D02*
X55501428Y-76092857D01*
X55430000Y-75950000D01*
X55287142Y-75878571D01*
X55001428Y-75878571D01*
X54858571Y-75950000D01*
X55501428Y-76807142D02*
X55358571Y-76878571D01*
X55001428Y-76878571D01*
X54858571Y-76807142D01*
X54787142Y-76664285D01*
X54787142Y-76521428D01*
X54858571Y-76378571D01*
X55001428Y-76307142D01*
X55358571Y-76307142D01*
X55501428Y-76235714D01*
X56072857Y-75878571D02*
X56430000Y-76878571D01*
X56787142Y-75878571D02*
X56430000Y-76878571D01*
X56287142Y-77235714D01*
X56215714Y-77307142D01*
X56072857Y-77378571D01*
X58501428Y-76878571D02*
X58501428Y-75378571D01*
X59358571Y-76878571D01*
X59358571Y-75378571D01*
X60072857Y-76878571D02*
X60072857Y-75878571D01*
X60072857Y-75378571D02*
X60001428Y-75450000D01*
X60072857Y-75521428D01*
X60144285Y-75450000D01*
X60072857Y-75378571D01*
X60072857Y-75521428D01*
X60644285Y-76878571D02*
X61430000Y-75878571D01*
X60644285Y-75878571D02*
X61430000Y-76878571D01*
X62001428Y-76878571D02*
X62001428Y-75878571D01*
X62001428Y-75378571D02*
X61930000Y-75450000D01*
X62001428Y-75521428D01*
X62072857Y-75450000D01*
X62001428Y-75378571D01*
X62001428Y-75521428D01*
X63287142Y-76807142D02*
X63144285Y-76878571D01*
X62858571Y-76878571D01*
X62715714Y-76807142D01*
X62644285Y-76664285D01*
X62644285Y-76092857D01*
X62715714Y-75950000D01*
X62858571Y-75878571D01*
X63144285Y-75878571D01*
X63287142Y-75950000D01*
X63358571Y-76092857D01*
X63358571Y-76235714D01*
X62644285Y-76378571D01*
X66001428Y-76735714D02*
X65930000Y-76807142D01*
X65715714Y-76878571D01*
X65572857Y-76878571D01*
X65358571Y-76807142D01*
X65215714Y-76664285D01*
X65144285Y-76521428D01*
X65072857Y-76235714D01*
X65072857Y-76021428D01*
X65144285Y-75735714D01*
X65215714Y-75592857D01*
X65358571Y-75450000D01*
X65572857Y-75378571D01*
X65715714Y-75378571D01*
X65930000Y-75450000D01*
X66001428Y-75521428D01*
X66858571Y-76878571D02*
X66715714Y-76807142D01*
X66644285Y-76664285D01*
X66644285Y-75378571D01*
X67644285Y-76878571D02*
X67501428Y-76807142D01*
X67430000Y-76735714D01*
X67358571Y-76592857D01*
X67358571Y-76164285D01*
X67430000Y-76021428D01*
X67501428Y-75950000D01*
X67644285Y-75878571D01*
X67858571Y-75878571D01*
X68001428Y-75950000D01*
X68072857Y-76021428D01*
X68144285Y-76164285D01*
X68144285Y-76592857D01*
X68072857Y-76735714D01*
X68001428Y-76807142D01*
X67858571Y-76878571D01*
X67644285Y-76878571D01*
X69430000Y-76807142D02*
X69287142Y-76878571D01*
X69001428Y-76878571D01*
X68858571Y-76807142D01*
X68787142Y-76735714D01*
X68715714Y-76592857D01*
X68715714Y-76164285D01*
X68787142Y-76021428D01*
X68858571Y-75950000D01*
X69001428Y-75878571D01*
X69287142Y-75878571D01*
X69430000Y-75950000D01*
X70072857Y-76878571D02*
X70072857Y-75378571D01*
X70215714Y-76307142D02*
X70644285Y-76878571D01*
X70644285Y-75878571D02*
X70072857Y-76450000D01*
X72430000Y-76735714D02*
X72501428Y-76807142D01*
X72430000Y-76878571D01*
X72358571Y-76807142D01*
X72430000Y-76735714D01*
X72430000Y-76878571D01*
X72430000Y-75950000D02*
X72501428Y-76021428D01*
X72430000Y-76092857D01*
X72358571Y-76021428D01*
X72430000Y-75950000D01*
X72430000Y-76092857D01*
X73144285Y-76735714D02*
X73215714Y-76807142D01*
X73144285Y-76878571D01*
X73072857Y-76807142D01*
X73144285Y-76735714D01*
X73144285Y-76878571D01*
X73144285Y-75950000D02*
X73215714Y-76021428D01*
X73144285Y-76092857D01*
X73072857Y-76021428D01*
X73144285Y-75950000D01*
X73144285Y-76092857D01*
X75858571Y-76735714D02*
X75787142Y-76807142D01*
X75572857Y-76878571D01*
X75430000Y-76878571D01*
X75215714Y-76807142D01*
X75072857Y-76664285D01*
X75001428Y-76521428D01*
X74930000Y-76235714D01*
X74930000Y-76021428D01*
X75001428Y-75735714D01*
X75072857Y-75592857D01*
X75215714Y-75450000D01*
X75430000Y-75378571D01*
X75572857Y-75378571D01*
X75787142Y-75450000D01*
X75858571Y-75521428D01*
X76715714Y-76878571D02*
X76572857Y-76807142D01*
X76501428Y-76735714D01*
X76430000Y-76592857D01*
X76430000Y-76164285D01*
X76501428Y-76021428D01*
X76572857Y-75950000D01*
X76715714Y-75878571D01*
X76930000Y-75878571D01*
X77072857Y-75950000D01*
X77144285Y-76021428D01*
X77215714Y-76164285D01*
X77215714Y-76592857D01*
X77144285Y-76735714D01*
X77072857Y-76807142D01*
X76930000Y-76878571D01*
X76715714Y-76878571D01*
X78501428Y-75878571D02*
X78501428Y-76878571D01*
X77858571Y-75878571D02*
X77858571Y-76664285D01*
X77930000Y-76807142D01*
X78072857Y-76878571D01*
X78287142Y-76878571D01*
X78430000Y-76807142D01*
X78501428Y-76735714D01*
X79215714Y-75878571D02*
X79215714Y-76878571D01*
X79215714Y-76021428D02*
X79287142Y-75950000D01*
X79430000Y-75878571D01*
X79644285Y-75878571D01*
X79787142Y-75950000D01*
X79858571Y-76092857D01*
X79858571Y-76878571D01*
X80358571Y-75878571D02*
X80930000Y-75878571D01*
X80572857Y-75378571D02*
X80572857Y-76664285D01*
X80644285Y-76807142D01*
X80787142Y-76878571D01*
X80930000Y-76878571D01*
X82001428Y-76807142D02*
X81858571Y-76878571D01*
X81572857Y-76878571D01*
X81430000Y-76807142D01*
X81358571Y-76664285D01*
X81358571Y-76092857D01*
X81430000Y-75950000D01*
X81572857Y-75878571D01*
X81858571Y-75878571D01*
X82001428Y-75950000D01*
X82072857Y-76092857D01*
X82072857Y-76235714D01*
X81358571Y-76378571D01*
X82715714Y-76878571D02*
X82715714Y-75878571D01*
X82715714Y-76164285D02*
X82787142Y-76021428D01*
X82858571Y-75950000D01*
X83001428Y-75878571D01*
X83144285Y-75878571D01*
X85572857Y-76878571D02*
X84715714Y-76878571D01*
X85144285Y-76878571D02*
X85144285Y-75378571D01*
X85001428Y-75592857D01*
X84858571Y-75735714D01*
X84715714Y-75807142D01*
X86501428Y-75378571D02*
X86644285Y-75378571D01*
X86787142Y-75450000D01*
X86858571Y-75521428D01*
X86930000Y-75664285D01*
X87001428Y-75950000D01*
X87001428Y-76307142D01*
X86930000Y-76592857D01*
X86858571Y-76735714D01*
X86787142Y-76807142D01*
X86644285Y-76878571D01*
X86501428Y-76878571D01*
X86358571Y-76807142D01*
X86287142Y-76735714D01*
X86215714Y-76592857D01*
X86144285Y-76307142D01*
X86144285Y-75950000D01*
X86215714Y-75664285D01*
X86287142Y-75521428D01*
X86358571Y-75450000D01*
X86501428Y-75378571D01*
X88572857Y-75378571D02*
X89072857Y-76878571D01*
X89572857Y-75378571D01*
X90644285Y-76807142D02*
X90501428Y-76878571D01*
X90215714Y-76878571D01*
X90072857Y-76807142D01*
X90001428Y-76664285D01*
X90001428Y-76092857D01*
X90072857Y-75950000D01*
X90215714Y-75878571D01*
X90501428Y-75878571D01*
X90644285Y-75950000D01*
X90715714Y-76092857D01*
X90715714Y-76235714D01*
X90001428Y-76378571D01*
X91358571Y-76878571D02*
X91358571Y-75878571D01*
X91358571Y-76164285D02*
X91429999Y-76021428D01*
X91501428Y-75950000D01*
X91644285Y-75878571D01*
X91787142Y-75878571D01*
X92287142Y-76735714D02*
X92358571Y-76807142D01*
X92287142Y-76878571D01*
X92215714Y-76807142D01*
X92287142Y-76735714D01*
X92287142Y-76878571D01*
X94072857Y-75521428D02*
X94144285Y-75450000D01*
X94287142Y-75378571D01*
X94644285Y-75378571D01*
X94787142Y-75450000D01*
X94858571Y-75521428D01*
X94929999Y-75664285D01*
X94929999Y-75807142D01*
X94858571Y-76021428D01*
X94001428Y-76878571D01*
X94929999Y-76878571D01*
X95858571Y-75378571D02*
X96001428Y-75378571D01*
X96144285Y-75450000D01*
X96215714Y-75521428D01*
X96287142Y-75664285D01*
X96358571Y-75950000D01*
X96358571Y-76307142D01*
X96287142Y-76592857D01*
X96215714Y-76735714D01*
X96144285Y-76807142D01*
X96001428Y-76878571D01*
X95858571Y-76878571D01*
X95715714Y-76807142D01*
X95644285Y-76735714D01*
X95572857Y-76592857D01*
X95501428Y-76307142D01*
X95501428Y-75950000D01*
X95572857Y-75664285D01*
X95644285Y-75521428D01*
X95715714Y-75450000D01*
X95858571Y-75378571D01*
X96929999Y-75521428D02*
X97001428Y-75450000D01*
X97144285Y-75378571D01*
X97501428Y-75378571D01*
X97644285Y-75450000D01*
X97715714Y-75521428D01*
X97787142Y-75664285D01*
X97787142Y-75807142D01*
X97715714Y-76021428D01*
X96858571Y-76878571D01*
X97787142Y-76878571D01*
X98358571Y-75521428D02*
X98429999Y-75450000D01*
X98572857Y-75378571D01*
X98929999Y-75378571D01*
X99072857Y-75450000D01*
X99144285Y-75521428D01*
X99215714Y-75664285D01*
X99215714Y-75807142D01*
X99144285Y-76021428D01*
X98287142Y-76878571D01*
X99215714Y-76878571D01*
X100644285Y-76878571D02*
X99787142Y-76878571D01*
X100215714Y-76878571D02*
X100215714Y-75378571D01*
X100072857Y-75592857D01*
X99929999Y-75735714D01*
X99787142Y-75807142D01*
X102072857Y-76878571D02*
X101215714Y-76878571D01*
X101644285Y-76878571D02*
X101644285Y-75378571D01*
X101501428Y-75592857D01*
X101358571Y-75735714D01*
X101215714Y-75807142D01*
X102644285Y-75521428D02*
X102715714Y-75450000D01*
X102858571Y-75378571D01*
X103215714Y-75378571D01*
X103358571Y-75450000D01*
X103429999Y-75521428D01*
X103501428Y-75664285D01*
X103501428Y-75807142D01*
X103429999Y-76021428D01*
X102572857Y-76878571D01*
X103501428Y-76878571D01*
X104001428Y-75378571D02*
X105001428Y-75378571D01*
X104358571Y-76878571D01*
X106715714Y-76878571D02*
X106715714Y-75378571D01*
X106715714Y-75950000D02*
X106858571Y-75878571D01*
X107144285Y-75878571D01*
X107287142Y-75950000D01*
X107358571Y-76021428D01*
X107429999Y-76164285D01*
X107429999Y-76592857D01*
X107358571Y-76735714D01*
X107287142Y-76807142D01*
X107144285Y-76878571D01*
X106858571Y-76878571D01*
X106715714Y-76807142D01*
X107929999Y-75878571D02*
X108287142Y-76878571D01*
X108644285Y-75878571D02*
X108287142Y-76878571D01*
X108144285Y-77235714D01*
X108072857Y-77307142D01*
X107929999Y-77378571D01*
X110358571Y-76878571D02*
X110358571Y-75378571D01*
X111715714Y-76878571D02*
X111715714Y-76092857D01*
X111644285Y-75950000D01*
X111501428Y-75878571D01*
X111215714Y-75878571D01*
X111072857Y-75950000D01*
X111715714Y-76807142D02*
X111572857Y-76878571D01*
X111215714Y-76878571D01*
X111072857Y-76807142D01*
X111001428Y-76664285D01*
X111001428Y-76521428D01*
X111072857Y-76378571D01*
X111215714Y-76307142D01*
X111572857Y-76307142D01*
X111715714Y-76235714D01*
X112929999Y-76092857D02*
X112429999Y-76092857D01*
X112429999Y-76878571D02*
X112429999Y-75378571D01*
X113144285Y-75378571D01*
D12*
X155731785Y-61730000D02*
X155636547Y-61682380D01*
X155493690Y-61682380D01*
X155350833Y-61730000D01*
X155255595Y-61825238D01*
X155207976Y-61920476D01*
X155160357Y-62110952D01*
X155160357Y-62253809D01*
X155207976Y-62444285D01*
X155255595Y-62539523D01*
X155350833Y-62634761D01*
X155493690Y-62682380D01*
X155588928Y-62682380D01*
X155731785Y-62634761D01*
X155779404Y-62587142D01*
X155779404Y-62253809D01*
X155588928Y-62253809D01*
X156207976Y-62682380D02*
X156207976Y-61682380D01*
X156779404Y-62682380D01*
X156779404Y-61682380D01*
X157255595Y-62682380D02*
X157255595Y-61682380D01*
X157493690Y-61682380D01*
X157636547Y-61730000D01*
X157731785Y-61825238D01*
X157779404Y-61920476D01*
X157827023Y-62110952D01*
X157827023Y-62253809D01*
X157779404Y-62444285D01*
X157731785Y-62539523D01*
X157636547Y-62634761D01*
X157493690Y-62682380D01*
X157255595Y-62682380D01*
X106632380Y-41616380D02*
X106727619Y-41616380D01*
X106822857Y-41664000D01*
X106870476Y-41711619D01*
X106918095Y-41806857D01*
X106965714Y-41997333D01*
X106965714Y-42235428D01*
X106918095Y-42425904D01*
X106870476Y-42521142D01*
X106822857Y-42568761D01*
X106727619Y-42616380D01*
X106632380Y-42616380D01*
X106537142Y-42568761D01*
X106489523Y-42521142D01*
X106441904Y-42425904D01*
X106394285Y-42235428D01*
X106394285Y-41997333D01*
X106441904Y-41806857D01*
X106489523Y-41711619D01*
X106537142Y-41664000D01*
X106632380Y-41616380D01*
X103949523Y-42616380D02*
X104140000Y-42616380D01*
X104235238Y-42568761D01*
X104282857Y-42521142D01*
X104378095Y-42378285D01*
X104425714Y-42187809D01*
X104425714Y-41806857D01*
X104378095Y-41711619D01*
X104330476Y-41664000D01*
X104235238Y-41616380D01*
X104044761Y-41616380D01*
X103949523Y-41664000D01*
X103901904Y-41711619D01*
X103854285Y-41806857D01*
X103854285Y-42044952D01*
X103901904Y-42140190D01*
X103949523Y-42187809D01*
X104044761Y-42235428D01*
X104235238Y-42235428D01*
X104330476Y-42187809D01*
X104378095Y-42140190D01*
X104425714Y-42044952D01*
X101504761Y-42044952D02*
X101409523Y-41997333D01*
X101361904Y-41949714D01*
X101314285Y-41854476D01*
X101314285Y-41806857D01*
X101361904Y-41711619D01*
X101409523Y-41664000D01*
X101504761Y-41616380D01*
X101695238Y-41616380D01*
X101790476Y-41664000D01*
X101838095Y-41711619D01*
X101885714Y-41806857D01*
X101885714Y-41854476D01*
X101838095Y-41949714D01*
X101790476Y-41997333D01*
X101695238Y-42044952D01*
X101504761Y-42044952D01*
X101409523Y-42092571D01*
X101361904Y-42140190D01*
X101314285Y-42235428D01*
X101314285Y-42425904D01*
X101361904Y-42521142D01*
X101409523Y-42568761D01*
X101504761Y-42616380D01*
X101695238Y-42616380D01*
X101790476Y-42568761D01*
X101838095Y-42521142D01*
X101885714Y-42425904D01*
X101885714Y-42235428D01*
X101838095Y-42140190D01*
X101790476Y-42092571D01*
X101695238Y-42044952D01*
X98726666Y-41616380D02*
X99393333Y-41616380D01*
X98964761Y-42616380D01*
X96710476Y-41616380D02*
X96520000Y-41616380D01*
X96424761Y-41664000D01*
X96377142Y-41711619D01*
X96281904Y-41854476D01*
X96234285Y-42044952D01*
X96234285Y-42425904D01*
X96281904Y-42521142D01*
X96329523Y-42568761D01*
X96424761Y-42616380D01*
X96615238Y-42616380D01*
X96710476Y-42568761D01*
X96758095Y-42521142D01*
X96805714Y-42425904D01*
X96805714Y-42187809D01*
X96758095Y-42092571D01*
X96710476Y-42044952D01*
X96615238Y-41997333D01*
X96424761Y-41997333D01*
X96329523Y-42044952D01*
X96281904Y-42092571D01*
X96234285Y-42187809D01*
X94218095Y-41616380D02*
X93741904Y-41616380D01*
X93694285Y-42092571D01*
X93741904Y-42044952D01*
X93837142Y-41997333D01*
X94075238Y-41997333D01*
X94170476Y-42044952D01*
X94218095Y-42092571D01*
X94265714Y-42187809D01*
X94265714Y-42425904D01*
X94218095Y-42521142D01*
X94170476Y-42568761D01*
X94075238Y-42616380D01*
X93837142Y-42616380D01*
X93741904Y-42568761D01*
X93694285Y-42521142D01*
X91630476Y-41949714D02*
X91630476Y-42616380D01*
X91392380Y-41568761D02*
X91154285Y-42283047D01*
X91773333Y-42283047D01*
X88566666Y-41616380D02*
X89185714Y-41616380D01*
X88852380Y-41997333D01*
X88995238Y-41997333D01*
X89090476Y-42044952D01*
X89138095Y-42092571D01*
X89185714Y-42187809D01*
X89185714Y-42425904D01*
X89138095Y-42521142D01*
X89090476Y-42568761D01*
X88995238Y-42616380D01*
X88709523Y-42616380D01*
X88614285Y-42568761D01*
X88566666Y-42521142D01*
X86074285Y-41711619D02*
X86121904Y-41664000D01*
X86217142Y-41616380D01*
X86455238Y-41616380D01*
X86550476Y-41664000D01*
X86598095Y-41711619D01*
X86645714Y-41806857D01*
X86645714Y-41902095D01*
X86598095Y-42044952D01*
X86026666Y-42616380D01*
X86645714Y-42616380D01*
X84105714Y-42616380D02*
X83534285Y-42616380D01*
X83820000Y-42616380D02*
X83820000Y-41616380D01*
X83724761Y-41759238D01*
X83629523Y-41854476D01*
X83534285Y-41902095D01*
X78271904Y-42949714D02*
X78033809Y-42949714D01*
X78033809Y-41521142D01*
X78271904Y-41521142D01*
X79224285Y-42521142D02*
X79176666Y-42568761D01*
X79033809Y-42616380D01*
X78938571Y-42616380D01*
X78795714Y-42568761D01*
X78700476Y-42473523D01*
X78652857Y-42378285D01*
X78605238Y-42187809D01*
X78605238Y-42044952D01*
X78652857Y-41854476D01*
X78700476Y-41759238D01*
X78795714Y-41664000D01*
X78938571Y-41616380D01*
X79033809Y-41616380D01*
X79176666Y-41664000D01*
X79224285Y-41711619D01*
X79843333Y-41616380D02*
X80033809Y-41616380D01*
X80129047Y-41664000D01*
X80224285Y-41759238D01*
X80271904Y-41949714D01*
X80271904Y-42283047D01*
X80224285Y-42473523D01*
X80129047Y-42568761D01*
X80033809Y-42616380D01*
X79843333Y-42616380D01*
X79748095Y-42568761D01*
X79652857Y-42473523D01*
X79605238Y-42283047D01*
X79605238Y-41949714D01*
X79652857Y-41759238D01*
X79748095Y-41664000D01*
X79843333Y-41616380D01*
X80700476Y-42616380D02*
X80700476Y-41616380D01*
X81033809Y-42330666D01*
X81367142Y-41616380D01*
X81367142Y-42616380D01*
X81748095Y-42949714D02*
X81986190Y-42949714D01*
X81986190Y-41521142D01*
X81748095Y-41521142D01*
X152963571Y-70207142D02*
X152915952Y-70254761D01*
X152773095Y-70302380D01*
X152677857Y-70302380D01*
X152535000Y-70254761D01*
X152439761Y-70159523D01*
X152392142Y-70064285D01*
X152344523Y-69873809D01*
X152344523Y-69730952D01*
X152392142Y-69540476D01*
X152439761Y-69445238D01*
X152535000Y-69350000D01*
X152677857Y-69302380D01*
X152773095Y-69302380D01*
X152915952Y-69350000D01*
X152963571Y-69397619D01*
X153249285Y-69302380D02*
X153820714Y-69302380D01*
X153535000Y-70302380D02*
X153535000Y-69302380D01*
X152154047Y-71842380D02*
X152249285Y-71842380D01*
X152344523Y-71890000D01*
X152392142Y-71937619D01*
X152439761Y-72032857D01*
X152487380Y-72223333D01*
X152487380Y-72461428D01*
X152439761Y-72651904D01*
X152392142Y-72747142D01*
X152344523Y-72794761D01*
X152249285Y-72842380D01*
X152154047Y-72842380D01*
X152058809Y-72794761D01*
X152011190Y-72747142D01*
X151963571Y-72651904D01*
X151915952Y-72461428D01*
X151915952Y-72223333D01*
X151963571Y-72032857D01*
X152011190Y-71937619D01*
X152058809Y-71890000D01*
X152154047Y-71842380D01*
X152773095Y-72461428D02*
X152820714Y-72413809D01*
X152915952Y-72366190D01*
X153106428Y-72461428D01*
X153201666Y-72413809D01*
X153249285Y-72366190D01*
X153677857Y-72842380D02*
X153868333Y-72842380D01*
X153963571Y-72794761D01*
X154011190Y-72747142D01*
X154106428Y-72604285D01*
X154154047Y-72413809D01*
X154154047Y-72032857D01*
X154106428Y-71937619D01*
X154058809Y-71890000D01*
X153963571Y-71842380D01*
X153773095Y-71842380D01*
X153677857Y-71890000D01*
X153630238Y-71937619D01*
X153582619Y-72032857D01*
X153582619Y-72270952D01*
X153630238Y-72366190D01*
X153677857Y-72413809D01*
X153773095Y-72461428D01*
X153963571Y-72461428D01*
X154058809Y-72413809D01*
X154106428Y-72366190D01*
X154154047Y-72270952D01*
X152154047Y-66762380D02*
X152249285Y-66762380D01*
X152344523Y-66810000D01*
X152392142Y-66857619D01*
X152439761Y-66952857D01*
X152487380Y-67143333D01*
X152487380Y-67381428D01*
X152439761Y-67571904D01*
X152392142Y-67667142D01*
X152344523Y-67714761D01*
X152249285Y-67762380D01*
X152154047Y-67762380D01*
X152058809Y-67714761D01*
X152011190Y-67667142D01*
X151963571Y-67571904D01*
X151915952Y-67381428D01*
X151915952Y-67143333D01*
X151963571Y-66952857D01*
X152011190Y-66857619D01*
X152058809Y-66810000D01*
X152154047Y-66762380D01*
X152773095Y-67381428D02*
X152820714Y-67333809D01*
X152915952Y-67286190D01*
X153106428Y-67381428D01*
X153201666Y-67333809D01*
X153249285Y-67286190D01*
X153535000Y-66762380D02*
X154154047Y-66762380D01*
X153820714Y-67143333D01*
X153963571Y-67143333D01*
X154058809Y-67190952D01*
X154106428Y-67238571D01*
X154154047Y-67333809D01*
X154154047Y-67571904D01*
X154106428Y-67667142D01*
X154058809Y-67714761D01*
X153963571Y-67762380D01*
X153677857Y-67762380D01*
X153582619Y-67714761D01*
X153535000Y-67667142D01*
X159829523Y-70207142D02*
X159781904Y-70254761D01*
X159639047Y-70302380D01*
X159543809Y-70302380D01*
X159400952Y-70254761D01*
X159305714Y-70159523D01*
X159258095Y-70064285D01*
X159210476Y-69873809D01*
X159210476Y-69730952D01*
X159258095Y-69540476D01*
X159305714Y-69445238D01*
X159400952Y-69350000D01*
X159543809Y-69302380D01*
X159639047Y-69302380D01*
X159781904Y-69350000D01*
X159829523Y-69397619D01*
X160829523Y-70302380D02*
X160496190Y-69826190D01*
X160258095Y-70302380D02*
X160258095Y-69302380D01*
X160639047Y-69302380D01*
X160734285Y-69350000D01*
X160781904Y-69397619D01*
X160829523Y-69492857D01*
X160829523Y-69635714D01*
X160781904Y-69730952D01*
X160734285Y-69778571D01*
X160639047Y-69826190D01*
X160258095Y-69826190D01*
X156017500Y-65127142D02*
X155969880Y-65174761D01*
X155827023Y-65222380D01*
X155731785Y-65222380D01*
X155588928Y-65174761D01*
X155493690Y-65079523D01*
X155446071Y-64984285D01*
X155398452Y-64793809D01*
X155398452Y-64650952D01*
X155446071Y-64460476D01*
X155493690Y-64365238D01*
X155588928Y-64270000D01*
X155731785Y-64222380D01*
X155827023Y-64222380D01*
X155969880Y-64270000D01*
X156017500Y-64317619D01*
X156922261Y-65222380D02*
X156446071Y-65222380D01*
X156446071Y-64222380D01*
X157255595Y-65222380D02*
X157255595Y-64222380D01*
X157827023Y-65222380D02*
X157398452Y-64650952D01*
X157827023Y-64222380D02*
X157255595Y-64793809D01*
X155112738Y-60142380D02*
X155112738Y-59142380D01*
X155493690Y-59142380D01*
X155588928Y-59190000D01*
X155636547Y-59237619D01*
X155684166Y-59332857D01*
X155684166Y-59475714D01*
X155636547Y-59570952D01*
X155588928Y-59618571D01*
X155493690Y-59666190D01*
X155112738Y-59666190D01*
X156017500Y-59142380D02*
X156255595Y-60142380D01*
X156446071Y-59428095D01*
X156636547Y-60142380D01*
X156874642Y-59142380D01*
X157827023Y-60142380D02*
X157493690Y-59666190D01*
X157255595Y-60142380D02*
X157255595Y-59142380D01*
X157636547Y-59142380D01*
X157731785Y-59190000D01*
X157779404Y-59237619D01*
X157827023Y-59332857D01*
X157827023Y-59475714D01*
X157779404Y-59570952D01*
X157731785Y-59618571D01*
X157636547Y-59666190D01*
X157255595Y-59666190D01*
D11*
X52144285Y-118788571D02*
X51644285Y-118074285D01*
X51287142Y-118788571D02*
X51287142Y-117288571D01*
X51858571Y-117288571D01*
X52001428Y-117360000D01*
X52072857Y-117431428D01*
X52144285Y-117574285D01*
X52144285Y-117788571D01*
X52072857Y-117931428D01*
X52001428Y-118002857D01*
X51858571Y-118074285D01*
X51287142Y-118074285D01*
X53358571Y-118717142D02*
X53215714Y-118788571D01*
X52930000Y-118788571D01*
X52787142Y-118717142D01*
X52715714Y-118574285D01*
X52715714Y-118002857D01*
X52787142Y-117860000D01*
X52930000Y-117788571D01*
X53215714Y-117788571D01*
X53358571Y-117860000D01*
X53430000Y-118002857D01*
X53430000Y-118145714D01*
X52715714Y-118288571D01*
X54287142Y-118788571D02*
X54144285Y-118717142D01*
X54072857Y-118574285D01*
X54072857Y-117288571D01*
X55501428Y-118788571D02*
X55501428Y-118002857D01*
X55430000Y-117860000D01*
X55287142Y-117788571D01*
X55001428Y-117788571D01*
X54858571Y-117860000D01*
X55501428Y-118717142D02*
X55358571Y-118788571D01*
X55001428Y-118788571D01*
X54858571Y-118717142D01*
X54787142Y-118574285D01*
X54787142Y-118431428D01*
X54858571Y-118288571D01*
X55001428Y-118217142D01*
X55358571Y-118217142D01*
X55501428Y-118145714D01*
X56072857Y-117788571D02*
X56430000Y-118788571D01*
X56787142Y-117788571D02*
X56430000Y-118788571D01*
X56287142Y-119145714D01*
X56215714Y-119217142D01*
X56072857Y-119288571D01*
X58501428Y-118788571D02*
X58501428Y-117288571D01*
X59358571Y-118788571D01*
X59358571Y-117288571D01*
X60072857Y-118788571D02*
X60072857Y-117788571D01*
X60072857Y-117288571D02*
X60001428Y-117360000D01*
X60072857Y-117431428D01*
X60144285Y-117360000D01*
X60072857Y-117288571D01*
X60072857Y-117431428D01*
X60644285Y-118788571D02*
X61430000Y-117788571D01*
X60644285Y-117788571D02*
X61430000Y-118788571D01*
X62001428Y-118788571D02*
X62001428Y-117788571D01*
X62001428Y-117288571D02*
X61930000Y-117360000D01*
X62001428Y-117431428D01*
X62072857Y-117360000D01*
X62001428Y-117288571D01*
X62001428Y-117431428D01*
X63287142Y-118717142D02*
X63144285Y-118788571D01*
X62858571Y-118788571D01*
X62715714Y-118717142D01*
X62644285Y-118574285D01*
X62644285Y-118002857D01*
X62715714Y-117860000D01*
X62858571Y-117788571D01*
X63144285Y-117788571D01*
X63287142Y-117860000D01*
X63358571Y-118002857D01*
X63358571Y-118145714D01*
X62644285Y-118288571D01*
X66001428Y-118645714D02*
X65930000Y-118717142D01*
X65715714Y-118788571D01*
X65572857Y-118788571D01*
X65358571Y-118717142D01*
X65215714Y-118574285D01*
X65144285Y-118431428D01*
X65072857Y-118145714D01*
X65072857Y-117931428D01*
X65144285Y-117645714D01*
X65215714Y-117502857D01*
X65358571Y-117360000D01*
X65572857Y-117288571D01*
X65715714Y-117288571D01*
X65930000Y-117360000D01*
X66001428Y-117431428D01*
X66858571Y-118788571D02*
X66715714Y-118717142D01*
X66644285Y-118574285D01*
X66644285Y-117288571D01*
X67644285Y-118788571D02*
X67501428Y-118717142D01*
X67430000Y-118645714D01*
X67358571Y-118502857D01*
X67358571Y-118074285D01*
X67430000Y-117931428D01*
X67501428Y-117860000D01*
X67644285Y-117788571D01*
X67858571Y-117788571D01*
X68001428Y-117860000D01*
X68072857Y-117931428D01*
X68144285Y-118074285D01*
X68144285Y-118502857D01*
X68072857Y-118645714D01*
X68001428Y-118717142D01*
X67858571Y-118788571D01*
X67644285Y-118788571D01*
X69430000Y-118717142D02*
X69287142Y-118788571D01*
X69001428Y-118788571D01*
X68858571Y-118717142D01*
X68787142Y-118645714D01*
X68715714Y-118502857D01*
X68715714Y-118074285D01*
X68787142Y-117931428D01*
X68858571Y-117860000D01*
X69001428Y-117788571D01*
X69287142Y-117788571D01*
X69430000Y-117860000D01*
X70072857Y-118788571D02*
X70072857Y-117288571D01*
X70215714Y-118217142D02*
X70644285Y-118788571D01*
X70644285Y-117788571D02*
X70072857Y-118360000D01*
X72430000Y-118645714D02*
X72501428Y-118717142D01*
X72430000Y-118788571D01*
X72358571Y-118717142D01*
X72430000Y-118645714D01*
X72430000Y-118788571D01*
X72430000Y-117860000D02*
X72501428Y-117931428D01*
X72430000Y-118002857D01*
X72358571Y-117931428D01*
X72430000Y-117860000D01*
X72430000Y-118002857D01*
X73144285Y-118645714D02*
X73215714Y-118717142D01*
X73144285Y-118788571D01*
X73072857Y-118717142D01*
X73144285Y-118645714D01*
X73144285Y-118788571D01*
X73144285Y-117860000D02*
X73215714Y-117931428D01*
X73144285Y-118002857D01*
X73072857Y-117931428D01*
X73144285Y-117860000D01*
X73144285Y-118002857D01*
X75858571Y-118645714D02*
X75787142Y-118717142D01*
X75572857Y-118788571D01*
X75430000Y-118788571D01*
X75215714Y-118717142D01*
X75072857Y-118574285D01*
X75001428Y-118431428D01*
X74930000Y-118145714D01*
X74930000Y-117931428D01*
X75001428Y-117645714D01*
X75072857Y-117502857D01*
X75215714Y-117360000D01*
X75430000Y-117288571D01*
X75572857Y-117288571D01*
X75787142Y-117360000D01*
X75858571Y-117431428D01*
X76715714Y-118788571D02*
X76572857Y-118717142D01*
X76501428Y-118645714D01*
X76430000Y-118502857D01*
X76430000Y-118074285D01*
X76501428Y-117931428D01*
X76572857Y-117860000D01*
X76715714Y-117788571D01*
X76930000Y-117788571D01*
X77072857Y-117860000D01*
X77144285Y-117931428D01*
X77215714Y-118074285D01*
X77215714Y-118502857D01*
X77144285Y-118645714D01*
X77072857Y-118717142D01*
X76930000Y-118788571D01*
X76715714Y-118788571D01*
X78501428Y-117788571D02*
X78501428Y-118788571D01*
X77858571Y-117788571D02*
X77858571Y-118574285D01*
X77930000Y-118717142D01*
X78072857Y-118788571D01*
X78287142Y-118788571D01*
X78430000Y-118717142D01*
X78501428Y-118645714D01*
X79215714Y-117788571D02*
X79215714Y-118788571D01*
X79215714Y-117931428D02*
X79287142Y-117860000D01*
X79430000Y-117788571D01*
X79644285Y-117788571D01*
X79787142Y-117860000D01*
X79858571Y-118002857D01*
X79858571Y-118788571D01*
X80358571Y-117788571D02*
X80930000Y-117788571D01*
X80572857Y-117288571D02*
X80572857Y-118574285D01*
X80644285Y-118717142D01*
X80787142Y-118788571D01*
X80930000Y-118788571D01*
X82001428Y-118717142D02*
X81858571Y-118788571D01*
X81572857Y-118788571D01*
X81430000Y-118717142D01*
X81358571Y-118574285D01*
X81358571Y-118002857D01*
X81430000Y-117860000D01*
X81572857Y-117788571D01*
X81858571Y-117788571D01*
X82001428Y-117860000D01*
X82072857Y-118002857D01*
X82072857Y-118145714D01*
X81358571Y-118288571D01*
X82715714Y-118788571D02*
X82715714Y-117788571D01*
X82715714Y-118074285D02*
X82787142Y-117931428D01*
X82858571Y-117860000D01*
X83001428Y-117788571D01*
X83144285Y-117788571D01*
X85572857Y-118788571D02*
X84715714Y-118788571D01*
X85144285Y-118788571D02*
X85144285Y-117288571D01*
X85001428Y-117502857D01*
X84858571Y-117645714D01*
X84715714Y-117717142D01*
X86501428Y-117288571D02*
X86644285Y-117288571D01*
X86787142Y-117360000D01*
X86858571Y-117431428D01*
X86930000Y-117574285D01*
X87001428Y-117860000D01*
X87001428Y-118217142D01*
X86930000Y-118502857D01*
X86858571Y-118645714D01*
X86787142Y-118717142D01*
X86644285Y-118788571D01*
X86501428Y-118788571D01*
X86358571Y-118717142D01*
X86287142Y-118645714D01*
X86215714Y-118502857D01*
X86144285Y-118217142D01*
X86144285Y-117860000D01*
X86215714Y-117574285D01*
X86287142Y-117431428D01*
X86358571Y-117360000D01*
X86501428Y-117288571D01*
X88572857Y-117288571D02*
X89072857Y-118788571D01*
X89572857Y-117288571D01*
X90644285Y-118717142D02*
X90501428Y-118788571D01*
X90215714Y-118788571D01*
X90072857Y-118717142D01*
X90001428Y-118574285D01*
X90001428Y-118002857D01*
X90072857Y-117860000D01*
X90215714Y-117788571D01*
X90501428Y-117788571D01*
X90644285Y-117860000D01*
X90715714Y-118002857D01*
X90715714Y-118145714D01*
X90001428Y-118288571D01*
X91358571Y-118788571D02*
X91358571Y-117788571D01*
X91358571Y-118074285D02*
X91429999Y-117931428D01*
X91501428Y-117860000D01*
X91644285Y-117788571D01*
X91787142Y-117788571D01*
X92287142Y-118645714D02*
X92358571Y-118717142D01*
X92287142Y-118788571D01*
X92215714Y-118717142D01*
X92287142Y-118645714D01*
X92287142Y-118788571D01*
X94072857Y-117431428D02*
X94144285Y-117360000D01*
X94287142Y-117288571D01*
X94644285Y-117288571D01*
X94787142Y-117360000D01*
X94858571Y-117431428D01*
X94929999Y-117574285D01*
X94929999Y-117717142D01*
X94858571Y-117931428D01*
X94001428Y-118788571D01*
X94929999Y-118788571D01*
X95858571Y-117288571D02*
X96001428Y-117288571D01*
X96144285Y-117360000D01*
X96215714Y-117431428D01*
X96287142Y-117574285D01*
X96358571Y-117860000D01*
X96358571Y-118217142D01*
X96287142Y-118502857D01*
X96215714Y-118645714D01*
X96144285Y-118717142D01*
X96001428Y-118788571D01*
X95858571Y-118788571D01*
X95715714Y-118717142D01*
X95644285Y-118645714D01*
X95572857Y-118502857D01*
X95501428Y-118217142D01*
X95501428Y-117860000D01*
X95572857Y-117574285D01*
X95644285Y-117431428D01*
X95715714Y-117360000D01*
X95858571Y-117288571D01*
X96929999Y-117431428D02*
X97001428Y-117360000D01*
X97144285Y-117288571D01*
X97501428Y-117288571D01*
X97644285Y-117360000D01*
X97715714Y-117431428D01*
X97787142Y-117574285D01*
X97787142Y-117717142D01*
X97715714Y-117931428D01*
X96858571Y-118788571D01*
X97787142Y-118788571D01*
X98358571Y-117431428D02*
X98429999Y-117360000D01*
X98572857Y-117288571D01*
X98929999Y-117288571D01*
X99072857Y-117360000D01*
X99144285Y-117431428D01*
X99215714Y-117574285D01*
X99215714Y-117717142D01*
X99144285Y-117931428D01*
X98287142Y-118788571D01*
X99215714Y-118788571D01*
X100644285Y-118788571D02*
X99787142Y-118788571D01*
X100215714Y-118788571D02*
X100215714Y-117288571D01*
X100072857Y-117502857D01*
X99929999Y-117645714D01*
X99787142Y-117717142D01*
X102072857Y-118788571D02*
X101215714Y-118788571D01*
X101644285Y-118788571D02*
X101644285Y-117288571D01*
X101501428Y-117502857D01*
X101358571Y-117645714D01*
X101215714Y-117717142D01*
X102644285Y-117431428D02*
X102715714Y-117360000D01*
X102858571Y-117288571D01*
X103215714Y-117288571D01*
X103358571Y-117360000D01*
X103429999Y-117431428D01*
X103501428Y-117574285D01*
X103501428Y-117717142D01*
X103429999Y-117931428D01*
X102572857Y-118788571D01*
X103501428Y-118788571D01*
X104001428Y-117288571D02*
X105001428Y-117288571D01*
X104358571Y-118788571D01*
X106715714Y-118788571D02*
X106715714Y-117288571D01*
X106715714Y-117860000D02*
X106858571Y-117788571D01*
X107144285Y-117788571D01*
X107287142Y-117860000D01*
X107358571Y-117931428D01*
X107429999Y-118074285D01*
X107429999Y-118502857D01*
X107358571Y-118645714D01*
X107287142Y-118717142D01*
X107144285Y-118788571D01*
X106858571Y-118788571D01*
X106715714Y-118717142D01*
X107929999Y-117788571D02*
X108287142Y-118788571D01*
X108644285Y-117788571D02*
X108287142Y-118788571D01*
X108144285Y-119145714D01*
X108072857Y-119217142D01*
X107929999Y-119288571D01*
X110358571Y-118788571D02*
X110358571Y-117288571D01*
X111715714Y-118788571D02*
X111715714Y-118002857D01*
X111644285Y-117860000D01*
X111501428Y-117788571D01*
X111215714Y-117788571D01*
X111072857Y-117860000D01*
X111715714Y-118717142D02*
X111572857Y-118788571D01*
X111215714Y-118788571D01*
X111072857Y-118717142D01*
X111001428Y-118574285D01*
X111001428Y-118431428D01*
X111072857Y-118288571D01*
X111215714Y-118217142D01*
X111572857Y-118217142D01*
X111715714Y-118145714D01*
X112929999Y-118002857D02*
X112429999Y-118002857D01*
X112429999Y-118788571D02*
X112429999Y-117288571D01*
X113144285Y-117288571D01*
D12*
X155731785Y-103640000D02*
X155636547Y-103592380D01*
X155493690Y-103592380D01*
X155350833Y-103640000D01*
X155255595Y-103735238D01*
X155207976Y-103830476D01*
X155160357Y-104020952D01*
X155160357Y-104163809D01*
X155207976Y-104354285D01*
X155255595Y-104449523D01*
X155350833Y-104544761D01*
X155493690Y-104592380D01*
X155588928Y-104592380D01*
X155731785Y-104544761D01*
X155779404Y-104497142D01*
X155779404Y-104163809D01*
X155588928Y-104163809D01*
X156207976Y-104592380D02*
X156207976Y-103592380D01*
X156779404Y-104592380D01*
X156779404Y-103592380D01*
X157255595Y-104592380D02*
X157255595Y-103592380D01*
X157493690Y-103592380D01*
X157636547Y-103640000D01*
X157731785Y-103735238D01*
X157779404Y-103830476D01*
X157827023Y-104020952D01*
X157827023Y-104163809D01*
X157779404Y-104354285D01*
X157731785Y-104449523D01*
X157636547Y-104544761D01*
X157493690Y-104592380D01*
X157255595Y-104592380D01*
X106632380Y-83526380D02*
X106727619Y-83526380D01*
X106822857Y-83574000D01*
X106870476Y-83621619D01*
X106918095Y-83716857D01*
X106965714Y-83907333D01*
X106965714Y-84145428D01*
X106918095Y-84335904D01*
X106870476Y-84431142D01*
X106822857Y-84478761D01*
X106727619Y-84526380D01*
X106632380Y-84526380D01*
X106537142Y-84478761D01*
X106489523Y-84431142D01*
X106441904Y-84335904D01*
X106394285Y-84145428D01*
X106394285Y-83907333D01*
X106441904Y-83716857D01*
X106489523Y-83621619D01*
X106537142Y-83574000D01*
X106632380Y-83526380D01*
X103949523Y-84526380D02*
X104140000Y-84526380D01*
X104235238Y-84478761D01*
X104282857Y-84431142D01*
X104378095Y-84288285D01*
X104425714Y-84097809D01*
X104425714Y-83716857D01*
X104378095Y-83621619D01*
X104330476Y-83574000D01*
X104235238Y-83526380D01*
X104044761Y-83526380D01*
X103949523Y-83574000D01*
X103901904Y-83621619D01*
X103854285Y-83716857D01*
X103854285Y-83954952D01*
X103901904Y-84050190D01*
X103949523Y-84097809D01*
X104044761Y-84145428D01*
X104235238Y-84145428D01*
X104330476Y-84097809D01*
X104378095Y-84050190D01*
X104425714Y-83954952D01*
X101504761Y-83954952D02*
X101409523Y-83907333D01*
X101361904Y-83859714D01*
X101314285Y-83764476D01*
X101314285Y-83716857D01*
X101361904Y-83621619D01*
X101409523Y-83574000D01*
X101504761Y-83526380D01*
X101695238Y-83526380D01*
X101790476Y-83574000D01*
X101838095Y-83621619D01*
X101885714Y-83716857D01*
X101885714Y-83764476D01*
X101838095Y-83859714D01*
X101790476Y-83907333D01*
X101695238Y-83954952D01*
X101504761Y-83954952D01*
X101409523Y-84002571D01*
X101361904Y-84050190D01*
X101314285Y-84145428D01*
X101314285Y-84335904D01*
X101361904Y-84431142D01*
X101409523Y-84478761D01*
X101504761Y-84526380D01*
X101695238Y-84526380D01*
X101790476Y-84478761D01*
X101838095Y-84431142D01*
X101885714Y-84335904D01*
X101885714Y-84145428D01*
X101838095Y-84050190D01*
X101790476Y-84002571D01*
X101695238Y-83954952D01*
X98726666Y-83526380D02*
X99393333Y-83526380D01*
X98964761Y-84526380D01*
X96710476Y-83526380D02*
X96520000Y-83526380D01*
X96424761Y-83574000D01*
X96377142Y-83621619D01*
X96281904Y-83764476D01*
X96234285Y-83954952D01*
X96234285Y-84335904D01*
X96281904Y-84431142D01*
X96329523Y-84478761D01*
X96424761Y-84526380D01*
X96615238Y-84526380D01*
X96710476Y-84478761D01*
X96758095Y-84431142D01*
X96805714Y-84335904D01*
X96805714Y-84097809D01*
X96758095Y-84002571D01*
X96710476Y-83954952D01*
X96615238Y-83907333D01*
X96424761Y-83907333D01*
X96329523Y-83954952D01*
X96281904Y-84002571D01*
X96234285Y-84097809D01*
X94218095Y-83526380D02*
X93741904Y-83526380D01*
X93694285Y-84002571D01*
X93741904Y-83954952D01*
X93837142Y-83907333D01*
X94075238Y-83907333D01*
X94170476Y-83954952D01*
X94218095Y-84002571D01*
X94265714Y-84097809D01*
X94265714Y-84335904D01*
X94218095Y-84431142D01*
X94170476Y-84478761D01*
X94075238Y-84526380D01*
X93837142Y-84526380D01*
X93741904Y-84478761D01*
X93694285Y-84431142D01*
X91630476Y-83859714D02*
X91630476Y-84526380D01*
X91392380Y-83478761D02*
X91154285Y-84193047D01*
X91773333Y-84193047D01*
X88566666Y-83526380D02*
X89185714Y-83526380D01*
X88852380Y-83907333D01*
X88995238Y-83907333D01*
X89090476Y-83954952D01*
X89138095Y-84002571D01*
X89185714Y-84097809D01*
X89185714Y-84335904D01*
X89138095Y-84431142D01*
X89090476Y-84478761D01*
X88995238Y-84526380D01*
X88709523Y-84526380D01*
X88614285Y-84478761D01*
X88566666Y-84431142D01*
X86074285Y-83621619D02*
X86121904Y-83574000D01*
X86217142Y-83526380D01*
X86455238Y-83526380D01*
X86550476Y-83574000D01*
X86598095Y-83621619D01*
X86645714Y-83716857D01*
X86645714Y-83812095D01*
X86598095Y-83954952D01*
X86026666Y-84526380D01*
X86645714Y-84526380D01*
X84105714Y-84526380D02*
X83534285Y-84526380D01*
X83820000Y-84526380D02*
X83820000Y-83526380D01*
X83724761Y-83669238D01*
X83629523Y-83764476D01*
X83534285Y-83812095D01*
X78271904Y-84859714D02*
X78033809Y-84859714D01*
X78033809Y-83431142D01*
X78271904Y-83431142D01*
X79224285Y-84431142D02*
X79176666Y-84478761D01*
X79033809Y-84526380D01*
X78938571Y-84526380D01*
X78795714Y-84478761D01*
X78700476Y-84383523D01*
X78652857Y-84288285D01*
X78605238Y-84097809D01*
X78605238Y-83954952D01*
X78652857Y-83764476D01*
X78700476Y-83669238D01*
X78795714Y-83574000D01*
X78938571Y-83526380D01*
X79033809Y-83526380D01*
X79176666Y-83574000D01*
X79224285Y-83621619D01*
X79843333Y-83526380D02*
X80033809Y-83526380D01*
X80129047Y-83574000D01*
X80224285Y-83669238D01*
X80271904Y-83859714D01*
X80271904Y-84193047D01*
X80224285Y-84383523D01*
X80129047Y-84478761D01*
X80033809Y-84526380D01*
X79843333Y-84526380D01*
X79748095Y-84478761D01*
X79652857Y-84383523D01*
X79605238Y-84193047D01*
X79605238Y-83859714D01*
X79652857Y-83669238D01*
X79748095Y-83574000D01*
X79843333Y-83526380D01*
X80700476Y-84526380D02*
X80700476Y-83526380D01*
X81033809Y-84240666D01*
X81367142Y-83526380D01*
X81367142Y-84526380D01*
X81748095Y-84859714D02*
X81986190Y-84859714D01*
X81986190Y-83431142D01*
X81748095Y-83431142D01*
X152963571Y-112117142D02*
X152915952Y-112164761D01*
X152773095Y-112212380D01*
X152677857Y-112212380D01*
X152535000Y-112164761D01*
X152439761Y-112069523D01*
X152392142Y-111974285D01*
X152344523Y-111783809D01*
X152344523Y-111640952D01*
X152392142Y-111450476D01*
X152439761Y-111355238D01*
X152535000Y-111260000D01*
X152677857Y-111212380D01*
X152773095Y-111212380D01*
X152915952Y-111260000D01*
X152963571Y-111307619D01*
X153249285Y-111212380D02*
X153820714Y-111212380D01*
X153535000Y-112212380D02*
X153535000Y-111212380D01*
X152154047Y-113752380D02*
X152249285Y-113752380D01*
X152344523Y-113800000D01*
X152392142Y-113847619D01*
X152439761Y-113942857D01*
X152487380Y-114133333D01*
X152487380Y-114371428D01*
X152439761Y-114561904D01*
X152392142Y-114657142D01*
X152344523Y-114704761D01*
X152249285Y-114752380D01*
X152154047Y-114752380D01*
X152058809Y-114704761D01*
X152011190Y-114657142D01*
X151963571Y-114561904D01*
X151915952Y-114371428D01*
X151915952Y-114133333D01*
X151963571Y-113942857D01*
X152011190Y-113847619D01*
X152058809Y-113800000D01*
X152154047Y-113752380D01*
X152773095Y-114371428D02*
X152820714Y-114323809D01*
X152915952Y-114276190D01*
X153106428Y-114371428D01*
X153201666Y-114323809D01*
X153249285Y-114276190D01*
X153677857Y-114752380D02*
X153868333Y-114752380D01*
X153963571Y-114704761D01*
X154011190Y-114657142D01*
X154106428Y-114514285D01*
X154154047Y-114323809D01*
X154154047Y-113942857D01*
X154106428Y-113847619D01*
X154058809Y-113800000D01*
X153963571Y-113752380D01*
X153773095Y-113752380D01*
X153677857Y-113800000D01*
X153630238Y-113847619D01*
X153582619Y-113942857D01*
X153582619Y-114180952D01*
X153630238Y-114276190D01*
X153677857Y-114323809D01*
X153773095Y-114371428D01*
X153963571Y-114371428D01*
X154058809Y-114323809D01*
X154106428Y-114276190D01*
X154154047Y-114180952D01*
X152154047Y-108672380D02*
X152249285Y-108672380D01*
X152344523Y-108720000D01*
X152392142Y-108767619D01*
X152439761Y-108862857D01*
X152487380Y-109053333D01*
X152487380Y-109291428D01*
X152439761Y-109481904D01*
X152392142Y-109577142D01*
X152344523Y-109624761D01*
X152249285Y-109672380D01*
X152154047Y-109672380D01*
X152058809Y-109624761D01*
X152011190Y-109577142D01*
X151963571Y-109481904D01*
X151915952Y-109291428D01*
X151915952Y-109053333D01*
X151963571Y-108862857D01*
X152011190Y-108767619D01*
X152058809Y-108720000D01*
X152154047Y-108672380D01*
X152773095Y-109291428D02*
X152820714Y-109243809D01*
X152915952Y-109196190D01*
X153106428Y-109291428D01*
X153201666Y-109243809D01*
X153249285Y-109196190D01*
X153535000Y-108672380D02*
X154154047Y-108672380D01*
X153820714Y-109053333D01*
X153963571Y-109053333D01*
X154058809Y-109100952D01*
X154106428Y-109148571D01*
X154154047Y-109243809D01*
X154154047Y-109481904D01*
X154106428Y-109577142D01*
X154058809Y-109624761D01*
X153963571Y-109672380D01*
X153677857Y-109672380D01*
X153582619Y-109624761D01*
X153535000Y-109577142D01*
X159829523Y-112117142D02*
X159781904Y-112164761D01*
X159639047Y-112212380D01*
X159543809Y-112212380D01*
X159400952Y-112164761D01*
X159305714Y-112069523D01*
X159258095Y-111974285D01*
X159210476Y-111783809D01*
X159210476Y-111640952D01*
X159258095Y-111450476D01*
X159305714Y-111355238D01*
X159400952Y-111260000D01*
X159543809Y-111212380D01*
X159639047Y-111212380D01*
X159781904Y-111260000D01*
X159829523Y-111307619D01*
X160829523Y-112212380D02*
X160496190Y-111736190D01*
X160258095Y-112212380D02*
X160258095Y-111212380D01*
X160639047Y-111212380D01*
X160734285Y-111260000D01*
X160781904Y-111307619D01*
X160829523Y-111402857D01*
X160829523Y-111545714D01*
X160781904Y-111640952D01*
X160734285Y-111688571D01*
X160639047Y-111736190D01*
X160258095Y-111736190D01*
X156017500Y-107037142D02*
X155969880Y-107084761D01*
X155827023Y-107132380D01*
X155731785Y-107132380D01*
X155588928Y-107084761D01*
X155493690Y-106989523D01*
X155446071Y-106894285D01*
X155398452Y-106703809D01*
X155398452Y-106560952D01*
X155446071Y-106370476D01*
X155493690Y-106275238D01*
X155588928Y-106180000D01*
X155731785Y-106132380D01*
X155827023Y-106132380D01*
X155969880Y-106180000D01*
X156017500Y-106227619D01*
X156922261Y-107132380D02*
X156446071Y-107132380D01*
X156446071Y-106132380D01*
X157255595Y-107132380D02*
X157255595Y-106132380D01*
X157827023Y-107132380D02*
X157398452Y-106560952D01*
X157827023Y-106132380D02*
X157255595Y-106703809D01*
X155112738Y-102052380D02*
X155112738Y-101052380D01*
X155493690Y-101052380D01*
X155588928Y-101100000D01*
X155636547Y-101147619D01*
X155684166Y-101242857D01*
X155684166Y-101385714D01*
X155636547Y-101480952D01*
X155588928Y-101528571D01*
X155493690Y-101576190D01*
X155112738Y-101576190D01*
X156017500Y-101052380D02*
X156255595Y-102052380D01*
X156446071Y-101338095D01*
X156636547Y-102052380D01*
X156874642Y-101052380D01*
X157827023Y-102052380D02*
X157493690Y-101576190D01*
X157255595Y-102052380D02*
X157255595Y-101052380D01*
X157636547Y-101052380D01*
X157731785Y-101100000D01*
X157779404Y-101147619D01*
X157827023Y-101242857D01*
X157827023Y-101385714D01*
X157779404Y-101480952D01*
X157731785Y-101528571D01*
X157636547Y-101576190D01*
X157255595Y-101576190D01*
D11*
X52144285Y-160698571D02*
X51644285Y-159984285D01*
X51287142Y-160698571D02*
X51287142Y-159198571D01*
X51858571Y-159198571D01*
X52001428Y-159270000D01*
X52072857Y-159341428D01*
X52144285Y-159484285D01*
X52144285Y-159698571D01*
X52072857Y-159841428D01*
X52001428Y-159912857D01*
X51858571Y-159984285D01*
X51287142Y-159984285D01*
X53358571Y-160627142D02*
X53215714Y-160698571D01*
X52930000Y-160698571D01*
X52787142Y-160627142D01*
X52715714Y-160484285D01*
X52715714Y-159912857D01*
X52787142Y-159770000D01*
X52930000Y-159698571D01*
X53215714Y-159698571D01*
X53358571Y-159770000D01*
X53430000Y-159912857D01*
X53430000Y-160055714D01*
X52715714Y-160198571D01*
X54287142Y-160698571D02*
X54144285Y-160627142D01*
X54072857Y-160484285D01*
X54072857Y-159198571D01*
X55501428Y-160698571D02*
X55501428Y-159912857D01*
X55430000Y-159770000D01*
X55287142Y-159698571D01*
X55001428Y-159698571D01*
X54858571Y-159770000D01*
X55501428Y-160627142D02*
X55358571Y-160698571D01*
X55001428Y-160698571D01*
X54858571Y-160627142D01*
X54787142Y-160484285D01*
X54787142Y-160341428D01*
X54858571Y-160198571D01*
X55001428Y-160127142D01*
X55358571Y-160127142D01*
X55501428Y-160055714D01*
X56072857Y-159698571D02*
X56430000Y-160698571D01*
X56787142Y-159698571D02*
X56430000Y-160698571D01*
X56287142Y-161055714D01*
X56215714Y-161127142D01*
X56072857Y-161198571D01*
X58501428Y-160698571D02*
X58501428Y-159198571D01*
X59358571Y-160698571D01*
X59358571Y-159198571D01*
X60072857Y-160698571D02*
X60072857Y-159698571D01*
X60072857Y-159198571D02*
X60001428Y-159270000D01*
X60072857Y-159341428D01*
X60144285Y-159270000D01*
X60072857Y-159198571D01*
X60072857Y-159341428D01*
X60644285Y-160698571D02*
X61430000Y-159698571D01*
X60644285Y-159698571D02*
X61430000Y-160698571D01*
X62001428Y-160698571D02*
X62001428Y-159698571D01*
X62001428Y-159198571D02*
X61930000Y-159270000D01*
X62001428Y-159341428D01*
X62072857Y-159270000D01*
X62001428Y-159198571D01*
X62001428Y-159341428D01*
X63287142Y-160627142D02*
X63144285Y-160698571D01*
X62858571Y-160698571D01*
X62715714Y-160627142D01*
X62644285Y-160484285D01*
X62644285Y-159912857D01*
X62715714Y-159770000D01*
X62858571Y-159698571D01*
X63144285Y-159698571D01*
X63287142Y-159770000D01*
X63358571Y-159912857D01*
X63358571Y-160055714D01*
X62644285Y-160198571D01*
X66001428Y-160555714D02*
X65930000Y-160627142D01*
X65715714Y-160698571D01*
X65572857Y-160698571D01*
X65358571Y-160627142D01*
X65215714Y-160484285D01*
X65144285Y-160341428D01*
X65072857Y-160055714D01*
X65072857Y-159841428D01*
X65144285Y-159555714D01*
X65215714Y-159412857D01*
X65358571Y-159270000D01*
X65572857Y-159198571D01*
X65715714Y-159198571D01*
X65930000Y-159270000D01*
X66001428Y-159341428D01*
X66858571Y-160698571D02*
X66715714Y-160627142D01*
X66644285Y-160484285D01*
X66644285Y-159198571D01*
X67644285Y-160698571D02*
X67501428Y-160627142D01*
X67430000Y-160555714D01*
X67358571Y-160412857D01*
X67358571Y-159984285D01*
X67430000Y-159841428D01*
X67501428Y-159770000D01*
X67644285Y-159698571D01*
X67858571Y-159698571D01*
X68001428Y-159770000D01*
X68072857Y-159841428D01*
X68144285Y-159984285D01*
X68144285Y-160412857D01*
X68072857Y-160555714D01*
X68001428Y-160627142D01*
X67858571Y-160698571D01*
X67644285Y-160698571D01*
X69430000Y-160627142D02*
X69287142Y-160698571D01*
X69001428Y-160698571D01*
X68858571Y-160627142D01*
X68787142Y-160555714D01*
X68715714Y-160412857D01*
X68715714Y-159984285D01*
X68787142Y-159841428D01*
X68858571Y-159770000D01*
X69001428Y-159698571D01*
X69287142Y-159698571D01*
X69430000Y-159770000D01*
X70072857Y-160698571D02*
X70072857Y-159198571D01*
X70215714Y-160127142D02*
X70644285Y-160698571D01*
X70644285Y-159698571D02*
X70072857Y-160270000D01*
X72430000Y-160555714D02*
X72501428Y-160627142D01*
X72430000Y-160698571D01*
X72358571Y-160627142D01*
X72430000Y-160555714D01*
X72430000Y-160698571D01*
X72430000Y-159770000D02*
X72501428Y-159841428D01*
X72430000Y-159912857D01*
X72358571Y-159841428D01*
X72430000Y-159770000D01*
X72430000Y-159912857D01*
X73144285Y-160555714D02*
X73215714Y-160627142D01*
X73144285Y-160698571D01*
X73072857Y-160627142D01*
X73144285Y-160555714D01*
X73144285Y-160698571D01*
X73144285Y-159770000D02*
X73215714Y-159841428D01*
X73144285Y-159912857D01*
X73072857Y-159841428D01*
X73144285Y-159770000D01*
X73144285Y-159912857D01*
X75858571Y-160555714D02*
X75787142Y-160627142D01*
X75572857Y-160698571D01*
X75430000Y-160698571D01*
X75215714Y-160627142D01*
X75072857Y-160484285D01*
X75001428Y-160341428D01*
X74930000Y-160055714D01*
X74930000Y-159841428D01*
X75001428Y-159555714D01*
X75072857Y-159412857D01*
X75215714Y-159270000D01*
X75430000Y-159198571D01*
X75572857Y-159198571D01*
X75787142Y-159270000D01*
X75858571Y-159341428D01*
X76715714Y-160698571D02*
X76572857Y-160627142D01*
X76501428Y-160555714D01*
X76430000Y-160412857D01*
X76430000Y-159984285D01*
X76501428Y-159841428D01*
X76572857Y-159770000D01*
X76715714Y-159698571D01*
X76930000Y-159698571D01*
X77072857Y-159770000D01*
X77144285Y-159841428D01*
X77215714Y-159984285D01*
X77215714Y-160412857D01*
X77144285Y-160555714D01*
X77072857Y-160627142D01*
X76930000Y-160698571D01*
X76715714Y-160698571D01*
X78501428Y-159698571D02*
X78501428Y-160698571D01*
X77858571Y-159698571D02*
X77858571Y-160484285D01*
X77930000Y-160627142D01*
X78072857Y-160698571D01*
X78287142Y-160698571D01*
X78430000Y-160627142D01*
X78501428Y-160555714D01*
X79215714Y-159698571D02*
X79215714Y-160698571D01*
X79215714Y-159841428D02*
X79287142Y-159770000D01*
X79430000Y-159698571D01*
X79644285Y-159698571D01*
X79787142Y-159770000D01*
X79858571Y-159912857D01*
X79858571Y-160698571D01*
X80358571Y-159698571D02*
X80930000Y-159698571D01*
X80572857Y-159198571D02*
X80572857Y-160484285D01*
X80644285Y-160627142D01*
X80787142Y-160698571D01*
X80930000Y-160698571D01*
X82001428Y-160627142D02*
X81858571Y-160698571D01*
X81572857Y-160698571D01*
X81430000Y-160627142D01*
X81358571Y-160484285D01*
X81358571Y-159912857D01*
X81430000Y-159770000D01*
X81572857Y-159698571D01*
X81858571Y-159698571D01*
X82001428Y-159770000D01*
X82072857Y-159912857D01*
X82072857Y-160055714D01*
X81358571Y-160198571D01*
X82715714Y-160698571D02*
X82715714Y-159698571D01*
X82715714Y-159984285D02*
X82787142Y-159841428D01*
X82858571Y-159770000D01*
X83001428Y-159698571D01*
X83144285Y-159698571D01*
X85430000Y-159198571D02*
X85144285Y-159198571D01*
X85001428Y-159270000D01*
X84930000Y-159341428D01*
X84787142Y-159555714D01*
X84715714Y-159841428D01*
X84715714Y-160412857D01*
X84787142Y-160555714D01*
X84858571Y-160627142D01*
X85001428Y-160698571D01*
X85287142Y-160698571D01*
X85430000Y-160627142D01*
X85501428Y-160555714D01*
X85572857Y-160412857D01*
X85572857Y-160055714D01*
X85501428Y-159912857D01*
X85430000Y-159841428D01*
X85287142Y-159770000D01*
X85001428Y-159770000D01*
X84858571Y-159841428D01*
X84787142Y-159912857D01*
X84715714Y-160055714D01*
X86215714Y-160127142D02*
X87358571Y-160127142D01*
X86787142Y-160698571D02*
X86787142Y-159555714D01*
X87930000Y-159198571D02*
X88858571Y-159198571D01*
X88358571Y-159770000D01*
X88572857Y-159770000D01*
X88715714Y-159841428D01*
X88787142Y-159912857D01*
X88858571Y-160055714D01*
X88858571Y-160412857D01*
X88787142Y-160555714D01*
X88715714Y-160627142D01*
X88572857Y-160698571D01*
X88144285Y-160698571D01*
X88001428Y-160627142D01*
X87930000Y-160555714D01*
X90430000Y-159198571D02*
X90930000Y-160698571D01*
X91430000Y-159198571D01*
X92501428Y-160627142D02*
X92358571Y-160698571D01*
X92072857Y-160698571D01*
X91930000Y-160627142D01*
X91858571Y-160484285D01*
X91858571Y-159912857D01*
X91930000Y-159770000D01*
X92072857Y-159698571D01*
X92358571Y-159698571D01*
X92501428Y-159770000D01*
X92572857Y-159912857D01*
X92572857Y-160055714D01*
X91858571Y-160198571D01*
X93215714Y-160698571D02*
X93215714Y-159698571D01*
X93215714Y-159984285D02*
X93287142Y-159841428D01*
X93358571Y-159770000D01*
X93501428Y-159698571D01*
X93644285Y-159698571D01*
X94144285Y-160555714D02*
X94215714Y-160627142D01*
X94144285Y-160698571D01*
X94072857Y-160627142D01*
X94144285Y-160555714D01*
X94144285Y-160698571D01*
X95929999Y-159341428D02*
X96001428Y-159270000D01*
X96144285Y-159198571D01*
X96501428Y-159198571D01*
X96644285Y-159270000D01*
X96715714Y-159341428D01*
X96787142Y-159484285D01*
X96787142Y-159627142D01*
X96715714Y-159841428D01*
X95858571Y-160698571D01*
X96787142Y-160698571D01*
X97715714Y-159198571D02*
X97858571Y-159198571D01*
X98001428Y-159270000D01*
X98072857Y-159341428D01*
X98144285Y-159484285D01*
X98215714Y-159770000D01*
X98215714Y-160127142D01*
X98144285Y-160412857D01*
X98072857Y-160555714D01*
X98001428Y-160627142D01*
X97858571Y-160698571D01*
X97715714Y-160698571D01*
X97572857Y-160627142D01*
X97501428Y-160555714D01*
X97429999Y-160412857D01*
X97358571Y-160127142D01*
X97358571Y-159770000D01*
X97429999Y-159484285D01*
X97501428Y-159341428D01*
X97572857Y-159270000D01*
X97715714Y-159198571D01*
X98787142Y-159341428D02*
X98858571Y-159270000D01*
X99001428Y-159198571D01*
X99358571Y-159198571D01*
X99501428Y-159270000D01*
X99572857Y-159341428D01*
X99644285Y-159484285D01*
X99644285Y-159627142D01*
X99572857Y-159841428D01*
X98715714Y-160698571D01*
X99644285Y-160698571D01*
X100215714Y-159341428D02*
X100287142Y-159270000D01*
X100429999Y-159198571D01*
X100787142Y-159198571D01*
X100929999Y-159270000D01*
X101001428Y-159341428D01*
X101072857Y-159484285D01*
X101072857Y-159627142D01*
X101001428Y-159841428D01*
X100144285Y-160698571D01*
X101072857Y-160698571D01*
X102501428Y-160698571D02*
X101644285Y-160698571D01*
X102072857Y-160698571D02*
X102072857Y-159198571D01*
X101929999Y-159412857D01*
X101787142Y-159555714D01*
X101644285Y-159627142D01*
X103929999Y-160698571D02*
X103072857Y-160698571D01*
X103501428Y-160698571D02*
X103501428Y-159198571D01*
X103358571Y-159412857D01*
X103215714Y-159555714D01*
X103072857Y-159627142D01*
X104501428Y-159341428D02*
X104572857Y-159270000D01*
X104715714Y-159198571D01*
X105072857Y-159198571D01*
X105215714Y-159270000D01*
X105287142Y-159341428D01*
X105358571Y-159484285D01*
X105358571Y-159627142D01*
X105287142Y-159841428D01*
X104429999Y-160698571D01*
X105358571Y-160698571D01*
X105858571Y-159198571D02*
X106858571Y-159198571D01*
X106215714Y-160698571D01*
X108572857Y-160698571D02*
X108572857Y-159198571D01*
X108572857Y-159770000D02*
X108715714Y-159698571D01*
X109001428Y-159698571D01*
X109144285Y-159770000D01*
X109215714Y-159841428D01*
X109287142Y-159984285D01*
X109287142Y-160412857D01*
X109215714Y-160555714D01*
X109144285Y-160627142D01*
X109001428Y-160698571D01*
X108715714Y-160698571D01*
X108572857Y-160627142D01*
X109787142Y-159698571D02*
X110144285Y-160698571D01*
X110501428Y-159698571D02*
X110144285Y-160698571D01*
X110001428Y-161055714D01*
X109929999Y-161127142D01*
X109787142Y-161198571D01*
X112215714Y-160698571D02*
X112215714Y-159198571D01*
X113572857Y-160698571D02*
X113572857Y-159912857D01*
X113501428Y-159770000D01*
X113358571Y-159698571D01*
X113072857Y-159698571D01*
X112929999Y-159770000D01*
X113572857Y-160627142D02*
X113429999Y-160698571D01*
X113072857Y-160698571D01*
X112929999Y-160627142D01*
X112858571Y-160484285D01*
X112858571Y-160341428D01*
X112929999Y-160198571D01*
X113072857Y-160127142D01*
X113429999Y-160127142D01*
X113572857Y-160055714D01*
X114787142Y-159912857D02*
X114287142Y-159912857D01*
X114287142Y-160698571D02*
X114287142Y-159198571D01*
X115001428Y-159198571D01*
D12*
X159022023Y-136247142D02*
X158974404Y-136294761D01*
X158831547Y-136342380D01*
X158736309Y-136342380D01*
X158593452Y-136294761D01*
X158498214Y-136199523D01*
X158450595Y-136104285D01*
X158402976Y-135913809D01*
X158402976Y-135770952D01*
X158450595Y-135580476D01*
X158498214Y-135485238D01*
X158593452Y-135390000D01*
X158736309Y-135342380D01*
X158831547Y-135342380D01*
X158974404Y-135390000D01*
X159022023Y-135437619D01*
X160022023Y-136342380D02*
X159688690Y-135866190D01*
X159450595Y-136342380D02*
X159450595Y-135342380D01*
X159831547Y-135342380D01*
X159926785Y-135390000D01*
X159974404Y-135437619D01*
X160022023Y-135532857D01*
X160022023Y-135675714D01*
X159974404Y-135770952D01*
X159926785Y-135818571D01*
X159831547Y-135866190D01*
X159450595Y-135866190D01*
X159022023Y-133707142D02*
X158974404Y-133754761D01*
X158831547Y-133802380D01*
X158736309Y-133802380D01*
X158593452Y-133754761D01*
X158498214Y-133659523D01*
X158450595Y-133564285D01*
X158402976Y-133373809D01*
X158402976Y-133230952D01*
X158450595Y-133040476D01*
X158498214Y-132945238D01*
X158593452Y-132850000D01*
X158736309Y-132802380D01*
X158831547Y-132802380D01*
X158974404Y-132850000D01*
X159022023Y-132897619D01*
X159926785Y-133802380D02*
X159450595Y-133802380D01*
X159450595Y-132802380D01*
X160260119Y-133802380D02*
X160260119Y-132802380D01*
X160831547Y-133802380D02*
X160402976Y-133230952D01*
X160831547Y-132802380D02*
X160260119Y-133373809D01*
X161688690Y-132802380D02*
X161498214Y-132802380D01*
X161402976Y-132850000D01*
X161355357Y-132897619D01*
X161260119Y-133040476D01*
X161212500Y-133230952D01*
X161212500Y-133611904D01*
X161260119Y-133707142D01*
X161307738Y-133754761D01*
X161402976Y-133802380D01*
X161593452Y-133802380D01*
X161688690Y-133754761D01*
X161736309Y-133707142D01*
X161783928Y-133611904D01*
X161783928Y-133373809D01*
X161736309Y-133278571D01*
X161688690Y-133230952D01*
X161593452Y-133183333D01*
X161402976Y-133183333D01*
X161307738Y-133230952D01*
X161260119Y-133278571D01*
X161212500Y-133373809D01*
X158974404Y-130310000D02*
X158879166Y-130262380D01*
X158736309Y-130262380D01*
X158593452Y-130310000D01*
X158498214Y-130405238D01*
X158450595Y-130500476D01*
X158402976Y-130690952D01*
X158402976Y-130833809D01*
X158450595Y-131024285D01*
X158498214Y-131119523D01*
X158593452Y-131214761D01*
X158736309Y-131262380D01*
X158831547Y-131262380D01*
X158974404Y-131214761D01*
X159022023Y-131167142D01*
X159022023Y-130833809D01*
X158831547Y-130833809D01*
X159450595Y-131262380D02*
X159450595Y-130262380D01*
X160022023Y-131262380D01*
X160022023Y-130262380D01*
X160498214Y-131262380D02*
X160498214Y-130262380D01*
X160736309Y-130262380D01*
X160879166Y-130310000D01*
X160974404Y-130405238D01*
X161022023Y-130500476D01*
X161069642Y-130690952D01*
X161069642Y-130833809D01*
X161022023Y-131024285D01*
X160974404Y-131119523D01*
X160879166Y-131214761D01*
X160736309Y-131262380D01*
X160498214Y-131262380D01*
X158450595Y-128722380D02*
X158450595Y-127722380D01*
X158831547Y-127722380D01*
X158926785Y-127770000D01*
X158974404Y-127817619D01*
X159022023Y-127912857D01*
X159022023Y-128055714D01*
X158974404Y-128150952D01*
X158926785Y-128198571D01*
X158831547Y-128246190D01*
X158450595Y-128246190D01*
X159355357Y-127722380D02*
X159593452Y-128722380D01*
X159783928Y-128008095D01*
X159974404Y-128722380D01*
X160212500Y-127722380D01*
X161164880Y-128722380D02*
X160831547Y-128246190D01*
X160593452Y-128722380D02*
X160593452Y-127722380D01*
X160974404Y-127722380D01*
X161069642Y-127770000D01*
X161117261Y-127817619D01*
X161164880Y-127912857D01*
X161164880Y-128055714D01*
X161117261Y-128150952D01*
X161069642Y-128198571D01*
X160974404Y-128246190D01*
X160593452Y-128246190D01*
X66661309Y-134183333D02*
X66613690Y-134135714D01*
X66518452Y-133992857D01*
X66470833Y-133897619D01*
X66423214Y-133754761D01*
X66375595Y-133516666D01*
X66375595Y-133326190D01*
X66423214Y-133088095D01*
X66470833Y-132945238D01*
X66518452Y-132850000D01*
X66613690Y-132707142D01*
X66661309Y-132659523D01*
X67232738Y-132802380D02*
X67327976Y-132802380D01*
X67423214Y-132850000D01*
X67470833Y-132897619D01*
X67518452Y-132992857D01*
X67566071Y-133183333D01*
X67566071Y-133421428D01*
X67518452Y-133611904D01*
X67470833Y-133707142D01*
X67423214Y-133754761D01*
X67327976Y-133802380D01*
X67232738Y-133802380D01*
X67137500Y-133754761D01*
X67089880Y-133707142D01*
X67042261Y-133611904D01*
X66994642Y-133421428D01*
X66994642Y-133183333D01*
X67042261Y-132992857D01*
X67089880Y-132897619D01*
X67137500Y-132850000D01*
X67232738Y-132802380D01*
X68042261Y-133754761D02*
X68042261Y-133802380D01*
X67994642Y-133897619D01*
X67947023Y-133945238D01*
X68994642Y-133802380D02*
X68423214Y-133802380D01*
X68708928Y-133802380D02*
X68708928Y-132802380D01*
X68613690Y-132945238D01*
X68518452Y-133040476D01*
X68423214Y-133088095D01*
X69327976Y-134183333D02*
X69375595Y-134135714D01*
X69470833Y-133992857D01*
X69518452Y-133897619D01*
X69566071Y-133754761D01*
X69613690Y-133516666D01*
X69613690Y-133326190D01*
X69566071Y-133088095D01*
X69518452Y-132945238D01*
X69470833Y-132850000D01*
X69375595Y-132707142D01*
X69327976Y-132659523D01*
X66661309Y-129103333D02*
X66613690Y-129055714D01*
X66518452Y-128912857D01*
X66470833Y-128817619D01*
X66423214Y-128674761D01*
X66375595Y-128436666D01*
X66375595Y-128246190D01*
X66423214Y-128008095D01*
X66470833Y-127865238D01*
X66518452Y-127770000D01*
X66613690Y-127627142D01*
X66661309Y-127579523D01*
X66994642Y-127817619D02*
X67042261Y-127770000D01*
X67137500Y-127722380D01*
X67375595Y-127722380D01*
X67470833Y-127770000D01*
X67518452Y-127817619D01*
X67566071Y-127912857D01*
X67566071Y-128008095D01*
X67518452Y-128150952D01*
X66947023Y-128722380D01*
X67566071Y-128722380D01*
X67899404Y-129103333D02*
X67947023Y-129055714D01*
X68042261Y-128912857D01*
X68089880Y-128817619D01*
X68137500Y-128674761D01*
X68185119Y-128436666D01*
X68185119Y-128246190D01*
X68137500Y-128008095D01*
X68089880Y-127865238D01*
X68042261Y-127770000D01*
X67947023Y-127627142D01*
X67899404Y-127579523D01*
X66947023Y-131167142D02*
X66899404Y-131214761D01*
X66756547Y-131262380D01*
X66661309Y-131262380D01*
X66518452Y-131214761D01*
X66423214Y-131119523D01*
X66375595Y-131024285D01*
X66327976Y-130833809D01*
X66327976Y-130690952D01*
X66375595Y-130500476D01*
X66423214Y-130405238D01*
X66518452Y-130310000D01*
X66661309Y-130262380D01*
X66756547Y-130262380D01*
X66899404Y-130310000D01*
X66947023Y-130357619D01*
X67232738Y-130262380D02*
X67804166Y-130262380D01*
X67518452Y-131262380D02*
X67518452Y-130262380D01*
X63698571Y-138787142D02*
X63650952Y-138834761D01*
X63508095Y-138882380D01*
X63412857Y-138882380D01*
X63270000Y-138834761D01*
X63174761Y-138739523D01*
X63127142Y-138644285D01*
X63079523Y-138453809D01*
X63079523Y-138310952D01*
X63127142Y-138120476D01*
X63174761Y-138025238D01*
X63270000Y-137930000D01*
X63412857Y-137882380D01*
X63508095Y-137882380D01*
X63650952Y-137930000D01*
X63698571Y-137977619D01*
X64603333Y-138882380D02*
X64127142Y-138882380D01*
X64127142Y-137882380D01*
X64936666Y-138882380D02*
X64936666Y-137882380D01*
X65508095Y-138882380D02*
X65079523Y-138310952D01*
X65508095Y-137882380D02*
X64936666Y-138453809D01*
X65841428Y-137882380D02*
X66460476Y-137882380D01*
X66127142Y-138263333D01*
X66270000Y-138263333D01*
X66365238Y-138310952D01*
X66412857Y-138358571D01*
X66460476Y-138453809D01*
X66460476Y-138691904D01*
X66412857Y-138787142D01*
X66365238Y-138834761D01*
X66270000Y-138882380D01*
X65984285Y-138882380D01*
X65889047Y-138834761D01*
X65841428Y-138787142D01*
X78454285Y-125531619D02*
X78501904Y-125484000D01*
X78597142Y-125436380D01*
X78835238Y-125436380D01*
X78930476Y-125484000D01*
X78978095Y-125531619D01*
X79025714Y-125626857D01*
X79025714Y-125722095D01*
X78978095Y-125864952D01*
X78406666Y-126436380D01*
X79025714Y-126436380D01*
X81565714Y-126436380D02*
X80994285Y-126436380D01*
X81280000Y-126436380D02*
X81280000Y-125436380D01*
X81184761Y-125579238D01*
X81089523Y-125674476D01*
X80994285Y-125722095D01*
X83772380Y-125436380D02*
X83867619Y-125436380D01*
X83962857Y-125484000D01*
X84010476Y-125531619D01*
X84058095Y-125626857D01*
X84105714Y-125817333D01*
X84105714Y-126055428D01*
X84058095Y-126245904D01*
X84010476Y-126341142D01*
X83962857Y-126388761D01*
X83867619Y-126436380D01*
X83772380Y-126436380D01*
X83677142Y-126388761D01*
X83629523Y-126341142D01*
X83581904Y-126245904D01*
X83534285Y-126055428D01*
X83534285Y-125817333D01*
X83581904Y-125626857D01*
X83629523Y-125531619D01*
X83677142Y-125484000D01*
X83772380Y-125436380D01*
X106632380Y-125436380D02*
X106727619Y-125436380D01*
X106822857Y-125484000D01*
X106870476Y-125531619D01*
X106918095Y-125626857D01*
X106965714Y-125817333D01*
X106965714Y-126055428D01*
X106918095Y-126245904D01*
X106870476Y-126341142D01*
X106822857Y-126388761D01*
X106727619Y-126436380D01*
X106632380Y-126436380D01*
X106537142Y-126388761D01*
X106489523Y-126341142D01*
X106441904Y-126245904D01*
X106394285Y-126055428D01*
X106394285Y-125817333D01*
X106441904Y-125626857D01*
X106489523Y-125531619D01*
X106537142Y-125484000D01*
X106632380Y-125436380D01*
X104378095Y-125436380D02*
X103901904Y-125436380D01*
X103854285Y-125912571D01*
X103901904Y-125864952D01*
X103997142Y-125817333D01*
X104235238Y-125817333D01*
X104330476Y-125864952D01*
X104378095Y-125912571D01*
X104425714Y-126007809D01*
X104425714Y-126245904D01*
X104378095Y-126341142D01*
X104330476Y-126388761D01*
X104235238Y-126436380D01*
X103997142Y-126436380D01*
X103901904Y-126388761D01*
X103854285Y-126341142D01*
X101790476Y-125769714D02*
X101790476Y-126436380D01*
X101552380Y-125388761D02*
X101314285Y-126103047D01*
X101933333Y-126103047D01*
X98726666Y-125436380D02*
X99345714Y-125436380D01*
X99012380Y-125817333D01*
X99155238Y-125817333D01*
X99250476Y-125864952D01*
X99298095Y-125912571D01*
X99345714Y-126007809D01*
X99345714Y-126245904D01*
X99298095Y-126341142D01*
X99250476Y-126388761D01*
X99155238Y-126436380D01*
X98869523Y-126436380D01*
X98774285Y-126388761D01*
X98726666Y-126341142D01*
X96234285Y-125531619D02*
X96281904Y-125484000D01*
X96377142Y-125436380D01*
X96615238Y-125436380D01*
X96710476Y-125484000D01*
X96758095Y-125531619D01*
X96805714Y-125626857D01*
X96805714Y-125722095D01*
X96758095Y-125864952D01*
X96186666Y-126436380D01*
X96805714Y-126436380D01*
X94265714Y-126436380D02*
X93694285Y-126436380D01*
X93980000Y-126436380D02*
X93980000Y-125436380D01*
X93884761Y-125579238D01*
X93789523Y-125674476D01*
X93694285Y-125722095D01*
X89071619Y-126769714D02*
X88881142Y-126769714D01*
X88881142Y-125341142D01*
X89071619Y-125341142D01*
X89833523Y-126341142D02*
X89795428Y-126388761D01*
X89681142Y-126436380D01*
X89604952Y-126436380D01*
X89490666Y-126388761D01*
X89414476Y-126293523D01*
X89376380Y-126198285D01*
X89338285Y-126007809D01*
X89338285Y-125864952D01*
X89376380Y-125674476D01*
X89414476Y-125579238D01*
X89490666Y-125484000D01*
X89604952Y-125436380D01*
X89681142Y-125436380D01*
X89795428Y-125484000D01*
X89833523Y-125531619D01*
X90176380Y-126436380D02*
X90176380Y-125436380D01*
X90443047Y-126150666D01*
X90709714Y-125436380D01*
X90709714Y-126436380D01*
X91509714Y-126436380D02*
X91052571Y-126436380D01*
X91281142Y-126436380D02*
X91281142Y-125436380D01*
X91204952Y-125579238D01*
X91128761Y-125674476D01*
X91052571Y-125722095D01*
X91776380Y-126769714D02*
X91966857Y-126769714D01*
X91966857Y-125341142D01*
X91776380Y-125341142D01*
X85769523Y-126341142D02*
X85731428Y-126388761D01*
X85617142Y-126436380D01*
X85540952Y-126436380D01*
X85426666Y-126388761D01*
X85350476Y-126293523D01*
X85312380Y-126198285D01*
X85274285Y-126007809D01*
X85274285Y-125864952D01*
X85312380Y-125674476D01*
X85350476Y-125579238D01*
X85426666Y-125484000D01*
X85540952Y-125436380D01*
X85617142Y-125436380D01*
X85731428Y-125484000D01*
X85769523Y-125531619D01*
X86112380Y-126436380D02*
X86112380Y-125436380D01*
X86379047Y-126150666D01*
X86645714Y-125436380D01*
X86645714Y-126436380D01*
X86988571Y-125531619D02*
X87026666Y-125484000D01*
X87102857Y-125436380D01*
X87293333Y-125436380D01*
X87369523Y-125484000D01*
X87407619Y-125531619D01*
X87445714Y-125626857D01*
X87445714Y-125722095D01*
X87407619Y-125864952D01*
X86950476Y-126436380D01*
X87445714Y-126436380D01*
D11*
X82550000Y-58420000D02*
X87630000Y-58420000D01*
X80010000Y-73660000D02*
X80010000Y-43180000D01*
X90170000Y-73660000D02*
X80010000Y-73660000D01*
X90170000Y-43180000D02*
X90170000Y-73660000D01*
X80010000Y-43180000D02*
X90170000Y-43180000D01*
X151130000Y-58420000D02*
X140970000Y-58420000D01*
X151130000Y-43180000D02*
X151130000Y-58420000D01*
X140970000Y-43180000D02*
X151130000Y-43180000D01*
X140970000Y-58420000D02*
X140970000Y-43180000D01*
D13*
X77410000Y-41335000D02*
X77410000Y-40005000D01*
X78740000Y-41335000D02*
X77410000Y-41335000D01*
X80010000Y-41335000D02*
X80010000Y-38675000D01*
X80010000Y-38675000D02*
X108010000Y-38675000D01*
X80010000Y-41335000D02*
X108010000Y-41335000D01*
X108010000Y-41335000D02*
X108010000Y-38675000D01*
D11*
X92710000Y-58420000D02*
X97790000Y-58420000D01*
X90170000Y-73660000D02*
X90170000Y-43180000D01*
X100330000Y-73660000D02*
X90170000Y-73660000D01*
X100330000Y-43180000D02*
X100330000Y-73660000D01*
X90170000Y-43180000D02*
X100330000Y-43180000D01*
X133350000Y-58420000D02*
X138430000Y-58420000D01*
X130810000Y-73660000D02*
X130810000Y-43180000D01*
X140970000Y-73660000D02*
X130810000Y-73660000D01*
X140970000Y-43180000D02*
X140970000Y-73660000D01*
X130810000Y-43180000D02*
X140970000Y-43180000D01*
D13*
X158690000Y-58360000D02*
X160020000Y-58360000D01*
X158690000Y-59690000D02*
X158690000Y-58360000D01*
X158690000Y-60960000D02*
X161350000Y-60960000D01*
X161350000Y-60960000D02*
X161350000Y-68640000D01*
X158690000Y-60960000D02*
X158690000Y-68640000D01*
X158690000Y-68640000D02*
X161350000Y-68640000D01*
D11*
X113030000Y-58420000D02*
X118110000Y-58420000D01*
X110490000Y-73660000D02*
X110490000Y-43180000D01*
X120650000Y-73660000D02*
X110490000Y-73660000D01*
X120650000Y-43180000D02*
X120650000Y-73660000D01*
X110490000Y-43180000D02*
X120650000Y-43180000D01*
X102870000Y-58420000D02*
X107950000Y-58420000D01*
X100330000Y-73660000D02*
X100330000Y-43180000D01*
X110490000Y-73660000D02*
X100330000Y-73660000D01*
X110490000Y-43180000D02*
X110490000Y-73660000D01*
X100330000Y-43180000D02*
X110490000Y-43180000D01*
D13*
X154880000Y-65980000D02*
X156210000Y-65980000D01*
X154880000Y-67310000D02*
X154880000Y-65980000D01*
X154880000Y-68580000D02*
X157540000Y-68580000D01*
X157540000Y-68580000D02*
X157540000Y-73720000D01*
X154880000Y-68580000D02*
X154880000Y-73720000D01*
X154880000Y-73720000D02*
X157540000Y-73720000D01*
D11*
X140970000Y-58420000D02*
X151130000Y-58420000D01*
X140970000Y-73660000D02*
X140970000Y-58420000D01*
X151130000Y-73660000D02*
X140970000Y-73660000D01*
X151130000Y-58420000D02*
X151130000Y-73660000D01*
X161290000Y-58420000D02*
X151130000Y-58420000D01*
X161290000Y-43180000D02*
X161290000Y-58420000D01*
X151130000Y-43180000D02*
X161290000Y-43180000D01*
X151130000Y-58420000D02*
X151130000Y-43180000D01*
X123190000Y-58420000D02*
X128270000Y-58420000D01*
X120650000Y-73660000D02*
X120650000Y-43180000D01*
X130810000Y-73660000D02*
X120650000Y-73660000D01*
X130810000Y-43180000D02*
X130810000Y-73660000D01*
X120650000Y-43180000D02*
X130810000Y-43180000D01*
X72390000Y-58420000D02*
X77470000Y-58420000D01*
X69850000Y-73660000D02*
X69850000Y-43180000D01*
X80010000Y-73660000D02*
X69850000Y-73660000D01*
X80010000Y-43180000D02*
X80010000Y-73660000D01*
X69850000Y-43180000D02*
X80010000Y-43180000D01*
X62230000Y-58420000D02*
X67310000Y-58420000D01*
X59690000Y-73660000D02*
X59690000Y-43180000D01*
X69850000Y-73660000D02*
X59690000Y-73660000D01*
X69850000Y-43180000D02*
X69850000Y-73660000D01*
X59690000Y-43180000D02*
X69850000Y-43180000D01*
X52070000Y-58420000D02*
X57150000Y-58420000D01*
X49530000Y-73660000D02*
X49530000Y-43180000D01*
X59690000Y-73660000D02*
X49530000Y-73660000D01*
X59690000Y-43180000D02*
X59690000Y-73660000D01*
X49530000Y-43180000D02*
X59690000Y-43180000D01*
X41910000Y-58420000D02*
X46990000Y-58420000D01*
X39370000Y-73660000D02*
X39370000Y-43180000D01*
X49530000Y-73660000D02*
X39370000Y-73660000D01*
X49530000Y-43180000D02*
X49530000Y-73660000D01*
X39370000Y-43180000D02*
X49530000Y-43180000D01*
X82550000Y-100330000D02*
X87630000Y-100330000D01*
X80010000Y-115570000D02*
X80010000Y-85090000D01*
X90170000Y-115570000D02*
X80010000Y-115570000D01*
X90170000Y-85090000D02*
X90170000Y-115570000D01*
X80010000Y-85090000D02*
X90170000Y-85090000D01*
X151130000Y-100330000D02*
X140970000Y-100330000D01*
X151130000Y-85090000D02*
X151130000Y-100330000D01*
X140970000Y-85090000D02*
X151130000Y-85090000D01*
X140970000Y-100330000D02*
X140970000Y-85090000D01*
D13*
X77410000Y-83245000D02*
X77410000Y-81915000D01*
X78740000Y-83245000D02*
X77410000Y-83245000D01*
X80010000Y-83245000D02*
X80010000Y-80585000D01*
X80010000Y-80585000D02*
X108010000Y-80585000D01*
X80010000Y-83245000D02*
X108010000Y-83245000D01*
X108010000Y-83245000D02*
X108010000Y-80585000D01*
D11*
X92710000Y-100330000D02*
X97790000Y-100330000D01*
X90170000Y-115570000D02*
X90170000Y-85090000D01*
X100330000Y-115570000D02*
X90170000Y-115570000D01*
X100330000Y-85090000D02*
X100330000Y-115570000D01*
X90170000Y-85090000D02*
X100330000Y-85090000D01*
X133350000Y-100330000D02*
X138430000Y-100330000D01*
X130810000Y-115570000D02*
X130810000Y-85090000D01*
X140970000Y-115570000D02*
X130810000Y-115570000D01*
X140970000Y-85090000D02*
X140970000Y-115570000D01*
X130810000Y-85090000D02*
X140970000Y-85090000D01*
D13*
X158690000Y-100270000D02*
X160020000Y-100270000D01*
X158690000Y-101600000D02*
X158690000Y-100270000D01*
X158690000Y-102870000D02*
X161350000Y-102870000D01*
X161350000Y-102870000D02*
X161350000Y-110550000D01*
X158690000Y-102870000D02*
X158690000Y-110550000D01*
X158690000Y-110550000D02*
X161350000Y-110550000D01*
D11*
X113030000Y-100330000D02*
X118110000Y-100330000D01*
X110490000Y-115570000D02*
X110490000Y-85090000D01*
X120650000Y-115570000D02*
X110490000Y-115570000D01*
X120650000Y-85090000D02*
X120650000Y-115570000D01*
X110490000Y-85090000D02*
X120650000Y-85090000D01*
X102870000Y-100330000D02*
X107950000Y-100330000D01*
X100330000Y-115570000D02*
X100330000Y-85090000D01*
X110490000Y-115570000D02*
X100330000Y-115570000D01*
X110490000Y-85090000D02*
X110490000Y-115570000D01*
X100330000Y-85090000D02*
X110490000Y-85090000D01*
D13*
X154880000Y-107890000D02*
X156210000Y-107890000D01*
X154880000Y-109220000D02*
X154880000Y-107890000D01*
X154880000Y-110490000D02*
X157540000Y-110490000D01*
X157540000Y-110490000D02*
X157540000Y-115630000D01*
X154880000Y-110490000D02*
X154880000Y-115630000D01*
X154880000Y-115630000D02*
X157540000Y-115630000D01*
D11*
X140970000Y-100330000D02*
X151130000Y-100330000D01*
X140970000Y-115570000D02*
X140970000Y-100330000D01*
X151130000Y-115570000D02*
X140970000Y-115570000D01*
X151130000Y-100330000D02*
X151130000Y-115570000D01*
X161290000Y-100330000D02*
X151130000Y-100330000D01*
X161290000Y-85090000D02*
X161290000Y-100330000D01*
X151130000Y-85090000D02*
X161290000Y-85090000D01*
X151130000Y-100330000D02*
X151130000Y-85090000D01*
X123190000Y-100330000D02*
X128270000Y-100330000D01*
X120650000Y-115570000D02*
X120650000Y-85090000D01*
X130810000Y-115570000D02*
X120650000Y-115570000D01*
X130810000Y-85090000D02*
X130810000Y-115570000D01*
X120650000Y-85090000D02*
X130810000Y-85090000D01*
X72390000Y-100330000D02*
X77470000Y-100330000D01*
X69850000Y-115570000D02*
X69850000Y-85090000D01*
X80010000Y-115570000D02*
X69850000Y-115570000D01*
X80010000Y-85090000D02*
X80010000Y-115570000D01*
X69850000Y-85090000D02*
X80010000Y-85090000D01*
X62230000Y-100330000D02*
X67310000Y-100330000D01*
X59690000Y-115570000D02*
X59690000Y-85090000D01*
X69850000Y-115570000D02*
X59690000Y-115570000D01*
X69850000Y-85090000D02*
X69850000Y-115570000D01*
X59690000Y-85090000D02*
X69850000Y-85090000D01*
X52070000Y-100330000D02*
X57150000Y-100330000D01*
X49530000Y-115570000D02*
X49530000Y-85090000D01*
X59690000Y-115570000D02*
X49530000Y-115570000D01*
X59690000Y-85090000D02*
X59690000Y-115570000D01*
X49530000Y-85090000D02*
X59690000Y-85090000D01*
X41910000Y-100330000D02*
X46990000Y-100330000D01*
X39370000Y-115570000D02*
X39370000Y-85090000D01*
X49530000Y-115570000D02*
X39370000Y-115570000D01*
X49530000Y-85090000D02*
X49530000Y-115570000D01*
X39370000Y-85090000D02*
X49530000Y-85090000D01*
X140970000Y-142240000D02*
X151130000Y-142240000D01*
X140970000Y-157480000D02*
X140970000Y-142240000D01*
X151130000Y-157480000D02*
X140970000Y-157480000D01*
X151130000Y-142240000D02*
X151130000Y-157480000D01*
X151130000Y-142240000D02*
X161290000Y-142240000D01*
X151130000Y-157480000D02*
X151130000Y-142240000D01*
X161290000Y-157480000D02*
X151130000Y-157480000D01*
X161290000Y-142240000D02*
X161290000Y-157480000D01*
X59690000Y-142240000D02*
X69850000Y-142240000D01*
X59690000Y-157480000D02*
X59690000Y-142240000D01*
X69850000Y-157480000D02*
X59690000Y-157480000D01*
X69850000Y-142240000D02*
X69850000Y-157480000D01*
X69850000Y-142240000D02*
X80010000Y-142240000D01*
X69850000Y-157480000D02*
X69850000Y-142240000D01*
X80010000Y-157480000D02*
X69850000Y-157480000D01*
X80010000Y-142240000D02*
X80010000Y-157480000D01*
X151130000Y-142240000D02*
X140970000Y-142240000D01*
X151130000Y-127000000D02*
X151130000Y-142240000D01*
X140970000Y-127000000D02*
X151130000Y-127000000D01*
X140970000Y-142240000D02*
X140970000Y-127000000D01*
X80010000Y-142240000D02*
X69850000Y-142240000D01*
X80010000Y-127000000D02*
X80010000Y-142240000D01*
X69850000Y-127000000D02*
X80010000Y-127000000D01*
X69850000Y-142240000D02*
X69850000Y-127000000D01*
X49530000Y-142240000D02*
X39370000Y-142240000D01*
X49530000Y-127000000D02*
X49530000Y-142240000D01*
X39370000Y-127000000D02*
X49530000Y-127000000D01*
X39370000Y-142240000D02*
X39370000Y-127000000D01*
X39370000Y-142240000D02*
X49530000Y-142240000D01*
X39370000Y-157480000D02*
X39370000Y-142240000D01*
X49530000Y-157480000D02*
X39370000Y-157480000D01*
X49530000Y-142240000D02*
X49530000Y-157480000D01*
X59690000Y-142240000D02*
X49530000Y-142240000D01*
X59690000Y-127000000D02*
X59690000Y-142240000D01*
X49530000Y-127000000D02*
X59690000Y-127000000D01*
X49530000Y-142240000D02*
X49530000Y-127000000D01*
X49530000Y-142240000D02*
X59690000Y-142240000D01*
X49530000Y-157480000D02*
X49530000Y-142240000D01*
X59690000Y-157480000D02*
X49530000Y-157480000D01*
X59690000Y-142240000D02*
X59690000Y-157480000D01*
X123190000Y-142240000D02*
X128270000Y-142240000D01*
X120650000Y-157480000D02*
X120650000Y-127000000D01*
X130810000Y-157480000D02*
X120650000Y-157480000D01*
X130810000Y-127000000D02*
X130810000Y-157480000D01*
X120650000Y-127000000D02*
X130810000Y-127000000D01*
X113030000Y-142240000D02*
X118110000Y-142240000D01*
X110490000Y-157480000D02*
X110490000Y-127000000D01*
X120650000Y-157480000D02*
X110490000Y-157480000D01*
X120650000Y-127000000D02*
X120650000Y-157480000D01*
X110490000Y-127000000D02*
X120650000Y-127000000D01*
X102870000Y-142240000D02*
X107950000Y-142240000D01*
X100330000Y-157480000D02*
X100330000Y-127000000D01*
X110490000Y-157480000D02*
X100330000Y-157480000D01*
X110490000Y-127000000D02*
X110490000Y-157480000D01*
X100330000Y-127000000D02*
X110490000Y-127000000D01*
X92710000Y-142240000D02*
X97790000Y-142240000D01*
X90170000Y-157480000D02*
X90170000Y-127000000D01*
X100330000Y-157480000D02*
X90170000Y-157480000D01*
X100330000Y-127000000D02*
X100330000Y-157480000D01*
X90170000Y-127000000D02*
X100330000Y-127000000D01*
X82550000Y-142240000D02*
X87630000Y-142240000D01*
X80010000Y-157480000D02*
X80010000Y-127000000D01*
X90170000Y-157480000D02*
X80010000Y-157480000D01*
X90170000Y-127000000D02*
X90170000Y-157480000D01*
X80010000Y-127000000D02*
X90170000Y-127000000D01*
X133350000Y-142240000D02*
X138430000Y-142240000D01*
X130810000Y-157480000D02*
X130810000Y-127000000D01*
X140970000Y-157480000D02*
X130810000Y-157480000D01*
X140970000Y-127000000D02*
X140970000Y-157480000D01*
X130810000Y-127000000D02*
X140970000Y-127000000D01*
D13*
X66100000Y-137220000D02*
X64770000Y-137220000D01*
X66100000Y-135890000D02*
X66100000Y-137220000D01*
X66100000Y-134620000D02*
X63440000Y-134620000D01*
X63440000Y-134620000D02*
X63440000Y-126940000D01*
X66100000Y-134620000D02*
X66100000Y-126940000D01*
X66100000Y-126940000D02*
X63440000Y-126940000D01*
X154880000Y-126940000D02*
X156210000Y-126940000D01*
X154880000Y-128270000D02*
X154880000Y-126940000D01*
X154880000Y-129540000D02*
X157540000Y-129540000D01*
X157540000Y-129540000D02*
X157540000Y-137220000D01*
X154880000Y-129540000D02*
X154880000Y-137220000D01*
X154880000Y-137220000D02*
X157540000Y-137220000D01*
X108010000Y-125155000D02*
X108010000Y-122495000D01*
X80010000Y-125155000D02*
X108010000Y-125155000D01*
X80010000Y-122495000D02*
X108010000Y-122495000D01*
X80010000Y-125155000D02*
X80010000Y-122495000D01*
X78740000Y-125155000D02*
X77410000Y-125155000D01*
X77410000Y-125155000D02*
X77410000Y-123825000D01*
D12*
X84756666Y-59142380D02*
X84756666Y-59856666D01*
X84709047Y-59999523D01*
X84613809Y-60094761D01*
X84470952Y-60142380D01*
X84375714Y-60142380D01*
X85709047Y-59142380D02*
X85232857Y-59142380D01*
X85185238Y-59618571D01*
X85232857Y-59570952D01*
X85328095Y-59523333D01*
X85566190Y-59523333D01*
X85661428Y-59570952D01*
X85709047Y-59618571D01*
X85756666Y-59713809D01*
X85756666Y-59951904D01*
X85709047Y-60047142D01*
X85661428Y-60094761D01*
X85566190Y-60142380D01*
X85328095Y-60142380D01*
X85232857Y-60094761D01*
X85185238Y-60047142D01*
X145240476Y-56602380D02*
X145240476Y-57316666D01*
X145192857Y-57459523D01*
X145097619Y-57554761D01*
X144954761Y-57602380D01*
X144859523Y-57602380D01*
X145621428Y-56602380D02*
X146288095Y-57602380D01*
X146288095Y-56602380D02*
X145621428Y-57602380D01*
X147192857Y-57602380D02*
X146621428Y-57602380D01*
X146907142Y-57602380D02*
X146907142Y-56602380D01*
X146811904Y-56745238D01*
X146716666Y-56840476D01*
X146621428Y-56888095D01*
X94916666Y-59142380D02*
X94916666Y-59856666D01*
X94869047Y-59999523D01*
X94773809Y-60094761D01*
X94630952Y-60142380D01*
X94535714Y-60142380D01*
X95821428Y-59142380D02*
X95630952Y-59142380D01*
X95535714Y-59190000D01*
X95488095Y-59237619D01*
X95392857Y-59380476D01*
X95345238Y-59570952D01*
X95345238Y-59951904D01*
X95392857Y-60047142D01*
X95440476Y-60094761D01*
X95535714Y-60142380D01*
X95726190Y-60142380D01*
X95821428Y-60094761D01*
X95869047Y-60047142D01*
X95916666Y-59951904D01*
X95916666Y-59713809D01*
X95869047Y-59618571D01*
X95821428Y-59570952D01*
X95726190Y-59523333D01*
X95535714Y-59523333D01*
X95440476Y-59570952D01*
X95392857Y-59618571D01*
X95345238Y-59713809D01*
X135556666Y-59142380D02*
X135556666Y-59856666D01*
X135509047Y-59999523D01*
X135413809Y-60094761D01*
X135270952Y-60142380D01*
X135175714Y-60142380D01*
X136223333Y-59142380D02*
X136318571Y-59142380D01*
X136413809Y-59190000D01*
X136461428Y-59237619D01*
X136509047Y-59332857D01*
X136556666Y-59523333D01*
X136556666Y-59761428D01*
X136509047Y-59951904D01*
X136461428Y-60047142D01*
X136413809Y-60094761D01*
X136318571Y-60142380D01*
X136223333Y-60142380D01*
X136128095Y-60094761D01*
X136080476Y-60047142D01*
X136032857Y-59951904D01*
X135985238Y-59761428D01*
X135985238Y-59523333D01*
X136032857Y-59332857D01*
X136080476Y-59237619D01*
X136128095Y-59190000D01*
X136223333Y-59142380D01*
X115236666Y-59142380D02*
X115236666Y-59856666D01*
X115189047Y-59999523D01*
X115093809Y-60094761D01*
X114950952Y-60142380D01*
X114855714Y-60142380D01*
X115855714Y-59570952D02*
X115760476Y-59523333D01*
X115712857Y-59475714D01*
X115665238Y-59380476D01*
X115665238Y-59332857D01*
X115712857Y-59237619D01*
X115760476Y-59190000D01*
X115855714Y-59142380D01*
X116046190Y-59142380D01*
X116141428Y-59190000D01*
X116189047Y-59237619D01*
X116236666Y-59332857D01*
X116236666Y-59380476D01*
X116189047Y-59475714D01*
X116141428Y-59523333D01*
X116046190Y-59570952D01*
X115855714Y-59570952D01*
X115760476Y-59618571D01*
X115712857Y-59666190D01*
X115665238Y-59761428D01*
X115665238Y-59951904D01*
X115712857Y-60047142D01*
X115760476Y-60094761D01*
X115855714Y-60142380D01*
X116046190Y-60142380D01*
X116141428Y-60094761D01*
X116189047Y-60047142D01*
X116236666Y-59951904D01*
X116236666Y-59761428D01*
X116189047Y-59666190D01*
X116141428Y-59618571D01*
X116046190Y-59570952D01*
X105076666Y-59142380D02*
X105076666Y-59856666D01*
X105029047Y-59999523D01*
X104933809Y-60094761D01*
X104790952Y-60142380D01*
X104695714Y-60142380D01*
X105457619Y-59142380D02*
X106124285Y-59142380D01*
X105695714Y-60142380D01*
X145288095Y-59142380D02*
X145288095Y-59856666D01*
X145240476Y-59999523D01*
X145145238Y-60094761D01*
X145002380Y-60142380D01*
X144907142Y-60142380D01*
X145954761Y-59666190D02*
X145954761Y-60142380D01*
X145621428Y-59142380D02*
X145954761Y-59666190D01*
X146288095Y-59142380D01*
X147145238Y-60142380D02*
X146573809Y-60142380D01*
X146859523Y-60142380D02*
X146859523Y-59142380D01*
X146764285Y-59285238D01*
X146669047Y-59380476D01*
X146573809Y-59428095D01*
X155495714Y-56602380D02*
X155495714Y-57316666D01*
X155448095Y-57459523D01*
X155352857Y-57554761D01*
X155210000Y-57602380D01*
X155114761Y-57602380D01*
X155829047Y-56602380D02*
X156400476Y-56602380D01*
X156114761Y-57602380D02*
X156114761Y-56602380D01*
X157257619Y-57602380D02*
X156686190Y-57602380D01*
X156971904Y-57602380D02*
X156971904Y-56602380D01*
X156876666Y-56745238D01*
X156781428Y-56840476D01*
X156686190Y-56888095D01*
X125396666Y-59142380D02*
X125396666Y-59856666D01*
X125349047Y-59999523D01*
X125253809Y-60094761D01*
X125110952Y-60142380D01*
X125015714Y-60142380D01*
X125920476Y-60142380D02*
X126110952Y-60142380D01*
X126206190Y-60094761D01*
X126253809Y-60047142D01*
X126349047Y-59904285D01*
X126396666Y-59713809D01*
X126396666Y-59332857D01*
X126349047Y-59237619D01*
X126301428Y-59190000D01*
X126206190Y-59142380D01*
X126015714Y-59142380D01*
X125920476Y-59190000D01*
X125872857Y-59237619D01*
X125825238Y-59332857D01*
X125825238Y-59570952D01*
X125872857Y-59666190D01*
X125920476Y-59713809D01*
X126015714Y-59761428D01*
X126206190Y-59761428D01*
X126301428Y-59713809D01*
X126349047Y-59666190D01*
X126396666Y-59570952D01*
X74596666Y-59142380D02*
X74596666Y-59856666D01*
X74549047Y-59999523D01*
X74453809Y-60094761D01*
X74310952Y-60142380D01*
X74215714Y-60142380D01*
X75501428Y-59475714D02*
X75501428Y-60142380D01*
X75263333Y-59094761D02*
X75025238Y-59809047D01*
X75644285Y-59809047D01*
X64436666Y-59142380D02*
X64436666Y-59856666D01*
X64389047Y-59999523D01*
X64293809Y-60094761D01*
X64150952Y-60142380D01*
X64055714Y-60142380D01*
X64817619Y-59142380D02*
X65436666Y-59142380D01*
X65103333Y-59523333D01*
X65246190Y-59523333D01*
X65341428Y-59570952D01*
X65389047Y-59618571D01*
X65436666Y-59713809D01*
X65436666Y-59951904D01*
X65389047Y-60047142D01*
X65341428Y-60094761D01*
X65246190Y-60142380D01*
X64960476Y-60142380D01*
X64865238Y-60094761D01*
X64817619Y-60047142D01*
X54276666Y-59142380D02*
X54276666Y-59856666D01*
X54229047Y-59999523D01*
X54133809Y-60094761D01*
X53990952Y-60142380D01*
X53895714Y-60142380D01*
X54705238Y-59237619D02*
X54752857Y-59190000D01*
X54848095Y-59142380D01*
X55086190Y-59142380D01*
X55181428Y-59190000D01*
X55229047Y-59237619D01*
X55276666Y-59332857D01*
X55276666Y-59428095D01*
X55229047Y-59570952D01*
X54657619Y-60142380D01*
X55276666Y-60142380D01*
X44116666Y-59142380D02*
X44116666Y-59856666D01*
X44069047Y-59999523D01*
X43973809Y-60094761D01*
X43830952Y-60142380D01*
X43735714Y-60142380D01*
X45116666Y-60142380D02*
X44545238Y-60142380D01*
X44830952Y-60142380D02*
X44830952Y-59142380D01*
X44735714Y-59285238D01*
X44640476Y-59380476D01*
X44545238Y-59428095D01*
X84756666Y-101052380D02*
X84756666Y-101766666D01*
X84709047Y-101909523D01*
X84613809Y-102004761D01*
X84470952Y-102052380D01*
X84375714Y-102052380D01*
X85709047Y-101052380D02*
X85232857Y-101052380D01*
X85185238Y-101528571D01*
X85232857Y-101480952D01*
X85328095Y-101433333D01*
X85566190Y-101433333D01*
X85661428Y-101480952D01*
X85709047Y-101528571D01*
X85756666Y-101623809D01*
X85756666Y-101861904D01*
X85709047Y-101957142D01*
X85661428Y-102004761D01*
X85566190Y-102052380D01*
X85328095Y-102052380D01*
X85232857Y-102004761D01*
X85185238Y-101957142D01*
X145240476Y-98512380D02*
X145240476Y-99226666D01*
X145192857Y-99369523D01*
X145097619Y-99464761D01*
X144954761Y-99512380D01*
X144859523Y-99512380D01*
X145621428Y-98512380D02*
X146288095Y-99512380D01*
X146288095Y-98512380D02*
X145621428Y-99512380D01*
X147192857Y-99512380D02*
X146621428Y-99512380D01*
X146907142Y-99512380D02*
X146907142Y-98512380D01*
X146811904Y-98655238D01*
X146716666Y-98750476D01*
X146621428Y-98798095D01*
X94916666Y-101052380D02*
X94916666Y-101766666D01*
X94869047Y-101909523D01*
X94773809Y-102004761D01*
X94630952Y-102052380D01*
X94535714Y-102052380D01*
X95821428Y-101052380D02*
X95630952Y-101052380D01*
X95535714Y-101100000D01*
X95488095Y-101147619D01*
X95392857Y-101290476D01*
X95345238Y-101480952D01*
X95345238Y-101861904D01*
X95392857Y-101957142D01*
X95440476Y-102004761D01*
X95535714Y-102052380D01*
X95726190Y-102052380D01*
X95821428Y-102004761D01*
X95869047Y-101957142D01*
X95916666Y-101861904D01*
X95916666Y-101623809D01*
X95869047Y-101528571D01*
X95821428Y-101480952D01*
X95726190Y-101433333D01*
X95535714Y-101433333D01*
X95440476Y-101480952D01*
X95392857Y-101528571D01*
X95345238Y-101623809D01*
X135556666Y-101052380D02*
X135556666Y-101766666D01*
X135509047Y-101909523D01*
X135413809Y-102004761D01*
X135270952Y-102052380D01*
X135175714Y-102052380D01*
X136223333Y-101052380D02*
X136318571Y-101052380D01*
X136413809Y-101100000D01*
X136461428Y-101147619D01*
X136509047Y-101242857D01*
X136556666Y-101433333D01*
X136556666Y-101671428D01*
X136509047Y-101861904D01*
X136461428Y-101957142D01*
X136413809Y-102004761D01*
X136318571Y-102052380D01*
X136223333Y-102052380D01*
X136128095Y-102004761D01*
X136080476Y-101957142D01*
X136032857Y-101861904D01*
X135985238Y-101671428D01*
X135985238Y-101433333D01*
X136032857Y-101242857D01*
X136080476Y-101147619D01*
X136128095Y-101100000D01*
X136223333Y-101052380D01*
X115236666Y-101052380D02*
X115236666Y-101766666D01*
X115189047Y-101909523D01*
X115093809Y-102004761D01*
X114950952Y-102052380D01*
X114855714Y-102052380D01*
X115855714Y-101480952D02*
X115760476Y-101433333D01*
X115712857Y-101385714D01*
X115665238Y-101290476D01*
X115665238Y-101242857D01*
X115712857Y-101147619D01*
X115760476Y-101100000D01*
X115855714Y-101052380D01*
X116046190Y-101052380D01*
X116141428Y-101100000D01*
X116189047Y-101147619D01*
X116236666Y-101242857D01*
X116236666Y-101290476D01*
X116189047Y-101385714D01*
X116141428Y-101433333D01*
X116046190Y-101480952D01*
X115855714Y-101480952D01*
X115760476Y-101528571D01*
X115712857Y-101576190D01*
X115665238Y-101671428D01*
X115665238Y-101861904D01*
X115712857Y-101957142D01*
X115760476Y-102004761D01*
X115855714Y-102052380D01*
X116046190Y-102052380D01*
X116141428Y-102004761D01*
X116189047Y-101957142D01*
X116236666Y-101861904D01*
X116236666Y-101671428D01*
X116189047Y-101576190D01*
X116141428Y-101528571D01*
X116046190Y-101480952D01*
X105076666Y-101052380D02*
X105076666Y-101766666D01*
X105029047Y-101909523D01*
X104933809Y-102004761D01*
X104790952Y-102052380D01*
X104695714Y-102052380D01*
X105457619Y-101052380D02*
X106124285Y-101052380D01*
X105695714Y-102052380D01*
X145288095Y-101052380D02*
X145288095Y-101766666D01*
X145240476Y-101909523D01*
X145145238Y-102004761D01*
X145002380Y-102052380D01*
X144907142Y-102052380D01*
X145954761Y-101576190D02*
X145954761Y-102052380D01*
X145621428Y-101052380D02*
X145954761Y-101576190D01*
X146288095Y-101052380D01*
X147145238Y-102052380D02*
X146573809Y-102052380D01*
X146859523Y-102052380D02*
X146859523Y-101052380D01*
X146764285Y-101195238D01*
X146669047Y-101290476D01*
X146573809Y-101338095D01*
X155495714Y-98512380D02*
X155495714Y-99226666D01*
X155448095Y-99369523D01*
X155352857Y-99464761D01*
X155210000Y-99512380D01*
X155114761Y-99512380D01*
X155829047Y-98512380D02*
X156400476Y-98512380D01*
X156114761Y-99512380D02*
X156114761Y-98512380D01*
X157257619Y-99512380D02*
X156686190Y-99512380D01*
X156971904Y-99512380D02*
X156971904Y-98512380D01*
X156876666Y-98655238D01*
X156781428Y-98750476D01*
X156686190Y-98798095D01*
X125396666Y-101052380D02*
X125396666Y-101766666D01*
X125349047Y-101909523D01*
X125253809Y-102004761D01*
X125110952Y-102052380D01*
X125015714Y-102052380D01*
X125920476Y-102052380D02*
X126110952Y-102052380D01*
X126206190Y-102004761D01*
X126253809Y-101957142D01*
X126349047Y-101814285D01*
X126396666Y-101623809D01*
X126396666Y-101242857D01*
X126349047Y-101147619D01*
X126301428Y-101100000D01*
X126206190Y-101052380D01*
X126015714Y-101052380D01*
X125920476Y-101100000D01*
X125872857Y-101147619D01*
X125825238Y-101242857D01*
X125825238Y-101480952D01*
X125872857Y-101576190D01*
X125920476Y-101623809D01*
X126015714Y-101671428D01*
X126206190Y-101671428D01*
X126301428Y-101623809D01*
X126349047Y-101576190D01*
X126396666Y-101480952D01*
X74596666Y-101052380D02*
X74596666Y-101766666D01*
X74549047Y-101909523D01*
X74453809Y-102004761D01*
X74310952Y-102052380D01*
X74215714Y-102052380D01*
X75501428Y-101385714D02*
X75501428Y-102052380D01*
X75263333Y-101004761D02*
X75025238Y-101719047D01*
X75644285Y-101719047D01*
X64436666Y-101052380D02*
X64436666Y-101766666D01*
X64389047Y-101909523D01*
X64293809Y-102004761D01*
X64150952Y-102052380D01*
X64055714Y-102052380D01*
X64817619Y-101052380D02*
X65436666Y-101052380D01*
X65103333Y-101433333D01*
X65246190Y-101433333D01*
X65341428Y-101480952D01*
X65389047Y-101528571D01*
X65436666Y-101623809D01*
X65436666Y-101861904D01*
X65389047Y-101957142D01*
X65341428Y-102004761D01*
X65246190Y-102052380D01*
X64960476Y-102052380D01*
X64865238Y-102004761D01*
X64817619Y-101957142D01*
X54276666Y-101052380D02*
X54276666Y-101766666D01*
X54229047Y-101909523D01*
X54133809Y-102004761D01*
X53990952Y-102052380D01*
X53895714Y-102052380D01*
X54705238Y-101147619D02*
X54752857Y-101100000D01*
X54848095Y-101052380D01*
X55086190Y-101052380D01*
X55181428Y-101100000D01*
X55229047Y-101147619D01*
X55276666Y-101242857D01*
X55276666Y-101338095D01*
X55229047Y-101480952D01*
X54657619Y-102052380D01*
X55276666Y-102052380D01*
X44116666Y-101052380D02*
X44116666Y-101766666D01*
X44069047Y-101909523D01*
X43973809Y-102004761D01*
X43830952Y-102052380D01*
X43735714Y-102052380D01*
X45116666Y-102052380D02*
X44545238Y-102052380D01*
X44830952Y-102052380D02*
X44830952Y-101052380D01*
X44735714Y-101195238D01*
X44640476Y-101290476D01*
X44545238Y-101338095D01*
X145288095Y-145502380D02*
X145288095Y-146216666D01*
X145240476Y-146359523D01*
X145145238Y-146454761D01*
X145002380Y-146502380D01*
X144907142Y-146502380D01*
X145954761Y-146026190D02*
X145954761Y-146502380D01*
X145621428Y-145502380D02*
X145954761Y-146026190D01*
X146288095Y-145502380D01*
X146573809Y-145597619D02*
X146621428Y-145550000D01*
X146716666Y-145502380D01*
X146954761Y-145502380D01*
X147050000Y-145550000D01*
X147097619Y-145597619D01*
X147145238Y-145692857D01*
X147145238Y-145788095D01*
X147097619Y-145930952D01*
X146526190Y-146502380D01*
X147145238Y-146502380D01*
X155495714Y-145502380D02*
X155495714Y-146216666D01*
X155448095Y-146359523D01*
X155352857Y-146454761D01*
X155210000Y-146502380D01*
X155114761Y-146502380D01*
X155829047Y-145502380D02*
X156400476Y-145502380D01*
X156114761Y-146502380D02*
X156114761Y-145502380D01*
X156686190Y-145597619D02*
X156733809Y-145550000D01*
X156829047Y-145502380D01*
X157067142Y-145502380D01*
X157162380Y-145550000D01*
X157210000Y-145597619D01*
X157257619Y-145692857D01*
X157257619Y-145788095D01*
X157210000Y-145930952D01*
X156638571Y-146502380D01*
X157257619Y-146502380D01*
X63960476Y-145502380D02*
X63960476Y-146216666D01*
X63912857Y-146359523D01*
X63817619Y-146454761D01*
X63674761Y-146502380D01*
X63579523Y-146502380D01*
X64341428Y-145502380D02*
X65008095Y-145502380D01*
X64341428Y-146502380D01*
X65008095Y-146502380D01*
X65912857Y-146502380D02*
X65341428Y-146502380D01*
X65627142Y-146502380D02*
X65627142Y-145502380D01*
X65531904Y-145645238D01*
X65436666Y-145740476D01*
X65341428Y-145788095D01*
X74168095Y-145502380D02*
X74168095Y-146216666D01*
X74120476Y-146359523D01*
X74025238Y-146454761D01*
X73882380Y-146502380D01*
X73787142Y-146502380D01*
X74834761Y-146026190D02*
X74834761Y-146502380D01*
X74501428Y-145502380D02*
X74834761Y-146026190D01*
X75168095Y-145502380D01*
X76025238Y-146502380D02*
X75453809Y-146502380D01*
X75739523Y-146502380D02*
X75739523Y-145502380D01*
X75644285Y-145645238D01*
X75549047Y-145740476D01*
X75453809Y-145788095D01*
X145240476Y-137882380D02*
X145240476Y-138596666D01*
X145192857Y-138739523D01*
X145097619Y-138834761D01*
X144954761Y-138882380D01*
X144859523Y-138882380D01*
X145621428Y-137882380D02*
X146288095Y-138882380D01*
X146288095Y-137882380D02*
X145621428Y-138882380D01*
X146621428Y-137977619D02*
X146669047Y-137930000D01*
X146764285Y-137882380D01*
X147002380Y-137882380D01*
X147097619Y-137930000D01*
X147145238Y-137977619D01*
X147192857Y-138072857D01*
X147192857Y-138168095D01*
X147145238Y-138310952D01*
X146573809Y-138882380D01*
X147192857Y-138882380D01*
X74120476Y-137882380D02*
X74120476Y-138596666D01*
X74072857Y-138739523D01*
X73977619Y-138834761D01*
X73834761Y-138882380D01*
X73739523Y-138882380D01*
X74501428Y-137882380D02*
X75168095Y-138882380D01*
X75168095Y-137882380D02*
X74501428Y-138882380D01*
X76072857Y-138882380D02*
X75501428Y-138882380D01*
X75787142Y-138882380D02*
X75787142Y-137882380D01*
X75691904Y-138025238D01*
X75596666Y-138120476D01*
X75501428Y-138168095D01*
X43592857Y-137882380D02*
X43592857Y-138596666D01*
X43545238Y-138739523D01*
X43450000Y-138834761D01*
X43307142Y-138882380D01*
X43211904Y-138882380D01*
X44069047Y-138882380D02*
X44069047Y-137882380D01*
X44640476Y-138882380D01*
X44640476Y-137882380D01*
X45069047Y-137977619D02*
X45116666Y-137930000D01*
X45211904Y-137882380D01*
X45450000Y-137882380D01*
X45545238Y-137930000D01*
X45592857Y-137977619D01*
X45640476Y-138072857D01*
X45640476Y-138168095D01*
X45592857Y-138310952D01*
X45021428Y-138882380D01*
X45640476Y-138882380D01*
X43592857Y-145502380D02*
X43592857Y-146216666D01*
X43545238Y-146359523D01*
X43450000Y-146454761D01*
X43307142Y-146502380D01*
X43211904Y-146502380D01*
X44069047Y-146502380D02*
X44069047Y-145502380D01*
X44640476Y-146502380D01*
X44640476Y-145502380D01*
X45640476Y-146502380D02*
X45069047Y-146502380D01*
X45354761Y-146502380D02*
X45354761Y-145502380D01*
X45259523Y-145645238D01*
X45164285Y-145740476D01*
X45069047Y-145788095D01*
X53705238Y-137882380D02*
X53705238Y-138596666D01*
X53657619Y-138739523D01*
X53562380Y-138834761D01*
X53419523Y-138882380D01*
X53324285Y-138882380D01*
X54181428Y-138882380D02*
X54181428Y-137882380D01*
X54514761Y-138596666D01*
X54848095Y-137882380D01*
X54848095Y-138882380D01*
X55276666Y-137977619D02*
X55324285Y-137930000D01*
X55419523Y-137882380D01*
X55657619Y-137882380D01*
X55752857Y-137930000D01*
X55800476Y-137977619D01*
X55848095Y-138072857D01*
X55848095Y-138168095D01*
X55800476Y-138310952D01*
X55229047Y-138882380D01*
X55848095Y-138882380D01*
X53705238Y-145502380D02*
X53705238Y-146216666D01*
X53657619Y-146359523D01*
X53562380Y-146454761D01*
X53419523Y-146502380D01*
X53324285Y-146502380D01*
X54181428Y-146502380D02*
X54181428Y-145502380D01*
X54514761Y-146216666D01*
X54848095Y-145502380D01*
X54848095Y-146502380D01*
X55848095Y-146502380D02*
X55276666Y-146502380D01*
X55562380Y-146502380D02*
X55562380Y-145502380D01*
X55467142Y-145645238D01*
X55371904Y-145740476D01*
X55276666Y-145788095D01*
X125396666Y-142962380D02*
X125396666Y-143676666D01*
X125349047Y-143819523D01*
X125253809Y-143914761D01*
X125110952Y-143962380D01*
X125015714Y-143962380D01*
X126349047Y-142962380D02*
X125872857Y-142962380D01*
X125825238Y-143438571D01*
X125872857Y-143390952D01*
X125968095Y-143343333D01*
X126206190Y-143343333D01*
X126301428Y-143390952D01*
X126349047Y-143438571D01*
X126396666Y-143533809D01*
X126396666Y-143771904D01*
X126349047Y-143867142D01*
X126301428Y-143914761D01*
X126206190Y-143962380D01*
X125968095Y-143962380D01*
X125872857Y-143914761D01*
X125825238Y-143867142D01*
X115236666Y-142962380D02*
X115236666Y-143676666D01*
X115189047Y-143819523D01*
X115093809Y-143914761D01*
X114950952Y-143962380D01*
X114855714Y-143962380D01*
X116141428Y-143295714D02*
X116141428Y-143962380D01*
X115903333Y-142914761D02*
X115665238Y-143629047D01*
X116284285Y-143629047D01*
X105076666Y-142962380D02*
X105076666Y-143676666D01*
X105029047Y-143819523D01*
X104933809Y-143914761D01*
X104790952Y-143962380D01*
X104695714Y-143962380D01*
X105457619Y-142962380D02*
X106076666Y-142962380D01*
X105743333Y-143343333D01*
X105886190Y-143343333D01*
X105981428Y-143390952D01*
X106029047Y-143438571D01*
X106076666Y-143533809D01*
X106076666Y-143771904D01*
X106029047Y-143867142D01*
X105981428Y-143914761D01*
X105886190Y-143962380D01*
X105600476Y-143962380D01*
X105505238Y-143914761D01*
X105457619Y-143867142D01*
X94916666Y-142962380D02*
X94916666Y-143676666D01*
X94869047Y-143819523D01*
X94773809Y-143914761D01*
X94630952Y-143962380D01*
X94535714Y-143962380D01*
X95345238Y-143057619D02*
X95392857Y-143010000D01*
X95488095Y-142962380D01*
X95726190Y-142962380D01*
X95821428Y-143010000D01*
X95869047Y-143057619D01*
X95916666Y-143152857D01*
X95916666Y-143248095D01*
X95869047Y-143390952D01*
X95297619Y-143962380D01*
X95916666Y-143962380D01*
X84756666Y-142962380D02*
X84756666Y-143676666D01*
X84709047Y-143819523D01*
X84613809Y-143914761D01*
X84470952Y-143962380D01*
X84375714Y-143962380D01*
X85756666Y-143962380D02*
X85185238Y-143962380D01*
X85470952Y-143962380D02*
X85470952Y-142962380D01*
X85375714Y-143105238D01*
X85280476Y-143200476D01*
X85185238Y-143248095D01*
X135556666Y-142962380D02*
X135556666Y-143676666D01*
X135509047Y-143819523D01*
X135413809Y-143914761D01*
X135270952Y-143962380D01*
X135175714Y-143962380D01*
X136223333Y-142962380D02*
X136318571Y-142962380D01*
X136413809Y-143010000D01*
X136461428Y-143057619D01*
X136509047Y-143152857D01*
X136556666Y-143343333D01*
X136556666Y-143581428D01*
X136509047Y-143771904D01*
X136461428Y-143867142D01*
X136413809Y-143914761D01*
X136318571Y-143962380D01*
X136223333Y-143962380D01*
X136128095Y-143914761D01*
X136080476Y-143867142D01*
X136032857Y-143771904D01*
X135985238Y-143581428D01*
X135985238Y-143343333D01*
X136032857Y-143152857D01*
X136080476Y-143057619D01*
X136128095Y-143010000D01*
X136223333Y-142962380D01*
M02*
